# 3ds Max Wavefront OBJ Exporter v0.97b - (c)2007 guruware
# File Created: 21.05.2020 16:41:27

mtllib house.mtl

#
# object lowpoly_tower_rock_doorMax_headusOBJexport
#

v  550.3417 207.2715 -211.7447
v  550.5088 -52.4653 -211.7447
v  386.2299 129.0915 -211.7447
v  386.2299 218.5533 -211.7447
v  551.9952 73.5540 203.2342
v  551.9952 26.1322 183.4124
v  551.9952 -52.4656 -210.2322
v  329.6114 297.0149 -219.2431
v  95.2711 369.4156 -226.2243
v  95.4503 378.2664 -219.2432
v  332.3051 297.7350 221.5392
v  337.3938 282.5576 -1.6049
v  95.4503 373.5693 -12.4022
v  94.6753 379.6821 221.5392
v  94.6394 371.6223 227.2305
v  94.5257 360.6242 213.9204
v  552.0253 203.5171 213.9102
v  578.7833 208.0764 227.2350
v  581.0438 215.0275 -219.2432
v  580.5785 214.6013 -159.0193
v  578.7833 207.2526 -158.7480
v  578.7833 207.1227 -226.2243
v  132.1205 -52.4661 206.4064
v  265.6969 -52.8698 206.4064
v  265.7112 202.8226 206.4064
v  132.1198 353.2093 206.4064
v  549.2521 -52.4684 206.4064
v  548.4196 9.9267 206.4064
v  539.7296 27.4969 206.4064
v  396.0972 -52.8701 206.4064
v  548.4465 73.3594 206.4064
v  397.0296 203.9206 206.4064
v  132.1189 356.5408 -211.7447
v  282.1327 221.6442 -211.7447
v  281.3581 129.0915 -211.7447
v  132.1189 -52.4664 -211.7447
v  380.1168 137.2339 -195.4737
v  291.9311 137.2339 -195.4736
v  291.9311 207.1057 -195.4736
v  380.1168 207.1057 -195.4737
v  580.3198 214.3643 -128.7010
v  560.1523 221.0542 -139.4263
v  380.1168 137.2339 -217.0670
v  380.1168 207.1057 -217.0670
v  394.4106 228.0818 -217.0669
v  394.4098 113.4291 -217.0669
v  394.4106 228.0818 -208.0765
v  394.4098 113.4291 -208.0765
v  277.2372 228.0818 -217.0670
v  277.2371 228.0818 -208.0766
v  291.9311 207.1057 -217.0669
v  277.2319 113.4407 -217.0670
v  277.2318 113.4407 -208.0766
v  291.9311 137.2339 -217.0669
v  548.8721 208.3160 206.4064
v  581.0682 214.9145 221.5444
v  551.9952 207.2514 -211.7447
v  551.9952 -52.4653 -211.7447
v  551.9952 207.2514 -209.7778
v  551.9931 77.2468 206.4034
v  551.9952 208.3456 204.6928
v  551.9941 208.3456 206.4051
v  551.9952 -52.4665 203.9337
v  551.9952 11.1628 203.4721
v  551.9926 6.5846 206.4040
v  409.5583 2.8385 190.7478
v  409.0129 2.8385 219.0706
v  409.5915 -15.6210 219.0706
v  409.5583 -52.5401 201.4881
v  409.3011 -15.6210 243.1619
v  409.6248 -34.0806 243.1619
v  252.0276 -52.5400 267.2534
v  252.1000 -34.0806 267.2534
v  252.1000 -34.0806 243.1620
v  252.1273 -52.5401 201.4883
v  252.7785 2.8385 219.0706
v  252.1273 2.8385 190.7480
v  252.0941 -15.6210 219.0707
v  261.0138 -15.6210 243.1620
v  252.1979 -15.6210 231.8018
v  297.7255 99.1064 203.5674
v  296.0074 97.1069 201.3992
v  296.0074 86.6526 201.3992
v  297.7255 84.6570 203.5674
v  299.4434 86.6526 201.3992
v  299.4434 97.1069 201.3992
v  297.7255 99.8817 194.8414
v  296.0074 97.8354 194.8414
v  297.7255 83.8818 194.8414
v  299.4434 86.0705 194.8413
v  296.0074 86.0705 194.8414
v  299.4434 97.8354 194.8413
v  374.3894 142.8258 -200.8943
v  374.3894 201.5139 -200.8943
v  383.7606 210.0572 -200.8943
v  383.7606 134.2824 -200.8943
v  297.6584 201.5139 -200.8940
v  288.2873 210.0572 -200.8941
v  297.6584 142.8258 -200.8940
v  288.2873 134.2824 -200.8941
v  374.3894 142.8258 -192.6332
v  374.3894 201.5139 -192.6332
v  297.6584 201.5139 -192.6330
v  297.6584 142.8258 -192.6330
v  338.0954 205.8921 -199.8642
v  340.5871 138.7303 -199.8642
v  333.5948 138.4241 -199.8644
v  331.1014 205.6327 -199.8644
v  333.5948 138.4241 -192.6342
v  331.1014 205.6327 -192.6342
v  338.0953 205.8921 -192.6342
v  340.5871 138.7303 -192.6342
v  379.1505 169.1469 -198.7820
v  293.1690 165.4339 -198.7815
v  292.8569 171.5701 -198.7817
v  378.9194 175.2866 -198.7820
v  292.8569 171.5701 -192.6349
v  378.9194 175.2866 -192.6351
v  379.1505 169.1469 -192.6351
v  293.1690 165.4339 -192.6349
v  92.3831 352.5345 213.9204
v  92.3831 352.5345 205.0052
v  550.4214 195.7672 205.0052
v  550.4214 195.7672 213.9204
v  92.3831 352.5345 -217.1571
v  550.2801 196.2612 -217.1571
v  550.2801 196.2612 -210.1119
v  92.3831 352.5345 -210.1119
v  550.5098 204.7887 -217.1785
v  94.5257 361.8255 -217.1571
v  556.8818 195.2351 -225.4202
v  556.8818 194.7664 222.1302
v  548.7834 194.7664 222.1303
v  548.7833 195.2351 -225.4200
v  556.8818 206.6001 -225.4449
v  548.7833 206.6000 -225.4447
v  548.7834 206.1313 222.1057
v  556.8818 206.1313 222.1055
v  551.9952 110.2222 -92.2914
v  551.9952 169.7232 -92.2914
v  551.9952 169.7225 -46.7279
v  551.9952 110.2481 -46.7291
v  544.7795 115.3914 -50.8389
v  544.7795 164.5771 -50.8380
v  556.8214 167.7617 -48.2026
v  556.8214 112.2080 -48.2037
v  544.7795 115.3699 -88.1814
v  556.8214 112.1838 -90.8168
v  544.7795 164.5777 -88.1814
v  556.8214 167.7625 -90.8168
v  556.8214 176.3259 -38.0212
v  556.8214 103.6476 -38.0226
v  556.8214 103.6159 -101.6322
v  556.8214 176.3267 -101.6322
v  547.4507 176.3259 -38.0211
v  547.4507 103.6476 -38.0225
v  547.4507 103.6159 -101.6322
v  547.4507 176.3267 -101.6322
v  399.1252 -34.0806 267.2534
v  409.5734 -44.9972 267.2534
v  409.6579 -52.5401 267.2534
v  550.7429 204.5932 -145.1979
v  551.9944 -52.4649 206.4034
v  377.6860 185.7881 196.9159
v  284.4888 185.7881 196.9159
v  284.4888 -4.6044 196.9159
v  377.6860 -4.6044 196.9159
v  261.5443 200.9215 213.1922
v  261.5450 214.1254 202.1218
v  261.5332 -4.6044 202.1218
v  261.5332 -4.6044 213.1923
v  284.4888 185.7881 213.1923
v  284.4888 -4.6044 213.1923
v  377.6860 185.7881 213.1923
v  400.2448 214.1217 213.1923
v  400.2448 -4.6044 213.1923
v  400.2448 -4.6044 202.1218
v  400.2448 214.1310 202.1218
v  377.6860 -4.6044 213.1922
v  270.9362 214.1165 213.1922
v  578.7833 207.3150 -129.1101
# 181 vertices

vn 0.0000 0.0000 -1.0000
vn 1.0000 0.0000 0.0000
vn 0.2092 0.6030 -0.7698
vn 0.3285 0.9433 -0.0487
vn 0.3212 0.9470 -0.0011
vn 0.3386 0.9409 -0.0011
vn 0.3259 0.9451 -0.0236
vn -0.2556 -0.7442 0.6171
vn -0.2301 -0.6811 0.6951
vn 0.9715 -0.2371 0.0058
vn 0.9613 -0.2754 0.0005
vn 0.0000 0.0000 1.0000
vn -0.0000 0.0000 -1.0000
vn 0.2799 0.9598 0.0200
vn 0.3002 0.9533 0.0322
vn 0.3204 0.9464 0.0405
vn 0.3277 0.9445 0.0214
vn -1.0000 0.0000 -0.0000
vn 0.0000 1.0000 0.0000
vn 0.0000 -1.0000 0.0000
vn -0.0001 -1.0000 0.0000
vn 0.2907 0.9564 -0.0275
vn 1.0000 -0.0000 0.0007
vn 1.0000 -0.0000 0.0006
vn 0.6198 0.4304 0.6562
vn 0.7709 0.5105 0.3809
vn 0.7475 0.4786 0.4606
vn 0.5133 0.3622 0.7780
vn 0.0009 -0.0000 1.0000
vn 0.4507 0.4812 0.7519
vn 0.6859 -0.3039 0.6612
vn 0.6483 -0.2799 0.7081
vn 0.8506 -0.1928 0.4891
vn 0.8602 -0.1967 0.4705
vn 0.9993 0.0313 0.0192
vn 1.0000 -0.0003 -0.0013
vn 0.9998 0.0175 0.0121
vn 1.0000 -0.0002 -0.0015
vn -1.0000 0.0039 -0.0000
vn -1.0000 0.0019 -0.0015
vn -1.0000 -0.0003 -0.0013
vn -0.9991 0.0370 0.0230
vn -0.7381 0.3564 0.5728
vn -0.7838 0.0000 0.6211
vn 0.7838 0.0000 0.6210
vn -0.7639 0.6414 0.0713
vn -0.7859 0.6159 0.0547
vn 0.7855 -0.6165 0.0547
vn 0.7854 -0.6166 0.0548
vn -0.7853 -0.6166 0.0548
vn -0.7854 -0.6165 0.0547
vn 0.7859 0.6159 0.0547
vn 0.7639 0.6413 0.0712
vn 0.0000 -0.9939 -0.1104
vn 0.0000 0.9961 -0.0884
vn -0.0000 0.9961 -0.0884
vn -0.9993 -0.0371 0.0000
vn 0.9993 0.0371 0.0000
vn -0.0431 0.9991 -0.0000
vn 0.0431 -0.9991 0.0000
vn -0.3238 -0.9461 0.0000
vn 0.0004 0.0012 1.0000
vn -0.3230 -0.9464 0.0000
vn -0.0008 -0.0025 -1.0000
vn 0.0000 -1.0000 -0.0010
vn 0.0000 1.0000 0.0010
vn 0.0000 0.0022 1.0000
vn 0.0000 -0.0022 -1.0000
vn -1.0000 0.0000 0.0000
vn 0.2138 0.0000 -0.9769
vn 0.2557 0.9668 -0.0006
vn 0.2557 0.9668 -0.0005
vn 0.2138 0.0000 0.9769
vn 0.2557 -0.9668 0.0000
vn 0.0000 -0.0000 1.0000
vn 0.0000 -1.0000 0.0005
vn 0.6891 0.6595 0.3003
vn -1.0000 0.0039 -0.0024
vn -1.0000 -0.0048 0.0082
vn 0.9999 0.0112 0.0072
vn -0.1998 -0.5954 -0.7782
vn -0.2520 -0.7317 -0.6333
vn 0.1957 0.5878 0.7850
vn 0.0930 -0.9957 -0.0030
vn 0.0829 -0.9966 0.0019
vn 0.2425 0.7225 -0.6475
vn 0.2007 0.6156 -0.7621
vn 0.1949 0.5652 0.8016
vn 0.2191 0.6487 0.7288
vn 0.5812 -0.5298 0.6177
vn 0.0007 0.0000 1.0000
vn 0.0011 -0.0000 1.0000
vn 1.0000 0.0000 0.0009
vn -1.0000 0.0001 0.0000
vn -1.0000 0.0001 -0.0000
vn -0.6701 0.4769 0.5688
vn 0.0000 1.0000 0.0008
vn 0.9771 -0.2129 -0.0018
vn 0.9486 -0.3164 0.0007
vn 0.5928 -0.2647 0.7606
vn 0.6634 -0.1349 0.7360
vn 0.4614 -0.4487 0.7654
vn 0.4143 -0.5028 0.7586
vn 0.0985 -0.9951 -0.0033
vn 0.1669 -0.9860 0.0021
vn 0.3099 0.9507 0.0093
vn 0.3092 0.9510 0.0091
vn 0.4902 0.0103 -0.8716
vn 0.4566 -0.0480 -0.8884
vn 0.4708 -0.0238 -0.8819
vn 0.4960 0.0208 -0.8681
# 111 vertex normals

vt 0.6623 0.2118 0.0000
vt 0.6590 0.0088 0.0000
vt 0.7897 0.1485 0.0000
vt 0.7907 0.2133 0.0000
vt 0.3351 0.1091 0.0000
vt 0.3490 0.0714 0.0000
vt 0.6574 0.0089 0.0000
vt 0.3709 0.5528 0.0000
vt 0.3779 0.7445 0.0000
vt 0.3698 0.7467 0.0000
vt 0.0258 0.5506 0.0000
vt 0.2005 0.5432 0.0000
vt 0.2085 0.7451 0.0000
vt 0.0258 0.7471 0.0000
vt 0.0186 0.7451 0.0000
vt 0.0055 0.7424 0.0000
vt 0.0048 0.3643 0.0000
vt 0.0194 0.3456 0.0000
vt 0.3710 0.3461 0.0000
vt 0.3239 0.3463 0.0000
vt 0.3237 0.3404 0.0000
vt 0.3764 0.3395 0.0000
vt 0.0096 0.0047 0.0000
vt 0.1140 0.0066 0.0000
vt 0.1098 0.2063 0.0000
vt 0.0030 0.3218 0.0000
vt 0.3323 0.0092 0.0000
vt 0.3316 0.0579 0.0000
vt 0.3267 0.0725 0.0000
vt 0.2136 0.0092 0.0000
vt 0.3316 0.1089 0.0000
vt 0.2124 0.2095 0.0000
vt 0.9913 0.3227 0.0000
vt 0.8727 0.2117 0.0000
vt 0.8717 0.1470 0.0000
vt 0.9859 0.0030 0.0000
vt 0.5188 0.2333 0.0000
vt 0.5877 0.2333 0.0000
vt 0.5877 0.2879 0.0000
vt 0.5188 0.2879 0.0000
vt 0.3000 0.3461 0.0000
vt 0.3086 0.3629 0.0000
vt 0.4119 0.2421 0.0000
vt 0.4120 0.2967 0.0000
vt 0.4008 0.3131 0.0000
vt 0.4007 0.2235 0.0000
vt 0.3938 0.3131 0.0000
vt 0.3937 0.2235 0.0000
vt 0.5019 0.2879 0.0000
vt 0.5019 0.2333 0.0000
vt 0.4924 0.3132 0.0000
vt 0.4924 0.3202 0.0000
vt 0.4008 0.3201 0.0000
vt 0.4809 0.2968 0.0000
vt 0.5877 0.3048 0.0000
vt 0.5188 0.3048 0.0000
vt 0.4923 0.2236 0.0000
vt 0.4994 0.2236 0.0000
vt 0.4994 0.3132 0.0000
vt 0.4808 0.2422 0.0000
vt 0.6046 0.2333 0.0000
vt 0.6046 0.2879 0.0000
vt 0.4008 0.2165 0.0000
vt 0.4923 0.2166 0.0000
vt 0.5188 0.2164 0.0000
vt 0.5877 0.2164 0.0000
vt 0.3309 0.2146 0.0000
vt 0.0263 0.3458 0.0000
vt 0.6606 0.2118 0.0000
vt 0.6582 0.0088 0.0000
vt 0.6587 0.2118 0.0000
vt 0.3335 0.1122 0.0000
vt 0.3346 0.2146 0.0000
vt 0.3333 0.2146 0.0000
vt 0.3344 0.0091 0.0000
vt 0.3349 0.0586 0.0000
vt 0.3334 0.0551 0.0000
vt 0.5974 0.3496 0.0000
vt 0.5768 0.3497 0.0000
vt 0.5767 0.3353 0.0000
vt 0.5904 0.3063 0.0000
vt 0.5579 0.3353 0.0000
vt 0.5578 0.3209 0.0000
vt 0.7848 0.3068 0.0000
vt 0.7845 0.3212 0.0000
vt 0.7657 0.3210 0.0000
vt 0.7334 0.3062 0.0000
vt 0.6022 0.3877 0.0000
vt 0.7243 0.3875 0.0000
vt 0.7248 0.4080 0.0000
vt 0.6017 0.4082 0.0000
vt 0.6016 0.3733 0.0000
vt 0.7247 0.3730 0.0000
vt 0.7261 0.3495 0.0000
vt 0.7467 0.3353 0.0000
vt 0.7466 0.3497 0.0000
vt 0.6086 0.3544 0.0000
vt 0.5975 0.3565 0.0000
vt 0.6016 0.3400 0.0000
vt 0.4927 0.3979 0.0000
vt 0.4944 0.3988 0.0000
vt 0.4896 0.4074 0.0000
vt 0.4880 0.4065 0.0000
vt 0.4862 0.4050 0.0000
vt 0.4905 0.3972 0.0000
vt 0.4944 0.3921 0.0000
vt 0.4965 0.3932 0.0000
vt 0.4840 0.4110 0.0000
vt 0.4825 0.4092 0.0000
vt 0.4861 0.4123 0.0000
vt 0.4920 0.3918 0.0000
vt 0.4880 0.3962 0.0000
vt 0.4894 0.3914 0.0000
vt 0.4806 0.4072 0.0000
vt 0.4841 0.4033 0.0000
vt 0.3841 0.3020 0.0000
vt 0.3841 0.2561 0.0000
vt 0.3915 0.2494 0.0000
vt 0.3914 0.3087 0.0000
vt 0.3170 0.3087 0.0000
vt 0.3769 0.3086 0.0000
vt 0.3843 0.3153 0.0000
vt 0.3096 0.3153 0.0000
vt 0.3101 0.2556 0.0000
vt 0.3101 0.3015 0.0000
vt 0.3027 0.3081 0.0000
vt 0.3028 0.2489 0.0000
vt 0.3773 0.2492 0.0000
vt 0.3173 0.2489 0.0000
vt 0.3100 0.2422 0.0000
vt 0.3847 0.2425 0.0000
vt 0.3777 0.3020 0.0000
vt 0.3777 0.2561 0.0000
vt 0.3170 0.3022 0.0000
vt 0.3769 0.3022 0.0000
vt 0.3165 0.2556 0.0000
vt 0.3165 0.3015 0.0000
vt 0.3773 0.2556 0.0000
vt 0.3173 0.2554 0.0000
vt 0.3734 0.2953 0.0000
vt 0.3209 0.2951 0.0000
vt 0.3208 0.2896 0.0000
vt 0.3734 0.2898 0.0000
vt 0.3209 0.2840 0.0000
vt 0.3734 0.2842 0.0000
vt 0.3734 0.3009 0.0000
vt 0.3208 0.3008 0.0000
vt 0.4802 0.2713 0.0000
vt 0.4129 0.2713 0.0000
vt 0.4129 0.2665 0.0000
vt 0.4802 0.2665 0.0000
vt 0.4129 0.2617 0.0000
vt 0.4802 0.2617 0.0000
vt 0.4802 0.2761 0.0000
vt 0.4129 0.2761 0.0000
vt 0.0065 0.7588 0.0000
vt 0.0065 0.7518 0.0000
vt 0.3849 0.7523 0.0000
vt 0.3849 0.7593 0.0000
vt 0.0060 0.7653 0.0000
vt 0.3841 0.7654 0.0000
vt 0.0068 0.7805 0.0000
vt 0.3850 0.7804 0.0000
vt 0.3850 0.7859 0.0000
vt 0.0068 0.7860 0.0000
vt 0.3830 0.7740 0.0000
vt 0.0060 0.7731 0.0000
vt 0.4241 0.3755 0.0000
vt 0.4241 0.7253 0.0000
vt 0.4177 0.7253 0.0000
vt 0.4177 0.3755 0.0000
vt 0.4069 0.7269 0.0000
vt 0.4006 0.7269 0.0000
vt 0.4006 0.3771 0.0000
vt 0.4069 0.3771 0.0000
vt 0.4241 0.7342 0.0000
vt 0.4177 0.7342 0.0000
vt 0.4158 0.3771 0.0000
vt 0.4158 0.7269 0.0000
vt 0.4177 0.3666 0.0000
vt 0.4241 0.3666 0.0000
vt 0.3917 0.7269 0.0000
vt 0.3917 0.3771 0.0000
vt 0.5662 0.1366 0.0000
vt 0.5666 0.1831 0.0000
vt 0.5310 0.1832 0.0000
vt 0.5306 0.1367 0.0000
vt 0.1968 0.2696 0.0000
vt 0.1968 0.3080 0.0000
vt 0.1872 0.3105 0.0000
vt 0.1872 0.2671 0.0000
vt 0.2260 0.2696 0.0000
vt 0.1947 0.2599 0.0000
vt 0.2280 0.2598 0.0000
vt 0.2260 0.3080 0.0000
vt 0.2356 0.2671 0.0000
vt 0.2356 0.3105 0.0000
vt 0.2280 0.3178 0.0000
vt 0.1947 0.3178 0.0000
vt 0.2935 0.2520 0.0000
vt 0.2935 0.3088 0.0000
vt 0.2856 0.3021 0.0000
vt 0.2856 0.2587 0.0000
vt 0.2438 0.3089 0.0000
vt 0.2522 0.3022 0.0000
vt 0.2438 0.2520 0.0000
vt 0.2522 0.2587 0.0000
vt 0.3008 0.2520 0.0000
vt 0.3008 0.3088 0.0000
vt 0.2935 0.3162 0.0000
vt 0.2438 0.3162 0.0000
vt 0.2365 0.3089 0.0000
vt 0.2365 0.2520 0.0000
vt 0.2438 0.2447 0.0000
vt 0.2935 0.2447 0.0000
vt 0.7247 0.3398 0.0000
vt 0.7165 0.3209 0.0000
vt 0.7282 0.3194 0.0000
vt 0.7567 0.3353 0.0000
vt 0.7245 0.3542 0.0000
vt 0.6017 0.3633 0.0000
vt 0.7246 0.3065 0.0000
vt 0.7246 0.3124 0.0000
vt 0.6015 0.3212 0.0000
vt 0.6014 0.3068 0.0000
vt 0.5390 0.3066 0.0000
vt 0.5389 0.3125 0.0000
vt 0.3793 0.3458 0.0000
vt 0.3904 0.3663 0.0000
vt 0.3870 0.7432 0.0000
vt 0.3127 0.3185 0.0000
vt 0.3690 0.3175 0.0000
vt 0.3333 0.0090 0.0000
vt 0.1957 0.1522 0.0000
vt 0.1229 0.1524 0.0000
vt 0.1223 0.0036 0.0000
vt 0.1951 0.0034 0.0000
vt 0.4374 0.4852 0.0000
vt 0.4287 0.4955 0.0000
vt 0.4282 0.3245 0.0000
vt 0.4369 0.3245 0.0000
vt 0.5289 0.3234 0.0000
vt 0.5279 0.4722 0.0000
vt 0.5151 0.4722 0.0000
vt 0.5161 0.3233 0.0000
vt 0.4529 0.5048 0.0000
vt 0.5258 0.5051 0.0000
vt 0.5257 0.5178 0.0000
vt 0.4529 0.5175 0.0000
vt 0.5461 0.4947 0.0000
vt 0.5470 0.3238 0.0000
vt 0.5557 0.3238 0.0000
vt 0.5547 0.4948 0.0000
vt 0.5284 0.4726 0.0000
vt 0.5294 0.3237 0.0000
vt 0.4557 0.4729 0.0000
vt 0.4553 0.3241 0.0000
vt 0.4680 0.3241 0.0000
vt 0.4684 0.4729 0.0000
vt 0.4451 0.4956 0.0000
vt 0.4555 0.4733 0.0000
vt 0.4340 0.4983 0.0000
vt 0.4377 0.4853 0.0000
vt 0.5462 0.5033 0.0000
vt 0.4377 0.5043 0.0000
vt 0.4553 0.4733 0.0000
vt 0.4548 0.3245 0.0000
vt 0.3004 0.3401 0.0000
vt 0.0218 0.3405 0.0000
vt 0.3798 0.3187 0.0000
vt 0.3852 0.3172 0.0000
vt 0.3926 0.3386 0.0000
vt 0.3779 0.3430 0.0000
vt 0.0322 0.3194 0.0000
vt 0.3130 0.3179 0.0000
vt 0.4032 0.3539 0.0000
vt 0.3988 0.3574 0.0000
# 277 texture coords

o lowpoly_tower_rock_doorMax_headusOBJexport
g lowpoly_tower_rock_doorMax_headusOBJexport
usemtl lowpoly_house_lowpoly_tower_rock_doorMax_Material__29
f 1/1/1 2/2/1 3/3/1 
f 3/3/1 4/4/1 1/1/1 
f 5/5/2 6/6/2 7/7/2 
f 8/8/3 9/9/3 10/10/3 
f 11/11/4 12/12/5 13/13/6 
f 13/13/6 14/14/7 11/11/4 
f 15/15/8 16/16/8 17/17/8 
f 17/17/9 18/18/9 15/15/9 
f 19/19/10 20/20/10 21/21/10 
f 21/21/11 22/22/11 19/19/11 
f 23/23/12 24/24/12 25/25/12 
f 25/25/12 26/26/12 23/23/12 
f 27/27/12 28/28/12 29/29/12 
f 29/29/12 30/30/12 27/27/12 
f 30/30/12 29/29/12 31/31/12 
f 31/31/12 32/32/12 30/30/12 
f 33/33/1 34/34/1 35/35/1 
f 35/35/1 36/36/1 33/33/1 
f 37/37/13 38/38/13 39/39/13 
f 39/39/13 40/40/13 37/37/13 
f 3/3/1 2/2/1 36/36/1 
f 36/36/1 35/35/1 3/3/1 
f 12/12/5 41/41/14 42/42/15 
f 42/42/15 8/8/16 12/12/5 
f 13/13/6 12/12/5 8/8/16 
f 8/8/16 10/10/17 13/13/6 
f 43/43/1 44/44/1 45/45/1 
f 45/45/1 46/46/1 43/43/1 
f 46/46/2 45/45/2 47/47/2 
f 47/47/2 48/48/2 46/46/2 
f 37/37/18 40/40/18 44/49/18 
f 44/49/18 43/50/18 37/37/18 
f 49/51/19 50/52/19 47/53/19 
f 47/53/19 45/45/19 49/51/19 
f 51/54/1 49/51/1 45/45/1 
f 45/45/13 44/44/13 51/54/13 
f 40/40/20 39/39/20 51/55/20 
f 51/55/20 44/56/20 40/40/20 
f 49/51/18 52/57/18 53/58/18 
f 53/58/18 50/59/18 49/51/18 
f 54/60/1 52/57/1 49/51/1 
f 49/51/1 51/54/1 54/60/1 
f 39/39/2 38/38/2 54/61/2 
f 54/61/2 51/62/2 39/39/2 
f 52/57/21 46/46/21 48/63/21 
f 48/63/21 53/64/21 52/57/21 
f 54/60/1 43/43/1 46/46/1 
f 46/46/1 52/57/1 54/60/1 
f 38/38/19 37/37/19 43/65/19 
f 43/65/19 54/66/19 38/38/19 
f 25/25/12 32/32/12 55/67/12 
f 55/67/12 26/26/12 25/25/12 
f 33/33/1 1/1/1 4/4/1 
f 4/4/1 34/34/1 33/33/1 
f 12/12/5 11/11/4 56/68/22 
f 56/68/22 41/41/14 12/12/5 
f 1/1/1 57/69/1 58/70/1 
f 58/70/1 2/2/1 1/1/1 
f 57/69/1 59/71/2 7/7/2 
f 7/7/2 58/70/1 57/69/1 
f 60/72/23 5/5/23 61/73/23 
f 61/73/23 62/74/24 60/72/23 
f 63/75/2 7/7/2 6/6/2 
f 6/6/2 64/76/2 63/75/2 
f 64/76/25 6/6/26 29/29/27 
f 29/29/27 28/28/28 64/76/25 
f 55/67/29 31/31/29 60/72/23 
f 60/72/23 62/74/24 55/67/29 
f 55/67/12 32/32/12 31/31/12 
f 28/28/28 65/77/30 64/76/25 
f 5/5/31 31/31/32 29/29/33 
f 29/29/33 6/6/34 5/5/31 
f 66/78/35 67/79/35 68/80/35 
f 68/80/36 69/81/36 66/78/36 
f 68/80/37 70/82/37 71/83/37 
f 71/83/38 69/81/38 68/80/38 
f 72/84/39 73/85/39 74/86/39 
f 74/86/40 75/87/40 72/84/40 
f 76/88/19 67/89/19 66/90/19 
f 66/90/19 77/91/19 76/88/19 
f 78/92/12 68/93/12 67/89/12 
f 67/89/12 76/88/12 78/92/12 
f 77/94/41 75/87/41 78/95/41 
f 78/95/42 76/96/42 77/94/42 
f 79/97/43 80/98/43 74/99/43 
f 81/100/44 82/101/44 83/102/44 
f 83/102/44 84/103/44 81/100/44 
f 84/103/45 85/104/45 86/105/45 
f 86/105/45 81/100/45 84/103/45 
f 87/106/46 88/107/46 82/101/46 
f 82/101/47 81/100/47 87/106/47 
f 89/108/48 90/109/48 85/104/48 
f 85/104/49 84/103/49 89/108/49 
f 89/108/50 84/103/50 83/102/50 
f 83/102/51 91/110/51 89/108/51 
f 87/106/52 81/100/52 86/105/52 
f 86/105/53 92/111/53 87/106/53 
f 82/112/54 88/113/54 92/111/54 
f 92/111/54 86/105/54 82/112/54 
f 91/114/55 83/115/55 85/104/55 
f 85/104/56 90/109/56 91/114/56 
f 83/115/1 82/112/1 86/105/1 
f 86/105/1 85/104/1 83/115/1 
f 93/116/1 94/117/1 95/118/1 
f 95/118/1 96/119/1 93/116/1 
f 94/120/1 97/121/1 98/122/1 
f 98/122/13 95/123/13 94/120/13 
f 97/124/1 99/125/1 100/126/1 
f 100/126/1 98/127/1 97/124/1 
f 99/128/1 93/129/1 96/130/1 
f 96/130/13 100/131/13 99/128/13 
f 101/132/18 102/133/18 94/117/18 
f 94/117/18 93/116/18 101/132/18 
f 102/134/20 103/135/20 97/121/20 
f 97/121/20 94/120/20 102/134/20 
f 103/136/2 104/137/2 99/125/2 
f 99/125/2 97/124/2 103/136/2 
f 104/138/19 101/139/19 93/129/19 
f 93/129/19 99/128/19 104/138/19 
f 105/140/1 106/141/1 107/142/1 
f 107/142/1 108/143/1 105/140/1 
f 109/144/57 110/145/57 108/143/57 
f 108/143/57 107/142/57 109/144/57 
f 111/146/58 112/147/58 106/141/58 
f 106/141/58 105/140/58 111/146/58 
f 113/148/1 114/149/1 115/150/1 
f 115/150/1 116/151/1 113/148/1 
f 117/152/59 118/153/59 116/151/59 
f 116/151/59 115/150/59 117/152/59 
f 119/154/60 120/155/60 114/149/60 
f 114/149/60 113/148/60 119/154/60 
f 121/156/61 122/157/61 123/158/61 
f 123/158/61 124/159/61 121/156/61 
f 16/160/12 121/156/12 124/159/12 
f 124/159/62 17/161/62 16/160/62 
f 125/162/63 126/163/63 127/164/63 
f 127/164/63 128/165/63 125/162/63 
f 129/166/64 126/163/64 125/162/64 
f 125/162/13 130/167/13 129/166/13 
f 131/168/65 132/169/65 133/170/65 
f 133/170/65 134/171/65 131/168/65 
f 135/172/66 136/173/66 137/174/66 
f 137/174/66 138/175/66 135/172/66 
f 138/176/67 137/177/67 133/170/67 
f 133/170/67 132/169/67 138/176/67 
f 135/172/2 138/175/2 132/178/2 
f 132/178/2 131/179/2 135/172/2 
f 136/180/68 135/181/68 131/168/68 
f 131/168/68 134/171/68 136/180/68 
f 134/182/69 133/183/69 137/174/69 
f 137/174/69 136/173/69 134/182/69 
f 139/184/2 7/7/2 59/71/2 
f 59/71/2 140/185/2 139/184/2 
f 59/71/2 61/73/2 141/186/2 
f 141/186/2 140/185/2 59/71/2 
f 141/186/2 61/73/2 5/5/2 
f 5/5/2 142/187/2 141/186/2 
f 7/7/2 139/184/2 142/187/2 
f 142/187/2 5/5/2 7/7/2 
f 143/188/70 144/189/70 145/190/70 
f 145/190/70 146/191/70 143/188/70 
f 147/192/71 143/188/71 146/193/71 
f 146/193/71 148/194/72 147/192/71 
f 149/195/73 147/192/73 148/196/73 
f 148/196/73 150/197/73 149/195/73 
f 144/189/74 149/195/74 150/198/74 
f 150/198/74 145/199/74 144/189/74 
f 144/189/2 143/188/2 147/192/2 
f 147/192/2 149/195/2 144/189/2 
f 151/200/2 152/201/2 146/202/2 
f 146/202/2 145/203/2 151/200/2 
f 152/201/2 153/204/2 148/205/2 
f 148/205/2 146/202/2 152/201/2 
f 153/204/2 154/206/2 150/207/2 
f 150/207/2 148/205/2 153/204/2 
f 151/200/2 145/203/2 150/207/2 
f 150/207/2 154/206/2 151/200/2 
f 155/208/75 156/209/75 152/201/75 
f 152/201/75 151/200/75 155/208/75 
f 156/210/76 157/211/76 153/204/76 
f 153/204/76 152/201/76 156/210/76 
f 157/212/1 158/213/1 154/206/1 
f 154/206/1 153/204/1 157/212/1 
f 158/214/19 155/215/19 151/200/19 
f 151/200/19 154/206/19 158/214/19 
f 71/216/77 159/217/77 160/218/77 
f 75/87/78 74/86/78 80/219/78 
f 79/97/75 74/99/75 71/216/75 
f 71/216/12 70/220/12 79/97/12 
f 78/92/19 80/221/19 79/97/19 
f 78/95/79 75/87/79 80/219/79 
f 68/93/19 78/92/19 79/97/19 
f 79/97/19 70/220/19 68/93/19 
f 161/222/12 160/223/12 159/217/12 
f 159/217/19 71/216/19 74/99/19 
f 74/99/19 73/224/19 159/217/19 
f 72/225/12 161/222/12 159/217/12 
f 159/217/12 73/224/12 72/225/12 
f 161/226/38 69/81/38 71/83/38 
f 71/83/80 160/227/80 161/226/80 
f 9/9/81 22/228/81 129/229/81 
f 129/229/82 130/230/82 9/9/82 
f 56/68/83 11/11/83 18/18/83 
f 21/21/84 162/231/84 129/232/84 
f 129/232/85 22/22/85 21/21/85 
f 22/228/86 9/9/86 8/8/86 
f 8/8/87 19/19/87 22/228/87 
f 11/11/88 14/14/88 15/15/88 
f 15/15/89 18/18/89 11/11/89 
f 31/31/32 5/5/31 60/72/90 
f 65/77/91 28/28/91 27/27/91 
f 27/27/91 163/233/92 65/77/91 
f 63/75/93 64/76/93 65/77/91 
f 65/77/91 163/233/92 63/75/93 
f 164/234/12 165/235/12 166/236/12 
f 166/236/12 167/237/12 164/234/12 
f 168/238/94 169/239/94 170/240/94 
f 170/240/95 171/241/95 168/238/95 
f 166/242/2 165/243/2 172/244/2 
f 172/244/2 173/245/2 166/242/2 
f 165/246/20 164/247/20 174/248/20 
f 174/248/20 172/249/20 165/246/20 
f 175/250/2 176/251/2 177/252/2 
f 177/252/2 178/253/2 175/250/2 
f 174/254/12 179/255/12 176/251/12 
f 176/251/12 175/250/12 174/254/12 
f 164/256/18 167/257/18 179/258/18 
f 179/258/18 174/259/18 164/256/18 
f 180/260/12 172/261/12 174/254/12 
f 174/254/12 175/250/12 180/260/12 
f 169/262/96 168/263/96 180/260/96 
f 180/260/97 175/250/97 178/264/97 
f 178/264/97 169/265/97 180/260/97 
f 168/263/12 172/261/12 180/260/12 
f 172/266/12 168/238/12 171/241/12 
f 171/241/12 173/267/12 172/266/12 
f 181/268/98 41/41/98 56/68/98 
f 56/68/99 18/269/99 181/268/99 
f 21/270/100 20/271/101 42/272/102 
f 42/272/102 162/273/103 21/270/100 
f 17/274/104 162/275/104 181/268/104 
f 181/268/105 18/269/105 17/274/105 
f 19/19/106 8/8/16 42/42/15 
f 42/42/15 20/20/107 19/19/106 
f 42/272/108 41/276/109 181/277/110 
f 181/277/110 162/273/111 42/272/108 
# 0 polygons - 246 triangles

