# 3ds Max Wavefront OBJ Exporter v0.97b - (c)2007 guruware
# File Created: 24.05.2019 18:19:55

mtllib rock_23.mtl

#
# object rock23_lr
#

v  2.6934 -0.0246 -8.7428
v  7.8866 1.7965 -9.6005
v  7.8226 -0.2499 -8.6139
v  3.2237 -9.3716 -1.7925
v  -2.9582 -9.5918 -1.6266
v  -1.3381 -9.7599 -2.8406
v  15.3965 3.4769 -9.1556
v  10.6638 4.0643 -9.9795
v  12.2311 6.3689 -9.5264
v  8.5361 7.2603 -10.9946
v  -8.0831 8.2515 -1.7530
v  -6.8176 8.3023 -6.1790
v  -9.6165 8.1887 -6.3033
v  13.0010 -0.5285 -8.9637
v  6.7998 7.8601 -10.8457
v  4.1218 4.7246 -9.5091
v  6.7521 6.0008 -10.9143
v  6.6256 8.6909 -2.0539
v  3.1133 9.0642 -2.2413
v  1.6373 9.5232 -1.1088
v  2.3160 9.4197 2.8441
v  4.6989 9.6930 6.3484
v  -2.1554 8.2074 -9.1206
v  0.9062 6.0963 -8.6515
v  -3.3354 4.9658 -8.4534
v  14.0859 -8.3798 -8.1281
v  16.2229 -6.0799 -6.6023
v  15.2042 -9.6355 -5.4461
v  14.9224 -4.6636 -8.4781
v  2.8564 9.0710 -4.5064
v  11.5709 -9.3491 -6.8097
v  12.8087 -6.6435 -7.8143
v  -10.2682 8.4849 1.1722
v  -5.3751 9.2908 -0.0560
v  2.8406 -7.9966 -8.1879
v  7.3105 -7.7464 -7.5951
v  4.1779 -9.6340 -7.7577
v  1.5957 -9.6762 -9.4216
v  2.3177 -6.3021 -8.8418
v  11.2537 -2.1944 -9.0852
v  -4.1738 -10.0325 5.4531
v  -4.8885 -9.7658 -0.6052
v  1.0669 -9.8857 3.0575
v  16.8917 -1.7085 -7.0127
v  16.0896 -1.5424 -8.5328
v  19.2366 -0.0541 -6.1892
v  -10.8992 7.2226 -0.3631
v  -14.1654 7.5789 -3.0195
v  -13.9078 7.2673 -6.5881
v  -15.7901 6.9261 -5.6699
v  18.0491 -4.1192 -6.0372
v  17.3473 -6.8251 -5.8894
v  14.9634 -0.4847 -9.0993
v  10.7208 -6.4738 -9.0056
v  0.6255 -4.2236 -8.7754
v  7.3671 -6.6819 -8.7748
v  -1.4406 -2.2685 -9.2081
v  -1.5621 1.3267 -8.7562
v  -7.7579 7.2889 -9.0147
v  -5.6733 8.5711 -7.9414
v  -4.3537 8.6322 -8.8479
v  -6.4214 -9.3062 1.5185
v  15.6851 9.4331 -0.0812
v  15.3221 1.5083 0.9919
v  17.1301 1.9088 -2.4555
v  17.9623 8.8960 -3.7275
v  0.3789 7.5437 -9.5800
v  -0.6063 8.6467 -8.3856
v  8.7378 8.5523 -10.5615
v  14.3850 -9.2399 -1.4360
v  10.1056 -9.5424 -3.8609
v  11.0894 9.7927 -10.2805
v  -15.3264 7.2471 -0.4358
v  13.3812 9.3502 3.9994
v  13.2329 9.8140 2.3349
v  13.4493 9.5066 -10.4170
v  13.6170 7.0193 -10.2768
v  8.4384 8.8937 3.5517
v  10.2975 8.9925 -0.2778
v  7.5989 8.1259 0.2755
v  19.6581 3.0172 -9.1716
v  -6.2645 -2.4672 -9.7779
v  -7.4995 1.6144 -10.2995
v  19.8606 6.8453 -10.3525
v  15.9046 5.9522 -10.7489
v  -9.8498 -6.8185 -7.1179
v  -11.9884 -3.5189 -5.0181
v  -11.2024 -1.0849 -7.3349
v  17.2752 -8.3621 -5.1327
v  15.1324 -5.4718 -2.5315
v  -21.0686 2.3868 -1.4089
v  -18.7086 1.2766 4.8093
v  -19.1097 4.0146 5.2990
v  -13.4921 -1.2976 -3.6739
v  -15.6526 -2.7040 -3.4320
v  -16.1474 -0.8712 -2.6642
v  20.6194 2.1106 -7.5529
v  21.3340 5.1816 -7.9020
v  -9.5162 -3.2181 -9.6039
v  21.3646 7.0580 -8.1037
v  19.9670 8.3987 -6.6554
v  6.1235 8.2353 -4.7237
v  3.6647 7.9713 -10.2452
v  2.6618 8.3719 -5.2849
v  -3.8711 -2.1829 -10.1763
v  -7.6288 -7.1811 -10.0406
v  -8.2469 -6.0936 -9.5731
v  13.1762 -0.4280 4.2523
v  12.9542 -8.7171 3.7903
v  14.2053 -4.2930 1.6475
v  12.3392 -8.8060 6.0415
v  -15.5893 1.6411 -3.9600
v  -13.4495 -3.8649 -3.3389
v  -20.3027 -2.8189 -1.7549
v  -16.3043 -4.6628 -2.4227
v  18.4044 9.4757 -6.3594
v  16.0014 9.6108 -1.4095
v  16.0100 9.7739 -7.7354
v  10.2280 9.6430 -6.8578
v  12.4719 9.5643 -2.3381
v  -20.1509 -1.3178 -2.2656
v  -9.3223 0.8142 -9.7655
v  -10.6861 -7.7291 -5.2283
v  -9.9450 -8.3122 -6.3253
v  -8.6373 -8.4117 -4.6855
v  -16.7000 1.1549 -4.0872
v  6.6342 -9.8099 -6.8173
v  -15.6615 -9.4239 -3.2958
v  -19.0354 -5.7693 -1.3010
v  12.1191 -9.1160 -1.3290
v  14.2993 -9.3004 0.2138
v  9.8825 -8.5718 -0.5277
v  6.7040 -9.1090 -4.5704
v  6.9188 -9.6325 3.0704
v  -3.2410 9.7195 -1.2423
v  -2.7494 9.1596 -6.1475
v  -1.2148 -9.5189 -5.8946
v  -3.3388 -8.9996 -9.9248
v  15.9754 8.5334 -8.9794
v  15.9994 7.4916 -9.1813
v  -13.5435 7.3836 -8.0107
v  -14.9991 6.1970 -6.6808
v  -18.7045 -5.7777 -0.0373
v  -19.9062 -4.5262 -0.5662
v  -18.7928 -3.0779 2.6539
v  -19.9785 -2.2547 0.1919
v  -11.3666 -1.4652 8.1531
v  -17.3238 1.7317 6.0387
v  -17.8462 -2.0549 5.7708
v  -11.6391 -5.0670 7.2565
v  -17.0955 -4.6233 6.2663
v  -13.6907 -7.3394 7.0846
v  -17.4856 -3.2450 5.3568
v  -11.8552 3.4828 7.2632
v  -8.4478 -9.4745 -3.4930
v  -4.6809 -9.5487 -3.5387
v  -17.9809 5.6290 6.0353
v  9.3747 9.1619 7.6176
v  11.9250 9.3290 6.4974
v  -15.9187 4.2318 -4.4318
v  -13.6244 5.1531 6.9781
v  9.9394 7.4984 9.7185
v  -7.1461 -10.0564 -8.7952
v  -8.7018 -9.2041 -6.5442
v  -16.4857 7.9485 3.7733
v  -19.8447 7.0749 3.1582
v  -14.1287 3.5378 -7.0079
v  -7.7767 -10.0256 6.7817
v  -13.4416 -9.8877 1.1068
v  -13.3702 5.3805 -7.4813
v  -12.8539 4.8787 -8.9368
v  -10.1127 5.3624 -9.7620
v  -10.0638 3.5812 -8.7674
v  -11.4351 5.8158 -8.4516
v  -0.7330 -9.6905 -9.4154
v  9.7863 4.7926 10.5517
v  4.6253 -4.6189 9.1074
v  6.3822 -4.7152 11.0303
v  6.8282 -0.8364 11.3314
v  10.2901 -4.1833 9.5623
v  0.3339 -6.7470 8.5731
v  -3.1224 -3.8247 7.5376
v  -4.1471 -8.5220 6.5085
v  7.8418 7.5780 11.7249
v  6.8251 9.2707 8.1947
v  1.0326 9.6345 10.0459
v  4.5344 7.7371 11.2009
v  -15.8206 -9.3223 3.6148
v  -18.3149 -6.8341 3.1747
v  -18.4071 -9.5604 2.0294
v  -0.3470 4.7574 10.9889
v  -2.9749 7.6172 9.8064
v  -4.7107 7.3015 9.4717
v  8.7752 -4.8048 13.0785
v  9.2271 0.0379 11.5972
v  -13.0317 1.1305 -5.5832
v  10.0336 -9.3300 10.5478
v  3.2718 -10.6627 6.8945
v  -9.9189 -6.9966 8.8291
v  -1.8657 -10.1744 -8.5262
v  -21.9637 5.6679 -0.3315
v  -13.7914 -9.9202 -4.2475
v  -10.8706 -10.0515 -4.7963
v  -15.5377 -10.2562 0.5476
v  4.7598 -6.9998 9.9936
v  -5.7361 8.1333 6.9152
v  -1.3073 9.5042 5.8796
v  -5.9400 9.5233 6.0370
v  1.2286 -5.0938 8.2162
v  -2.1592 1.3927 10.8255
v  0.6640 8.5708 10.7638
v  -5.7629 -9.8486 -9.4358
v  -10.2978 8.3953 7.1237
v  -13.0066 8.4148 5.0898
v  -2.5596 9.9317 3.5175
v  -6.9780 7.8829 8.4790
v  -8.5122 9.0189 8.2331
v  8.7239 3.5424 12.1813
v  3.4203 4.4237 11.9096
v  7.9995 -10.5748 9.6267
v  11.0612 -9.9549 7.3143
v  -9.9728 -3.8256 9.5569
v  -8.6092 -9.7920 -1.1053
v  -4.2130 -9.7483 6.3056
v  -8.1865 9.3561 3.7123
v  8.9075 -8.7855 10.9358
v  7.1512 -10.1219 11.1599
v  7.1982 -7.9277 10.6210
v  8.7454 -7.0848 12.4609
v  -16.6931 6.1732 -2.8503
v  8.4874 5.7080 12.3285
v  1.0627 -10.5537 8.6935
v  -0.9666 -10.6393 8.1034
v  -21.1330 5.8605 2.2588
v  -9.8074 9.8145 6.6387
v  3.3138 -10.4995 9.4440
v  -9.9244 -10.2573 8.1856
v  -6.3195 0.2010 9.4189
v  -10.7206 6.8780 -8.8682
v  3.3815 -7.8184 8.9447
v  -12.8610 -10.2040 7.0582
v  -11.6193 -9.7597 8.8346
v  -19.0510 6.5404 -2.5412
v  -15.6455 5.8809 4.7226
v  -19.0109 -9.2654 -1.3825
v  -12.3779 0.0619 -8.7555
v  18.5933 -2.1044 -6.0509
v  -6.1652 -10.0761 -2.6111
v  5.8981 8.2489 -9.6871
v  -13.5205 2.3068 -8.0313
v  17.7710 7.1142 -10.5152
v  -11.4474 2.8634 -9.1689
# 252 vertices

vn -0.0166 -0.0570 -0.9982
vn -0.0458 -0.3094 -0.9498
vn -0.0095 -0.0856 -0.9963
vn 0.0800 -0.9966 -0.0160
vn 0.0119 -0.9996 -0.0250
vn -0.0009 -0.9985 0.0544
vn -0.6046 -0.0794 -0.7926
vn 0.1545 -0.1299 -0.9794
vn 0.0680 -0.4028 -0.9127
vn -0.0367 -0.1028 -0.9940
vn -0.2215 0.9707 -0.0930
vn -0.2606 0.9552 -0.1400
vn -0.0699 0.9752 -0.2098
vn -0.0240 0.0004 -0.9997
vn -0.1747 0.4272 -0.8871
vn -0.2163 -0.1813 -0.9593
vn -0.1386 -0.0948 -0.9858
vn 0.0053 0.9998 -0.0179
vn 0.1682 0.9800 -0.1064
vn 0.0999 0.9937 -0.0509
vn 0.0579 0.9975 -0.0402
vn 0.0840 0.9964 -0.0065
vn -0.0158 0.3329 -0.9428
vn -0.2611 -0.2762 -0.9249
vn 0.0764 0.0400 -0.9962
vn 0.1978 -0.4733 -0.8584
vn 0.5873 -0.2518 -0.7692
vn 0.3784 -0.8906 -0.2521
vn 0.4640 -0.2202 -0.8580
vn 0.1962 0.9252 -0.3246
vn -0.0197 -0.8139 -0.5806
vn -0.0129 -0.4134 -0.9104
vn -0.2239 0.9325 -0.2834
vn -0.2087 0.9708 -0.1181
vn 0.4411 -0.0836 -0.8936
vn 0.0708 -0.5400 -0.8387
vn 0.2175 -0.7830 -0.5828
vn 0.2621 -0.5228 -0.8111
vn 0.1794 -0.0399 -0.9829
vn -0.0289 0.0495 -0.9984
vn -0.0585 -0.9973 0.0428
vn 0.0069 -0.9998 0.0174
vn 0.0109 -0.9919 -0.1265
vn 0.6447 -0.3979 -0.6526
vn 0.5355 -0.3525 -0.7674
vn 0.9033 -0.4269 0.0427
vn -0.1925 0.9595 -0.2057
vn -0.2510 0.9675 0.0285
vn -0.3915 0.9058 -0.1623
vn -0.7469 0.5354 -0.3942
vn 0.9380 -0.2116 -0.2744
vn 0.6286 -0.3004 -0.7174
vn 0.0714 -0.1256 -0.9895
vn 0.1066 -0.5243 -0.8448
vn 0.2329 0.1629 -0.9587
vn -0.0278 -0.4383 -0.8984
vn 0.2726 0.1146 -0.9553
vn 0.0760 0.0945 -0.9926
vn -0.0644 0.6151 -0.7858
vn -0.2913 0.9349 -0.2028
vn -0.0936 0.6521 -0.7523
vn -0.0573 -0.9980 -0.0251
vn 0.6049 0.7007 0.3782
vn 0.8698 -0.0450 0.4913
vn 0.8537 -0.0971 0.5116
vn 0.7752 0.4376 0.4556
vn -0.1648 0.2343 -0.9581
vn 0.1817 0.8937 -0.4102
vn -0.2013 0.7375 -0.6446
vn 0.5643 -0.8008 0.2006
vn -0.0662 -0.9880 0.1392
vn -0.1455 0.8253 -0.5456
vn -0.1588 0.9734 -0.1649
vn 0.7256 0.5400 0.4264
vn 0.0766 0.9965 0.0341
vn 0.2741 0.5689 -0.7753
vn 0.0208 -0.1245 -0.9920
vn -0.0074 0.9978 -0.0650
vn -0.1803 0.9830 0.0350
vn 0.3809 0.9174 -0.1156
vn 0.5180 -0.3718 -0.7703
vn -0.0601 0.0285 -0.9978
vn -0.0309 0.0497 -0.9983
vn 0.4471 0.3720 -0.8135
vn -0.1176 -0.0992 -0.9881
vn -0.7723 -0.3149 -0.5517
vn -0.7900 -0.1529 -0.5937
vn -0.8466 -0.4736 -0.2428
vn 0.8632 -0.4971 -0.0877
vn 0.8878 -0.1131 0.4460
vn -0.9238 -0.0960 -0.3705
vn -0.8338 -0.1331 0.5357
vn -0.7084 -0.0647 0.7028
vn -0.5591 -0.2053 -0.8033
vn -0.2448 -0.0609 -0.9676
vn -0.2219 -0.1659 -0.9608
vn 0.8889 -0.4512 -0.0787
vn 0.9931 -0.1169 0.0074
vn -0.5067 -0.1968 -0.8394
vn 0.9230 0.3831 -0.0352
vn 0.7384 0.6691 0.0843
vn -0.0907 0.9857 -0.1422
vn -0.1976 0.5911 -0.7819
vn 0.3073 0.8303 -0.4650
vn 0.0284 0.2272 -0.9734
vn -0.4584 -0.1733 -0.8716
vn -0.5627 -0.0940 -0.8213
vn 0.8752 -0.0308 0.4827
vn 0.7197 -0.6737 0.1676
vn 0.9218 -0.1062 0.3727
vn 0.8940 -0.3113 0.3221
vn -0.2486 -0.3919 -0.8857
vn -0.4602 -0.0772 -0.8845
vn -0.8203 -0.2438 -0.5173
vn -0.3329 -0.1186 -0.9355
vn 0.4097 0.9008 -0.1435
vn 0.2671 0.9529 0.1436
vn 0.2676 0.9180 -0.2927
vn -0.2084 0.9779 -0.0170
vn -0.0686 0.9932 0.0941
vn -0.5241 -0.1863 -0.8310
vn -0.2399 0.0341 -0.9702
vn -0.5076 -0.3921 -0.7672
vn -0.6734 -0.6569 -0.3390
vn -0.2676 -0.9457 -0.1841
vn -0.1077 -0.2671 -0.9576
vn 0.0208 -0.9324 -0.3608
vn -0.4651 -0.5161 -0.7192
vn -0.8202 -0.2588 -0.5101
vn -0.1133 -0.9788 0.1707
vn 0.6129 -0.7635 0.2033
vn -0.0104 -0.9987 0.0501
vn -0.0316 -0.9839 0.1755
vn 0.1131 -0.9796 -0.1658
vn -0.1055 0.9910 -0.0824
vn -0.0557 0.9904 -0.1265
vn 0.0371 -0.9961 0.0804
vn 0.0608 -0.2690 -0.9612
vn 0.5023 0.3663 -0.7833
vn 0.2460 0.6746 -0.6960
vn -0.4984 0.6171 -0.6088
vn -0.7100 0.0938 -0.6979
vn -0.9464 -0.2066 0.2480
vn -0.8843 -0.3893 0.2578
vn -0.9273 -0.1782 0.3290
vn -0.9306 -0.1832 0.3168
vn -0.3935 0.0551 0.9177
vn -0.4254 0.0168 0.9048
vn -0.7079 -0.1409 0.6921
vn -0.4931 0.0134 0.8699
vn -0.6000 -0.1248 0.7902
vn -0.5356 -0.0859 0.8401
vn -0.9419 -0.2047 0.2664
vn -0.2709 0.0940 0.9580
vn 0.0988 -0.8809 -0.4629
vn 0.0011 -0.9987 -0.0504
vn -0.3244 0.3642 0.8730
vn 0.1167 0.9599 0.2547
vn 0.5482 0.7080 0.4451
vn -0.7147 -0.0638 -0.6965
vn -0.2914 0.2527 0.9226
vn 0.6719 0.4306 0.6026
vn -0.3978 -0.8360 -0.3780
vn -0.5771 -0.8151 -0.0512
vn -0.1998 0.9176 0.3437
vn -0.5388 0.7787 0.3213
vn -0.8276 -0.1992 -0.5248
vn 0.1815 -0.9569 0.2267
vn 0.0388 -0.9922 0.1183
vn -0.7811 -0.0389 -0.6232
vn -0.4360 0.1463 -0.8880
vn -0.3812 0.0416 -0.9236
vn -0.3279 -0.0055 -0.9447
vn -0.2702 0.0786 -0.9596
vn 0.0789 -0.5214 -0.8496
vn 0.8365 0.0885 0.5408
vn -0.4392 -0.0283 0.8979
vn -0.6485 -0.0525 0.7594
vn -0.2597 -0.0809 0.9623
vn 0.8946 0.0218 0.4464
vn -0.2596 0.0726 0.9630
vn -0.0648 -0.2985 0.9522
vn -0.0468 -0.2055 0.9775
vn 0.2405 0.5612 0.7919
vn 0.1170 0.9652 0.2338
vn -0.1142 0.8743 0.4718
vn -0.0298 0.5484 0.8357
vn -0.4109 -0.7877 0.4589
vn -0.8719 -0.2345 0.4299
vn -0.6807 -0.6325 0.3695
vn -0.2252 0.1520 0.9624
vn -0.2760 0.5911 0.7579
vn -0.3069 0.2550 0.9169
vn 0.1946 -0.0259 0.9805
vn 0.5340 0.0165 0.8453
vn -0.7561 -0.4902 -0.4336
vn 0.6337 -0.4850 0.6026
vn 0.0118 -0.9961 -0.0877
vn -0.0620 -0.0692 0.9957
vn 0.0272 -0.9921 -0.1221
vn -0.9324 0.3142 -0.1787
vn -0.3366 -0.6112 -0.7163
vn 0.1412 -0.7179 -0.6817
vn -0.0713 -0.9946 0.0749
vn -0.4279 0.0551 0.9021
vn 0.2239 0.7898 0.5710
vn -0.0787 0.9801 0.1820
vn 0.1122 0.9165 0.3839
vn -0.2177 -0.0249 0.9757
vn -0.2348 -0.1849 0.9543
vn -0.1992 0.2241 0.9540
vn -0.0934 -0.7833 -0.6146
vn -0.4724 0.2933 0.8311
vn -0.4051 0.8376 0.3665
vn 0.0069 0.9994 0.0340
vn -0.0739 0.4734 0.8777
vn -0.1622 0.4242 0.8909
vn 0.4060 -0.0198 0.9136
vn -0.1338 0.0451 0.9900
vn 0.1804 -0.9692 0.1676
vn 0.5025 -0.8589 0.0990
vn -0.3009 -0.0769 0.9505
vn 0.0343 -0.9978 0.0557
vn -0.1791 -0.6433 0.7443
vn -0.1370 0.9812 -0.1360
vn -0.0807 -0.3395 0.9371
vn -0.0411 -0.4990 0.8656
vn -0.2101 0.0173 0.9775
vn -0.0786 -0.4458 0.8916
vn -0.3293 0.8109 -0.4837
vn 0.0379 0.1718 0.9844
vn -0.2019 -0.7044 0.6804
vn -0.2528 -0.8189 0.5152
vn -0.9133 0.1406 0.3822
vn -0.3158 0.9012 0.2968
vn -0.2935 -0.6490 0.7019
vn 0.2018 -0.7828 0.5886
vn -0.1557 -0.0841 0.9842
vn -0.2527 0.5779 -0.7760
vn -0.4048 -0.1344 0.9044
vn -0.4871 -0.7971 0.3568
vn -0.2756 -0.4274 0.8610
vn -0.3731 0.6639 -0.6481
vn -0.0953 0.6842 0.7230
vn -0.7793 -0.5029 -0.3738
vn -0.7341 -0.3953 -0.5521
vn 0.9312 -0.2905 -0.2198
vn 0.0370 -0.9830 -0.1798
vn -0.1051 0.9823 -0.1551
vn -0.8352 -0.2447 -0.4924
vn 0.1002 0.6900 -0.7168
vn -0.1636 0.1008 -0.9814
# 252 vertex normals

vt 0.4916 0.7898 0.0000
vt 0.4620 0.7190 0.0000
vt 0.4950 0.7165 0.0000
vt 0.8316 0.3243 0.0000
vt 0.8194 0.2348 0.0000
vt 0.8399 0.2564 0.0000
vt 0.4374 0.6090 0.0000
vt 0.4270 0.6799 0.0000
vt 0.3935 0.6538 0.0000
vt 0.3769 0.7128 0.0000
vt 0.1841 0.2017 0.0000
vt 0.1164 0.2085 0.0000
vt 0.1221 0.1675 0.0000
vt 0.4980 0.6449 0.0000
vt 0.3684 0.7363 0.0000
vt 0.2880 0.8886 0.0000
vt 0.3299 0.8684 0.0000
vt 0.3299 0.9368 0.0000
vt 0.1404 0.4147 0.0000
vt 0.1479 0.3636 0.0000
vt 0.1692 0.3455 0.0000
vt 0.2246 0.3657 0.0000
vt 0.2695 0.4096 0.0000
vt 0.3678 0.8548 0.0000
vt 0.4003 0.8105 0.0000
vt 0.4180 0.8705 0.0000
vt 0.6174 0.6309 0.0000
vt 0.5864 0.5915 0.0000
vt 0.6424 0.6027 0.0000
vt 0.5609 0.6181 0.0000
vt 0.1157 0.3539 0.0000
vt 0.0692 0.8814 0.0000
vt 0.0692 0.9290 0.0000
vt 0.0404 0.9130 0.0000
vt 0.2329 0.1779 0.0000
vt 0.2032 0.2463 0.0000
vt 0.6123 0.7906 0.0000
vt 0.6096 0.7240 0.0000
vt 0.6377 0.7706 0.0000
vt 0.6347 0.8155 0.0000
vt 0.5854 0.8000 0.0000
vt 0.5228 0.6715 0.0000
vt 0.7145 0.2288 0.0000
vt 0.8015 0.2084 0.0000
vt 0.7579 0.3010 0.0000
vt 0.5199 0.5809 0.0000
vt 0.5140 0.5996 0.0000
vt 0.4969 0.5424 0.0000
vt 0.2101 0.1636 0.0000
vt 0.1811 0.1096 0.0000
vt 0.1280 0.1037 0.0000
vt 0.1458 0.0785 0.0000
vt 0.5582 0.5614 0.0000
vt 0.5991 0.5725 0.0000
vt 0.4969 0.6177 0.0000
vt 0.5871 0.6816 0.0000
vt 0.0585 0.9677 0.0000
vt 0.5546 0.8223 0.0000
vt 0.5909 0.7283 0.0000
vt 0.5244 0.8524 0.0000
vt 0.4717 0.8494 0.0000
vt 0.0760 0.1866 0.0000
vt 0.0882 0.2207 0.0000
vt 0.0716 0.2376 0.0000
vt 0.7674 0.1895 0.0000
vt 0.7931 0.5265 0.0000
vt 0.8037 0.6427 0.0000
vt 0.7477 0.6342 0.0000
vt 0.7306 0.5312 0.0000
vt 0.0461 0.3034 0.0000
vt 0.0608 0.2684 0.0000
vt 0.0681 0.2932 0.0000
vt 0.3586 0.7069 0.0000
vt 0.9049 0.4925 0.0000
vt 0.8445 0.4871 0.0000
vt 0.8733 0.4210 0.0000
vt 0.3405 0.6713 0.0000
vt 0.2212 0.0992 0.0000
vt 0.8609 0.5309 0.0000
vt 0.1457 0.5520 0.0000
vt 0.1881 0.5231 0.0000
vt 0.2111 0.5292 0.0000
vt 0.3443 0.6387 0.0000
vt 0.3819 0.6373 0.0000
vt 0.2172 0.4559 0.0000
vt 0.1567 0.4729 0.0000
vt 0.1706 0.4345 0.0000
vt 0.4440 0.5489 0.0000
vt 0.5264 0.9238 0.0000
vt 0.4642 0.9410 0.0000
vt 0.3839 0.5492 0.0000
vt 0.3966 0.6079 0.0000
vt 0.2880 0.6931 0.0000
vt 0.3369 0.5996 0.0000
vt 0.3199 0.6587 0.0000
vt 0.3124 0.7180 0.0000
vt 0.3369 0.7137 0.0000
vt 0.0568 0.7778 0.0000
vt 0.1111 0.7372 0.0000
vt 0.1460 0.7757 0.0000
vt 0.7727 0.7990 0.0000
vt 0.7060 0.7828 0.0000
vt 0.7561 0.7431 0.0000
vt 0.4292 0.0047 0.0000
vt 0.4695 0.0765 0.0000
vt 0.4307 0.0763 0.0000
vt 0.1479 0.7101 0.0000
vt 0.1320 0.6846 0.0000
vt 0.1606 0.6734 0.0000
vt 0.4612 0.5280 0.0000
vt 0.4144 0.5174 0.0000
vt 0.1103 0.8157 0.0000
vt 0.6512 0.5814 0.0000
vt 0.6498 0.5540 0.0000
vt 0.6790 0.5359 0.0000
vt 0.1022 0.4001 0.0000
vt 0.0282 0.3497 0.0000
vt 0.1037 0.3485 0.0000
vt 0.1121 0.8778 0.0000
vt 0.0464 0.8332 0.0000
vt 0.0641 0.8233 0.0000
vt 0.8588 0.6738 0.0000
vt 0.8488 0.7946 0.0000
vt 0.8160 0.7283 0.0000
vt 0.8814 0.7973 0.0000
vt 0.1970 0.6977 0.0000
vt 0.6239 0.5709 0.0000
vt 0.0821 0.9182 0.0000
vt 0.0727 0.8814 0.0000
vt 0.1101 0.8951 0.0000
vt 0.9136 0.8813 0.0000
vt 0.8457 0.8753 0.0000
vt 0.8783 0.8430 0.0000
vt 0.1415 0.6202 0.0000
vt 0.1042 0.6636 0.0000
vt 0.4187 0.7700 0.0000
vt 0.9641 0.2430 0.0000
vt 0.9641 0.3060 0.0000
vt 0.9443 0.2596 0.0000
vt 0.1101 0.9350 0.0000
vt 0.0856 0.5751 0.0000
vt 0.0472 0.5751 0.0000
vt 0.1258 0.5533 0.0000
vt 0.0342 0.5370 0.0000
vt 0.0625 0.4553 0.0000
vt 0.1219 0.4996 0.0000
vt 0.9635 0.3946 0.0000
vt 0.9443 0.3416 0.0000
vt 0.9635 0.3095 0.0000
vt 0.5922 0.6463 0.0000
vt 0.6352 0.6608 0.0000
vt 0.7507 0.8755 0.0000
vt 0.7829 0.8190 0.0000
vt 0.7947 0.8397 0.0000
vt 0.5383 0.9696 0.0000
vt 0.4775 0.9649 0.0000
vt 0.8571 0.1162 0.0000
vt 0.8751 0.1253 0.0000
vt 0.8534 0.1470 0.0000
vt 0.7801 0.8973 0.0000
vt 0.6424 0.7313 0.0000
vt 0.0314 0.6733 0.0000
vt 0.0941 0.6227 0.0000
vt 0.8391 0.4543 0.0000
vt 0.8203 0.4886 0.0000
vt 0.8231 0.4230 0.0000
vt 0.8776 0.3703 0.0000
vt 0.7669 0.3860 0.0000
vt 0.2212 0.6162 0.0000
vt 0.1636 0.6298 0.0000
vt 0.9022 0.5229 0.0000
vt 0.0108 0.4230 0.0000
vt 0.1809 0.2746 0.0000
vt 0.1073 0.2684 0.0000
vt 0.8844 0.2531 0.0000
vt 0.9206 0.3284 0.0000
vt 0.6237 0.8875 0.0000
vt 0.5211 0.8916 0.0000
vt 0.3464 0.5890 0.0000
vt 0.3621 0.5964 0.0000
vt 0.3772 0.5978 0.0000
vt 0.1065 0.1053 0.0000
vt 0.1277 0.0867 0.0000
vt 0.8762 0.9430 0.0000
vt 0.8953 0.9302 0.0000
vt 0.8953 0.9533 0.0000
vt 0.5262 0.0578 0.0000
vt 0.5047 0.0261 0.0000
vt 0.5556 0.0396 0.0000
vt 0.1488 0.6010 0.0000
vt 0.1147 0.6074 0.0000
vt 0.5179 0.1990 0.0000
vt 0.4665 0.1042 0.0000
vt 0.5228 0.0918 0.0000
vt 0.5686 0.1862 0.0000
vt 0.5628 0.1033 0.0000
vt 0.6040 0.1542 0.0000
vt 0.5357 0.0204 0.0000
vt 0.5387 0.0932 0.0000
vt 0.4402 0.1908 0.0000
vt 0.2199 0.8961 0.0000
vt 0.2373 0.8814 0.0000
vt 0.2373 0.9535 0.0000
vt 0.4084 0.0984 0.0000
vt 0.2742 0.4804 0.0000
vt 0.2513 0.5146 0.0000
vt 0.2367 0.7039 0.0000
vt 0.1925 0.6879 0.0000
vt 0.4155 0.1655 0.0000
vt 0.9027 0.5333 0.0000
vt 0.9562 0.5626 0.0000
vt 0.9177 0.1622 0.0000
vt 0.8444 0.2066 0.0000
vt 0.8813 0.1432 0.0000
vt 0.3628 0.1072 0.0000
vt 0.3765 0.0551 0.0000
vt 0.2223 0.7505 0.0000
vt 0.3623 0.8844 0.0000
vt 0.6892 0.1786 0.0000
vt 0.7627 0.0869 0.0000
vt 0.2482 0.7660 0.0000
vt 0.2787 0.7735 0.0000
vt 0.2396 0.7875 0.0000
vt 0.9185 0.4374 0.0000
vt 0.9172 0.8861 0.0000
vt 0.9413 0.8677 0.0000
vt 0.9378 0.9066 0.0000
vt 0.6350 0.8485 0.0000
vt 0.9659 0.6026 0.0000
vt 0.5547 0.4281 0.0000
vt 0.5625 0.4651 0.0000
vt 0.5049 0.4767 0.0000
vt 0.2769 0.7237 0.0000
vt 0.2776 0.7530 0.0000
vt 0.2642 0.7422 0.0000
vt 0.9436 0.7327 0.0000
vt 0.2880 0.8003 0.0000
vt 0.3365 0.8313 0.0000
vt 0.3056 0.8364 0.0000
vt 0.7939 0.8007 0.0000
vt 0.3002 0.4926 0.0000
vt 0.5884 0.3623 0.0000
vt 0.5433 0.3094 0.0000
vt 0.6106 0.2843 0.0000
vt 0.3352 0.4675 0.0000
vt 0.9463 0.8227 0.0000
vt 0.9207 0.8190 0.0000
vt 0.2897 0.4450 0.0000
vt 0.3331 0.3661 0.0000
vt 0.3369 0.4183 0.0000
vt 0.9111 0.3657 0.0000
vt 0.6214 0.1003 0.0000
vt 0.0020 0.8189 0.0000
vt 0.0182 0.7786 0.0000
vt 0.5844 0.0645 0.0000
vt 0.6208 0.0535 0.0000
vt 0.4259 0.3781 0.0000
vt 0.3804 0.3360 0.0000
vt 0.3854 0.3091 0.0000
vt 0.9982 0.7443 0.0000
vt 0.9797 0.6727 0.0000
vt 0.1834 0.7407 0.0000
vt 0.9542 0.8083 0.0000
vt 0.7063 0.3395 0.0000
vt 0.5813 0.9535 0.0000
vt 0.6026 0.2188 0.0000
vt 0.9407 0.2882 0.0000
vt 0.9226 0.2394 0.0000
vt 0.9368 0.2544 0.0000
vt 0.3852 0.0018 0.0000
vt 0.8403 0.0731 0.0000
vt 0.8533 0.1147 0.0000
vt 0.7678 0.0556 0.0000
vt 0.5940 0.4336 0.0000
vt 0.1681 0.8814 0.0000
vt 0.1681 0.9453 0.0000
vt 0.1431 0.8859 0.0000
vt 0.5612 0.3741 0.0000
vt 0.4775 0.3485 0.0000
vt 0.0107 0.4589 0.0000
vt 0.3775 0.4511 0.0000
vt 0.3474 0.3960 0.0000
vt 0.3667 0.3944 0.0000
vt 0.3961 0.7386 0.0000
vt 0.9291 0.1812 0.0000
vt 0.3643 0.2163 0.0000
vt 0.3581 0.1651 0.0000
vt 0.2486 0.2971 0.0000
vt 0.2787 0.3211 0.0000
vt 0.3369 0.3056 0.0000
vt 0.3034 0.2584 0.0000
vt 0.3290 0.2442 0.0000
vt 0.3746 0.2713 0.0000
vt 0.0369 0.9229 0.0000
vt 0.0310 0.9611 0.0000
vt 0.0018 0.9159 0.0000
vt 0.3579 0.2491 0.0000
vt 0.4409 0.5128 0.0000
vt 0.4313 0.4369 0.0000
vt 0.6741 0.4127 0.0000
vt 0.7652 0.4748 0.0000
vt 0.7121 0.4533 0.0000
vt 0.9059 0.8154 0.0000
vt 0.5579 0.2255 0.0000
vt 0.8375 0.1519 0.0000
vt 0.8027 0.1535 0.0000
vt 0.6283 0.2810 0.0000
vt 0.2657 0.2155 0.0000
vt 0.9931 0.6222 0.0000
vt 0.8793 0.9219 0.0000
vt 0.8648 0.9112 0.0000
vt 0.8793 0.8849 0.0000
vt 0.0018 0.8400 0.0000
vt 0.6083 0.4712 0.0000
vt 0.6436 0.4720 0.0000
vt 0.6210 0.4965 0.0000
vt 0.5701 0.5118 0.0000
vt 0.6019 0.5054 0.0000
vt 0.7016 0.2296 0.0000
vt 0.6377 0.2334 0.0000
vt 0.6625 0.4435 0.0000
vt 0.2972 0.1483 0.0000
vt 0.2674 0.6805 0.0000
vt 0.8829 0.9013 0.0000
vt 0.8953 0.8849 0.0000
vt 0.8953 0.9266 0.0000
vt 0.6377 0.9202 0.0000
vt 0.4091 0.5123 0.0000
vt 0.3791 0.5010 0.0000
vt 0.6763 0.3103 0.0000
vt 0.6817 0.2799 0.0000
vt 0.1975 0.9043 0.0000
vt 0.2163 0.8814 0.0000
vt 0.2163 0.9513 0.0000
vt 0.2584 0.9303 0.0000
vt 0.2787 0.8814 0.0000
vt 0.2787 0.9366 0.0000
vt 0.2867 0.0940 0.0000
vt 0.2937 0.2543 0.0000
vt 0.3135 0.2000 0.0000
vt 0.9469 0.2131 0.0000
vt 0.5965 0.9477 0.0000
vt 0.6462 0.3375 0.0000
vt 0.6455 0.3699 0.0000
vt 0.7947 0.9437 0.0000
vt 0.7692 0.9122 0.0000
vt 0.6498 0.4028 0.0000
vt 0.6690 0.3443 0.0000
vt 0.6655 0.1497 0.0000
vt 0.4934 0.2798 0.0000
vt 0.0855 0.1436 0.0000
vt 0.6457 0.4065 0.0000
vt 0.6032 0.4067 0.0000
vt 0.0196 0.7017 0.0000
vt 0.1093 0.7029 0.0000
vt 0.4907 0.5131 0.0000
vt 0.6771 0.1052 0.0000
vt 0.7215 0.0564 0.0000
vt 0.1879 0.0721 0.0000
vt 0.8011 0.9305 0.0000
vt 0.7983 0.8831 0.0000
vt 0.8421 0.8697 0.0000
vt 0.6462 0.1632 0.0000
vt 0.6457 0.1924 0.0000
vt 0.2787 0.6549 0.0000
vt 0.3405 0.2214 0.0000
vt 0.3971 0.1233 0.0000
vt 0.0367 0.5961 0.0000
vt 0.0141 0.5322 0.0000
vt 0.1939 0.8814 0.0000
vt 0.1939 0.9426 0.0000
vt 0.1716 0.9093 0.0000
vt 0.3922 0.0301 0.0000
vt 0.1395 0.9478 0.0000
vt 0.1136 0.9122 0.0000
vt 0.1395 0.8814 0.0000
vt 0.8457 0.8898 0.0000
vt 0.8612 0.8849 0.0000
vt 0.8612 0.9464 0.0000
vt 0.9071 0.8849 0.0000
vt 0.9071 0.9282 0.0000
vt 0.8988 0.9087 0.0000
vt 0.7892 0.0018 0.0000
vt 0.8228 0.0474 0.0000
vt 0.7407 0.0162 0.0000
vt 0.0018 0.4926 0.0000
vt 0.2572 0.8963 0.0000
vt 0.0417 0.6188 0.0000
vt 0.3331 0.7607 0.0000
vt 0.6498 0.9639 0.0000
vt 0.7341 0.9426 0.0000
vt 0.7471 0.9903 0.0000
vt 0.6526 0.1261 0.0000
vt 0.1663 0.7830 0.0000
vt 0.1702 0.8252 0.0000
vt 0.3277 0.8400 0.0000
vt 0.9136 0.8190 0.0000
vt 0.6589 0.8843 0.0000
vt 0.7471 0.8893 0.0000
vt 0.7162 0.8190 0.0000
vt 0.3692 0.5285 0.0000
vt 0.6893 0.6903 0.0000
vt 0.6920 0.7200 0.0000
vt 0.8291 0.1866 0.0000
vt 0.9966 0.5637 0.0000
vt 0.9982 0.5908 0.0000
vt 0.6843 0.6599 0.0000
vt 0.2854 0.0429 0.0000
vt 0.2380 0.0018 0.0000
vt 0.2737 0.0208 0.0000
vt 0.8165 0.8190 0.0000
vt 0.0449 0.7461 0.0000
vt 0.1995 0.0390 0.0000
vt 0.2724 0.5996 0.0000
vt 0.0307 0.3838 0.0000
vt 0.2026 0.7667 0.0000
vt 0.6586 0.6268 0.0000
vt 0.3796 0.5794 0.0000
vt 0.2526 0.8814 0.0000
vt 0.2526 0.9535 0.0000
vt 0.2409 0.9084 0.0000
vt 0.3822 0.9345 0.0000
vt 0.4095 0.9729 0.0000
vt 0.3889 0.9761 0.0000
vt 0.9197 0.9138 0.0000
vt 0.9640 0.1031 0.0000
vt 0.9716 0.1420 0.0000
vt 0.9469 0.1391 0.0000
vt 0.0346 0.7654 0.0000
vt 0.9443 0.1761 0.0000
vt 0.9716 0.1769 0.0000
vt 0.2060 0.8008 0.0000
vt 0.9677 0.0995 0.0000
vt 0.9443 0.0468 0.0000
vt 0.9749 0.0535 0.0000
vt 0.9590 0.3982 0.0000
vt 0.9590 0.4837 0.0000
vt 0.9443 0.4627 0.0000
vt 0.9407 0.4716 0.0000
vt 0.5280 0.5523 0.0000
vt 0.0108 0.3935 0.0000
vt 0.3021 0.7729 0.0000
vt 0.3365 0.7216 0.0000
vt 0.3858 0.5166 0.0000
vt 0.9601 0.8977 0.0000
vt 0.9499 0.8899 0.0000
vt 0.9601 0.8190 0.0000
vt 0.9749 0.0018 0.0000
vt 0.0369 0.8814 0.0000
vt 0.3317 0.2223 0.0000
vt 0.9891 0.7773 0.0000
vt 0.1594 0.0776 0.0000
vt 0.8421 0.9293 0.0000
vt 0.6974 0.2306 0.0000
vt 0.7228 0.9974 0.0000
vt 0.9463 0.9421 0.0000
vt 0.9563 0.2095 0.0000
# 457 texture coords

usemtl Rock23
o rock23_lr
g rock23_lr
f 1/1/1 2/2/2 3/3/3 
f 4/4/4 5/5/5 6/6/6 
f 7/7/7 8/8/8 9/9/9 
f 9/9/9 8/8/8 10/10/10 
f 11/11/11 12/12/12 13/13/13 
f 8/8/8 14/14/14 2/2/2 
f 10/10/10 8/8/8 15/15/15 
f 16/16/16 17/17/17 2/18/2 
f 18/19/18 19/20/19 20/21/20 
f 21/22/21 22/23/22 18/19/18 
f 23/24/23 24/25/24 25/26/25 
f 18/19/18 20/21/20 21/22/21 
f 26/27/26 27/28/27 28/29/28 
f 27/28/27 26/27/26 29/30/29 
f 19/20/19 30/31/30 20/21/20 
f 31/32/31 32/33/32 26/34/26 
f 33/35/33 34/36/34 11/11/11 
f 35/37/35 36/38/36 37/39/37 
f 38/40/38 39/41/39 35/37/35 
f 14/14/14 40/42/40 3/3/3 
f 41/43/41 42/44/42 43/45/43 
f 44/46/44 45/47/45 46/48/46 
f 33/35/33 11/11/11 47/49/47 
f 48/50/48 49/51/49 50/52/50 
f 51/53/51 52/54/52 27/28/27 
f 53/55/53 54/56/54 40/42/40 
f 53/55/53 40/42/40 14/14/14 
f 44/46/44 29/30/29 45/47/45 
f 26/34/26 32/33/32 29/57/29 
f 29/30/29 54/56/54 53/55/53 
f 44/46/44 27/28/27 29/30/29 
f 55/58/55 40/42/40 56/59/56 
f 35/37/35 39/41/39 36/38/36 
f 55/58/55 57/60/57 1/1/1 
f 1/1/1 57/60/57 58/61/58 
f 59/62/59 60/63/60 61/64/61 
f 12/12/12 60/63/60 59/62/59 
f 41/43/41 62/65/62 42/44/42 
f 63/66/63 64/67/64 65/68/65 
f 66/69/66 63/66/63 65/68/65 
f 67/70/67 23/71/23 68/72/68 
f 10/10/10 15/15/15 69/73/69 
f 28/74/28 70/75/70 71/76/71 
f 69/73/69 72/77/72 10/10/10 
f 48/50/48 73/78/73 47/49/47 
f 63/66/63 74/79/74 64/67/64 
f 63/80/63 75/81/75 74/82/74 
f 76/83/76 77/84/77 10/10/10 
f 78/85/78 79/86/79 80/87/80 
f 45/47/45 81/88/81 46/48/46 
f 58/61/58 82/89/82 83/90/83 
f 81/88/81 45/47/45 53/55/53 
f 84/91/84 53/55/53 85/92/85 
f 84/91/84 81/88/81 53/55/53 
f 85/93/85 53/94/53 7/95/7 
f 77/96/77 85/93/85 9/97/9 
f 7/7/7 14/14/14 8/8/8 
f 86/98/86 87/99/87 88/100/88 
f 70/101/70 89/102/89 90/103/90 
f 91/104/91 92/105/92 93/106/93 
f 94/107/94 95/108/95 96/109/96 
f 81/88/81 97/110/97 46/48/46 
f 98/111/98 97/110/97 81/88/81 
f 88/100/88 99/112/99 86/98/86 
f 98/113/98 100/114/100 101/115/101 
f 102/116/102 103/117/103 104/118/104 
f 105/119/105 106/120/106 107/121/107 
f 108/122/108 109/123/109 110/124/110 
f 108/122/108 111/125/111 109/123/109 
f 112/126/112 94/107/94 96/109/96 
f 52/54/52 51/53/51 89/127/89 
f 95/128/95 94/129/94 113/130/113 
f 16/131/16 67/132/67 103/133/103 
f 114/134/114 95/108/95 115/135/115 
f 1/1/1 16/136/16 2/2/2 
f 67/137/67 16/138/16 24/139/24 
f 95/128/95 113/130/113 115/140/115 
f 64/67/64 108/122/108 110/124/110 
f 66/141/66 116/142/116 117/143/117 
f 118/144/118 119/145/119 120/146/120 
f 117/143/117 120/146/120 63/80/63 
f 36/147/36 54/148/54 32/149/32 
f 36/38/36 32/150/32 31/151/31 
f 54/56/54 36/38/36 56/59/56 
f 96/152/96 114/153/114 121/154/121 
f 99/155/99 122/156/122 82/89/82 
f 123/157/123 124/158/124 125/159/125 
f 86/98/86 107/121/107 106/120/106 
f 126/160/126 96/152/96 121/154/121 
f 31/151/31 127/161/127 36/38/36 
f 128/162/128 129/163/129 115/135/115 
f 70/75/70 130/164/130 71/76/71 
f 130/164/130 131/165/131 132/166/132 
f 4/4/4 133/167/133 132/166/132 
f 132/166/132 134/168/134 4/4/4 
f 56/59/56 40/42/40 54/56/54 
f 114/134/114 115/135/115 129/163/129 
f 91/169/91 121/170/121 114/134/114 
f 40/42/40 1/1/1 3/3/3 
f 28/74/28 89/171/89 70/75/70 
f 28/29/28 52/54/52 89/127/89 
f 102/116/102 30/31/30 18/19/18 
f 119/145/119 69/172/69 102/116/102 
f 20/21/20 30/31/30 135/173/135 
f 79/86/79 18/19/18 80/87/80 
f 30/31/30 136/174/136 135/173/135 
f 6/6/6 137/175/137 37/176/37 
f 39/41/39 138/177/138 105/178/105 
f 118/179/118 139/180/139 76/83/76 
f 140/181/140 77/84/77 139/180/139 
f 141/182/141 142/183/142 49/51/49 
f 129/184/129 143/185/143 144/186/144 
f 145/187/145 146/188/146 143/189/143 
f 27/28/27 52/54/52 28/29/28 
f 146/190/146 114/134/114 144/191/144 
f 147/192/147 148/193/148 149/194/149 
f 150/195/150 151/196/151 152/197/152 
f 149/194/149 92/105/92 145/187/145 
f 146/188/146 144/198/144 143/189/143 
f 114/134/114 129/163/129 144/191/144 
f 92/105/92 149/194/149 148/193/148 
f 149/194/149 145/187/145 153/199/153 
f 93/106/93 148/193/148 154/200/154 
f 155/201/155 125/202/125 156/203/156 
f 93/106/93 154/200/154 157/204/157 
f 78/85/78 158/205/158 159/206/159 
f 78/85/78 159/206/159 75/81/75 
f 147/192/147 154/200/154 148/193/148 
f 160/207/160 126/208/126 91/169/91 
f 161/209/161 157/204/157 154/200/154 
f 159/210/159 162/211/162 74/79/74 
f 163/212/163 156/213/156 164/214/164 
f 125/159/125 164/214/164 156/213/156 
f 165/215/165 166/216/166 157/204/157 
f 159/206/159 74/82/74 75/81/75 
f 160/207/160 167/217/167 112/126/112 
f 61/218/61 23/24/23 25/26/25 
f 41/43/41 168/219/168 169/220/169 
f 170/221/170 141/222/141 171/223/171 
f 31/224/31 28/74/28 71/76/71 
f 172/225/172 173/226/173 174/227/174 
f 39/41/39 175/228/175 138/177/138 
f 156/213/156 6/6/6 5/5/5 
f 74/79/74 162/211/162 176/229/176 
f 177/230/177 178/231/178 179/232/179 
f 50/233/50 49/234/49 142/235/142 
f 108/122/108 180/236/180 111/125/111 
f 84/237/84 101/238/101 100/239/100 
f 110/124/110 109/123/109 131/240/131 
f 159/206/159 158/205/158 162/241/162 
f 181/242/181 182/243/182 183/244/183 
f 184/245/184 162/241/162 158/205/158 
f 122/246/122 173/226/173 83/247/83 
f 172/225/172 83/247/83 173/226/173 
f 185/248/185 186/249/186 187/250/187 
f 127/251/127 133/167/133 37/176/37 
f 188/252/188 152/197/152 151/196/151 
f 163/253/163 164/254/164 106/120/106 
f 189/255/189 188/252/188 151/196/151 
f 188/252/188 189/255/189 190/256/190 
f 191/257/191 192/258/192 193/259/193 
f 194/260/194 180/236/180 195/261/195 
f 101/115/101 66/69/66 98/113/98 
f 196/262/196 88/100/88 87/99/87 
f 194/260/194 197/263/197 180/236/180 
f 43/45/43 198/264/198 41/43/41 
f 82/89/82 107/265/107 99/155/99 
f 150/195/150 152/197/152 199/266/199 
f 5/5/5 42/44/42 156/213/156 
f 38/267/38 200/268/200 175/269/175 
f 11/11/11 34/36/34 136/174/136 
f 93/106/93 201/270/201 91/104/91 
f 29/30/29 32/150/32 54/56/54 
f 102/116/102 18/19/18 119/145/119 
f 202/271/202 203/272/203 204/273/204 
f 92/105/92 146/188/146 145/187/145 
f 205/274/205 178/231/178 177/230/177 
f 206/275/206 207/276/207 208/277/208 
f 177/230/177 179/232/179 209/278/209 
f 209/278/209 179/232/179 210/279/210 
f 210/279/210 191/257/191 193/259/193 
f 118/144/118 72/280/72 119/145/119 
f 187/281/187 186/282/186 211/283/211 
f 65/68/65 64/67/64 110/124/110 
f 17/284/17 15/15/15 8/8/8 
f 200/268/200 212/285/212 175/269/175 
f 92/105/92 148/193/148 93/106/93 
f 213/286/213 214/287/214 161/209/161 
f 74/79/74 176/229/176 108/122/108 
f 142/235/142 170/221/170 167/217/167 
f 215/288/215 135/173/135 34/36/34 
f 120/146/120 79/86/79 63/80/63 
f 18/19/18 22/23/22 78/85/78 
f 114/134/114 146/190/146 91/169/91 
f 186/249/186 22/23/22 207/289/207 
f 192/290/192 206/291/206 216/292/216 
f 193/259/193 192/258/192 216/293/216 
f 203/294/203 202/295/202 123/296/123 
f 215/288/215 21/22/21 135/173/135 
f 217/297/217 213/286/213 216/293/216 
f 156/213/156 137/175/137 6/6/6 
f 179/232/179 218/298/218 210/279/210 
f 137/175/137 156/213/156 200/268/200 
f 187/281/187 191/257/191 219/299/219 
f 220/300/220 198/264/198 134/168/134 
f 134/168/134 109/301/109 221/302/221 
f 21/22/21 215/288/215 207/289/207 
f 111/125/111 221/303/221 109/123/109 
f 191/257/191 187/281/187 192/258/192 
f 218/298/218 219/299/219 210/279/210 
f 222/304/222 147/192/147 150/195/150 
f 155/305/155 223/306/223 203/272/203 
f 181/242/181 183/244/183 224/307/224 
f 205/274/205 177/230/177 181/242/181 
f 110/124/110 90/103/90 65/68/65 
f 225/308/225 215/288/215 34/36/34 
f 218/309/218 195/261/195 176/229/176 
f 216/293/216 210/279/210 193/259/193 
f 197/310/197 226/311/226 227/312/227 
f 212/313/212 163/253/163 106/120/106 
f 228/314/228 227/315/227 226/316/226 
f 194/317/194 178/231/178 229/318/229 
f 168/219/168 41/43/41 224/319/224 
f 183/244/183 168/320/168 224/307/224 
f 197/263/197 111/125/111 180/236/180 
f 197/263/197 221/303/221 111/125/111 
f 220/300/220 221/302/221 197/321/197 
f 214/322/214 225/308/225 33/35/33 
f 196/262/196 94/107/94 112/126/112 
f 230/323/230 50/233/50 160/207/160 
f 226/324/226 197/325/197 229/326/229 
f 25/26/25 58/61/58 83/90/83 
f 212/327/212 138/177/138 175/228/175 
f 231/328/231 184/329/184 218/298/218 
f 41/43/41 232/330/232 233/331/233 
f 234/332/234 201/333/201 93/334/93 
f 178/231/178 226/316/226 229/318/229 
f 228/314/228 226/316/226 178/231/178 
f 178/231/178 205/274/205 228/314/228 
f 216/335/216 208/336/208 217/337/217 
f 160/207/160 142/235/142 167/217/167 
f 227/315/227 228/314/228 205/274/205 
f 163/212/163 212/285/212 156/213/156 
f 73/78/73 165/338/165 33/35/33 
f 208/339/208 225/308/225 235/340/235 
f 214/322/214 33/35/33 165/338/165 
f 23/341/23 67/137/67 24/139/24 
f 184/329/184 219/299/219 218/298/218 
f 187/250/187 184/245/184 185/248/185 
f 212/327/212 106/342/106 138/177/138 
f 233/343/233 232/344/232 181/242/181 
f 126/160/126 160/345/160 112/346/112 
f 187/281/187 211/283/211 192/258/192 
f 177/230/177 209/278/209 181/242/181 
f 225/308/225 34/36/34 33/35/33 
f 169/220/169 223/306/223 62/65/62 
f 194/317/194 179/232/179 178/231/178 
f 227/347/227 236/348/236 220/300/220 
f 168/219/168 237/349/237 169/220/169 
f 222/304/222 238/350/238 147/192/147 
f 13/13/13 239/351/239 141/182/141 
f 205/274/205 236/352/236 227/315/227 
f 198/264/198 220/300/220 236/348/236 
f 236/352/236 205/274/205 240/353/240 
f 205/274/205 181/242/181 240/353/240 
f 202/354/202 115/135/115 113/355/113 
f 194/317/194 195/356/195 179/232/179 
f 64/67/64 74/79/74 108/122/108 
f 239/351/239 12/12/12 59/62/59 
f 221/302/221 220/300/220 134/168/134 
f 232/344/232 240/353/240 181/242/181 
f 241/357/241 188/358/188 169/220/169 
f 232/344/232 236/352/236 240/353/240 
f 198/264/198 236/348/236 232/330/232 
f 141/222/141 170/221/170 142/235/142 
f 48/50/48 50/52/50 230/359/230 
f 233/343/233 181/242/181 224/307/224 
f 222/304/222 150/195/150 199/266/199 
f 190/360/190 189/361/189 143/362/143 
f 180/236/180 108/122/108 195/261/195 
f 225/308/225 214/322/214 235/340/235 
f 188/252/188 241/363/241 152/197/152 
f 152/197/152 241/363/241 242/364/242 
f 131/240/131 90/103/90 110/124/110 
f 223/306/223 42/44/42 62/65/62 
f 149/194/149 151/196/151 150/195/150 
f 243/365/243 160/207/160 91/169/91 
f 214/287/214 213/286/213 235/366/235 
f 214/287/214 244/367/244 161/209/161 
f 244/367/244 214/287/214 165/215/165 
f 116/142/116 101/368/101 139/369/139 
f 150/195/150 147/192/147 149/194/149 
f 175/228/175 39/41/39 38/40/38 
f 239/351/239 13/13/13 12/12/12 
f 165/370/165 157/371/157 244/372/244 
f 160/207/160 50/233/50 142/235/142 
f 192/258/192 211/283/211 186/282/186 
f 234/373/234 93/106/93 166/216/166 
f 78/85/78 185/248/185 158/205/158 
f 161/374/161 244/375/244 157/376/157 
f 120/146/120 119/145/119 18/19/18 
f 191/257/191 210/279/210 219/299/219 
f 143/377/143 129/378/129 245/379/245 
f 151/380/151 149/381/149 153/382/153 
f 118/144/118 116/142/116 139/369/139 
f 169/220/169 188/358/188 204/273/204 
f 186/249/186 207/289/207 192/290/192 
f 215/288/215 208/339/208 207/289/207 
f 204/273/204 245/383/245 128/384/128 
f 204/273/204 188/358/188 190/385/190 
f 224/319/224 41/43/41 233/331/233 
f 72/280/72 118/144/118 76/386/76 
f 192/290/192 207/289/207 206/291/206 
f 79/86/79 120/146/120 18/19/18 
f 206/387/206 208/336/208 216/335/216 
f 22/23/22 21/22/21 207/289/207 
f 105/178/105 58/61/58 57/60/57 
f 216/293/216 154/200/154 147/192/147 
f 129/163/129 128/162/128 245/388/245 
f 105/178/105 107/265/107 82/89/82 
f 216/293/216 147/192/147 238/350/238 
f 140/389/140 101/238/101 84/237/84 
f 154/200/154 216/293/216 213/286/213 
f 183/390/183 199/391/199 242/392/242 
f 242/393/242 241/357/241 237/349/237 
f 242/364/242 199/266/199 152/197/152 
f 75/81/75 63/80/63 79/86/79 
f 128/162/128 115/135/115 202/354/202 
f 134/168/134 132/166/132 109/301/109 
f 37/39/37 36/38/36 127/161/127 
f 116/142/116 118/144/118 120/146/120 
f 198/264/198 232/330/232 41/43/41 
f 127/251/127 31/224/31 71/76/71 
f 246/394/246 122/395/122 99/112/99 
f 116/142/116 66/141/66 101/368/101 
f 16/16/16 15/396/15 17/17/17 
f 103/133/103 15/397/15 16/131/16 
f 209/278/209 182/243/182 181/242/181 
f 210/279/210 238/350/238 182/243/182 
f 105/178/105 138/177/138 106/342/106 
f 11/11/11 136/174/136 60/63/60 
f 183/390/183 182/398/182 222/399/222 
f 136/174/136 34/36/34 135/173/135 
f 120/146/120 117/143/117 116/142/116 
f 209/278/209 210/279/210 182/243/182 
f 238/400/238 222/399/222 182/398/182 
f 58/61/58 16/136/16 1/1/1 
f 139/180/139 101/401/101 140/181/140 
f 4/4/4 43/45/43 5/5/5 
f 204/273/204 128/384/128 202/271/202 
f 195/356/195 218/298/218 179/232/179 
f 247/402/247 90/103/90 51/403/51 
f 96/109/96 95/108/95 114/134/114 
f 223/306/223 155/305/155 248/404/248 
f 136/174/136 61/64/61 60/63/60 
f 176/229/176 184/405/184 231/406/231 
f 247/402/247 46/407/46 65/68/65 
f 166/408/166 201/409/201 234/410/234 
f 162/211/162 184/405/184 176/229/176 
f 176/229/176 231/406/231 218/309/218 
f 86/98/86 99/112/99 107/121/107 
f 238/350/238 210/279/210 216/293/216 
f 145/411/145 143/362/143 189/361/189 
f 72/280/72 69/172/69 119/145/119 
f 16/136/16 58/61/58 24/25/24 
f 145/187/145 189/255/189 151/196/151 
f 86/98/86 123/412/123 113/355/113 
f 243/413/243 201/409/201 166/408/166 
f 169/220/169 204/273/204 223/306/223 
f 146/188/146 92/105/92 91/104/91 
f 105/178/105 55/58/55 39/41/39 
f 94/107/94 196/262/196 87/99/87 
f 91/169/91 201/414/201 243/365/243 
f 91/169/91 126/208/126 121/170/121 
f 102/116/102 249/415/249 103/117/103 
f 153/199/153 145/187/145 151/196/151 
f 87/99/87 113/355/113 94/107/94 
f 105/178/105 57/60/57 55/58/55 
f 51/403/51 90/103/90 89/102/89 
f 81/88/81 84/91/84 98/111/98 
f 167/217/167 250/416/250 196/262/196 
f 46/407/46 97/417/97 98/113/98 
f 251/418/251 84/91/84 85/92/85 
f 18/419/18 78/420/78 80/421/80 
f 59/422/59 25/26/25 172/423/172 
f 204/273/204 203/272/203 223/306/223 
f 169/220/169 62/65/62 41/43/41 
f 78/85/78 75/81/75 79/86/79 
f 85/93/85 7/95/7 9/97/9 
f 172/423/172 25/26/25 83/90/83 
f 239/424/239 59/422/59 172/423/172 
f 172/225/172 174/227/174 239/425/239 
f 30/31/30 68/72/68 136/174/136 
f 249/415/249 102/116/102 69/172/69 
f 47/49/47 73/78/73 33/35/33 
f 122/426/122 252/427/252 173/428/173 
f 164/254/164 124/429/124 86/98/86 
f 86/98/86 124/429/124 123/412/123 
f 174/430/174 252/427/252 171/431/171 
f 171/223/171 252/432/252 250/416/250 
f 13/13/13 48/50/48 11/11/11 
f 86/98/86 106/120/106 164/254/164 
f 246/394/246 250/416/250 252/432/252 
f 196/433/196 246/434/246 88/435/88 
f 72/77/72 76/83/76 10/10/10 
f 98/113/98 66/69/66 65/68/65 
f 98/113/98 65/68/65 46/407/46 
f 250/416/250 246/394/246 196/262/196 
f 166/408/166 73/78/73 243/413/243 
f 47/49/47 11/11/11 48/50/48 
f 10/436/10 77/437/77 9/438/9 
f 45/47/45 29/30/29 53/55/53 
f 31/224/31 26/439/26 28/74/28 
f 40/42/40 55/58/55 1/1/1 
f 44/46/44 247/440/247 27/28/27 
f 36/38/36 39/41/39 56/59/56 
f 247/440/247 44/46/44 46/48/46 
f 27/28/27 247/440/247 51/53/51 
f 13/13/13 49/51/49 48/50/48 
f 7/7/7 53/55/53 14/14/14 
f 137/175/137 200/268/200 37/176/37 
f 39/41/39 55/58/55 56/59/56 
f 69/172/69 15/441/15 249/415/249 
f 200/268/200 38/267/38 37/176/37 
f 90/103/90 131/240/131 70/101/70 
f 251/442/251 77/443/77 140/389/140 
f 251/418/251 85/92/85 77/84/77 
f 61/64/61 68/72/68 23/71/23 
f 84/91/84 100/444/100 98/111/98 
f 112/346/112 96/152/96 126/160/126 
f 15/441/15 103/117/103 249/415/249 
f 103/117/103 67/70/67 104/118/104 
f 30/445/30 104/446/104 68/447/68 
f 132/166/132 131/165/131 109/301/109 
f 202/354/202 113/355/113 123/412/123 
f 246/434/246 99/448/99 88/435/88 
f 66/141/66 117/143/117 63/80/63 
f 5/5/5 43/45/43 42/44/42 
f 133/167/133 127/251/127 71/76/71 
f 38/40/38 35/37/35 37/39/37 
f 122/156/122 83/90/83 82/89/82 
f 71/76/71 130/164/130 132/166/132 
f 248/404/248 42/44/42 223/306/223 
f 77/84/77 76/83/76 139/180/139 
f 112/126/112 167/217/167 196/262/196 
f 135/173/135 21/22/21 20/21/20 
f 84/237/84 251/442/251 140/389/140 
f 155/449/155 203/294/203 123/296/123 
f 18/19/18 30/31/30 19/20/19 
f 78/85/78 22/23/22 185/248/185 
f 248/404/248 155/305/155 156/213/156 
f 155/305/155 123/157/123 125/159/125 
f 156/213/156 42/44/42 248/404/248 
f 71/76/71 132/166/132 133/167/133 
f 102/116/102 104/118/104 30/31/30 
f 195/261/195 108/122/108 176/229/176 
f 156/213/156 212/285/212 200/268/200 
f 241/357/241 169/220/169 237/349/237 
f 213/286/213 217/297/217 235/366/235 
f 43/45/43 134/168/134 198/264/198 
f 230/359/230 73/78/73 48/50/48 
f 171/223/171 250/416/250 167/217/167 
f 158/205/158 185/248/185 184/245/184 
f 183/390/183 222/399/222 199/391/199 
f 73/78/73 166/408/166 165/338/165 
f 208/339/208 235/340/235 217/450/217 
f 213/286/213 161/209/161 154/200/154 
f 157/204/157 166/216/166 93/106/93 
f 58/61/58 25/26/25 24/25/24 
f 229/451/229 197/263/197 194/260/194 
f 227/347/227 220/300/220 197/321/197 
f 3/3/3 2/2/2 14/14/14 
f 13/13/13 141/182/141 49/51/49 
f 8/8/8 2/2/2 17/284/17 
f 219/299/219 184/329/184 187/281/187 
f 243/413/243 230/359/230 160/452/160 
f 143/362/143 245/453/245 190/360/190 
f 245/383/245 204/273/204 190/385/190 
f 208/339/208 215/288/215 225/308/225 
f 183/454/183 237/349/237 168/219/168 
f 237/455/237 183/390/183 242/392/242 
f 60/63/60 12/12/12 11/11/11 
f 22/23/22 186/249/186 185/248/185 
f 90/103/90 247/402/247 65/68/65 
f 134/168/134 43/45/43 4/4/4 
f 4/4/4 6/6/6 37/176/37 
f 87/99/87 86/98/86 113/355/113 
f 82/89/82 58/61/58 105/178/105 
f 243/413/243 73/78/73 230/359/230 
f 164/214/164 125/159/125 124/158/124 
f 37/176/37 133/167/133 4/4/4 
f 239/425/239 174/227/174 141/456/141 
f 246/394/246 252/432/252 122/395/122 
f 68/72/68 61/64/61 136/174/136 
f 171/223/171 167/217/167 170/221/170 
f 174/430/174 171/431/171 141/457/141 
f 61/218/61 25/26/25 59/422/59 
f 70/75/70 131/165/131 130/164/130 
f 104/118/104 67/70/67 68/72/68 
f 252/427/252 174/430/174 173/428/173 
# 0 polygons - 500 triangles

