# 3ds Max Wavefront OBJ Exporter v0.97b - (c)2007 guruware
# File Created: 24.05.2019 18:18:01

mtllib rock_03.mtl

#
# object rock03_lr
#

v  -8.7480 3.6320 1.8811
v  -9.1574 3.7229 1.5151
v  -10.7976 2.5648 2.4302
v  -11.4904 2.7839 0.2533
v  4.2473 3.8360 -9.9184
v  5.1567 4.5931 -9.5992
v  5.9654 3.9226 -9.9176
v  -6.9852 4.5322 2.6906
v  -6.7112 5.4918 2.2136
v  4.9078 -2.9632 11.8357
v  7.9145 -1.9271 11.1965
v  7.9953 -0.8099 12.1182
v  -8.7210 4.5178 -0.2028
v  -10.0456 3.3480 -1.2467
v  -9.7246 2.9252 4.7759
v  -9.2593 1.4891 6.1732
v  -8.6901 3.2054 5.1895
v  -12.2425 1.0208 5.6002
v  -6.4381 6.0158 0.7630
v  -15.3784 0.4528 -0.6552
v  -14.2404 0.8650 1.5278
v  -14.5670 -6.4887 -2.4798
v  -15.6850 -5.0769 -3.3886
v  -15.9092 -5.5538 -4.4022
v  -13.2199 -1.3183 5.3985
v  -12.9660 -0.1224 5.9248
v  -14.4956 -0.9149 3.3370
v  -13.8217 0.9919 3.3152
v  -15.1714 -1.3210 1.3023
v  -10.7022 0.4107 6.7288
v  -6.5253 4.1711 6.0785
v  -8.5092 2.0629 8.1754
v  -5.8558 3.6303 7.5163
v  -8.2115 4.0348 3.8193
v  -4.2258 4.9573 5.7450
v  -5.5659 4.9184 3.2641
v  -11.2566 -0.7716 7.8129
v  -10.7315 0.3162 7.8870
v  -13.1943 0.5745 -5.9170
v  -4.6801 6.3233 2.1827
v  -11.7326 -1.5301 7.2602
v  -8.2622 1.3140 9.2403
v  -8.3150 -0.5012 10.5497
v  -1.0052 0.4984 10.7559
v  -2.5994 5.4085 3.8953
v  -4.0351 5.6079 3.4366
v  -1.2901 6.8616 2.4840
v  -0.6463 6.0201 3.2936
v  -16.6430 -1.5546 -1.9639
v  -16.0821 -1.2032 -0.0905
v  -3.8283 7.1480 -3.5387
v  -5.1011 6.2761 -6.1936
v  16.4469 1.3853 -8.9134
v  14.7553 -0.6349 -8.5778
v  15.2905 1.5436 -9.4827
v  -14.5938 -5.8394 -1.1241
v  -12.6885 -3.6134 3.4872
v  -3.0264 7.1064 0.8274
v  -9.9019 -1.6939 9.4561
v  -10.1532 -0.1295 9.1893
v  0.0063 7.1624 -0.1694
v  0.0099 6.1886 5.5486
v  -8.1342 3.8931 -6.4942
v  -9.9734 2.7095 -6.4219
v  16.7432 2.1163 -7.9175
v  17.3702 0.5360 -7.1277
v  16.3316 -0.7301 -7.6068
v  13.5659 -2.2723 -6.7381
v  -1.9710 3.9590 7.9860
v  -0.2659 5.6596 6.7727
v  -15.0919 -4.4441 -1.1147
v  1.4206 6.5550 2.0863
v  11.2070 -3.8449 -6.1357
v  7.3187 -4.2653 -7.7238
v  12.5239 -2.1240 -7.5884
v  -8.8625 3.0414 -7.3484
v  -9.4969 2.2576 -9.4899
v  -12.6917 0.6198 -8.4101
v  -15.5813 -1.4491 -6.2104
v  -7.7224 -2.0530 10.7010
v  -5.7520 -1.1991 11.2912
v  -2.4592 7.2875 -5.7921
v  -16.2082 -0.8741 -3.4886
v  -16.1227 -2.6418 -2.6226
v  8.8913 -0.2052 -9.5273
v  11.7224 -0.8668 -8.3578
v  3.3717 -6.2227 -5.5318
v  0.2342 -6.1865 -6.2111
v  4.4790 -5.5401 -6.7784
v  7.9449 -5.3133 -5.8549
v  -10.9222 -4.9925 5.5601
v  -9.0801 -6.0254 3.9346
v  -8.7116 -5.3218 7.1738
v  2.2307 -5.1657 -7.0338
v  15.2702 -0.9475 -4.3739
v  16.6017 -0.3309 -2.5938
v  -16.2127 -2.5469 -3.4502
v  11.8256 -2.6363 0.2548
v  14.7371 -0.6563 0.7483
v  12.4145 3.0086 -9.9827
v  -14.1119 -2.5370 -8.5846
v  -9.4399 0.6895 -9.7011
v  -10.5837 -1.3541 -8.9255
v  0.6089 4.6486 8.4504
v  10.2071 3.4303 -8.6288
v  8.2184 3.7451 -9.6187
v  8.7989 4.1581 -8.1723
v  9.6839 -4.4954 -3.8445
v  -16.8558 -2.9445 -4.8694
v  -15.7041 -1.9695 -7.1813
v  -14.2872 -1.5432 -8.5779
v  13.5596 3.6779 -9.3195
v  9.2850 4.1663 -5.2771
v  11.7913 3.8166 -9.3655
v  10.5305 2.3525 -9.7426
v  -12.3494 -6.1111 0.6668
v  8.8882 4.6106 -3.8145
v  7.9456 4.7778 -1.9077
v  8.9703 4.8042 0.4162
v  0.5523 6.6418 -5.2285
v  -5.3553 5.3001 -9.8978
v  -6.9374 4.0602 -9.9583
v  -7.7359 -0.9644 -9.4214
v  -8.8021 -1.9875 -8.2433
v  -15.3083 -3.1067 -7.7908
v  -6.5517 -6.0310 0.4511
v  -9.3695 -6.2134 -3.2902
v  -6.2475 -3.0764 10.3296
v  -3.7589 -4.0836 10.0517
v  -3.5419 -2.5947 11.6206
v  4.7444 4.7767 8.9278
v  5.0021 5.4330 7.9423
v  -5.1558 -5.2445 7.0586
v  9.7563 2.8219 -9.3351
v  -16.8022 -4.0367 -5.7941
v  -1.7377 -4.1591 11.3531
v  0.2961 -2.7154 12.3052
v  -13.3095 -6.8151 -3.5781
v  -8.7746 -3.1057 9.3730
v  3.4610 -2.2858 12.2408
v  1.9424 -3.9854 11.8606
v  7.0938 3.1149 -9.9374
v  5.0951 1.6705 -9.5668
v  4.4893 2.5665 -9.3935
v  6.4888 0.3638 12.1932
v  2.8535 1.7697 10.5179
v  6.5153 5.5323 -0.5767
v  2.7308 6.4349 -1.9712
v  15.0892 0.2823 1.9066
v  -8.2846 -2.4131 -8.5380
v  -8.3525 -4.0331 -6.8033
v  -15.0714 -5.8704 -5.0170
v  3.0504 6.2746 4.5443
v  9.0010 4.3924 9.0163
v  -5.0976 1.7292 -9.8085
v  -7.7441 1.0109 -10.4622
v  -7.2051 3.0389 -10.3197
v  -5.6651 -6.3918 -1.8291
v  -3.2503 -6.0617 -0.6225
v  -0.0678 -4.9417 10.3551
v  -3.6035 -4.5818 8.0932
v  -4.2511 4.8160 -10.6953
v  -3.3396 -5.4778 3.2751
v  -13.4591 -5.0151 -6.1316
v  -12.3921 -6.4300 -5.2615
v  -2.7741 -5.0112 6.8428
v  -3.1584 6.9153 -9.2833
v  4.8800 5.4884 -2.2179
v  3.0165 5.8898 -3.3220
v  -7.5718 -3.6152 -8.1388
v  -7.1803 -5.9562 -4.9921
v  7.4972 4.8744 3.6927
v  11.2878 3.7364 1.8659
v  -6.7581 -4.5553 -7.2106
v  -7.0881 -6.2961 -4.0497
v  0.3425 -5.5288 7.5259
v  7.4985 5.0459 1.1513
v  -6.6884 -1.5866 -9.4312
v  -6.7131 -5.2350 -6.2458
v  8.9308 1.8039 -9.2094
v  7.4005 -0.0281 -9.3181
v  17.2328 0.3232 -4.6991
v  16.3492 2.0489 -2.0626
v  16.7250 0.7106 -1.5379
v  3.1841 6.1404 -8.0908
v  -0.6288 6.9810 -8.7940
v  -1.6358 -0.4442 -8.6873
v  -4.5499 -1.9690 -8.7838
v  4.3554 -0.8585 -8.4164
v  6.2636 -1.3488 -8.8813
v  -1.6510 5.8183 -9.6979
v  -2.3766 2.0443 -9.2781
v  -0.9679 -4.0110 -6.8772
v  0.2880 -1.4051 -8.4022
v  2.1015 -2.0734 -8.0272
v  7.8232 1.0337 -9.0489
v  -4.6462 -6.2551 -5.5251
v  3.8546 -4.6670 9.9457
v  9.2994 4.0234 9.9591
v  5.3512 5.6970 -7.2149
v  0.6879 6.1961 -9.4639
v  5.6762 -5.7603 -3.4559
v  -2.6716 -6.4294 -3.7967
v  0.0440 -5.5523 -0.4053
v  3.6545 -5.7384 1.8173
v  8.2923 3.0528 11.0435
v  9.9386 -0.4469 10.6203
v  12.2657 1.0671 8.5555
v  10.3929 1.2351 11.2009
v  6.9282 4.4866 -8.1023
v  -1.8481 -6.3325 -4.9613
v  -2.0239 -4.8390 -6.2949
v  -0.8906 -5.5357 -6.7341
v  3.3533 0.6044 -8.9192
v  1.7651 1.9608 -8.7059
v  6.4949 -5.2676 -0.4477
v  12.1738 -0.1172 6.8218
v  14.0812 0.9238 4.6834
v  12.7039 2.0609 8.3357
v  1.0463 4.8213 -9.4078
v  2.5387 5.2378 -9.4391
v  1.3422 -0.5069 -8.6800
v  15.6902 1.9952 0.1667
v  14.1925 1.7210 2.1836
v  5.5954 1.2500 -8.9932
v  9.4738 1.9113 11.5318
v  10.8789 2.6156 10.5555
v  -12.0459 -5.6276 2.4673
v  14.9157 3.5862 -7.9489
v  10.8842 4.1729 -4.5551
v  11.9934 4.4661 -5.7189
v  -10.8958 1.0899 -9.3220
v  12.6769 3.5005 1.1635
v  14.8053 2.9881 -1.9281
v  12.9608 3.7069 -2.5808
v  15.5317 3.5973 -3.7689
v  13.9055 -0.2812 3.6771
v  9.4364 -2.8696 4.9672
v  12.7102 3.0900 6.9022
v  13.6481 2.1422 5.6769
v  -9.0815 -5.3748 -5.9523
v  4.6373 5.1197 -8.3314
v  8.4301 4.8493 -6.0464
v  8.9185 3.8975 -6.5691
v  4.5194 -5.5480 4.8905
v  5.7579 -4.6582 7.1459
v  1.1968 -6.2524 -3.4025
v  10.4080 -2.9760 1.0858
v  7.6091 4.9795 -7.7473
v  1.2787 -5.7500 -2.1771
v  17.3918 1.6619 -5.3693
v  -8.7719 2.0629 -10.3184
# 252 vertices

vn -0.5022 0.7708 0.3921
vn -0.4983 0.7954 0.3450
vn -0.4708 0.8776 0.0905
vn -0.4699 0.8814 0.0474
vn -0.0576 -0.0440 -0.9973
vn 0.1449 0.7425 -0.6540
vn 0.0282 0.2065 -0.9780
vn -0.4709 0.7795 0.4129
vn -0.4807 0.7270 0.4902
vn 0.2569 -0.5867 0.7680
vn 0.5168 -0.7122 0.4751
vn 0.3451 -0.2738 0.8977
vn -0.6207 0.7832 0.0367
vn -0.5391 0.8379 -0.0853
vn -0.4299 0.7723 0.4677
vn -0.6047 0.6801 0.4144
vn -0.5173 0.7463 0.4188
vn -0.4782 0.6549 0.5851
vn -0.4579 0.8838 0.0957
vn -0.7161 0.6947 0.0674
vn -0.7122 0.6713 0.2052
vn -0.5077 -0.8470 0.1575
vn -0.8999 -0.2982 0.3181
vn -0.7697 -0.6381 0.0175
vn -0.8170 -0.2811 0.5035
vn -0.7032 0.2809 0.6531
vn -0.9189 -0.0992 0.3819
vn -0.7238 0.6433 0.2495
vn -0.8765 -0.0825 0.4743
vn -0.5597 0.6907 0.4579
vn -0.3518 0.8765 0.3286
vn -0.5217 0.7410 0.4228
vn -0.2250 0.7671 0.6007
vn -0.4195 0.8990 0.1259
vn -0.2567 0.9254 0.2790
vn -0.3540 0.8416 0.4078
vn -0.8770 0.2711 0.3967
vn -0.7663 0.5911 0.2517
vn -0.5733 0.8049 -0.1531
vn -0.2873 0.8637 0.4140
vn -0.7675 -0.1061 0.6322
vn -0.3046 0.6441 0.7016
vn -0.3634 0.2759 0.8898
vn -0.1117 0.4733 0.8737
vn -0.1516 0.9296 0.3360
vn -0.2295 0.8587 0.4582
vn 0.0169 0.8928 0.4501
vn -0.1083 0.9288 0.3544
vn -0.9996 0.0077 0.0273
vn -0.9177 0.0528 0.3937
vn -0.2880 0.9572 -0.0269
vn -0.5018 0.8555 -0.1275
vn 0.6639 0.0439 -0.7465
vn 0.2006 -0.5867 -0.7846
vn 0.3006 -0.0434 -0.9527
vn -0.6973 -0.6010 0.3906
vn -0.7826 -0.4612 0.4182
vn -0.1502 0.9775 0.1481
vn -0.6596 -0.2642 0.7036
vn -0.6631 0.3395 0.6671
vn 0.1467 0.9879 0.0508
vn -0.1448 0.9699 0.1957
vn -0.5855 0.7944 -0.1618
vn -0.5257 0.8351 -0.1615
vn 0.7704 0.5339 -0.3483
vn 0.9434 -0.2254 -0.2433
vn 0.5936 -0.7162 -0.3670
vn 0.4565 -0.8604 -0.2263
vn -0.2002 0.6315 0.7491
vn -0.1787 0.8600 0.4780
vn -0.9191 -0.3264 0.2207
vn 0.1291 0.9852 0.1128
vn 0.4536 -0.8563 -0.2470
vn 0.1144 -0.6253 -0.7719
vn 0.2403 -0.6617 -0.7102
vn -0.6042 0.7796 -0.1645
vn -0.5572 0.7128 -0.4258
vn -0.5865 0.6712 -0.4533
vn -0.7502 0.6278 -0.2074
vn -0.3533 -0.3358 0.8732
vn -0.1538 0.2103 0.9655
vn -0.0654 0.9966 -0.0504
vn -0.8730 0.4396 -0.2113
vn -0.9322 -0.3619 -0.0070
vn 0.0401 -0.1935 -0.9803
vn 0.1453 -0.3939 -0.9076
vn 0.1068 -0.9802 -0.1665
vn -0.0375 -0.8782 -0.4768
vn 0.0599 -0.7183 -0.6931
vn 0.2951 -0.9264 -0.2337
vn -0.5726 -0.7009 0.4251
vn -0.0782 -0.9839 0.1609
vn -0.2068 -0.8395 0.5024
vn -0.0254 -0.4371 -0.8990
vn 0.4406 -0.8936 0.0860
vn 0.7019 -0.6924 0.1670
vn -0.9889 -0.0206 0.1473
vn 0.4609 -0.8611 0.2145
vn 0.5998 -0.7652 0.2338
vn 0.0132 0.1752 -0.9844
vn -0.2213 -0.3749 -0.9002
vn -0.2405 -0.3119 -0.9192
vn 0.0999 -0.4606 -0.8820
vn -0.1772 0.6846 0.7071
vn -0.0788 0.9133 -0.3996
vn 0.2871 0.5718 -0.7685
vn 0.4295 0.8751 -0.2228
vn 0.4225 -0.9000 0.1075
vn -0.9660 0.2253 0.1265
vn -0.8030 0.3754 -0.4629
vn -0.5265 0.2243 -0.8200
vn 0.2912 0.7580 -0.5836
vn 0.3007 0.9378 -0.1736
vn -0.1382 0.8172 -0.5594
vn -0.1291 0.0566 -0.9900
vn -0.1647 -0.9651 0.2035
vn 0.2454 0.9686 -0.0385
vn 0.1999 0.9767 -0.0771
vn 0.2734 0.9606 0.0493
vn 0.2370 0.9713 -0.0211
vn -0.4745 0.7212 -0.5046
vn -0.5100 0.6506 -0.5628
vn -0.3221 -0.4488 -0.8336
vn -0.2541 -0.5046 -0.8251
vn -0.5318 -0.3581 -0.7674
vn 0.0256 -0.9959 0.0864
vn 0.0553 -0.9984 0.0013
vn -0.2367 -0.7332 0.6374
vn -0.2325 -0.8516 0.4697
vn -0.2048 -0.2085 0.9563
vn -0.0920 0.7261 0.6814
vn 0.0753 0.9349 0.3467
vn 0.0319 -0.9466 0.3207
vn -0.0333 0.3516 -0.9355
vn -0.8875 -0.3301 -0.3215
vn -0.2334 -0.7108 0.6635
vn -0.0868 -0.0092 0.9962
vn -0.0965 -0.9925 -0.0747
vn -0.4117 -0.6232 0.6649
vn -0.0034 -0.0038 1.0000
vn 0.0860 -0.6415 0.7623
vn 0.0748 -0.1030 -0.9919
vn -0.0116 -0.3722 -0.9280
vn -0.1796 -0.1986 -0.9635
vn -0.0696 0.2524 0.9651
vn -0.1541 0.4668 0.8708
vn 0.2775 0.9564 -0.0913
vn 0.2977 0.9474 -0.1177
vn 0.8899 -0.1857 0.4165
vn -0.5283 -0.4337 -0.7299
vn -0.1577 -0.6799 -0.7161
vn -0.3601 -0.8231 -0.4390
vn 0.1443 0.9846 0.0984
vn 0.2883 0.9407 0.1788
vn 0.1676 -0.2342 -0.9576
vn -0.0445 -0.2058 -0.9776
vn -0.0871 0.1605 -0.9832
vn -0.0502 -0.9955 0.0801
vn 0.0956 -0.9846 0.1459
vn -0.0677 -0.9322 0.3555
vn 0.0178 -0.9607 0.2769
vn 0.0215 0.1943 -0.9807
vn 0.0407 -0.9948 0.0926
vn -0.2772 -0.6889 -0.6697
vn -0.0259 -0.8689 -0.4943
vn -0.0789 -0.9770 0.1979
vn -0.1794 0.8509 -0.4937
vn 0.2812 0.9451 -0.1666
vn 0.3174 0.9419 -0.1100
vn -0.2563 -0.6483 -0.7169
vn -0.1126 -0.8855 -0.4508
vn 0.2986 0.9535 0.0396
vn 0.3759 0.9126 0.1605
vn -0.1242 -0.7324 -0.6694
vn -0.0930 -0.9854 -0.1422
vn -0.0417 -0.9892 0.1405
vn 0.2552 0.9627 0.0899
vn 0.0171 -0.4307 -0.9023
vn -0.2774 -0.7860 -0.5524
vn -0.2357 0.0926 -0.9674
vn -0.2490 0.0983 -0.9635
vn 0.9364 -0.3322 0.1126
vn 0.7970 0.5519 0.2452
vn 0.9564 -0.0344 0.2901
vn 0.3104 0.8942 -0.3225
vn 0.1433 0.9326 -0.3311
vn 0.1127 -0.1668 -0.9795
vn 0.1586 -0.4280 -0.8897
vn -0.0930 -0.2712 -0.9580
vn -0.1933 -0.2676 -0.9439
vn 0.1396 0.1680 -0.9758
vn 0.3820 -0.1025 -0.9185
vn -0.0551 -0.3911 -0.9187
vn 0.0396 -0.3890 -0.9203
vn 0.0016 -0.3594 -0.9332
vn -0.1967 0.0295 -0.9800
vn -0.0053 -0.8863 -0.4629
vn 0.2638 -0.8957 0.3580
vn 0.2734 0.8117 0.5160
vn 0.2318 0.9491 -0.2133
vn 0.1923 0.4987 -0.8451
vn 0.1953 -0.9783 0.0690
vn 0.0237 -0.9993 0.0284
vn 0.0262 -0.9939 0.1072
vn 0.0580 -0.9980 0.0249
vn 0.0095 0.5878 0.8090
vn 0.6509 -0.5823 0.4871
vn 0.8235 -0.3975 0.4048
vn 0.6190 -0.1026 0.7786
vn 0.1960 0.7790 -0.5956
vn -0.0572 -0.9405 -0.3349
vn -0.1299 -0.5852 -0.8003
vn -0.2917 -0.4859 -0.8238
vn -0.0684 -0.2161 -0.9740
vn -0.0741 -0.1526 -0.9855
vn 0.3393 -0.9339 0.1129
vn 0.6801 -0.6402 0.3570
vn 0.9347 -0.1237 0.3332
vn 0.8767 0.1170 0.4666
vn -0.0293 -0.1231 -0.9919
vn 0.1474 0.4900 -0.8591
vn 0.0164 -0.2038 -0.9789
vn 0.7429 0.5468 0.3861
vn 0.7177 0.6184 0.3200
vn 0.0830 -0.4562 -0.8860
vn 0.2567 0.3132 0.9143
vn 0.5982 0.4499 0.6631
vn -0.5178 -0.7580 0.3966
vn 0.4618 0.8460 -0.2665
vn 0.0588 0.9950 0.0808
vn 0.0399 0.9992 0.0057
vn -0.4127 0.2583 -0.8734
vn 0.4060 0.8482 0.3400
vn 0.4089 0.8716 0.2702
vn 0.2231 0.9655 0.1343
vn 0.4866 0.8563 0.1726
vn 0.6738 -0.6549 0.3421
vn 0.5266 -0.8236 0.2105
vn 0.6410 0.7434 0.1908
vn 0.8975 0.3959 0.1944
vn 0.1203 -0.6584 -0.7429
vn 0.2891 0.8247 -0.4861
vn 0.5304 0.8440 -0.0792
vn 0.5437 0.8268 -0.1440
vn 0.2316 -0.9669 0.1065
vn 0.4401 -0.8717 0.2153
vn 0.0837 -0.9789 0.1862
vn 0.4387 -0.8743 0.2075
vn 0.2843 0.8200 -0.4967
vn 0.1445 -0.9627 0.2288
vn 0.9394 0.3378 0.0581
vn -0.3912 0.2243 -0.8925
# 252 vertex normals

vt 0.5941 0.2072 0.0000
vt 0.5879 0.2011 0.0000
vt 0.6053 0.1640 0.0000
vt 0.5663 0.1537 0.0000
vt 0.7839 0.2475 0.0000
vt 0.7711 0.2301 0.0000
vt 0.7825 0.2155 0.0000
vt 0.7695 0.7341 0.0000
vt 0.7702 0.6937 0.0000
vt 0.7863 0.6825 0.0000
vt 0.0190 0.3312 0.0000
vt 0.0216 0.3905 0.0000
vt 0.0014 0.3956 0.0000
vt 0.5566 0.2147 0.0000
vt 0.5996 0.2577 0.0000
vt 0.5381 0.1818 0.0000
vt 0.6942 0.6957 0.0000
vt 0.7216 0.6794 0.0000
vt 0.7080 0.7118 0.0000
vt 0.6806 0.6384 0.0000
vt 0.5732 0.2663 0.0000
vt 0.5517 0.0681 0.0000
vt 0.5907 0.0916 0.0000
vt 0.6749 0.6743 0.0000
vt 0.6459 0.6530 0.0000
vt 0.6539 0.6339 0.0000
vt 0.5858 0.8215 0.0000
vt 0.5668 0.8326 0.0000
vt 0.5742 0.7787 0.0000
vt 0.5471 0.7830 0.0000
vt 0.5798 0.7393 0.0000
vt 0.7140 0.6468 0.0000
vt 0.6691 0.2505 0.0000
vt 0.7078 0.1997 0.0000
vt 0.6944 0.2573 0.0000
vt 0.6293 0.2206 0.0000
vt 0.6616 0.2953 0.0000
vt 0.6230 0.1005 0.0000
vt 0.5862 0.0563 0.0000
vt 0.6174 0.2718 0.0000
vt 0.6823 0.1480 0.0000
vt 0.7019 0.1286 0.0000
vt 0.7034 0.1472 0.0000
vt 0.4540 0.1026 0.0000
vt 0.5978 0.2986 0.0000
vt 0.6918 0.1136 0.0000
vt 0.6834 0.6127 0.0000
vt 0.7216 0.6054 0.0000
vt 0.5958 0.8621 0.0000
vt 0.1059 0.6496 0.0000
vt 0.1400 0.6584 0.0000
vt 0.1004 0.7889 0.0000
vt 0.6267 0.3252 0.0000
vt 0.6197 0.3033 0.0000
vt 0.6806 0.7727 0.0000
vt 0.7027 0.7412 0.0000
vt 0.7027 0.7807 0.0000
vt 0.5277 0.0284 0.0000
vt 0.5616 0.0417 0.0000
vt 0.4932 0.3175 0.0000
vt 0.4454 0.2874 0.0000
vt 0.8314 0.0200 0.0000
vt 0.8683 0.0516 0.0000
vt 0.8271 0.0420 0.0000
vt 0.6619 0.6981 0.0000
vt 0.6301 0.7900 0.0000
vt 0.5721 0.3323 0.0000
vt 0.6068 0.9104 0.0000
vt 0.5798 0.9051 0.0000
vt 0.5855 0.8747 0.0000
vt 0.5515 0.3821 0.0000
vt 0.6007 0.3593 0.0000
vt 0.6551 0.3760 0.0000
vt 0.6145 0.3626 0.0000
vt 0.4411 0.2157 0.0000
vt 0.4433 0.1747 0.0000
vt 0.4663 0.6054 0.0000
vt 0.4682 0.6232 0.0000
vt 0.4330 0.6251 0.0000
vt 0.3491 0.5688 0.0000
vt 0.3303 0.5929 0.0000
vt 0.3252 0.5344 0.0000
vt 0.0553 0.6808 0.0000
vt 0.0383 0.7520 0.0000
vt 0.0014 0.7739 0.0000
vt 0.6356 0.6962 0.0000
vt 0.5742 0.7101 0.0000
vt 0.5794 0.6742 0.0000
vt 0.7536 0.7697 0.0000
vt 0.7293 0.7589 0.0000
vt 0.7536 0.7293 0.0000
vt 0.6774 0.3672 0.0000
vt 0.9313 0.1161 0.0000
vt 0.9348 0.1901 0.0000
vt 0.8971 0.0926 0.0000
vt 0.4257 0.1956 0.0000
vt 0.3867 0.1770 0.0000
vt 0.4082 0.1101 0.0000
vt 0.4495 0.0448 0.0000
vt 0.1661 0.6740 0.0000
vt 0.1456 0.7095 0.0000
vt 0.4511 0.3402 0.0000
vt 0.3409 0.5195 0.0000
vt 0.5733 0.6504 0.0000
vt 0.6017 0.6651 0.0000
vt 0.8578 0.1616 0.0000
vt 0.8727 0.1079 0.0000
vt 0.3344 0.3335 0.0000
vt 0.3508 0.2814 0.0000
vt 0.3518 0.3597 0.0000
vt 0.3241 0.4834 0.0000
vt 0.3297 0.4183 0.0000
vt 0.3591 0.4183 0.0000
vt 0.5000 0.0411 0.0000
vt 0.1592 0.0638 0.0000
vt 0.1884 0.0943 0.0000
vt 0.1291 0.0958 0.0000
vt 0.9520 0.2843 0.0000
vt 0.9596 0.2423 0.0000
vt 0.9721 0.3210 0.0000
vt 0.2767 0.5647 0.0000
vt 0.2415 0.5863 0.0000
vt 0.6008 0.6502 0.0000
vt 0.2080 0.4835 0.0000
vt 0.1876 0.5433 0.0000
vt 0.7994 0.0957 0.0000
vt 0.8996 0.5893 0.0000
vt 0.8395 0.5027 0.0000
vt 0.8779 0.5237 0.0000
vt 0.7067 0.3731 0.0000
vt 0.7000 0.3242 0.0000
vt 0.2925 0.6192 0.0000
vt 0.3133 0.6514 0.0000
vt 0.2829 0.6383 0.0000
vt 0.2892 0.4474 0.0000
vt 0.4742 0.0109 0.0000
vt 0.4997 0.0257 0.0000
vt 0.4316 0.0376 0.0000
vt 0.4052 0.0641 0.0000
vt 0.7890 0.0736 0.0000
vt 0.4490 0.5046 0.0000
vt 0.3722 0.5407 0.0000
vt 0.3867 0.5115 0.0000
vt 0.8115 0.1307 0.0000
vt 0.6779 0.7416 0.0000
vt 0.4762 0.5029 0.0000
vt 0.5118 0.4898 0.0000
vt 0.5534 0.5080 0.0000
vt 0.4585 0.3840 0.0000
vt 0.3776 0.2726 0.0000
vt 0.3771 0.2352 0.0000
vt 0.8700 0.4711 0.0000
vt 0.8910 0.4901 0.0000
vt 0.9116 0.6110 0.0000
vt 0.8817 0.5924 0.0000
vt 0.6055 0.6217 0.0000
vt 0.2450 0.1472 0.0000
vt 0.2503 0.0461 0.0000
vt 0.3148 0.1076 0.0000
vt 0.0624 0.1421 0.0000
vt 0.0672 0.1803 0.0000
vt 0.0341 0.1880 0.0000
vt 0.7120 0.4423 0.0000
vt 0.6942 0.4521 0.0000
vt 0.1255 0.1579 0.0000
vt 0.8040 0.1446 0.0000
vt 0.7866 0.1733 0.0000
vt 0.7948 0.1354 0.0000
vt 0.6254 0.6054 0.0000
vt 0.1866 0.7909 0.0000
vt 0.1557 0.8270 0.0000
vt 0.1643 0.7547 0.0000
vt 0.3280 0.0371 0.0000
vt 0.0829 0.1009 0.0000
vt 0.1385 0.8830 0.0000
vt 0.1730 0.8590 0.0000
vt 0.7970 0.1947 0.0000
vt 0.8236 0.2318 0.0000
vt 0.8079 0.2428 0.0000
vt 0.0820 0.9304 0.0000
vt 0.0658 0.8546 0.0000
vt 0.5911 0.4008 0.0000
vt 0.5377 0.4739 0.0000
vt 0.5160 0.4193 0.0000
vt 0.1635 0.5514 0.0000
vt 0.2691 0.7847 0.0000
vt 0.2793 0.7400 0.0000
vt 0.2793 0.7937 0.0000
vt 0.8980 0.4808 0.0000
vt 0.3415 0.0014 0.0000
vt 0.3520 0.0157 0.0000
vt 0.6344 0.4262 0.0000
vt 0.7098 0.5087 0.0000
vt 0.8210 0.4218 0.0000
vt 0.8321 0.4718 0.0000
vt 0.7961 0.4612 0.0000
vt 0.2845 0.1667 0.0000
vt 0.2587 0.2069 0.0000
vt 0.0595 0.2385 0.0000
vt 0.0418 0.2113 0.0000
vt 0.1027 0.1855 0.0000
vt 0.7786 0.4556 0.0000
vt 0.7567 0.4258 0.0000
vt 0.7636 0.4061 0.0000
vt 0.1892 0.1981 0.0000
vt 0.9677 0.6046 0.0000
vt 0.9499 0.5755 0.0000
vt 0.9774 0.5551 0.0000
vt 0.1247 0.2008 0.0000
vt 0.0268 0.2744 0.0000
vt 0.3879 0.3237 0.0000
vt 0.3618 0.2859 0.0000
vt 0.3161 0.6760 0.0000
vt 0.3479 0.6480 0.0000
vt 0.3454 0.6799 0.0000
vt 0.2615 0.7535 0.0000
vt 0.3400 0.1514 0.0000
vt 0.3543 0.0596 0.0000
vt 0.4955 0.9083 0.0000
vt 0.5444 0.9645 0.0000
vt 0.4378 0.9855 0.0000
vt 0.4628 0.8417 0.0000
vt 0.5074 0.8399 0.0000
vt 0.9398 0.4517 0.0000
vt 0.9312 0.4808 0.0000
vt 0.9206 0.4674 0.0000
vt 0.3248 0.1486 0.0000
vt 0.1101 0.2500 0.0000
vt 0.7623 0.7266 0.0000
vt 0.7293 0.6628 0.0000
vt 0.7543 0.6756 0.0000
vt 0.8813 0.4518 0.0000
vt 0.7623 0.6399 0.0000
vt 0.9542 0.4501 0.0000
vt 0.9701 0.4578 0.0000
vt 0.8225 0.1601 0.0000
vt 0.8550 0.1891 0.0000
vt 0.4129 0.6670 0.0000
vt 0.4273 0.7265 0.0000
vt 0.3996 0.7269 0.0000
vt 0.3919 0.7054 0.0000
vt 0.4039 0.4212 0.0000
vt 0.3947 0.3660 0.0000
vt 0.5091 0.4459 0.0000
vt 0.4908 0.4184 0.0000
vt 0.8630 0.3568 0.0000
vt 0.8899 0.4114 0.0000
vt 0.8717 0.2451 0.0000
vt 0.8796 0.2101 0.0000
vt 0.2437 0.7179 0.0000
vt 0.2793 0.6946 0.0000
vt 0.2793 0.7373 0.0000
vt 0.7482 0.3566 0.0000
vt 0.8169 0.3705 0.0000
vt 0.9314 0.3435 0.0000
vt 0.8811 0.3209 0.0000
vt 0.8942 0.2870 0.0000
vt 0.8366 0.1807 0.0000
vt 0.9745 0.4112 0.0000
vt 0.0597 0.3088 0.0000
vt 0.7266 0.5107 0.0000
vt 0.4178 0.4531 0.0000
vt 0.3810 0.3801 0.0000
vt 0.2932 0.3702 0.0000
vt 0.3465 0.1949 0.0000
vt 0.3142 0.2234 0.0000
vt 0.2481 0.2660 0.0000
vt 0.2048 0.3213 0.0000
vt 0.0272 0.9515 0.0000
vt 0.0056 0.9632 0.0000
vt 0.0046 0.8748 0.0000
vt 0.0230 0.4351 0.0000
vt 0.0496 0.4892 0.0000
vt 0.0060 0.4507 0.0000
vt 0.3133 0.6992 0.0000
vt 0.2820 0.6695 0.0000
vt 0.6542 0.2058 0.0000
vt 0.6716 0.1812 0.0000
vt 0.6608 0.8353 0.0000
vt 0.9774 0.3586 0.0000
vt 0.9475 0.3628 0.0000
vt 0.9591 0.3422 0.0000
vt 0.8441 0.2639 0.0000
vt 0.8201 0.2929 0.0000
vt 0.2380 0.3790 0.0000
vt 0.0842 0.4857 0.0000
vt 0.1145 0.5301 0.0000
vt 0.0491 0.5028 0.0000
vt 0.7670 0.3063 0.0000
vt 0.7422 0.3128 0.0000
vt 0.7596 0.2785 0.0000
vt 0.8644 0.3013 0.0000
vt 0.3799 0.7974 0.0000
vt 0.4151 0.7698 0.0000
vt 0.4071 0.8154 0.0000
vt 0.8326 0.2221 0.0000
vt 0.0446 0.9779 0.0000
vt 0.0536 0.9953 0.0000
vt 0.0267 0.9980 0.0000
vt 0.5493 0.7495 0.0000
vt 0.1648 0.6291 0.0000
vt 0.2169 0.0492 0.0000
vt 0.5052 0.6435 0.0000
vt 0.0984 0.9608 0.0000
vt 0.4608 0.5313 0.0000
vt 0.4388 0.5516 0.0000
vt 0.8330 0.5294 0.0000
vt 0.5911 0.6061 0.0000
vt 0.4538 0.8175 0.0000
vt 0.4526 0.7452 0.0000
vt 0.4824 0.7518 0.0000
vt 0.6779 0.8754 0.0000
vt 0.6374 0.9145 0.0000
vt 0.3953 0.5905 0.0000
vt 0.4709 0.6027 0.0000
vt 0.1367 0.5232 0.0000
vt 0.1308 0.4284 0.0000
vt 0.2191 0.5913 0.0000
vt 0.4948 0.5620 0.0000
vt 0.4052 0.9140 0.0000
vt 0.3923 0.8814 0.0000
vt 0.9572 0.4939 0.0000
vt 0.3328 0.2413 0.0000
vt 0.7467 0.2650 0.0000
vt 0.7646 0.2384 0.0000
vt 0.2558 0.6586 0.0000
vt 0.2348 0.6670 0.0000
vt 0.2167 0.6428 0.0000
vt 0.3739 0.4982 0.0000
vt 0.1495 0.3290 0.0000
vt 0.1053 0.3492 0.0000
vt 0.3009 0.2901 0.0000
vt 0.1970 0.4550 0.0000
vt 0.4360 0.4965 0.0000
vt 0.2342 0.7312 0.0000
vt 0.2237 0.7193 0.0000
vt 0.2342 0.6946 0.0000
vt 0.1458 0.9098 0.0000
vt 0.2512 0.6812 0.0000
vt 0.2793 0.6918 0.0000
vt 0.7569 0.2240 0.0000
vt 0.2292 0.7773 0.0000
vt 0.2777 0.2910 0.0000
vt 0.7862 0.1065 0.0000
vt 0.4229 0.9978 0.0000
vt 0.3846 0.9894 0.0000
vt 0.3096 0.0142 0.0000
vt 0.4567 0.0014 0.0000
vt 0.2423 0.6320 0.0000
vt 0.4376 0.6598 0.0000
vt 0.4702 0.7103 0.0000
vt 0.3786 0.9343 0.0000
vt 0.3715 0.5684 0.0000
vt 0.7293 0.3840 0.0000
vt 0.7244 0.7146 0.0000
vt 0.7244 0.7692 0.0000
vt 0.7054 0.7458 0.0000
vt 0.3105 0.7410 0.0000
vt 0.2870 0.7049 0.0000
vt 0.9328 0.6372 0.0000
vt 0.3495 0.7754 0.0000
vt 0.3161 0.7510 0.0000
vt 0.3495 0.7335 0.0000
vt 0.8135 0.4905 0.0000
vt 0.5168 0.8654 0.0000
vt 0.5444 0.8457 0.0000
vt 0.0187 0.7985 0.0000
vt 0.3709 0.1867 0.0000
vt 0.8925 0.6175 0.0000
vt 0.3772 0.8558 0.0000
vt 0.3479 0.7308 0.0000
vt 0.6247 0.9439 0.0000
vt 0.4256 0.4956 0.0000
vt 0.1373 0.6192 0.0000
vt 0.1866 0.6533 0.0000
vt 0.1796 0.7024 0.0000
vt 0.3903 0.1435 0.0000
vt 0.2793 0.6192 0.0000
vt 0.1893 0.7287 0.0000
vt 0.2210 0.6946 0.0000
vt 0.2210 0.7812 0.0000
vt 0.5267 0.6312 0.0000
vt 0.7863 0.6399 0.0000
vt 0.7651 0.6639 0.0000
vt 0.2746 0.6064 0.0000
vt 0.8434 0.5620 0.0000
vt 0.6690 0.7749 0.0000
vt 0.2837 0.0137 0.0000
vt 0.3591 0.2669 0.0000
vt 0.6882 0.7146 0.0000
vt 0.8725 0.0214 0.0000
vt 0.8510 0.0014 0.0000
vt 0.7266 0.1974 0.0000
vt 0.1893 0.6530 0.0000
vt 0.7264 0.1532 0.0000
vt 0.6693 0.1056 0.0000
vt 0.6634 0.1277 0.0000
vt 0.6079 0.2447 0.0000
vt 0.6473 0.1860 0.0000
vt 0.5708 0.8794 0.0000
vt 0.7751 0.7416 0.0000
vt 0.6655 0.6276 0.0000
vt 0.3157 0.6165 0.0000
vt 0.3361 0.6192 0.0000
vt 0.3618 0.9986 0.0000
vt 0.3646 0.9375 0.0000
# 406 texture coords

o rock03_lr
g rock03_lr
f 1/1/1 2/2/2 3/3/3 
f 4/4/4 3/3/3 2/2/2 
f 5/5/5 6/6/6 7/7/7 
f 1/8/1 8/9/8 9/10/9 
f 10/11/10 11/12/11 12/13/12 
f 13/14/13 2/2/2 9/15/9 
f 14/16/14 4/4/4 2/2/2 
f 15/17/15 16/18/16 17/19/17 
f 16/18/16 15/17/15 18/20/18 
f 19/21/19 13/14/13 9/15/9 
f 4/4/4 20/22/20 21/23/21 
f 22/24/22 23/25/23 24/26/24 
f 25/27/25 26/28/26 27/29/27 
f 27/29/27 28/30/28 29/31/29 
f 30/32/30 16/18/16 18/20/18 
f 31/33/31 32/34/32 33/35/33 
f 34/36/34 31/33/31 35/37/35 
f 4/4/4 14/16/14 20/22/20 
f 28/38/28 21/23/21 29/39/29 
f 34/36/34 35/37/35 36/40/36 
f 30/41/30 37/42/37 38/43/38 
f 20/22/20 14/16/14 39/44/39 
f 9/15/9 40/45/40 19/21/19 
f 26/28/26 28/30/28 27/29/27 
f 30/41/30 41/46/41 37/42/37 
f 26/47/26 41/48/41 30/32/30 
f 25/27/25 41/49/41 26/28/26 
f 42/50/42 43/51/43 44/52/44 
f 35/37/35 45/53/45 46/54/46 
f 47/55/47 45/56/45 48/57/48 
f 49/58/49 50/59/50 20/22/20 
f 13/14/13 51/60/51 52/61/52 
f 53/62/53 54/63/54 55/64/55 
f 56/65/56 57/66/57 29/31/29 
f 19/21/19 58/67/58 51/60/51 
f 59/68/59 60/69/60 37/70/37 
f 61/71/61 58/67/58 47/72/47 
f 62/73/62 48/74/48 45/53/45 
f 63/75/63 64/76/64 14/16/14 
f 53/77/53 65/78/65 66/79/66 
f 54/80/54 67/81/67 68/82/68 
f 33/83/33 69/84/69 70/85/70 
f 71/86/71 50/87/50 49/88/49 
f 47/89/47 48/90/48 72/91/72 
f 62/73/62 35/37/35 70/92/70 
f 73/93/73 74/94/74 75/95/75 
f 13/14/13 52/61/52 63/75/63 
f 63/75/63 76/96/76 64/76/64 
f 77/97/77 64/76/64 76/96/76 
f 39/44/39 78/98/78 79/99/79 
f 43/51/43 80/100/80 81/101/81 
f 82/102/82 58/67/58 61/71/61 
f 75/103/75 54/80/54 68/82/68 
f 83/104/83 84/105/84 49/88/49 
f 75/95/75 85/106/85 86/107/86 
f 87/108/87 88/109/88 89/110/89 
f 73/111/73 90/112/90 74/113/74 
f 79/99/79 83/114/83 39/44/39 
f 91/115/91 92/116/92 93/117/93 
f 94/118/94 89/119/89 88/120/88 
f 95/121/95 67/81/67 96/122/96 
f 83/104/83 97/123/97 84/105/84 
f 98/124/98 73/111/73 68/82/68 
f 99/125/99 98/124/98 68/82/68 
f 86/107/86 54/63/54 75/95/75 
f 86/107/86 100/126/100 54/63/54 
f 101/127/101 102/128/102 103/129/103 
f 104/130/104 70/92/70 69/131/69 
f 100/126/100 55/64/55 54/63/54 
f 105/132/105 106/133/106 107/134/107 
f 90/112/90 73/111/73 108/135/108 
f 79/99/79 109/136/109 97/137/97 
f 75/95/75 74/94/74 85/106/85 
f 110/138/110 78/98/78 111/139/111 
f 55/64/55 100/126/100 112/140/112 
f 55/64/55 112/140/112 53/62/53 
f 113/141/113 114/142/114 105/143/105 
f 115/144/115 100/126/100 86/107/86 
f 56/65/56 22/24/22 116/145/116 
f 117/146/117 118/147/118 119/148/119 
f 61/71/61 120/149/120 82/102/82 
f 63/75/63 121/150/121 122/151/122 
f 102/128/102 123/152/123 124/153/124 
f 125/154/125 111/155/111 101/127/101 
f 24/26/24 97/123/97 109/156/109 
f 126/157/126 116/158/116 127/159/127 
f 128/160/128 129/161/129 130/162/130 
f 131/163/131 132/164/132 70/92/70 
f 133/165/133 129/161/129 128/160/128 
f 134/166/134 106/167/106 105/168/105 
f 135/169/135 24/26/24 109/156/109 
f 136/170/136 137/171/137 130/172/130 
f 99/125/99 95/121/95 96/122/96 
f 138/173/138 127/159/127 116/158/116 
f 128/160/128 139/174/139 133/165/133 
f 140/175/140 137/171/137 141/176/141 
f 142/177/142 143/178/143 144/179/144 
f 145/180/145 146/181/146 140/175/140 
f 72/182/72 147/183/147 148/184/148 
f 96/122/96 149/185/149 99/125/99 
f 150/186/150 151/187/151 124/188/124 
f 123/152/123 150/189/150 124/153/124 
f 24/190/24 152/191/152 138/173/138 
f 153/192/153 132/164/132 154/193/154 
f 155/194/155 156/195/156 157/196/157 
f 126/157/126 158/197/158 159/198/159 
f 160/199/160 136/200/136 161/201/161 
f 122/202/122 121/203/121 162/204/162 
f 92/116/92 126/157/126 163/205/163 
f 152/206/152 164/207/164 165/208/165 
f 166/209/166 133/165/133 163/205/163 
f 160/199/160 141/210/141 136/200/136 
f 115/144/115 86/107/86 85/106/85 
f 121/150/121 167/211/167 162/212/162 
f 148/213/148 168/214/168 169/215/169 
f 150/186/150 170/216/170 151/187/151 
f 171/217/171 127/159/127 165/218/165 
f 172/219/172 153/220/153 154/221/154 
f 172/219/172 173/222/173 119/223/119 
f 174/224/174 151/225/151 170/226/170 
f 126/157/126 175/227/175 158/197/158 
f 161/201/161 176/228/176 160/199/160 
f 172/229/172 119/230/119 177/231/177 
f 170/226/170 150/189/150 178/232/178 
f 161/201/161 133/165/133 166/209/166 
f 119/230/119 147/233/147 177/231/177 
f 151/225/151 179/234/179 171/235/171 
f 180/236/180 85/106/85 181/237/181 
f 182/238/182 183/239/183 184/240/184 
f 182/238/182 184/240/184 96/241/96 
f 185/242/185 186/243/186 120/149/120 
f 133/165/133 92/116/92 163/205/163 
f 168/244/168 147/183/147 118/147/118 
f 185/242/185 120/149/120 169/245/169 
f 162/204/162 187/246/187 155/194/155 
f 188/247/188 156/195/156 155/194/155 
f 178/232/178 188/247/188 170/226/170 
f 151/225/151 174/224/174 179/234/179 
f 189/248/189 181/237/181 190/249/190 
f 119/250/119 118/251/118 147/252/147 
f 191/253/191 192/254/192 162/204/162 
f 193/255/193 194/256/194 195/257/195 
f 196/258/196 180/236/180 181/237/181 
f 162/204/162 192/254/192 187/246/187 
f 197/259/197 171/235/171 179/234/179 
f 176/228/176 166/209/166 163/205/163 
f 10/11/10 198/260/198 11/12/11 
f 131/163/131 199/261/199 132/164/132 
f 168/244/168 200/262/200 169/245/169 
f 185/242/185 201/263/201 186/243/186 
f 202/264/202 90/112/90 108/135/108 
f 175/227/175 197/265/197 158/197/158 
f 203/266/203 159/198/159 158/197/158 
f 198/260/198 141/210/141 160/199/160 
f 176/228/176 204/267/204 205/268/205 
f 206/269/206 199/270/199 131/271/131 
f 207/272/207 208/273/208 209/274/209 
f 125/154/125 164/207/164 152/206/152 
f 107/134/107 6/275/6 210/276/210 
f 32/34/32 17/277/17 16/278/16 
f 91/279/91 25/27/25 57/66/57 
f 21/23/21 3/3/3 4/4/4 
f 211/280/211 212/281/212 213/282/213 
f 144/179/144 214/283/214 215/284/215 
f 216/285/216 202/264/202 108/135/108 
f 217/286/217 218/287/218 219/288/219 
f 220/289/220 201/290/201 221/291/221 
f 222/292/222 195/257/195 194/256/194 
f 31/33/31 34/36/34 17/277/17 
f 149/293/149 223/294/223 224/295/224 
f 171/217/171 197/265/197 175/227/175 
f 142/177/142 225/296/225 143/178/143 
f 5/5/5 7/7/7 144/179/144 
f 219/288/219 208/273/208 217/286/217 
f 56/65/56 29/31/29 50/87/50 
f 226/297/226 209/298/209 227/299/227 
f 134/166/134 115/144/115 180/236/180 
f 103/129/103 151/225/151 101/127/101 
f 29/31/29 21/300/21 50/87/50 
f 43/51/43 59/301/59 80/100/80 
f 91/115/91 228/302/228 92/116/92 
f 65/78/65 53/77/53 229/303/229 
f 156/195/156 123/152/123 102/128/102 
f 62/73/62 45/53/45 35/37/35 
f 12/304/12 226/297/226 145/180/145 
f 113/141/113 230/305/230 231/306/231 
f 79/99/79 110/138/110 109/136/109 
f 144/179/144 215/284/215 5/5/5 
f 228/302/228 116/158/116 92/116/92 
f 101/127/101 111/155/111 232/307/232 
f 95/121/95 99/125/99 68/82/68 
f 94/118/94 88/120/88 213/282/213 
f 138/173/138 165/218/165 127/159/127 
f 214/283/214 144/179/144 143/178/143 
f 193/255/193 94/118/94 213/282/213 
f 97/123/97 83/104/83 79/308/79 
f 233/309/233 234/310/234 235/311/235 
f 93/312/93 139/313/139 91/279/91 
f 189/248/189 195/257/195 214/283/214 
f 229/314/229 231/306/231 236/315/236 
f 237/316/237 217/286/217 238/317/238 
f 96/122/96 184/318/184 149/185/149 
f 231/306/231 230/305/230 235/319/235 
f 174/224/174 212/281/212 197/259/197 
f 145/180/145 226/297/226 206/269/206 
f 212/281/212 174/224/174 193/255/193 
f 193/255/193 174/224/174 188/247/188 
f 224/295/224 239/320/239 240/321/240 
f 223/294/223 234/310/234 233/309/233 
f 163/205/163 204/267/204 176/228/176 
f 165/208/165 101/127/101 241/322/241 
f 197/265/197 211/323/211 203/266/203 
f 146/181/146 145/180/145 206/269/206 
f 185/324/185 242/325/242 221/291/221 
f 227/299/227 206/269/206 226/297/226 
f 143/178/143 225/296/225 214/283/214 
f 233/309/233 119/223/119 173/222/173 
f 243/326/243 244/327/244 107/328/107 
f 114/142/114 134/329/134 105/143/105 
f 176/228/176 205/268/205 245/330/245 
f 246/331/246 198/260/198 245/330/245 
f 87/108/87 211/323/211 88/109/88 
f 202/264/202 247/332/247 87/108/87 
f 159/198/159 163/205/163 126/157/126 
f 117/146/117 168/244/168 118/147/118 
f 199/261/199 154/193/154 132/164/132 
f 196/258/196 189/248/189 225/296/225 
f 202/264/202 216/285/216 205/268/205 
f 34/36/34 1/1/1 3/3/3 
f 44/52/44 137/171/137 140/175/140 
f 238/317/238 216/285/216 248/333/248 
f 168/244/168 243/334/243 200/262/200 
f 101/127/101 151/225/151 241/322/241 
f 119/223/119 233/309/233 235/311/235 
f 142/177/142 7/7/7 106/167/106 
f 173/222/173 224/295/224 233/309/233 
f 210/335/210 249/336/249 107/337/107 
f 216/285/216 238/317/238 246/331/246 
f 221/291/221 5/5/5 220/289/220 
f 197/259/197 212/281/212 211/280/211 
f 198/260/198 176/228/176 245/330/245 
f 10/338/10 12/304/12 140/175/140 
f 195/257/195 89/119/89 94/118/94 
f 147/183/147 72/182/72 153/192/153 
f 113/339/113 243/326/243 117/340/117 
f 242/325/242 185/324/185 200/341/200 
f 39/44/39 83/114/83 20/22/20 
f 145/180/145 140/175/140 12/304/12 
f 203/266/203 247/332/247 204/267/204 
f 242/342/242 249/336/249 210/335/210 
f 250/343/250 205/268/205 204/267/204 
f 187/246/187 192/254/192 215/284/215 
f 247/332/247 250/343/250 204/267/204 
f 239/320/239 173/222/173 154/221/154 
f 248/333/248 108/135/108 98/124/98 
f 216/285/216 108/135/108 248/333/248 
f 171/235/171 165/208/165 241/322/241 
f 179/234/179 174/224/174 197/259/197 
f 207/272/207 217/286/217 208/273/208 
f 220/289/220 191/253/191 201/290/201 
f 142/177/142 134/166/134 196/258/196 
f 184/240/184 223/294/223 149/293/149 
f 114/344/114 115/144/115 134/166/134 
f 199/345/199 239/320/239 154/221/154 
f 199/345/199 227/346/227 239/320/239 
f 160/199/160 176/228/176 198/260/198 
f 101/127/101 165/208/165 164/207/164 
f 87/108/87 89/110/89 90/112/90 
f 217/286/217 207/272/207 238/317/238 
f 191/253/191 220/289/220 215/284/215 
f 204/267/204 159/198/159 203/266/203 
f 194/256/194 193/255/193 188/247/188 
f 157/196/157 162/204/162 155/194/155 
f 24/190/24 138/173/138 22/347/22 
f 187/246/187 188/247/188 155/194/155 
f 158/197/158 197/265/197 203/266/203 
f 194/256/194 188/247/188 187/246/187 
f 222/292/222 214/283/214 195/257/195 
f 140/175/140 146/181/146 44/52/44 
f 246/331/246 245/330/245 216/285/216 
f 109/136/109 110/138/110 135/348/135 
f 101/127/101 164/207/164 125/154/125 
f 198/260/198 10/11/10 141/210/141 
f 161/201/161 129/161/129 133/165/133 
f 49/88/49 84/105/84 71/86/71 
f 176/228/176 161/201/161 166/209/166 
f 107/328/107 249/349/249 243/326/243 
f 225/296/225 189/248/189 214/283/214 
f 183/239/183 251/350/251 236/351/236 
f 227/346/227 219/352/219 239/320/239 
f 112/353/112 231/306/231 229/314/229 
f 114/344/114 100/126/100 115/144/115 
f 206/269/206 227/299/227 199/270/199 
f 190/249/190 181/237/181 85/106/85 
f 117/146/117 235/319/235 230/305/230 
f 167/354/167 191/253/191 162/204/162 
f 249/355/249 242/356/242 200/357/200 
f 171/235/171 241/322/241 151/225/151 
f 6/275/6 221/358/221 242/359/242 
f 135/360/135 125/154/125 152/206/152 
f 186/243/186 201/263/201 167/211/167 
f 170/226/170 188/247/188 174/224/174 
f 10/338/10 140/175/140 141/176/141 
f 100/126/100 114/344/114 112/140/112 
f 130/361/130 129/362/129 136/363/136 
f 248/333/248 98/124/98 237/316/237 
f 22/24/22 56/65/56 23/25/23 
f 123/152/123 178/232/178 150/189/150 
f 178/232/178 156/195/156 188/247/188 
f 91/279/91 41/49/41 25/27/25 
f 215/284/215 192/254/192 191/253/191 
f 156/195/156 102/128/102 252/364/252 
f 157/196/157 156/195/156 252/364/252 
f 251/350/251 65/78/65 236/351/236 
f 74/113/74 90/112/90 89/110/89 
f 202/264/202 87/108/87 90/112/90 
f 131/163/131 70/92/70 104/130/104 
f 142/177/142 144/179/144 7/7/7 
f 56/65/56 71/86/71 23/25/23 
f 89/119/89 195/257/195 189/248/189 
f 141/176/141 137/171/137 136/170/136 
f 58/67/58 19/21/19 40/45/40 
f 167/211/167 82/102/82 186/243/186 
f 221/291/221 201/290/201 185/324/185 
f 177/365/177 147/366/147 153/220/153 
f 106/133/106 6/275/6 107/134/107 
f 240/321/240 239/320/239 219/352/219 
f 171/217/171 175/227/175 127/159/127 
f 146/181/146 206/269/206 131/271/131 
f 131/271/131 104/367/104 146/181/146 
f 151/225/151 103/129/103 124/153/124 
f 252/368/252 77/97/77 122/151/122 
f 39/44/39 14/16/14 64/76/64 
f 224/295/224 173/222/173 239/320/239 
f 185/242/185 169/245/169 200/262/200 
f 110/369/110 125/154/125 135/360/135 
f 240/321/240 218/370/218 224/295/224 
f 98/124/98 108/135/108 73/111/73 
f 125/154/125 110/369/110 111/155/111 
f 6/6/6 5/5/5 221/291/221 
f 183/239/183 182/238/182 251/350/251 
f 184/240/184 183/239/183 223/294/223 
f 153/192/153 62/73/62 132/164/132 
f 138/173/138 116/158/116 22/347/22 
f 120/371/120 148/213/148 169/215/169 
f 59/68/59 139/313/139 80/372/80 
f 121/150/121 63/75/63 167/211/167 
f 113/141/113 105/143/105 244/373/244 
f 102/128/102 232/307/232 252/364/252 
f 207/272/207 11/12/11 246/331/246 
f 207/272/207 209/274/209 12/13/12 
f 106/167/106 134/166/134 142/177/142 
f 42/50/42 60/374/60 43/51/43 
f 24/26/24 23/25/23 97/123/97 
f 139/375/139 128/376/128 80/100/80 
f 61/71/61 148/184/148 120/149/120 
f 232/377/232 77/97/77 252/368/252 
f 204/267/204 163/205/163 159/198/159 
f 183/239/183 234/310/234 223/294/223 
f 252/364/252 122/202/122 157/196/157 
f 25/27/25 29/31/29 57/66/57 
f 23/25/23 71/86/71 97/123/97 
f 48/74/48 62/73/62 72/182/72 
f 117/146/117 243/334/243 168/244/168 
f 249/349/249 200/378/200 243/326/243 
f 224/295/224 218/370/218 149/293/149 
f 77/97/77 76/96/76 63/75/63 
f 51/60/51 82/102/82 52/61/52 
f 181/237/181 189/248/189 196/258/196 
f 104/367/104 69/84/69 44/52/44 
f 97/123/97 71/86/71 84/105/84 
f 130/172/130 137/171/137 44/52/44 
f 187/246/187 222/292/222 194/256/194 
f 61/379/61 72/380/72 148/381/148 
f 52/61/52 82/102/82 167/211/167 
f 93/117/93 133/165/133 139/174/139 
f 44/52/44 146/181/146 104/367/104 
f 117/146/117 119/148/119 235/319/235 
f 80/100/80 128/376/128 130/172/130 
f 139/313/139 41/49/41 91/279/91 
f 209/298/209 226/297/226 12/304/12 
f 53/77/53 112/382/112 229/303/229 
f 236/315/236 231/306/231 235/319/235 
f 40/383/40 9/10/9 36/384/36 
f 223/294/223 233/309/233 224/295/224 
f 98/124/98 99/125/99 237/316/237 
f 6/275/6 242/359/242 210/276/210 
f 58/67/58 40/45/40 47/72/47 
f 130/172/130 44/52/44 81/101/81 
f 41/49/41 139/313/139 59/68/59 
f 182/385/182 96/122/96 67/81/67 
f 82/102/82 51/60/51 58/67/58 
f 68/82/68 73/111/73 75/103/75 
f 232/307/232 102/128/102 101/127/101 
f 236/351/236 65/78/65 229/303/229 
f 237/316/237 99/125/99 149/185/149 
f 247/332/247 203/266/203 87/108/87 
f 232/307/232 111/155/111 78/386/78 
f 238/317/238 207/272/207 246/331/246 
f 240/321/240 219/352/219 218/370/218 
f 77/97/77 78/98/78 64/76/64 
f 130/172/130 81/101/81 80/100/80 
f 132/164/132 62/73/62 70/92/70 
f 57/66/57 56/65/56 228/387/228 
f 243/326/243 113/339/113 244/327/244 
f 152/191/152 165/218/165 138/173/138 
f 59/301/59 43/51/43 60/374/60 
f 231/306/231 112/353/112 114/142/114 
f 66/79/66 251/350/251 182/238/182 
f 162/204/162 157/196/157 122/202/122 
f 129/161/129 161/201/161 136/200/136 
f 44/52/44 43/51/43 81/101/81 
f 77/97/77 232/377/232 78/98/78 
f 50/87/50 71/86/71 56/65/56 
f 154/221/154 173/222/173 172/219/172 
f 93/117/93 92/116/92 133/165/133 
f 69/84/69 33/83/33 44/52/44 
f 247/332/247 202/264/202 250/343/250 
f 186/243/186 82/102/82 120/149/120 
f 228/302/228 56/388/56 116/158/116 
f 57/66/57 228/387/228 91/279/91 
f 183/239/183 236/351/236 234/310/234 
f 207/272/207 12/13/12 11/12/11 
f 59/68/59 37/70/37 41/49/41 
f 20/22/20 83/114/83 49/58/49 
f 68/82/68 67/81/67 95/121/95 
f 237/316/237 149/185/149 218/287/218 
f 70/92/70 35/37/35 33/35/33 
f 46/54/46 47/72/47 40/45/40 
f 213/389/213 88/109/88 211/323/211 
f 231/306/231 114/142/114 113/141/113 
f 215/284/215 214/283/214 222/292/222 
f 42/50/42 44/52/44 33/83/33 
f 5/5/5 215/284/215 220/289/220 
f 46/390/46 45/56/45 47/55/47 
f 13/14/13 19/21/19 51/60/51 
f 67/391/67 53/62/53 66/392/66 
f 25/27/25 27/29/27 29/31/29 
f 50/59/50 21/23/21 20/22/20 
f 205/268/205 250/343/250 202/264/202 
f 78/98/78 39/44/39 64/76/64 
f 36/40/36 35/37/35 46/54/46 
f 72/182/72 61/71/61 47/72/47 
f 46/54/46 40/45/40 36/40/36 
f 32/34/32 42/393/42 33/35/33 
f 89/119/89 190/249/190 74/94/74 
f 31/33/31 33/35/33 35/37/35 
f 244/327/244 105/394/105 107/328/107 
f 63/75/63 122/151/122 77/97/77 
f 2/2/2 13/14/13 14/16/14 
f 17/277/17 32/34/32 31/33/31 
f 195/257/195 94/118/94 193/255/193 
f 6/6/6 106/167/106 7/7/7 
f 38/43/38 16/278/16 30/41/30 
f 63/75/63 14/16/14 13/14/13 
f 42/393/42 32/34/32 60/395/60 
f 28/38/28 26/396/26 18/397/18 
f 167/354/167 201/290/201 191/253/191 
f 54/63/54 53/62/53 67/391/67 
f 245/330/245 205/268/205 216/285/216 
f 18/20/18 26/47/26 30/32/30 
f 32/34/32 16/278/16 38/43/38 
f 36/40/36 8/398/8 34/36/34 
f 15/399/15 17/277/17 34/36/34 
f 236/351/236 235/311/235 234/310/234 
f 237/316/237 218/287/218 217/286/217 
f 8/9/8 36/384/36 9/10/9 
f 66/79/66 65/78/65 251/350/251 
f 237/316/237 238/317/238 248/333/248 
f 212/281/212 193/255/193 213/282/213 
f 18/397/18 15/399/15 28/38/28 
f 60/69/60 38/400/38 37/70/37 
f 167/211/167 63/75/63 52/61/52 
f 60/395/60 32/34/32 38/43/38 
f 126/157/126 127/159/127 175/227/175 
f 196/258/196 225/296/225 142/177/142 
f 190/249/190 89/119/89 189/248/189 
f 153/220/153 172/219/172 177/365/177 
f 196/258/196 134/166/134 180/236/180 
f 156/195/156 178/232/178 123/152/123 
f 246/331/246 11/12/11 198/260/198 
f 85/106/85 74/94/74 190/249/190 
f 203/266/203 211/323/211 87/108/87 
f 9/10/9 2/401/2 1/8/1 
f 152/402/152 24/26/24 135/169/135 
f 117/146/117 230/305/230 113/141/113 
f 28/38/28 34/36/34 3/3/3 
f 62/73/62 153/192/153 72/182/72 
f 182/385/182 67/81/67 66/403/66 
f 78/98/78 110/138/110 79/99/79 
f 1/1/1 34/36/34 8/398/8 
f 215/284/215 222/292/222 187/246/187 
f 168/214/168 148/213/148 147/404/147 
f 85/106/85 180/236/180 115/144/115 
f 34/36/34 28/38/28 15/399/15 
f 28/38/28 3/3/3 21/23/21 
f 116/158/116 126/157/126 92/116/92 
f 102/128/102 124/153/124 103/129/103 
f 209/405/209 219/352/219 227/346/227 
f 209/405/209 208/406/208 219/352/219 
# 0 polygons - 500 triangles

