# 3ds Max Wavefront OBJ Exporter v0.97b - (c)2007 guruware
# File Created: 24.05.2019 18:21:10

mtllib rock_45.mtl

#
# object rock45_lr
#

v  21.1830 -4.4120 4.5382
v  23.0411 -3.8371 2.6915
v  21.0605 -3.2450 6.8892
v  22.1597 0.9470 5.0492
v  23.3193 -2.2920 4.4760
v  23.6322 -0.0553 2.5529
v  -15.2371 3.3105 -8.0300
v  -13.1316 1.8057 -8.9112
v  -19.2222 -1.4945 -4.4617
v  22.3518 1.5422 -0.6318
v  23.8986 -0.5066 -0.9320
v  22.1835 0.3812 -3.9248
v  -13.0467 2.6377 7.6340
v  -17.8415 5.5365 5.3861
v  -17.1513 2.8524 7.0185
v  21.2742 -1.5367 -6.4779
v  21.9342 -0.1535 6.5811
v  20.6932 0.2794 -6.6713
v  19.8833 -4.8486 1.8710
v  -6.3482 -8.1489 7.6643
v  -7.7609 -6.0393 8.8574
v  -9.3363 -6.4693 7.4366
v  -2.7141 -8.7090 -4.9543
v  -5.7819 -9.7309 -2.2478
v  -8.4856 -8.8547 -3.4259
v  -2.8896 9.4327 -6.7358
v  -7.6285 9.3508 -6.3856
v  0.4710 9.3181 -4.0319
v  -0.9681 -5.3983 -8.4259
v  -5.4834 -2.5313 -8.6712
v  3.1726 -1.0790 -10.7950
v  20.2828 2.3373 6.5445
v  20.1313 1.8772 8.0755
v  20.2618 1.9184 2.6548
v  22.5456 0.9899 2.8467
v  18.9017 0.3657 10.2214
v  21.0796 0.0522 8.3544
v  19.0842 -1.7306 10.1967
v  4.8021 -7.1614 8.0586
v  3.3596 -7.3955 10.4783
v  -0.5813 -9.1901 6.3327
v  21.1365 -3.4762 -4.9760
v  18.8331 -4.4173 -5.8779
v  5.8025 7.2534 0.5727
v  2.3845 7.2724 2.6104
v  6.5520 5.7165 2.9949
v  6.7032 3.4674 5.1907
v  4.3326 3.1377 7.1141
v  9.0658 3.7730 4.0776
v  4.7473 3.0543 9.4950
v  8.8789 3.2339 6.3632
v  21.0750 -4.3660 -1.3657
v  17.4870 -4.5462 -6.2953
v  8.9258 4.6240 2.5534
v  7.8634 4.8557 4.0099
v  1.6097 -8.3742 1.7402
v  7.6598 -5.7415 0.9745
v  7.9984 -5.6572 3.4617
v  19.0133 2.9238 -4.5172
v  10.9516 0.3055 13.1182
v  11.3123 1.8116 11.4178
v  6.0189 1.4764 11.9520
v  10.6125 -5.0659 3.4471
v  9.1890 -5.8340 8.1924
v  12.6613 4.9045 0.7069
v  8.8185 5.6780 -0.1163
v  16.3765 1.3291 11.0168
v  10.8072 5.8489 -8.6229
v  11.0535 6.2677 -6.5761
v  14.8385 4.1848 -7.3143
v  16.4662 3.4447 7.5273
v  14.6468 4.2106 5.0229
v  12.7178 3.8852 6.8316
v  15.5578 2.1865 -9.3743
v  17.0896 -3.4710 -9.0592
v  16.8666 -2.3318 -9.8134
v  18.4887 3.0190 4.7918
v  19.1920 2.8768 0.1963
v  24.0311 -1.5944 0.6333
v  22.9649 -2.5580 -2.4333
v  17.1636 -0.2927 -9.6878
v  -22.9387 -1.8339 0.2582
v  -23.0128 -0.3405 -1.2436
v  -22.5734 -1.0488 -2.2689
v  -23.2508 1.4975 1.6815
v  -22.2208 -2.2857 2.5401
v  -22.2675 0.9540 3.5910
v  -22.6624 3.4358 0.2618
v  -22.1485 3.7981 3.2218
v  -21.3860 -4.3208 0.3789
v  15.7372 4.5252 -2.8099
v  19.8768 2.6348 -2.0177
v  -21.9486 3.2254 -1.4966
v  -20.3817 6.5955 -0.4292
v  -21.0143 -3.9349 -1.9885
v  -19.2408 1.2612 -4.7173
v  13.8373 -0.3018 12.9039
v  16.6354 -4.6082 3.0539
v  14.0842 -3.9255 -0.9270
v  15.5890 -2.2456 12.4913
v  14.5151 -4.3272 -6.2692
v  14.7724 -4.4059 -8.6187
v  -19.6526 4.5478 5.2342
v  -18.8894 7.6883 1.4723
v  17.0040 -4.4460 7.3691
v  13.9167 -4.7664 4.9209
v  -16.6275 6.8960 -5.2005
v  -19.1900 5.6120 -4.1064
v  -18.6547 7.4705 -1.8414
v  -17.0934 -6.1352 2.0164
v  -19.1611 -2.4016 4.8909
v  -18.0067 -2.1438 5.2700
v  -16.8311 0.3836 7.2600
v  -18.4880 -6.0913 -0.9486
v  -16.6063 -4.0925 3.6062
v  -18.0350 -3.4303 3.8572
v  16.1065 4.1918 3.4343
v  -17.3533 -6.6938 0.8820
v  -20.5323 1.9709 5.5467
v  -15.0369 -3.3586 6.4231
v  17.8718 -3.4999 9.8281
v  12.5313 -4.0936 12.8151
v  -16.7049 -2.1048 3.5191
v  -16.6138 -2.7086 5.4075
v  -18.9273 -4.3485 -3.0043
v  13.8347 -4.6981 10.8038
v  13.3310 5.2625 -4.4571
v  12.3956 -2.3165 13.5434
v  12.7597 -4.0865 -10.3545
v  1.4358 4.1818 7.4123
v  1.5888 5.2005 6.5797
v  -1.4393 5.2974 6.7771
v  1.7851 8.9170 -7.4338
v  -16.2209 6.9507 4.0346
v  -13.1828 8.6381 1.1754
v  -1.8640 -9.0312 8.1590
v  -3.4561 -8.0665 9.4360
v  -14.6365 7.7367 -4.8969
v  -15.9668 -4.0796 4.0253
v  14.9638 2.7898 9.7463
v  -16.1818 -2.1719 3.8685
v  -14.9905 6.3771 -7.2281
v  8.7083 -5.6276 11.7417
v  -16.3261 8.3983 -1.0983
v  -12.9151 4.7510 -9.4432
v  13.8024 -0.0020 -11.4087
v  12.5116 -2.9713 -11.3517
v  10.6236 -0.0539 -12.1965
v  -11.8968 3.5455 7.4042
v  -12.5973 -8.6213 0.1029
v  -13.4654 -7.5964 2.8436
v  9.2360 -5.8604 -6.9177
v  8.9312 4.2821 -10.9774
v  -11.2627 8.2235 -5.8518
v  -12.9071 -5.0096 -4.7086
v  -7.2951 -7.9590 -4.9053
v  -14.1126 -7.0798 -2.3801
v  8.1370 -5.1970 -9.4929
v  -14.4788 -0.8635 7.2360
v  -13.1700 -1.4962 7.1606
v  -13.3212 0.1164 6.2480
v  -12.2974 -4.6702 7.2285
v  -13.5372 -2.6828 7.3134
v  10.1064 -2.6300 13.7812
v  9.9299 -2.5168 -11.7264
v  9.8143 -4.2582 13.2406
v  -8.4149 8.5089 -8.8414
v  11.3001 -4.1873 -3.1964
v  2.5579 -6.4863 11.9955
v  -3.4931 -6.4199 10.6699
v  1.8878 8.5890 -0.4903
v  -0.6000 7.1217 3.5877
v  4.8239 -4.3830 -9.7241
v  11.5060 -4.2447 2.0620
v  9.9584 -4.6129 -1.1934
v  -9.2107 7.0605 -10.2032
v  -5.0112 7.8589 -10.4506
v  -6.6500 9.0864 -0.2219
v  -2.6806 8.4820 0.8310
v  3.3128 5.1376 -12.1240
v  -1.2140 6.5480 -11.7083
v  4.0288 7.8715 -9.8706
v  -11.7253 -1.7508 8.0052
v  -12.7108 1.4273 7.5029
v  -13.9970 1.3936 7.4996
v  0.1636 1.7103 12.1608
v  -3.6417 0.1054 11.9252
v  1.0346 -0.8660 13.0820
v  4.5959 8.7201 -3.1093
v  -9.5779 9.0753 -1.3243
v  -2.3523 2.5984 -11.8809
v  0.7177 3.5665 -12.3569
v  5.3412 1.1977 -12.3076
v  -1.3825 -7.3028 -6.8818
v  3.6180 -5.9630 -8.6232
v  2.4785 -7.4411 -6.9765
v  5.9998 8.4686 -7.2393
v  5.4762 2.1664 11.1702
v  0.8499 3.5358 10.0714
v  9.2790 -5.6837 -8.3855
v  -2.2836 -9.6659 -1.7274
v  1.9184 -8.3672 -4.7788
v  3.0962 -8.2066 -3.9916
v  -11.1622 0.8199 8.3274
v  -11.8386 0.4012 6.2692
v  -3.6515 8.8255 -9.1553
v  -10.1686 1.9811 8.7866
v  -3.3557 7.2170 4.0659
v  -7.6682 8.2534 2.7739
v  -11.1714 -7.7942 3.6705
v  11.4406 2.5437 9.9479
v  9.3544 2.7991 9.1739
v  -11.8837 -0.6797 5.8316
v  -10.7873 -0.6179 7.9856
v  -9.3306 2.3021 -10.5899
v  4.3545 4.9327 5.5510
v  0.3204 -4.0472 12.9413
v  -2.1092 6.1876 5.3085
v  -9.3759 -1.7124 9.5719
v  7.2982 2.7589 -12.2037
v  6.4788 -1.0291 13.3241
v  -10.4597 -4.2085 8.4711
v  -10.4938 -9.1881 -1.4082
v  -7.0431 0.8222 10.6474
v  4.4984 -7.6404 -2.5012
v  -5.7120 -5.1488 9.7117
v  5.9116 -6.9988 -6.7793
v  -6.3487 -8.7595 6.1555
v  -4.5457 -9.8566 4.9117
v  -7.4691 -10.0551 0.5556
v  -9.6547 -1.1174 -8.4115
v  -4.4447 -2.4238 11.5899
v  -8.4797 -3.1794 9.2162
v  -6.6583 -3.4308 10.1470
v  7.8821 6.9491 -9.1880
v  -6.7763 5.2296 -11.5186
v  -5.9262 6.8842 4.5348
v  -9.7179 -9.2055 2.6869
v  -7.6954 -8.5009 4.1811
v  -7.9923 -7.0153 4.4118
v  -8.0626 -9.4715 2.9297
v  7.6487 6.8739 -2.9840
v  -8.9970 -7.0250 5.8285
v  -8.0398 -7.0079 5.8460
v  9.0102 6.2395 -9.0289
v  7.4320 -4.8559 12.8456
v  -6.5704 3.6138 9.0443
v  -3.7444 4.3347 9.0258
v  3.9060 -4.2356 13.3820
v  4.6711 3.5035 5.8072
v  3.2775 3.8595 6.7987
v  -20.8582 -0.6958 4.9554
# 252 vertices

vn 0.3488 -0.9077 0.2331
vn 0.7007 -0.7080 0.0877
vn 0.6630 -0.5286 0.5301
vn 0.7985 0.5386 0.2687
vn 0.8920 -0.2054 0.4027
vn 0.9016 0.3934 0.1795
vn -0.5724 0.0163 -0.8198
vn -0.3883 -0.3131 -0.8667
vn -0.4880 -0.2966 -0.8209
vn 0.6099 0.7889 -0.0750
vn 0.9501 0.2283 -0.2126
vn 0.7801 0.4991 -0.3772
vn -0.2002 0.2140 0.9561
vn -0.2520 0.6536 0.7136
vn -0.2566 0.2640 0.9297
vn 0.7687 -0.1610 -0.6190
vn 0.8782 0.1053 0.4664
vn 0.6868 0.4303 -0.5857
vn 0.0934 -0.9954 0.0199
vn -0.3749 -0.7862 0.4912
vn -0.3582 -0.4797 0.8010
vn -0.3972 -0.7661 0.5052
vn -0.0147 -0.8747 -0.4845
vn -0.0472 -0.9617 -0.2698
vn -0.2371 -0.8233 -0.5157
vn 0.0190 0.9937 -0.1107
vn -0.1470 0.9811 -0.1253
vn 0.0756 0.9956 0.0555
vn -0.1677 -0.4893 -0.8558
vn -0.2000 -0.4699 -0.8597
vn -0.1630 -0.4116 -0.8966
vn 0.5055 0.8490 0.1539
vn 0.5557 0.6828 0.4742
vn 0.4552 0.8898 0.0329
vn 0.5855 0.8065 0.0814
vn 0.5449 0.3173 0.7761
vn 0.8294 0.0523 0.5561
vn 0.6436 -0.2433 0.7256
vn 0.3260 -0.9449 0.0295
vn 0.1830 -0.9183 0.3509
vn 0.2315 -0.9679 0.0981
vn 0.6179 -0.6640 -0.4210
vn 0.3520 -0.8806 -0.3173
vn 0.3675 0.8773 0.3085
vn 0.1786 0.8863 0.4273
vn 0.2228 0.8530 0.4720
vn 0.0985 0.8645 0.4929
vn 0.2303 0.9573 0.1748
vn 0.1425 0.9116 0.3855
vn 0.1420 0.9558 0.2573
vn -0.0715 0.9799 0.1863
vn 0.4050 -0.9045 -0.1335
vn 0.0790 -0.9832 -0.1642
vn 0.3594 0.8577 0.3675
vn 0.4216 0.6990 0.5777
vn 0.4660 -0.8818 0.0721
vn 0.3979 -0.9173 0.0125
vn 0.2974 -0.9538 -0.0429
vn 0.5195 0.8175 -0.2485
vn 0.0697 0.5053 0.8601
vn 0.0504 0.8070 0.5884
vn 0.0421 0.6759 0.7358
vn 0.2579 -0.9472 -0.1906
vn 0.2397 -0.9708 -0.0026
vn 0.1143 0.9811 0.1559
vn 0.3396 0.9075 0.2471
vn 0.3170 0.6115 0.7249
vn 0.3927 0.7804 -0.4864
vn 0.4061 0.9119 -0.0588
vn 0.4697 0.8107 -0.3495
vn 0.2334 0.9281 0.2901
vn 0.0936 0.9814 0.1674
vn -0.0566 0.9706 0.2336
vn 0.4683 0.5686 -0.6763
vn 0.4417 -0.6479 -0.6205
vn 0.4877 -0.2433 -0.8384
vn 0.3883 0.9207 0.0392
vn 0.4314 0.9002 0.0593
vn 0.9849 -0.1709 -0.0281
vn 0.8337 -0.4630 -0.3008
vn 0.5410 0.1954 -0.8180
vn -0.9352 -0.3538 -0.0150
vn -0.9572 0.0113 -0.2893
vn -0.8037 -0.1685 -0.5706
vn -0.9821 0.0788 0.1712
vn -0.7533 -0.4742 0.4556
vn -0.8314 -0.0406 0.5542
vn -0.9011 0.4068 -0.1497
vn -0.8021 0.4335 0.4107
vn -0.6926 -0.7144 0.0994
vn 0.3318 0.9431 -0.0198
vn 0.4826 0.8725 -0.0768
vn -0.8038 0.3142 -0.5051
vn -0.7172 0.6830 -0.1384
vn -0.6443 -0.5906 -0.4858
vn -0.6488 0.0374 -0.7601
vn 0.2509 0.3807 0.8900
vn -0.0240 -0.9991 -0.0357
vn -0.0309 -0.9993 -0.0219
vn 0.4570 -0.2199 0.8618
vn 0.0696 -0.9933 0.0917
vn 0.2103 -0.9424 -0.2602
vn -0.5069 0.5055 0.6982
vn -0.4324 0.8709 0.2335
vn 0.1569 -0.9776 0.1398
vn 0.0967 -0.9923 -0.0765
vn -0.4400 0.7572 -0.4827
vn -0.6867 0.4248 -0.5899
vn -0.4797 0.8330 -0.2757
vn -0.4460 -0.6868 0.5740
vn -0.3143 -0.6600 0.6823
vn -0.1376 -0.7482 0.6490
vn -0.2880 -0.1496 0.9459
vn -0.4492 -0.8500 -0.2750
vn -0.3142 -0.3242 0.8923
vn -0.0301 -0.6102 0.7917
vn 0.2844 0.9514 0.1180
vn -0.4456 -0.8675 0.2210
vn -0.5962 0.0842 0.7984
vn -0.4813 -0.5180 0.7071
vn 0.4483 -0.7358 0.5075
vn 0.2691 -0.6446 0.7156
vn -0.0464 -0.7149 0.6976
vn -0.5351 -0.8442 -0.0316
vn -0.3831 -0.6030 -0.6997
vn 0.2718 -0.9229 0.2725
vn 0.3394 0.9405 0.0114
vn 0.1966 -0.0792 0.9773
vn 0.1849 -0.7622 -0.6203
vn 0.3445 0.8776 0.3334
vn 0.1948 0.7312 0.6537
vn 0.0918 0.8725 0.4798
vn 0.0984 0.9745 -0.2013
vn -0.1139 0.8135 0.5703
vn -0.0900 0.9647 0.2476
vn 0.0075 -0.9249 0.3800
vn -0.2460 -0.7278 0.6402
vn -0.2304 0.9152 -0.3306
vn -0.8753 -0.0846 0.4761
vn 0.1500 0.8513 0.5027
vn -0.6986 -0.6880 0.1962
vn -0.4876 0.5872 -0.6460
vn 0.1885 -0.8990 0.3951
vn -0.2079 0.9736 -0.0942
vn -0.4596 0.1663 -0.8724
vn 0.3531 0.1570 -0.9223
vn 0.1922 -0.4258 -0.8841
vn 0.1403 0.0125 -0.9900
vn -0.1497 0.6021 0.7842
vn -0.3639 -0.9310 -0.0281
vn -0.3798 -0.8162 0.4353
vn 0.3252 -0.9455 0.0157
vn 0.3066 0.5292 -0.7912
vn -0.2842 0.9382 -0.1972
vn -0.3046 -0.5603 -0.7702
vn -0.2287 -0.6600 -0.7155
vn -0.3354 -0.7703 -0.5423
vn 0.0165 -0.7504 -0.6608
vn 0.1867 0.0752 0.9795
vn 0.0073 0.4670 0.8842
vn 0.4093 -0.1828 0.8939
vn -0.4841 -0.5738 0.6605
vn -0.3454 -0.1324 0.9290
vn 0.0073 -0.0767 0.9970
vn -0.0263 -0.4157 -0.9091
vn 0.0676 -0.5499 0.8325
vn -0.2379 0.8614 -0.4486
vn 0.2642 -0.9574 0.1162
vn -0.0271 -0.6847 0.7283
vn -0.3875 -0.4660 0.7954
vn 0.1256 0.9529 0.2759
vn 0.0922 0.8888 0.4489
vn -0.1273 -0.4711 -0.8728
vn 0.2043 -0.9620 -0.1811
vn 0.4579 -0.8845 0.0896
vn -0.3098 0.5280 -0.7907
vn -0.0891 0.6749 -0.7325
vn 0.0175 0.9848 0.1726
vn 0.0845 0.9486 0.3049
vn 0.1115 0.3755 -0.9201
vn -0.0125 0.4931 -0.8698
vn 0.1734 0.7982 -0.5769
vn -0.5082 0.5410 0.6701
vn -0.2661 -0.5181 0.8128
vn 0.0739 -0.2326 0.9698
vn -0.0737 0.5401 0.8384
vn -0.2727 0.1963 0.9418
vn -0.1231 0.1549 0.9802
vn 0.2840 0.9477 0.1458
vn -0.0942 0.9955 0.0108
vn -0.1363 -0.2770 -0.9511
vn -0.0566 0.0013 -0.9984
vn -0.0697 -0.1888 -0.9795
vn -0.0856 -0.7273 -0.6809
vn -0.0197 -0.6712 -0.7410
vn 0.0546 -0.8610 -0.5056
vn 0.2825 0.9452 -0.1632
vn 0.1063 0.8261 0.5533
vn 0.0833 0.8428 0.5317
vn 0.1856 -0.9278 -0.3237
vn 0.1352 -0.9832 -0.1221
vn 0.1722 -0.9409 -0.2914
vn 0.2844 -0.9543 -0.0920
vn -0.6363 -0.2353 0.7347
vn -0.4532 -0.5483 0.7027
vn 0.0054 0.8977 -0.4405
vn -0.3674 0.2751 0.8884
vn 0.0697 0.8541 0.5155
vn -0.0039 0.8807 0.4736
vn -0.1703 -0.8189 0.5480
vn -0.0316 0.9106 0.4120
vn -0.0209 0.9496 0.3128
vn -0.3205 0.3033 0.8973
vn -0.8269 0.0584 0.5592
vn -0.2696 -0.2814 -0.9209
vn 0.3772 0.6124 0.6947
vn -0.2101 -0.2461 0.9462
vn 0.0694 0.8525 0.5180
vn -0.4584 -0.1052 0.8825
vn 0.1508 0.2393 -0.9592
vn -0.0365 0.2050 0.9781
vn -0.3981 -0.3185 0.8603
vn -0.2961 -0.9202 -0.2559
vn -0.3521 0.2525 0.9012
vn 0.3783 -0.9230 0.0699
vn -0.3592 -0.3513 0.8646
vn 0.2017 -0.9278 -0.3139
vn -0.4812 -0.8177 0.3158
vn -0.0717 -0.9763 0.2041
vn -0.1199 -0.9927 -0.0062
vn -0.2687 -0.5061 -0.8195
vn -0.3680 -0.1722 0.9137
vn -0.3931 -0.1718 0.9033
vn -0.3648 -0.3435 0.8654
vn 0.4291 0.7738 -0.4658
vn -0.1924 0.1526 -0.9694
vn -0.0505 0.8013 0.5961
vn -0.2622 -0.8502 0.4565
vn -0.6935 -0.3427 0.6337
vn -0.4098 -0.7852 0.4641
vn -0.2687 -0.8887 0.3714
vn 0.4387 0.8670 0.2362
vn 0.0551 -0.9694 0.2390
vn -0.4468 -0.8924 -0.0622
vn 0.3760 0.7322 -0.5678
vn 0.0457 -0.5096 0.8592
vn -0.2251 0.6492 0.7266
vn -0.0738 0.7917 0.6063
vn -0.0164 -0.2561 0.9665
vn 0.3795 0.6676 0.6405
vn 0.3963 0.6427 0.6556
vn -0.5981 -0.2955 0.7449
# 252 vertex normals

vt 0.5953 0.0549 0.0000
vt 0.5818 0.0257 0.0000
vt 0.6328 0.0645 0.0000
vt 0.0901 0.0296 0.0000
vt 0.0523 0.0238 0.0000
vt 0.0940 0.0052 0.0000
vt 0.3770 0.8397 0.0000
vt 0.3996 0.8159 0.0000
vt 0.4441 0.9051 0.0000
vt 0.3110 0.6810 0.0000
vt 0.2824 0.6864 0.0000
vt 0.2939 0.6445 0.0000
vt 0.2076 0.4358 0.0000
vt 0.2771 0.4719 0.0000
vt 0.2291 0.4792 0.0000
vt 0.2634 0.6125 0.0000
vt 0.6156 0.0278 0.0000
vt 0.6499 0.0480 0.0000
vt 0.2905 0.6067 0.0000
vt 0.5516 0.0577 0.0000
vt 0.0829 0.5462 0.0000
vt 0.1159 0.5657 0.0000
vt 0.0889 0.5785 0.0000
vt 0.6057 0.7369 0.0000
vt 0.6230 0.7826 0.0000
vt 0.5921 0.8056 0.0000
vt 0.8913 0.2934 0.0000
vt 0.9009 0.3505 0.0000
vt 0.8465 0.2608 0.0000
vt 0.5483 0.6986 0.0000
vt 0.4902 0.7416 0.0000
vt 0.4960 0.6371 0.0000
vt 0.1005 0.0531 0.0000
vt 0.0827 0.0627 0.0000
vt 0.7582 0.0423 0.0000
vt 0.7032 0.0527 0.0000
vt 0.7563 0.0155 0.0000
vt 0.0509 0.0905 0.0000
vt 0.0554 0.0587 0.0000
vt 0.0255 0.0947 0.0000
vt 0.5567 0.2513 0.0000
vt 0.5816 0.2780 0.0000
vt 0.4991 0.3051 0.0000
vt 0.2325 0.6290 0.0000
vt 0.2138 0.6077 0.0000
vt 0.6711 0.0647 0.0000
vt 0.6772 0.0976 0.0000
vt 0.2579 0.1772 0.0000
vt 0.2527 0.2248 0.0000
vt 0.2168 0.1838 0.0000
vt 0.6779 0.5661 0.0000
vt 0.6826 0.5315 0.0000
vt 0.6826 0.5966 0.0000
vt 0.7354 0.2436 0.0000
vt 0.7032 0.2451 0.0000
vt 0.7315 0.1877 0.0000
vt 0.3150 0.5337 0.0000
vt 0.3390 0.5195 0.0000
vt 0.3390 0.5892 0.0000
vt 0.5161 0.0296 0.0000
vt 0.4337 0.0465 0.0000
vt 0.4458 0.0337 0.0000
vt 0.1995 0.1582 0.0000
vt 0.1936 0.1758 0.0000
vt 0.4516 0.2596 0.0000
vt 0.4821 0.1865 0.0000
vt 0.5173 0.1938 0.0000
vt 0.8493 0.0379 0.0000
vt 0.8521 0.0013 0.0000
vt 0.8937 0.0115 0.0000
vt 0.0529 0.1935 0.0000
vt 0.0838 0.1775 0.0000
vt 0.0932 0.2410 0.0000
vt 0.5317 0.1646 0.0000
vt 0.5848 0.2024 0.0000
vt 0.2056 0.1070 0.0000
vt 0.2347 0.1448 0.0000
vt 0.0643 0.1197 0.0000
vt 0.9048 0.1249 0.0000
vt 0.8736 0.1276 0.0000
vt 0.8887 0.0802 0.0000
vt 0.1184 0.0973 0.0000
vt 0.1546 0.1050 0.0000
vt 0.1421 0.1356 0.0000
vt 0.9296 0.0655 0.0000
vt 0.2262 0.5634 0.0000
vt 0.2437 0.5536 0.0000
vt 0.7264 0.0694 0.0000
vt 0.7865 0.0486 0.0000
vt 0.2652 0.7047 0.0000
vt 0.2277 0.7230 0.0000
vt 0.2494 0.6659 0.0000
vt 0.2759 0.5557 0.0000
vt 0.7983 0.6205 0.0000
vt 0.7959 0.5887 0.0000
vt 0.8104 0.5869 0.0000
vt 0.7552 0.6023 0.0000
vt 0.7838 0.6551 0.0000
vt 0.7443 0.6353 0.0000
vt 0.7472 0.5714 0.0000
vt 0.7197 0.6044 0.0000
vt 0.8197 0.6559 0.0000
vt 0.8236 0.0818 0.0000
vt 0.8159 0.0344 0.0000
vt 0.9248 0.5318 0.0000
vt 0.9019 0.5451 0.0000
vt 0.8799 0.5171 0.0000
vt 0.4011 0.0364 0.0000
vt 0.8344 0.6279 0.0000
vt 0.3915 0.9384 0.0000
vt 0.4072 0.8996 0.0000
vt 0.4380 0.9493 0.0000
vt 0.6925 0.1009 0.0000
vt 0.0377 0.1616 0.0000
vt 0.5548 0.0974 0.0000
vt 0.4945 0.1057 0.0000
vt 0.0120 0.1458 0.0000
vt 0.4835 0.9384 0.0000
vt 0.4225 0.0781 0.0000
vt 0.3917 0.0650 0.0000
vt 0.2727 0.4949 0.0000
vt 0.3390 0.4606 0.0000
vt 0.2890 0.5169 0.0000
vt 0.6151 0.1124 0.0000
vt 0.5673 0.1352 0.0000
vt 0.9302 0.4597 0.0000
vt 0.9330 0.4927 0.0000
vt 0.8869 0.4930 0.0000
vt 0.3561 0.8941 0.0000
vt 0.8197 0.7193 0.0000
vt 0.0376 0.7122 0.0000
vt 0.0534 0.7153 0.0000
vt 0.0744 0.7491 0.0000
vt 0.5290 0.9189 0.0000
vt 0.5024 0.9525 0.0000
vt 0.6471 0.6408 0.0000
vt 0.6471 0.6707 0.0000
vt 0.6255 0.6696 0.0000
vt 0.3390 0.6417 0.0000
vt 0.3190 0.6091 0.0000
vt 0.3390 0.5917 0.0000
vt 0.3424 0.4589 0.0000
vt 0.3683 0.4560 0.0000
vt 0.3577 0.4926 0.0000
vt 0.2424 0.5141 0.0000
vt 0.7828 0.1279 0.0000
vt 0.7422 0.0943 0.0000
vt 0.0812 0.6770 0.0000
vt 0.0919 0.6431 0.0000
vt 0.1359 0.6830 0.0000
vt 0.6571 0.1123 0.0000
vt 0.6900 0.1463 0.0000
vt 0.6708 0.1839 0.0000
vt 0.3379 0.6685 0.0000
vt 0.3190 0.6478 0.0000
vt 0.3379 0.6442 0.0000
vt 0.4913 0.9125 0.0000
vt 0.6461 0.1621 0.0000
vt 0.8467 0.1061 0.0000
vt 0.0132 0.1869 0.0000
vt 0.6764 0.6707 0.0000
vt 0.6589 0.6551 0.0000
vt 0.6764 0.6450 0.0000
vt 0.5797 0.5403 0.0000
vt 0.5995 0.4976 0.0000
vt 0.6041 0.5260 0.0000
vt 0.7251 0.1159 0.0000
vt 0.1789 0.2655 0.0000
vt 0.1975 0.2571 0.0000
vt 0.2072 0.2921 0.0000
vt 0.8911 0.2359 0.0000
vt 0.7572 0.1794 0.0000
vt 0.2998 0.4434 0.0000
vt 0.3335 0.3915 0.0000
vt 0.5189 0.3267 0.0000
vt 0.5346 0.3477 0.0000
vt 0.9139 0.4372 0.0000
vt 0.0439 0.6624 0.0000
vt 0.0013 0.6552 0.0000
vt 0.0512 0.6566 0.0000
vt 0.0971 0.1259 0.0000
vt 0.0682 0.6776 0.0000
vt 0.0629 0.6831 0.0000
vt 0.9564 0.4347 0.0000
vt 0.0811 0.6639 0.0000
vt 0.6314 0.2230 0.0000
vt 0.8220 0.4366 0.0000
vt 0.8631 0.4677 0.0000
vt 0.8418 0.5048 0.0000
vt 0.3443 0.8350 0.0000
vt 0.3596 0.8065 0.0000
vt 0.5253 0.5180 0.0000
vt 0.5578 0.5371 0.0000
vt 0.5067 0.5493 0.0000
vt 0.2164 0.4190 0.0000
vt 0.3674 0.4051 0.0000
vt 0.4061 0.4247 0.0000
vt 0.3826 0.1346 0.0000
vt 0.9787 0.0802 0.0000
vt 0.9537 0.1403 0.0000
vt 0.9130 0.3947 0.0000
vt 0.5151 0.8418 0.0000
vt 0.5762 0.7853 0.0000
vt 0.5515 0.8676 0.0000
vt 0.5790 0.5956 0.0000
vt 0.1740 0.4611 0.0000
vt 0.1627 0.4478 0.0000
vt 0.1900 0.4407 0.0000
vt 0.0964 0.6117 0.0000
vt 0.1144 0.6367 0.0000
vt 0.0152 0.2149 0.0000
vt 0.5381 0.5628 0.0000
vt 0.6816 0.2115 0.0000
vt 0.6639 0.2153 0.0000
vt 0.6900 0.1853 0.0000
vt 0.9424 0.3529 0.0000
vt 0.4507 0.1260 0.0000
vt 0.6036 0.2917 0.0000
vt 0.5603 0.3505 0.0000
vt 0.2959 0.2131 0.0000
vt 0.2528 0.2633 0.0000
vt 0.5525 0.6291 0.0000
vt 0.5216 0.1473 0.0000
vt 0.4693 0.1501 0.0000
vt 0.9740 0.3583 0.0000
vt 0.9590 0.3080 0.0000
vt 0.3285 0.3099 0.0000
vt 0.2991 0.2711 0.0000
vt 0.3390 0.2119 0.0000
vt 0.9784 0.2041 0.0000
vt 0.9750 0.2592 0.0000
vt 0.9252 0.2024 0.0000
vt 0.1477 0.4358 0.0000
vt 0.1485 0.4562 0.0000
vt 0.1931 0.4351 0.0000
vt 0.1971 0.4499 0.0000
vt 0.1141 0.3078 0.0000
vt 0.1098 0.3549 0.0000
vt 0.0727 0.3097 0.0000
vt 0.8011 0.2534 0.0000
vt 0.8271 0.2143 0.0000
vt 0.8414 0.3872 0.0000
vt 0.4176 0.6863 0.0000
vt 0.4157 0.6496 0.0000
vt 0.4667 0.6038 0.0000
vt 0.5809 0.7124 0.0000
vt 0.5745 0.6492 0.0000
vt 0.5992 0.6706 0.0000
vt 0.1077 0.0156 0.0000
vt 0.8799 0.1863 0.0000
vt 0.1098 0.2418 0.0000
vt 0.1510 0.2855 0.0000
vt 0.5976 0.5885 0.0000
vt 0.3812 0.2883 0.0000
vt 0.3657 0.2273 0.0000
vt 0.3822 0.2179 0.0000
vt 0.1613 0.6722 0.0000
vt 0.1700 0.6532 0.0000
vt 0.1745 0.6849 0.0000
vt 0.1375 0.6663 0.0000
vt 0.9303 0.2957 0.0000
vt 0.1804 0.4100 0.0000
vt 0.2592 0.2964 0.0000
vt 0.2970 0.3368 0.0000
vt 0.4259 0.4042 0.0000
vt 0.4917 0.3988 0.0000
vt 0.1044 0.1675 0.0000
vt 0.1209 0.1872 0.0000
vt 0.1792 0.4250 0.0000
vt 0.1207 0.6588 0.0000
vt 0.1519 0.6396 0.0000
vt 0.3990 0.7673 0.0000
vt 0.1935 0.2221 0.0000
vt 0.7197 0.5477 0.0000
vt 0.6204 0.3153 0.0000
vt 0.2324 0.2907 0.0000
vt 0.7975 0.3111 0.0000
vt 0.8182 0.3555 0.0000
vt 0.1271 0.4156 0.0000
vt 0.1761 0.1657 0.0000
vt 0.4561 0.5804 0.0000
vt 0.0503 0.2493 0.0000
vt 0.1649 0.6113 0.0000
vt 0.1222 0.5992 0.0000
vt 0.6008 0.8359 0.0000
vt 0.1405 0.3860 0.0000
vt 0.4113 0.2084 0.0000
vt 0.1417 0.5590 0.0000
vt 0.1146 0.5213 0.0000
vt 0.6100 0.6335 0.0000
vt 0.4744 0.3654 0.0000
vt 0.4593 0.3425 0.0000
vt 0.4980 0.3709 0.0000
vt 0.3873 0.3548 0.0000
vt 0.4088 0.6198 0.0000
vt 0.4555 0.7853 0.0000
vt 0.0574 0.5504 0.0000
vt 0.2112 0.6181 0.0000
vt 0.1972 0.5672 0.0000
vt 0.1478 0.5949 0.0000
vt 0.1622 0.5775 0.0000
vt 0.1369 0.2402 0.0000
vt 0.9122 0.1583 0.0000
vt 0.3669 0.7311 0.0000
vt 0.2600 0.3287 0.0000
vt 0.4110 0.3869 0.0000
vt 0.6482 0.5208 0.0000
vt 0.6595 0.5472 0.0000
vt 0.6255 0.5250 0.0000
vt 0.1582 0.4216 0.0000
vt 0.3415 0.7595 0.0000
vt 0.1711 0.1983 0.0000
vt 0.4199 0.3707 0.0000
vt 0.3530 0.3769 0.0000
vt 0.2875 0.7231 0.0000
vt 0.1906 0.6569 0.0000
vt 0.3735 0.6680 0.0000
vt 0.9865 0.1559 0.0000
vt 0.3102 0.1707 0.0000
vt 0.2769 0.1422 0.0000
vt 0.2881 0.0899 0.0000
vt 0.4685 0.3891 0.0000
vt 0.4539 0.3720 0.0000
vt 0.4729 0.3789 0.0000
vt 0.1379 0.6326 0.0000
vt 0.5201 0.0013 0.0000
vt 0.9123 0.1452 0.0000
vt 0.0055 0.2480 0.0000
vt 0.1855 0.3652 0.0000
vt 0.9987 0.3253 0.0000
vt 0.6451 0.2402 0.0000
vt 0.3589 0.3236 0.0000
vt 0.9987 0.1158 0.0000
vt 0.6272 0.5406 0.0000
vt 0.1847 0.3308 0.0000
vt 0.3617 0.0782 0.0000
vt 0.3641 0.1273 0.0000
vt 0.0203 0.2885 0.0000
vt 0.1733 0.2239 0.0000
vt 0.6714 0.4951 0.0000
vt 0.6714 0.5404 0.0000
vt 0.6620 0.5174 0.0000
vt 0.0013 0.2208 0.0000
vt 0.3878 0.4572 0.0000
vt 0.3637 0.1730 0.0000
vt 0.6754 0.5966 0.0000
vt 0.6602 0.5786 0.0000
vt 0.6754 0.5497 0.0000
vt 0.7624 0.5582 0.0000
vt 0.3439 0.2098 0.0000
vt 0.9926 0.4036 0.0000
vt 0.1966 0.4841 0.0000
vt 0.6430 0.6375 0.0000
vt 0.6554 0.6207 0.0000
vt 0.6563 0.6382 0.0000
vt 0.5942 0.8637 0.0000
vt 0.7988 0.1715 0.0000
vt 0.6595 0.5037 0.0000
vt 0.0070 0.6180 0.0000
vt 0.7092 0.1436 0.0000
vt 0.6230 0.6869 0.0000
vt 0.6255 0.6214 0.0000
vt 0.4730 0.0112 0.0000
vt 0.6563 0.6002 0.0000
vt 0.6347 0.6070 0.0000
vt 0.7800 0.7078 0.0000
vt 0.1471 0.5294 0.0000
vt 0.1740 0.2429 0.0000
vt 0.3415 0.2768 0.0000
vt 0.2744 0.5195 0.0000
vt 0.3110 0.5500 0.0000
vt 0.6406 0.2792 0.0000
vt 0.0851 0.3703 0.0000
vt 0.1592 0.2345 0.0000
vt 0.5791 0.4951 0.0000
vt 0.7988 0.0085 0.0000
vt 0.2515 0.7435 0.0000
vt 0.0649 0.0420 0.0000
vt 0.8344 0.7103 0.0000
vt 0.7316 0.2790 0.0000
vt 0.7631 0.7022 0.0000
vt 0.7150 0.7168 0.0000
vt 0.7479 0.6756 0.0000
vt 0.6938 0.6357 0.0000
vt 0.7172 0.6585 0.0000
vt 0.0384 0.3269 0.0000
vt 0.0511 0.6909 0.0000
vt 0.0013 0.6882 0.0000
vt 0.6925 0.5680 0.0000
vt 0.6962 0.1895 0.0000
vt 0.2508 0.0762 0.0000
vt 0.2112 0.5195 0.0000
vt 0.6577 0.5497 0.0000
vt 0.6577 0.5976 0.0000
vt 0.6255 0.5729 0.0000
vt 0.7397 0.3117 0.0000
vt 0.8310 0.1779 0.0000
vt 0.1440 0.0013 0.0000
vt 0.4437 0.3705 0.0000
vt 0.6934 0.6882 0.0000
vt 0.0744 0.6874 0.0000
vt 0.6496 0.6591 0.0000
vt 0.6559 0.6408 0.0000
vt 0.6559 0.6735 0.0000
vt 0.6819 0.4951 0.0000
vt 0.6819 0.5154 0.0000
vt 0.6739 0.5123 0.0000
vt 0.6820 0.6002 0.0000
vt 0.6820 0.6424 0.0000
vt 0.6589 0.6260 0.0000
vt 0.6493 0.4951 0.0000
# 411 texture coords

usemtl Rock45
o rock45_lr
g rock45_lr
f 1/1/1 2/2/2 3/3/3 
f 4/4/4 5/5/5 6/6/6 
f 7/7/7 8/8/8 9/9/9 
f 10/10/10 11/11/11 12/12/12 
f 13/13/13 14/14/14 15/15/15 
f 11/11/11 16/16/16 12/12/12 
f 3/3/3 5/17/5 17/18/17 
f 16/16/16 18/19/18 12/12/12 
f 1/1/1 19/20/19 2/2/2 
f 20/21/20 21/22/21 22/23/22 
f 23/24/23 24/25/24 25/26/25 
f 26/27/26 27/28/27 28/29/28 
f 29/30/29 30/31/30 31/32/31 
f 32/33/32 33/34/33 4/4/4 
f 34/35/34 32/36/32 35/37/35 
f 36/38/36 37/39/37 33/34/33 
f 38/40/38 37/39/37 36/38/36 
f 39/41/39 40/42/40 41/43/41 
f 16/16/16 42/44/42 43/45/43 
f 17/18/17 37/46/37 38/47/38 
f 44/48/44 45/49/45 46/50/46 
f 47/51/47 48/52/48 49/53/49 
f 48/54/48 50/55/50 51/56/51 
f 51/57/51 49/58/49 48/59/48 
f 52/60/52 53/61/53 43/62/43 
f 54/63/54 44/48/44 55/64/55 
f 56/65/56 57/66/57 58/67/58 
f 59/68/59 12/69/12 18/70/18 
f 60/71/60 61/72/61 62/73/62 
f 63/74/63 64/75/64 58/67/58 
f 65/76/65 66/77/66 54/63/54 
f 67/78/67 36/38/36 33/34/33 
f 68/79/68 69/80/69 70/81/70 
f 71/82/71 72/83/72 73/84/73 
f 59/68/59 74/85/74 70/81/70 
f 75/86/75 16/16/16 43/45/43 
f 52/60/52 19/20/19 53/61/53 
f 76/87/76 16/16/16 75/86/75 
f 32/36/32 34/35/34 77/88/77 
f 78/89/78 77/88/77 34/35/34 
f 79/90/79 2/91/2 80/92/80 
f 32/33/32 71/82/71 33/34/33 
f 76/87/76 81/93/81 16/16/16 
f 82/94/82 83/95/83 84/96/84 
f 85/97/85 86/98/86 87/99/87 
f 88/100/88 85/97/85 89/101/89 
f 86/98/86 82/94/82 90/102/90 
f 84/96/84 90/102/90 82/94/82 
f 91/103/91 92/104/92 59/68/59 
f 93/105/93 88/106/88 94/107/94 
f 53/61/53 75/108/75 43/62/43 
f 33/34/33 71/82/71 67/78/67 
f 95/109/95 90/102/90 84/96/84 
f 91/103/91 78/89/78 92/104/92 
f 93/110/93 96/111/96 84/112/84 
f 71/113/71 32/36/32 77/88/77 
f 97/114/97 36/38/36 67/78/67 
f 19/20/19 98/115/98 99/116/99 
f 36/38/36 97/114/97 100/117/100 
f 38/40/38 36/38/36 100/117/100 
f 95/118/95 84/112/84 9/9/9 
f 101/119/101 102/120/102 53/61/53 
f 103/121/103 104/122/104 89/123/89 
f 98/115/98 105/124/105 106/125/106 
f 107/126/107 108/127/108 109/128/109 
f 84/112/84 96/111/96 9/9/9 
f 96/111/96 93/110/93 108/129/108 
f 90/102/90 110/130/110 86/98/86 
f 111/131/111 112/132/112 113/133/113 
f 95/118/95 114/134/114 90/135/90 
f 110/136/110 115/137/115 116/138/116 
f 77/139/77 117/140/117 72/141/72 
f 114/142/114 118/143/118 90/144/90 
f 119/145/119 15/15/15 103/121/103 
f 91/103/91 65/146/65 117/147/117 
f 104/122/104 103/121/103 14/14/14 
f 96/111/96 108/129/108 7/7/7 
f 112/148/112 120/149/120 113/150/113 
f 75/108/75 53/61/53 102/120/102 
f 121/151/121 100/152/100 122/153/122 
f 59/68/59 70/81/70 91/103/91 
f 112/154/112 123/155/123 124/156/124 
f 95/118/95 125/157/125 114/134/114 
f 103/121/103 15/15/15 14/14/14 
f 126/158/126 121/151/121 122/153/122 
f 69/80/69 127/159/127 70/81/70 
f 100/117/100 97/114/97 128/160/128 
f 116/161/116 115/162/115 123/163/123 
f 91/103/91 70/81/70 127/159/127 
f 99/116/99 98/115/98 106/125/106 
f 129/164/129 75/165/75 102/166/102 
f 8/8/8 125/157/125 9/9/9 
f 72/167/72 117/147/117 65/146/65 
f 7/7/7 9/9/9 96/111/96 
f 130/168/130 131/169/131 132/170/132 
f 28/29/28 133/171/133 26/27/26 
f 49/172/49 72/167/72 65/146/65 
f 134/173/134 135/174/135 104/122/104 
f 136/175/136 40/42/40 137/176/137 
f 107/126/107 109/128/109 138/177/138 
f 74/85/74 68/79/68 70/81/70 
f 115/178/115 110/179/110 139/180/139 
f 140/181/140 61/72/61 67/78/67 
f 115/178/115 141/182/141 123/183/123 
f 142/184/142 108/127/108 107/126/107 
f 139/180/139 124/185/124 141/182/141 
f 143/186/143 126/158/126 122/153/122 
f 115/178/115 139/180/139 141/182/141 
f 135/187/135 144/188/144 104/189/104 
f 142/190/142 145/191/145 7/7/7 
f 146/192/146 147/193/147 148/194/148 
f 60/71/60 128/160/128 97/114/97 
f 14/14/14 13/13/13 149/195/149 
f 150/196/150 151/197/151 118/143/118 
f 102/120/102 101/119/101 152/198/152 
f 74/85/74 146/199/146 153/200/153 
f 138/177/138 154/201/154 142/184/142 
f 91/103/91 127/159/127 65/146/65 
f 155/202/155 156/203/156 157/204/157 
f 147/193/147 129/164/129 158/205/158 
f 159/206/159 160/207/160 161/208/161 
f 162/209/162 163/210/163 120/149/120 
f 164/211/164 128/160/128 60/71/60 
f 158/205/158 165/212/165 147/193/147 
f 164/213/164 166/214/166 128/215/128 
f 154/201/154 167/216/167 142/184/142 
f 101/119/101 168/217/168 152/198/152 
f 169/218/169 170/219/170 137/176/137 
f 45/49/45 171/220/171 172/221/172 
f 31/32/31 173/222/173 29/30/29 
f 174/223/174 175/224/175 168/217/168 
f 176/225/176 167/216/167 177/226/177 
f 178/227/178 179/228/179 28/229/28 
f 180/230/180 181/231/181 182/232/182 
f 183/233/183 160/207/160 163/234/163 
f 147/193/147 165/212/165 148/194/148 
f 184/235/184 13/13/13 185/236/185 
f 186/237/186 187/238/187 188/239/188 
f 28/29/28 171/240/171 189/241/189 
f 190/242/190 154/201/154 138/177/138 
f 191/243/191 192/244/192 193/245/193 
f 194/246/194 195/247/195 196/248/196 
f 176/225/176 142/184/142 167/216/167 
f 32/33/32 4/4/4 35/249/35 
f 28/29/28 197/250/197 133/171/133 
f 198/251/198 199/252/199 186/237/186 
f 129/164/129 200/253/200 158/205/158 
f 174/223/174 57/66/57 175/224/175 
f 201/254/201 202/255/202 203/256/203 
f 184/257/184 204/258/204 13/259/13 
f 205/260/205 204/258/204 184/257/184 
f 191/243/191 31/32/31 30/31/30 
f 89/101/89 85/97/85 87/99/87 
f 144/188/144 190/242/190 138/177/138 
f 133/171/133 182/232/182 206/261/206 
f 13/13/13 207/262/207 149/195/149 
f 208/263/208 172/221/172 179/228/179 
f 203/256/203 56/65/56 41/43/41 
f 168/217/168 175/224/175 57/66/57 
f 134/173/134 149/195/149 209/264/209 
f 151/197/151 210/265/210 22/266/22 
f 82/94/82 86/98/86 85/97/85 
f 211/267/211 212/268/212 62/73/62 
f 213/269/213 160/207/160 183/233/183 
f 213/270/213 214/271/214 205/260/205 
f 145/191/145 215/272/215 8/8/8 
f 45/49/45 216/273/216 46/50/46 
f 94/274/94 88/100/88 89/101/89 
f 77/88/77 78/89/78 117/147/117 
f 134/173/134 209/264/209 135/174/135 
f 217/275/217 170/219/170 169/218/169 
f 218/276/218 132/170/132 172/221/172 
f 179/277/179 171/240/171 28/29/28 
f 190/242/190 135/187/135 178/278/178 
f 167/216/167 154/201/154 27/28/27 
f 163/234/163 219/279/219 183/233/183 
f 105/124/105 126/158/126 106/125/106 
f 65/76/65 54/63/54 49/280/49 
f 27/28/27 154/201/154 190/242/190 
f 99/116/99 106/125/106 174/223/174 
f 157/204/157 114/134/114 125/157/125 
f 69/80/69 68/79/68 197/250/197 
f 198/251/198 186/237/186 62/73/62 
f 192/244/192 220/281/220 193/245/193 
f 177/226/177 167/216/167 206/261/206 
f 164/211/164 60/71/60 221/282/221 
f 204/258/204 214/271/214 219/283/219 
f 222/284/222 163/210/163 162/209/162 
f 165/212/165 193/245/193 148/194/148 
f 193/245/193 173/222/173 31/32/31 
f 38/47/38 121/151/121 3/3/3 
f 25/26/25 156/203/156 23/24/23 
f 25/26/25 24/25/24 223/285/223 
f 49/280/49 54/63/54 55/64/55 
f 186/237/186 224/286/224 187/238/187 
f 225/287/225 57/66/57 56/65/56 
f 226/288/226 21/22/21 137/289/137 
f 195/247/195 227/290/227 196/248/196 
f 228/291/228 229/292/229 20/293/20 
f 197/250/197 189/241/189 69/80/69 
f 230/294/230 201/254/201 229/292/229 
f 182/232/182 181/231/181 206/261/206 
f 180/295/180 220/281/220 192/244/192 
f 40/42/40 143/186/143 169/218/169 
f 186/237/186 221/282/221 62/73/62 
f 231/296/231 8/8/8 215/272/215 
f 177/226/177 181/231/181 176/225/176 
f 20/21/20 22/23/22 228/297/228 
f 221/282/221 60/71/60 62/73/62 
f 224/298/224 219/283/219 232/299/232 
f 233/300/233 234/301/234 219/283/219 
f 50/302/50 198/251/198 212/268/212 
f 162/209/162 22/23/22 21/22/21 
f 197/250/197 235/303/235 182/232/182 
f 191/243/191 215/272/215 236/304/236 
f 226/288/226 234/301/234 21/22/21 
f 208/263/208 209/264/209 237/305/237 
f 158/205/158 227/290/227 195/247/195 
f 230/294/230 238/306/238 150/196/150 
f 239/307/239 228/308/228 240/309/240 
f 183/233/183 219/279/219 214/310/214 
f 145/191/145 176/311/176 236/304/236 
f 173/222/173 165/212/165 158/205/158 
f 47/312/47 49/280/49 55/64/55 
f 203/256/203 152/198/152 225/287/225 
f 173/222/173 158/205/158 195/247/195 
f 241/313/241 238/306/238 230/294/230 
f 150/196/150 223/314/223 230/294/230 
f 156/203/156 155/202/155 231/296/231 
f 10/10/10 6/315/6 11/11/11 
f 55/64/55 44/48/44 46/50/46 
f 219/283/219 224/298/224 207/316/207 
f 181/317/181 180/295/180 192/244/192 
f 146/199/146 220/318/220 153/200/153 
f 13/259/13 204/258/204 207/316/207 
f 189/319/189 242/320/242 69/321/69 
f 243/322/243 240/323/240 244/324/244 
f 214/271/214 213/270/213 183/325/183 
f 21/22/21 222/284/222 162/209/162 
f 80/326/80 2/2/2 52/60/52 
f 88/100/88 83/95/83 85/97/85 
f 153/200/153 235/303/235 245/327/245 
f 222/284/222 21/22/21 234/301/234 
f 246/328/246 164/211/164 221/282/221 
f 57/66/57 152/198/152 168/217/168 
f 22/23/22 162/209/162 120/149/120 
f 41/43/41 56/65/56 39/41/39 
f 178/227/178 135/174/135 209/264/209 
f 57/66/57 225/287/225 152/198/152 
f 27/28/27 206/261/206 167/216/167 
f 240/323/240 210/265/210 238/306/238 
f 206/261/206 181/231/181 177/226/177 
f 215/272/215 30/31/30 231/296/231 
f 180/230/180 153/200/153 220/318/220 
f 207/262/207 247/329/247 149/195/149 
f 197/250/197 245/327/245 235/303/235 
f 151/197/151 238/306/238 210/265/210 
f 207/316/207 204/258/204 219/283/219 
f 222/284/222 233/300/233 219/283/219 
f 133/171/133 206/261/206 26/27/26 
f 181/231/181 236/330/236 176/225/176 
f 244/324/244 22/266/22 243/322/243 
f 99/116/99 168/217/168 101/119/101 
f 173/222/173 193/245/193 165/212/165 
f 39/41/39 64/75/64 143/186/143 
f 246/331/246 143/186/143 166/214/166 
f 24/332/24 230/294/230 223/314/223 
f 44/48/44 54/63/54 66/77/66 
f 143/186/143 246/331/246 169/218/169 
f 146/199/146 148/333/148 220/318/220 
f 212/268/212 198/251/198 62/73/62 
f 228/308/228 244/334/244 240/309/240 
f 237/305/237 149/195/149 248/335/248 
f 247/329/247 207/262/207 224/286/224 
f 55/64/55 46/50/46 216/273/216 
f 129/336/129 102/120/102 200/337/200 
f 193/245/193 31/32/31 191/243/191 
f 246/328/246 221/282/221 249/338/249 
f 44/48/44 66/77/66 242/320/242 
f 236/304/236 215/272/215 145/191/145 
f 60/71/60 97/114/97 61/72/61 
f 135/187/135 190/242/190 144/188/144 
f 47/312/47 55/64/55 250/339/250 
f 39/41/39 143/186/143 40/42/40 
f 151/197/151 150/196/150 238/306/238 
f 245/327/245 68/79/68 153/200/153 
f 57/66/57 63/74/63 58/67/58 
f 149/195/149 247/329/247 248/335/248 
f 222/340/222 234/341/234 233/342/233 
f 164/211/164 246/328/246 166/343/166 
f 61/72/61 211/267/211 62/73/62 
f 110/344/110 118/143/118 151/197/151 
f 158/205/158 200/253/200 227/290/227 
f 182/232/182 153/200/153 180/230/180 
f 219/283/219 163/210/163 222/284/222 
f 44/48/44 242/320/242 189/319/189 
f 227/345/227 200/337/200 152/198/152 
f 182/232/182 235/303/235 153/200/153 
f 22/346/22 244/347/244 228/348/228 
f 22/266/22 210/265/210 243/322/243 
f 93/349/93 83/95/83 88/100/88 
f 241/313/241 230/294/230 229/292/229 
f 216/273/216 250/339/250 55/64/55 
f 118/143/118 114/142/114 150/196/150 
f 203/256/203 196/350/196 227/345/227 
f 21/22/21 20/21/20 137/289/137 
f 122/153/122 166/214/166 143/186/143 
f 160/207/160 213/269/213 161/208/161 
f 229/292/229 136/175/136 137/176/137 
f 149/195/149 237/305/237 209/264/209 
f 142/184/142 176/225/176 145/351/145 
f 13/13/13 113/352/113 185/236/185 
f 179/228/179 178/227/178 209/264/209 
f 191/243/191 30/31/30 215/272/215 
f 163/234/163 160/207/160 159/206/159 
f 229/292/229 137/176/137 20/293/20 
f 241/313/241 229/292/229 228/291/228 
f 205/353/205 161/354/161 213/355/213 
f 157/204/157 223/285/223 150/356/150 
f 65/146/65 127/159/127 66/357/66 
f 228/308/228 239/307/239 241/358/241 
f 174/223/174 63/74/63 57/66/57 
f 156/203/156 231/296/231 30/31/30 
f 151/359/151 120/149/120 110/179/110 
f 8/8/8 7/7/7 145/191/145 
f 63/74/63 106/125/106 64/75/64 
f 49/172/49 51/56/51 73/360/73 
f 143/186/143 64/75/64 126/158/126 
f 58/67/58 64/75/64 39/41/39 
f 151/359/151 22/23/22 120/149/120 
f 68/79/68 74/85/74 153/200/153 
f 230/294/230 24/332/24 201/254/201 
f 189/319/189 171/220/171 44/48/44 
f 185/236/185 113/352/113 159/206/159 
f 15/15/15 113/352/113 13/13/13 
f 159/206/159 113/352/113 163/234/163 
f 194/246/194 196/248/196 202/361/202 
f 27/28/27 26/27/26 206/261/206 
f 205/353/205 184/362/184 161/354/161 
f 191/243/191 236/304/236 192/244/192 
f 42/363/42 80/326/80 52/60/52 
f 159/364/159 161/354/161 185/365/185 
f 110/130/110 116/366/116 86/98/86 
f 172/221/172 132/170/132 131/169/131 
f 30/31/30 29/30/29 156/203/156 
f 134/173/134 14/14/14 149/195/149 
f 137/289/137 170/367/170 226/288/226 
f 226/288/226 232/299/232 234/301/234 
f 73/84/73 211/267/211 140/181/140 
f 236/304/236 181/317/181 192/244/192 
f 250/339/250 216/273/216 251/368/251 
f 120/149/120 139/180/139 110/179/110 
f 247/329/247 224/286/224 186/237/186 
f 124/185/124 139/180/139 120/149/120 
f 24/332/24 23/369/23 201/254/201 
f 203/256/203 225/287/225 56/65/56 
f 196/350/196 203/256/203 202/255/202 
f 168/217/168 99/116/99 174/223/174 
f 81/93/81 146/370/146 74/371/74 
f 186/237/186 188/239/188 221/282/221 
f 249/372/249 169/218/169 246/331/246 
f 56/65/56 58/67/58 39/41/39 
f 232/373/232 187/238/187 224/286/224 
f 249/338/249 221/282/221 188/239/188 
f 250/339/250 251/368/251 48/374/48 
f 97/114/97 67/78/67 61/72/61 
f 218/276/218 237/305/237 248/335/248 
f 157/204/157 125/157/125 155/202/155 
f 208/263/208 237/305/237 218/276/218 
f 49/172/49 73/360/73 72/167/72 
f 45/49/45 44/48/44 171/220/171 
f 129/164/129 147/193/147 75/165/75 
f 122/153/122 100/152/100 128/215/128 
f 76/375/76 75/165/75 147/193/147 
f 142/190/142 7/7/7 108/129/108 
f 140/181/140 211/267/211 61/72/61 
f 34/35/34 35/37/35 10/376/10 
f 28/29/28 189/241/189 197/250/197 
f 5/377/5 79/90/79 6/315/6 
f 114/134/114 157/204/157 150/356/150 
f 81/93/81 74/371/74 18/19/18 
f 109/128/109 144/188/144 138/177/138 
f 4/4/4 37/39/37 17/378/17 
f 107/126/107 138/177/138 142/184/142 
f 29/30/29 194/246/194 156/203/156 
f 166/214/166 122/153/122 128/215/128 
f 172/221/172 208/263/208 218/276/218 
f 90/102/90 118/379/118 110/130/110 
f 126/158/126 105/124/105 121/151/121 
f 6/6/6 35/249/35 4/4/4 
f 71/82/71 140/181/140 67/78/67 
f 14/14/14 134/173/134 104/122/104 
f 194/246/194 23/24/23 156/203/156 
f 48/54/48 130/380/130 50/55/50 
f 108/127/108 93/105/93 94/107/94 
f 71/113/71 77/88/77 72/167/72 
f 111/381/111 113/382/113 252/383/252 
f 109/128/109 104/189/104 144/188/144 
f 41/43/41 229/292/229 201/254/201 
f 229/292/229 41/43/41 136/175/136 
f 102/120/102 152/198/152 200/337/200 
f 27/28/27 178/278/178 28/29/28 
f 125/157/125 95/118/95 9/9/9 
f 74/85/74 59/68/59 18/70/18 
f 251/368/251 216/273/216 131/169/131 
f 248/335/248 247/329/247 186/237/186 
f 117/147/117 78/89/78 91/103/91 
f 53/61/53 19/20/19 99/116/99 
f 103/384/103 89/101/89 119/385/119 
f 89/101/89 87/99/87 119/385/119 
f 93/349/93 84/96/84 83/95/83 
f 111/381/111 252/383/252 86/98/86 
f 121/151/121 105/124/105 1/1/1 
f 2/91/2 79/90/79 5/377/5 
f 248/335/248 132/170/132 218/276/218 
f 109/128/109 108/127/108 94/107/94 
f 217/386/217 187/238/187 232/373/232 
f 121/151/121 38/47/38 100/152/100 
f 64/75/64 106/125/106 126/158/126 
f 116/387/116 111/131/111 86/388/86 
f 94/107/94 104/189/104 109/128/109 
f 94/274/94 89/101/89 104/389/104 
f 203/256/203 41/43/41 201/254/201 
f 82/94/82 85/97/85 83/95/83 
f 47/312/47 250/339/250 48/374/48 
f 50/55/50 212/390/212 51/56/51 
f 12/69/12 92/104/92 10/376/10 
f 79/90/79 11/11/11 6/315/6 
f 16/16/16 80/92/80 42/44/42 
f 73/360/73 51/56/51 212/390/212 
f 212/268/212 211/267/211 73/84/73 
f 131/169/131 216/273/216 45/49/45 
f 71/82/71 73/84/73 140/181/140 
f 127/391/127 242/320/242 66/77/66 
f 170/367/170 217/392/217 232/299/232 
f 131/169/131 130/168/130 251/368/251 
f 10/393/10 78/394/78 34/395/34 
f 137/176/137 40/42/40 169/218/169 
f 199/252/199 132/170/132 248/335/248 
f 29/30/29 173/222/173 195/247/195 
f 68/79/68 245/327/245 197/250/197 
f 132/396/132 50/55/50 130/380/130 
f 101/119/101 53/61/53 99/116/99 
f 119/385/119 87/99/87 252/383/252 
f 187/238/187 217/386/217 188/239/188 
f 242/397/242 127/159/127 69/80/69 
f 3/3/3 17/18/17 38/47/38 
f 98/115/98 19/20/19 1/1/1 
f 169/218/169 249/372/249 217/275/217 
f 81/93/81 18/19/18 16/16/16 
f 50/302/50 199/252/199 198/251/198 
f 11/11/11 79/90/79 80/92/80 
f 23/369/23 202/255/202 201/254/201 
f 188/239/188 217/386/217 249/338/249 
f 199/252/199 50/302/50 132/170/132 
f 209/264/209 208/263/208 179/228/179 
f 179/228/179 172/221/172 171/220/171 
f 10/376/10 92/104/92 78/89/78 
f 98/115/98 1/1/1 105/124/105 
f 120/149/120 163/210/163 113/150/113 
f 29/30/29 195/247/195 194/246/194 
f 23/24/23 194/246/194 202/361/202 
f 248/335/248 186/237/186 199/252/199 
f 35/249/35 6/6/6 10/398/10 
f 197/250/197 182/232/182 133/171/133 
f 4/4/4 33/34/33 37/39/37 
f 234/301/234 232/299/232 219/283/219 
f 41/43/41 40/42/40 136/175/136 
f 1/1/1 3/3/3 121/151/121 
f 19/20/19 52/60/52 2/2/2 
f 239/399/239 238/306/238 241/313/241 
f 63/74/63 174/223/174 106/125/106 
f 87/99/87 86/98/86 252/383/252 
f 252/383/252 113/382/113 119/385/119 
f 113/382/113 15/400/15 119/385/119 
f 112/132/112 111/131/111 116/387/116 
f 193/245/193 220/281/220 148/194/148 
f 123/401/123 112/132/112 116/387/116 
f 124/402/124 120/403/120 112/404/112 
f 81/93/81 76/87/76 146/370/146 
f 124/405/124 123/406/123 141/407/141 
f 147/193/147 146/192/146 76/375/76 
f 226/288/226 170/367/170 232/299/232 
f 43/62/43 42/363/42 52/60/52 
f 223/285/223 157/204/157 25/26/25 
f 157/204/157 156/203/156 25/26/25 
f 11/11/11 80/92/80 16/16/16 
f 231/296/231 155/202/155 8/8/8 
f 161/354/161 184/362/184 185/365/185 
f 155/202/155 125/157/125 8/8/8 
f 204/258/204 205/260/205 214/271/214 
f 131/169/131 45/49/45 172/221/172 
f 243/322/243 210/265/210 240/323/240 
f 203/256/203 227/345/227 152/198/152 
f 178/278/178 27/28/27 190/242/190 
f 5/408/5 4/409/4 17/410/17 
f 238/411/238 239/307/239 240/309/240 
f 48/374/48 251/368/251 130/168/130 
f 2/2/2 5/17/5 3/3/3 
f 92/104/92 12/69/12 59/68/59 
# 0 polygons - 500 triangles

