# 3ds Max Wavefront OBJ Exporter v0.97b - (c)2007 guruware
# File Created: 21.05.2020 01:06:33

mtllib sword.mtl

#
# object Plane003
#

v  6.8505 1.3158 4.2390
v  -0.0000 1.6655 4.2460
v  -0.0000 -3.6052 4.2460
v  6.6436 -3.6866 4.2209
v  32.0383 -9.3876 3.1810
v  39.5417 -10.2329 2.8448
v  32.7021 -6.6790 3.2243
v  38.6399 -12.1621 2.8301
v  25.8181 -3.7566 3.6057
v  17.2658 -0.8705 3.9987
v  16.8578 -5.1959 3.9400
v  24.9383 -7.0821 3.5642
v  54.9318 -19.4110 1.8565
v  46.0564 -13.9312 2.5536
v  53.5099 -20.5523 1.8565
v  45.2993 -15.5586 2.5411
v  -6.8505 1.3158 4.2390
v  -6.6436 -3.6866 4.2209
v  -38.6399 -12.1621 2.8301
v  -32.0383 -9.3876 3.1810
v  -39.5417 -10.2329 2.8448
v  -32.7021 -6.6790 3.2243
v  -25.8181 -3.7566 3.6057
v  -16.8578 -5.1959 3.9400
v  -17.2658 -0.8705 3.9987
v  -24.9383 -7.0821 3.5642
v  -46.0564 -13.9312 2.5536
v  -53.5099 -20.5523 1.8565
v  -45.2993 -15.5586 2.5411
v  -54.9318 -19.4110 1.8565
v  55.1268 -19.2545 1.5073
v  46.1618 -13.7045 0.0000
v  46.1618 -13.7045 2.0746
v  55.1268 -19.2545 0.0000
v  54.3104 -20.6437 0.0000
v  55.1693 -19.9555 1.5073
v  54.3104 -20.6437 1.5073
v  55.1693 -19.9555 0.0000
v  6.6333 -3.9364 3.4262
v  -0.0000 -3.8552 3.4474
v  -0.0000 -3.8552 0.0000
v  6.6333 -3.9364 0.0000
v  25.8821 -3.5149 2.9301
v  17.2893 -0.6216 0.0000
v  17.2893 -0.6216 3.2494
v  25.8821 -3.5149 0.0000
v  38.5341 -12.3885 2.2963
v  31.9788 -9.6304 2.5796
v  31.9788 -9.6304 0.0000
v  38.5341 -12.3885 0.0000
v  24.8744 -7.3238 2.8915
v  16.8343 -5.4448 3.1962
v  16.8343 -5.4448 0.0000
v  24.8744 -7.3238 0.0000
v  6.8608 1.5655 0.0000
v  6.8608 1.5655 3.4422
v  39.6476 -10.0064 2.3111
v  32.7616 -6.4362 0.0000
v  32.7616 -6.4362 2.6211
v  39.6476 -10.0064 0.0000
v  53.3149 -20.7088 1.5073
v  45.1938 -15.7852 2.0615
v  45.1938 -15.7852 0.0000
v  53.3149 -20.7088 0.0000
v  -0.0000 1.9155 0.0000
v  -0.0000 1.9155 3.4474
v  -6.6333 -3.9364 3.4262
v  -6.6333 -3.9364 0.0000
v  -6.8608 1.5655 3.4422
v  -6.8608 1.5655 0.0000
v  -38.5341 -12.3885 2.2963
v  -31.9788 -9.6304 0.0000
v  -31.9788 -9.6304 2.5796
v  -38.5341 -12.3885 0.0000
v  -39.6476 -10.0064 2.3111
v  -32.7616 -6.4362 2.6211
v  -32.7616 -6.4362 0.0000
v  -39.6476 -10.0064 0.0000
v  -24.8744 -7.3238 2.8915
v  -16.8343 -5.4448 0.0000
v  -16.8343 -5.4448 3.1962
v  -24.8744 -7.3238 0.0000
v  -25.8821 -3.5149 2.9301
v  -17.2893 -0.6216 3.2494
v  -17.2893 -0.6216 0.0000
v  -25.8821 -3.5149 0.0000
v  -53.3149 -20.7088 0.0000
v  -45.1938 -15.7852 0.0000
v  -53.3149 -20.7088 1.5073
v  -45.1938 -15.7852 2.0615
v  -55.1693 -19.9555 1.5073
v  -54.3104 -20.6437 0.0000
v  -54.3104 -20.6437 1.5073
v  -55.1693 -19.9555 0.0000
v  -55.1268 -19.2545 1.5073
v  -46.1618 -13.7045 2.0746
v  -46.1618 -13.7045 0.0000
v  -55.1268 -19.2545 0.0000
v  -0.0000 -3.6052 -4.2459
v  6.8505 1.3158 -4.2389
v  6.6436 -3.6866 -4.2209
v  -0.0000 1.6655 -4.2459
v  32.7021 -6.6790 -3.2243
v  39.5417 -10.2329 -2.8448
v  32.0383 -9.3876 -3.1809
v  38.6399 -12.1621 -2.8300
v  17.2658 -0.8705 -3.9987
v  25.8181 -3.7566 -3.6056
v  16.8578 -5.1959 -3.9399
v  24.9383 -7.0821 -3.5641
v  53.5099 -20.5523 -1.8565
v  45.2993 -15.5586 -2.5410
v  46.0564 -13.9312 -2.5536
v  54.9318 -19.4110 -1.8565
v  -6.6436 -3.6866 -4.2209
v  -6.8505 1.3158 -4.2389
v  -39.5417 -10.2329 -2.8448
v  -32.7021 -6.6790 -3.2243
v  -32.0383 -9.3876 -3.1809
v  -38.6399 -12.1621 -2.8300
v  -16.8578 -5.1959 -3.9399
v  -24.9383 -7.0821 -3.5641
v  -25.8181 -3.7566 -3.6056
v  -17.2658 -0.8705 -3.9987
v  -46.0564 -13.9312 -2.5536
v  -53.5099 -20.5523 -1.8565
v  -54.9318 -19.4110 -1.8565
v  -45.2993 -15.5586 -2.5410
v  55.1268 -19.2545 -1.5073
v  46.1618 -13.7045 -2.0746
v  54.3104 -20.6437 -1.5073
v  55.1693 -19.9555 -1.5073
v  6.6333 -3.9364 -3.4261
v  -0.0000 -3.8552 -3.4474
v  25.8821 -3.5149 -2.9300
v  17.2893 -0.6216 -3.2494
v  38.5341 -12.3885 -2.2963
v  31.9788 -9.6304 -2.5795
v  24.8744 -7.3238 -2.8915
v  16.8343 -5.4448 -3.1962
v  6.8608 1.5655 -3.4422
v  39.6476 -10.0064 -2.3110
v  32.7616 -6.4362 -2.6211
v  53.3149 -20.7087 -1.5073
v  45.1938 -15.7852 -2.0615
v  -0.0000 1.9155 -3.4474
v  -6.6333 -3.9364 -3.4261
v  -6.8608 1.5655 -3.4422
v  -38.5341 -12.3885 -2.2963
v  -31.9788 -9.6304 -2.5795
v  -39.6476 -10.0064 -2.3110
v  -32.7616 -6.4362 -2.6211
v  -24.8744 -7.3238 -2.8915
v  -16.8343 -5.4448 -3.1962
v  -25.8821 -3.5149 -2.9300
v  -17.2893 -0.6216 -3.2494
v  -53.3149 -20.7087 -1.5073
v  -45.1938 -15.7852 -2.0615
v  -54.3104 -20.6437 -1.5073
v  -55.1693 -19.9555 -1.5073
v  -55.1268 -19.2545 -1.5073
v  -46.1618 -13.7045 -2.0746
v  -54.2155 -20.3994 1.8565
v  -54.9119 -19.8414 1.8565
v  -54.2155 -20.3994 -1.8565
v  -54.9119 -19.8414 -1.8565
v  54.2155 -20.3994 1.8565
v  54.9119 -19.8414 1.8565
v  54.2155 -20.3994 -1.8565
v  54.9119 -19.8414 -1.8565
v  -0.0000 93.4398 3.3733
v  -0.0000 104.1067 3.3733
v  -2.7957 104.1067 3.0716
v  -3.2459 93.4398 3.0716
v  -0.0000 7.0149 3.2228
v  -3.7436 7.0149 2.9346
v  -0.0000 1.8091 3.8792
v  -5.1864 1.9359 3.5323
v  -3.7436 64.1928 3.0716
v  -0.0000 64.1928 3.3733
v  -4.5825 69.0707 4.0271
v  -0.0000 69.0707 4.4226
v  -3.7436 71.2299 3.0716
v  -0.0000 71.2299 3.3733
v  -0.0000 86.0973 3.3733
v  -3.4687 86.0973 3.0716
v  -0.0000 66.3520 4.4226
v  -4.5825 66.3520 4.0271
v  -0.0000 105.4502 4.3944
v  -3.2573 105.4502 4.0014
v  2.7957 110.7094 3.1795
v  -0.0000 110.7094 3.4918
v  -0.0000 109.3660 4.3944
v  3.2573 109.3660 4.0014
v  -0.0000 107.4081 4.8074
v  3.2573 105.4502 4.0014
v  3.5936 107.4081 4.3775
v  -4.0050 104.1067 1.2215
v  -4.6947 93.4398 1.1624
v  7.8577 1.8978 1.0086
v  3.7436 7.0149 2.9346
v  5.1864 1.9359 3.5323
v  5.4462 7.0149 1.0760
v  -7.8578 1.8978 1.0086
v  -5.6674 0.5502 3.5374
v  -8.6616 0.5502 0.9862
v  5.4708 64.1928 1.0981
v  3.7436 64.1928 3.0716
v  -5.4708 64.1928 1.0981
v  -5.4462 7.0149 1.0760
v  6.9499 66.3520 1.1300
v  4.5825 66.3520 4.0271
v  -6.9499 69.0707 1.1300
v  -5.4708 71.2299 1.0981
v  3.7436 71.2299 3.0716
v  5.0404 86.0973 1.1334
v  3.4687 86.0973 3.0716
v  5.4708 71.2299 1.0981
v  -5.0404 86.0973 1.1334
v  3.2459 93.4398 3.0716
v  4.0049 104.1067 1.2215
v  2.7957 104.1067 3.0716
v  4.6947 93.4398 1.1624
v  4.5825 69.0707 4.0271
v  6.9499 69.0707 1.1300
v  -6.9499 66.3520 1.1300
v  -2.7957 110.7094 3.1795
v  -4.8600 109.3660 1.2598
v  -3.2573 109.3660 4.0014
v  -4.0242 110.7094 1.2339
v  4.8600 105.4502 1.2598
v  -4.8600 105.4502 1.2598
v  4.8600 109.3660 1.2598
v  4.0242 110.7094 1.2339
v  -5.4332 107.4081 1.2571
v  -3.5936 107.4081 4.3775
v  5.4332 107.4081 1.2571
v  -3.2459 93.4398 -3.0715
v  -2.7957 104.1067 -3.0715
v  -0.0000 93.4398 -3.3732
v  -0.0000 104.1067 -3.3732
v  -0.0000 1.8091 -3.8792
v  -5.1864 1.9359 -3.5323
v  -3.7436 7.0149 -2.9346
v  -0.0000 7.0149 -3.2228
v  -0.0000 64.1928 -3.3732
v  -3.7436 64.1928 -3.0715
v  -0.0000 69.0707 -4.4225
v  -4.5825 69.0707 -4.0270
v  -3.7436 71.2299 -3.0715
v  -0.0000 71.2299 -3.3732
v  -3.4687 86.0973 -3.0715
v  -0.0000 86.0973 -3.3732
v  -0.0000 66.3520 -4.4225
v  -4.5825 66.3520 -4.0270
v  -3.2573 105.4502 -4.0014
v  -0.0000 105.4502 -4.3944
v  -0.0000 110.7094 -3.4917
v  2.7957 110.7094 -3.1794
v  -0.0000 109.3660 -4.3943
v  3.2573 109.3660 -4.0014
v  -0.0000 107.4081 -4.8073
v  3.2573 105.4502 -4.0014
v  3.5936 107.4081 -4.3774
v  -4.0050 104.1067 -1.2214
v  -4.6947 93.4398 -1.1624
v  7.8577 1.8978 -1.0086
v  3.7436 7.0149 -2.9346
v  5.4462 7.0149 -1.0760
v  5.1864 1.9359 -3.5323
v  -8.6616 0.5502 -0.9861
v  -7.8578 1.8978 -1.0086
v  -5.6674 0.5502 -3.5374
v  5.4708 64.1928 -1.0980
v  3.7436 64.1928 -3.0715
v  -5.4708 64.1928 -1.0980
v  -5.4462 7.0149 -1.0760
v  6.9499 66.3520 -1.1299
v  4.5825 66.3520 -4.0270
v  -6.9499 69.0707 -1.1299
v  -5.4708 71.2299 -1.0980
v  5.0404 86.0973 -1.1334
v  3.7436 71.2299 -3.0715
v  3.4687 86.0973 -3.0715
v  5.4708 71.2299 -1.0980
v  -5.0404 86.0973 -1.1334
v  4.0049 104.1067 -1.2214
v  3.2459 93.4398 -3.0715
v  2.7957 104.1067 -3.0715
v  4.6947 93.4398 -1.1624
v  6.9499 69.0707 -1.1299
v  4.5825 69.0707 -4.0270
v  -6.9499 66.3520 -1.1299
v  -4.8600 109.3660 -1.2597
v  -2.7957 110.7094 -3.1794
v  -3.2573 109.3660 -4.0014
v  -4.0242 110.7094 -1.2338
v  4.8600 105.4502 -1.2597
v  -4.8600 105.4502 -1.2597
v  4.8600 109.3660 -1.2597
v  4.0242 110.7094 -1.2338
v  -5.4332 107.4081 -1.2570
v  -3.5936 107.4081 -4.3774
v  5.4332 107.4081 -1.2570
v  -0.0000 0.5502 3.8848
v  5.6674 0.5502 3.5374
v  8.6616 0.5502 0.9862
v  -0.0000 0.5502 -3.8848
v  8.6616 0.5502 -0.9861
v  5.6674 0.5502 -3.5374
v  -0.0000 127.3133 5.5221
v  -0.0000 122.2909 5.9771
v  1.9220 126.9310 5.5221
v  -1.9220 126.9310 5.5221
v  -3.5514 125.8423 5.5221
v  -4.6402 124.2129 5.5221
v  -4.6402 120.3689 5.5221
v  -5.0225 122.2909 5.5221
v  -3.5514 118.7395 5.5221
v  -1.9220 117.6507 5.5221
v  -0.0000 117.2684 5.5221
v  1.9220 117.6507 5.5221
v  4.6402 120.3689 5.5221
v  3.5514 118.7395 5.5221
v  5.0225 122.2909 5.5221
v  4.6401 124.2129 5.5221
v  3.5514 125.8423 5.5221
v  -3.5514 130.8648 5.0874
v  -0.0000 131.5712 5.0874
v  -6.5622 128.8530 5.0874
v  -8.5739 125.8423 5.0874
v  -9.2803 122.2909 5.0874
v  -8.5739 118.7395 5.0874
v  -6.5622 115.7287 5.0874
v  -3.5514 113.7170 5.0874
v  -0.0000 113.0106 5.0874
v  3.5514 113.7170 5.0874
v  6.5622 115.7287 5.0874
v  8.5739 118.7395 5.0874
v  9.2803 122.2909 5.0874
v  8.5739 125.8423 5.0874
v  6.5622 128.8530 5.0874
v  3.5514 130.8648 5.0874
v  -4.6402 133.4932 4.1710
v  -0.0000 134.4162 4.1710
v  -8.5739 130.8648 4.1710
v  -11.2023 126.9310 4.1710
v  -12.1253 122.2909 4.1710
v  -11.2023 117.6507 4.1710
v  -8.5739 113.7170 4.1710
v  -4.6402 111.0886 4.1710
v  -0.0000 110.1656 4.1710
v  4.6402 111.0886 4.1710
v  8.5739 113.7170 4.1710
v  11.2023 117.6507 4.1710
v  12.1253 122.2909 4.1710
v  11.2023 126.9310 4.1710
v  8.5739 130.8648 4.1710
v  4.6401 133.4932 4.1710
v  -0.0000 135.4152 0.0000
v  -5.0225 134.4162 0.0000
v  -9.2803 131.5712 0.0000
v  -12.1253 127.3133 0.0000
v  -13.1243 122.2909 0.0000
v  -12.1253 117.2684 0.0000
v  -9.2803 113.0106 0.0000
v  -5.0225 110.1656 0.0000
v  -0.0000 109.1665 0.0000
v  5.0225 110.1656 0.0000
v  9.2803 113.0106 0.0000
v  12.1253 117.2684 0.0000
v  13.1243 122.2909 0.0000
v  12.1253 127.3133 0.0000
v  9.2803 131.5712 0.0000
v  5.0224 134.4162 0.0000
v  -4.6402 133.4932 -4.1710
v  -0.0000 134.4162 -4.1710
v  -8.5739 130.8648 -4.1710
v  -11.2023 126.9310 -4.1710
v  -12.1253 122.2909 -4.1710
v  -11.2023 117.6507 -4.1710
v  -8.5739 113.7170 -4.1710
v  -4.6402 111.0886 -4.1710
v  -0.0000 110.1656 -4.1710
v  4.6402 111.0886 -4.1710
v  8.5739 113.7170 -4.1710
v  11.2023 117.6507 -4.1710
v  12.1253 122.2909 -4.1710
v  11.2023 126.9310 -4.1710
v  8.5739 130.8648 -4.1710
v  4.6401 133.4932 -4.1710
v  -0.0000 131.5712 -5.0873
v  -3.5514 130.8648 -5.0873
v  -6.5622 128.8530 -5.0873
v  -8.5739 125.8423 -5.0873
v  -9.2803 122.2909 -5.0873
v  -8.5739 118.7395 -5.0873
v  -6.5622 115.7287 -5.0873
v  -3.5514 113.7170 -5.0873
v  -0.0000 113.0106 -5.0873
v  3.5514 113.7170 -5.0873
v  6.5622 115.7287 -5.0873
v  8.5739 118.7395 -5.0873
v  9.2803 122.2909 -5.0873
v  8.5739 125.8423 -5.0873
v  6.5622 128.8530 -5.0873
v  3.5514 130.8648 -5.0873
v  -0.0000 127.3133 -5.5221
v  -1.9220 126.9310 -5.5221
v  -3.5514 125.8423 -5.5221
v  -4.6402 124.2129 -5.5221
v  -5.0225 122.2909 -5.5221
v  -4.6402 120.3689 -5.5221
v  -3.5514 118.7395 -5.5221
v  -1.9220 117.6507 -5.5221
v  -0.0000 117.2684 -5.5221
v  1.9220 117.6507 -5.5221
v  3.5514 118.7395 -5.5221
v  4.6402 120.3689 -5.5221
v  5.0225 122.2909 -5.5221
v  4.6401 124.2129 -5.5221
v  3.5514 125.8423 -5.5221
v  1.9220 126.9310 -5.5221
v  -0.0000 122.2909 -5.9770
v  -3.4992 -3.3262 3.6116
v  -0.0000 -29.2948 3.6116
v  -0.0000 -3.3262 3.6116
v  -3.4360 -31.4972 3.6116
v  1.2055 -437.3156 1.6219
v  1.3877 -433.5882 1.7415
v  -0.0000 -433.5882 1.2912
v  -0.0000 -437.3156 1.1716
v  -0.0000 -355.2910 1.6700
v  -1.5206 -428.8654 1.7493
v  -0.0000 -428.8654 1.2991
v  -2.0848 -355.2910 2.2027
v  -0.0000 -79.2332 2.4403
v  -2.9359 -217.2732 2.9040
v  -0.0000 -217.2732 2.2017
v  -3.3729 -79.2332 3.2186
v  -1.0213 -439.8749 1.5178
v  -0.7398 -442.8118 1.2427
v  -0.0000 -439.8749 1.0675
v  -0.0000 -442.8118 0.8990
v  -0.4123 -445.1150 0.9212
v  -0.1552 -446.6852 0.0000
v  -0.0000 -445.1150 0.9109
v  -0.0000 -446.7550 0.0000
v  -1.2055 -437.3156 1.6219
v  -1.3877 -433.5882 1.7415
v  -3.4354 -31.9746 2.9794
v  -0.0000 -29.7942 2.9707
v  3.4992 -3.3262 3.6116
v  11.6713 -21.8129 1.9740
v  11.8859 -3.3262 1.9740
v  3.4360 -31.4972 3.6116
v  -11.6713 -21.8129 1.9740
v  -11.8860 -3.3262 1.9740
v  -4.7137 -433.5882 0.0000
v  -4.0947 -437.3156 0.0000
v  4.0947 -437.3156 0.0000
v  4.7137 -433.5882 0.0000
v  2.0848 -355.2910 2.2027
v  5.1652 -428.8654 0.0000
v  7.0815 -355.2909 0.0000
v  1.5206 -428.8654 1.7493
v  -5.1652 -428.8654 0.0000
v  -7.0815 -355.2910 0.0000
v  3.3728 -79.2332 3.2186
v  9.9725 -217.2732 0.0000
v  11.4567 -79.2331 0.0000
v  2.9359 -217.2732 2.9040
v  -9.9725 -217.2732 0.0000
v  -11.4567 -79.2332 0.0000
v  1.0213 -439.8749 1.5178
v  2.5129 -442.8118 0.0000
v  3.4692 -439.8749 0.0000
v  0.7398 -442.8118 1.2427
v  -3.4692 -439.8749 0.0000
v  -2.5129 -442.8118 0.0000
v  1.4006 -445.1150 -0.0000
v  0.4123 -445.1150 0.9212
v  0.5272 -446.2958 -0.0000
v  0.1552 -446.6852 0.0000
v  -1.4006 -445.1150 -0.0000
v  -0.5272 -446.2958 -0.0000
v  11.6692 -22.3871 0.0001
v  3.4354 -31.9746 2.9794
v  -11.6692 -22.3871 0.0001
v  -11.8860 -3.3262 0.0001
v  11.8859 -3.3262 0.0001
v  -3.4360 -31.4972 -3.6115
v  -3.4992 -3.3262 -3.6115
v  -0.0000 -29.2948 -3.6115
v  -0.0000 -3.3262 -3.6115
v  -0.0000 -437.3156 -1.1716
v  -0.0000 -433.5882 -1.2912
v  1.2055 -437.3156 -1.6219
v  1.3877 -433.5882 -1.7415
v  -1.5206 -428.8654 -1.7493
v  -0.0000 -355.2910 -1.6699
v  -0.0000 -428.8654 -1.2991
v  -2.0848 -355.2910 -2.2026
v  -2.9359 -217.2732 -2.9039
v  -0.0000 -79.2332 -2.4402
v  -0.0000 -217.2732 -2.2016
v  -3.3729 -79.2332 -3.2186
v  -0.0000 -439.8749 -1.0675
v  -0.0000 -442.8118 -0.8990
v  -0.7398 -442.8118 -1.2427
v  -1.0213 -439.8749 -1.5178
v  -0.0000 -445.1150 -0.9109
v  -0.4123 -445.1150 -0.9212
v  -1.2055 -437.3156 -1.6219
v  -1.3877 -433.5882 -1.7415
v  -3.4354 -31.9746 -2.9793
v  -0.0000 -29.7942 -2.9706
v  3.4360 -31.4972 -3.6115
v  3.4992 -3.3262 -3.6115
v  11.6713 -21.8129 -1.9739
v  11.8859 -3.3262 -1.9739
v  -11.6713 -21.8129 -1.9739
v  -11.8860 -3.3262 -1.9739
v  1.5206 -428.8654 -1.7493
v  2.0848 -355.2910 -2.2026
v  2.9359 -217.2732 -2.9039
v  3.3728 -79.2332 -3.2186
v  0.7398 -442.8118 -1.2427
v  1.0213 -439.8749 -1.5178
v  0.4123 -445.1150 -0.9212
v  3.4354 -31.9746 -2.9793
# 531 vertices

vn 0.0881 0.7937 -0.6019
vn 0.0000 0.7969 -0.6042
vn 0.0000 0.8081 0.5890
vn -0.0334 0.8184 0.5737
vn -0.1519 0.8348 0.5292
vn 0.2898 0.8402 -0.4584
vn 0.2787 0.8229 -0.4952
vn -0.1902 0.8467 0.4969
vn 0.2411 0.8146 -0.5275
vn 0.1832 0.8020 -0.5685
vn -0.0793 0.8165 0.5718
vn -0.1133 0.8247 0.5540
vn 0.5071 0.8267 -0.2437
vn 0.3039 0.8524 -0.4255
vn -0.0582 0.7998 0.5974
vn -0.2060 0.8603 0.4663
vn -0.0881 0.7937 -0.6019
vn 0.0334 0.8184 0.5737
vn 0.1902 0.8467 0.4969
vn 0.1519 0.8348 0.5292
vn -0.2898 0.8402 -0.4584
vn -0.2787 0.8229 -0.4952
vn -0.2411 0.8146 -0.5275
vn 0.0793 0.8165 0.5718
vn -0.1832 0.8020 -0.5685
vn 0.1133 0.8247 0.5540
vn -0.3039 0.8524 -0.4255
vn 0.0582 0.7998 0.5974
vn 0.2060 0.8603 0.4663
vn -0.5071 0.8267 -0.2437
vn 0.8245 0.2760 -0.4940
vn 0.5101 0.0000 -0.8601
vn 0.5049 0.2383 -0.8296
vn 0.8585 0.0000 -0.5129
vn 0.3620 -0.0000 0.9322
vn 0.8698 0.2966 0.3944
vn 0.3633 0.2841 0.8873
vn 0.9142 -0.0000 0.4054
vn -0.0763 0.1538 0.9851
vn 0.0000 0.1516 0.9884
vn -0.0000 0.0000 1.0000
vn -0.0794 0.0000 0.9968
vn 0.3563 0.1752 -0.9178
vn 0.2626 -0.0000 -0.9649
vn 0.2631 0.1583 -0.9517
vn 0.3552 -0.0000 -0.9348
vn -0.4033 0.2171 0.8889
vn -0.3341 0.1952 0.9221
vn -0.3486 -0.0000 0.9373
vn -0.4214 -0.0000 0.9069
vn -0.2567 0.1776 0.9500
vn -0.1802 0.1623 0.9702
vn -0.1871 -0.0000 0.9823
vn -0.2684 -0.0000 0.9633
vn 0.1285 0.0000 -0.9917
vn 0.1281 0.1508 -0.9802
vn 0.4731 0.2161 -0.8541
vn 0.4259 0.0000 -0.9048
vn 0.4251 0.1908 -0.8848
vn 0.4771 0.0000 -0.8789
vn -0.2461 0.2434 0.9382
vn -0.4624 0.2405 0.8535
vn -0.4867 -0.0000 0.8736
vn -0.2376 -0.0000 0.9714
vn 0.0000 0.0000 -1.0000
vn 0.0000 0.1505 -0.9886
vn 0.0763 0.1538 0.9851
vn 0.0794 0.0000 0.9968
vn -0.1281 0.1508 -0.9802
vn -0.1285 0.0000 -0.9917
vn 0.4033 0.2171 0.8889
vn 0.3486 -0.0000 0.9373
vn 0.3341 0.1952 0.9221
vn 0.4214 -0.0000 0.9069
vn -0.4731 0.2161 -0.8541
vn -0.4251 0.1908 -0.8848
vn -0.4259 0.0000 -0.9048
vn -0.4771 0.0000 -0.8789
vn 0.2567 0.1776 0.9500
vn 0.1871 -0.0000 0.9823
vn 0.1802 0.1623 0.9702
vn 0.2684 -0.0000 0.9633
vn -0.3563 0.1752 -0.9178
vn -0.2631 0.1583 -0.9517
vn -0.2626 0.0000 -0.9649
vn -0.3552 -0.0000 -0.9348
vn 0.2376 -0.0000 0.9714
vn 0.4867 -0.0000 0.8736
vn 0.2461 0.2434 0.9382
vn 0.4624 0.2405 0.8535
vn -0.8698 0.2966 0.3944
vn -0.3620 -0.0000 0.9322
vn -0.3633 0.2841 0.8873
vn -0.9142 -0.0000 0.4054
vn -0.8245 0.2760 -0.4940
vn -0.5049 0.2383 -0.8296
vn -0.5101 0.0000 -0.8601
vn -0.8585 0.0000 -0.5129
vn 0.0000 -0.8081 0.5890
vn 0.0881 -0.7937 -0.6019
vn -0.0334 -0.8184 0.5737
vn 0.0000 -0.7969 -0.6042
vn 0.2787 -0.8229 -0.4952
vn 0.2898 -0.8402 -0.4584
vn -0.1519 -0.8348 0.5292
vn -0.1902 -0.8467 0.4969
vn 0.1832 -0.8020 -0.5685
vn 0.2411 -0.8146 -0.5275
vn -0.0793 -0.8165 0.5718
vn -0.1133 -0.8247 0.5540
vn -0.0582 -0.7998 0.5974
vn -0.2060 -0.8603 0.4663
vn 0.3039 -0.8524 -0.4255
vn 0.5071 -0.8267 -0.2437
vn 0.0334 -0.8184 0.5737
vn -0.0881 -0.7937 -0.6019
vn -0.2898 -0.8402 -0.4584
vn -0.2787 -0.8229 -0.4952
vn 0.1519 -0.8348 0.5292
vn 0.1902 -0.8467 0.4969
vn 0.0793 -0.8165 0.5718
vn 0.1133 -0.8247 0.5540
vn -0.2411 -0.8146 -0.5275
vn -0.1832 -0.8020 -0.5685
vn -0.3039 -0.8524 -0.4255
vn 0.0582 -0.7998 0.5974
vn -0.5071 -0.8267 -0.2437
vn 0.2060 -0.8603 0.4663
vn 0.8245 -0.2760 -0.4940
vn 0.5049 -0.2383 -0.8296
vn 0.3633 -0.2841 0.8873
vn 0.8698 -0.2966 0.3944
vn -0.0763 -0.1538 0.9851
vn -0.0000 -0.1516 0.9884
vn 0.3563 -0.1752 -0.9178
vn 0.2631 -0.1583 -0.9517
vn -0.4033 -0.2171 0.8889
vn -0.3341 -0.1952 0.9221
vn -0.2567 -0.1776 0.9500
vn -0.1802 -0.1623 0.9702
vn 0.1281 -0.1508 -0.9802
vn 0.4731 -0.2161 -0.8541
vn 0.4251 -0.1908 -0.8848
vn -0.2461 -0.2434 0.9382
vn -0.4624 -0.2405 0.8535
vn -0.0000 -0.1505 -0.9886
vn 0.0763 -0.1538 0.9851
vn -0.1281 -0.1508 -0.9802
vn 0.4033 -0.2171 0.8889
vn 0.3341 -0.1952 0.9221
vn -0.4731 -0.2161 -0.8541
vn -0.4251 -0.1908 -0.8848
vn 0.2567 -0.1776 0.9500
vn 0.1802 -0.1623 0.9702
vn -0.3563 -0.1752 -0.9178
vn -0.2631 -0.1583 -0.9517
vn 0.2461 -0.2434 0.9382
vn 0.4624 -0.2405 0.8535
vn -0.3633 -0.2841 0.8873
vn -0.8698 -0.2966 0.3944
vn -0.8245 -0.2760 -0.4940
vn -0.5049 -0.2383 -0.8296
vn -0.2171 0.8676 0.4474
vn -0.4579 0.8560 0.2398
vn -0.2171 -0.8676 0.4474
vn -0.4579 -0.8560 0.2398
vn 0.2171 0.8676 0.4474
vn 0.4579 0.8560 0.2398
vn 0.2171 -0.8676 0.4474
vn 0.4579 -0.8560 0.2398
vn -0.0000 1.0000 -0.0016
vn -0.0000 0.9453 0.3261
vn -0.5066 0.7939 0.3363
vn -0.4883 0.8725 -0.0207
vn 0.0000 0.9981 -0.0616
vn -0.4048 0.9074 -0.1133
vn -0.0000 0.9978 -0.0666
vn -0.3792 0.9096 -0.1698
vn -0.4230 0.8654 0.2686
vn 0.0000 0.9737 0.2280
vn -0.4622 0.8527 -0.2437
vn -0.0000 0.9754 -0.2202
vn -0.4251 0.8630 -0.2731
vn 0.0000 0.9738 -0.2274
vn 0.0000 1.0000 -0.0010
vn -0.4712 0.8819 -0.0135
vn 0.0000 0.9754 0.2202
vn -0.4622 0.8527 0.2437
vn -0.0000 0.9134 0.4072
vn -0.4878 0.7674 0.4162
vn 0.4575 0.6843 -0.5678
vn -0.0000 0.8300 -0.5577
vn -0.0000 0.9241 -0.3822
vn 0.4942 0.7723 -0.3990
vn -0.0000 1.0000 0.0000
vn 0.4878 0.7674 0.4162
vn 0.5549 0.8319 0.0000
vn -0.9202 0.2924 0.2602
vn -0.9463 0.3196 -0.0490
vn 0.8223 0.3830 -0.4209
vn 0.4048 0.9074 -0.1133
vn 0.3792 0.9096 -0.1698
vn 0.9032 0.3746 -0.2095
vn -0.8223 0.3830 -0.4209
vn -0.4428 0.8791 -0.1765
vn -0.8143 0.3260 -0.4803
vn 0.8848 0.3584 0.2977
vn 0.4230 0.8654 0.2686
vn -0.8848 0.3584 0.2977
vn -0.9032 0.3746 -0.2095
vn 0.9095 0.3129 0.2735
vn 0.4622 0.8527 0.2437
vn -0.9095 0.3129 -0.2735
vn -0.8818 0.3557 -0.3097
vn 0.4251 0.8630 -0.2731
vn 0.9419 0.3343 -0.0331
vn 0.4712 0.8819 -0.0135
vn 0.8818 0.3557 -0.3097
vn -0.9419 0.3343 -0.0331
vn 0.4883 0.8725 -0.0207
vn 0.9202 0.2924 0.2602
vn 0.5066 0.7939 0.3363
vn 0.9463 0.3196 -0.0490
vn 0.4622 0.8527 -0.2437
vn 0.9095 0.3129 -0.2735
vn -0.9095 0.3129 0.2735
vn -0.4575 0.6843 -0.5678
vn -0.8864 0.2433 -0.3938
vn -0.4942 0.7723 -0.3990
vn -0.8175 0.2605 -0.5136
vn 0.8834 0.2444 0.4000
vn -0.8834 0.2444 0.4000
vn 0.8864 0.2433 -0.3938
vn 0.8175 0.2605 -0.5136
vn -0.9681 0.2508 0.0000
vn -0.5549 0.8319 0.0000
vn 0.9681 0.2508 0.0000
vn -0.4883 -0.8725 -0.0207
vn -0.5066 -0.7939 0.3363
vn 0.0000 -1.0000 -0.0016
vn 0.0000 -0.9453 0.3261
vn 0.0000 -0.9978 -0.0666
vn -0.3792 -0.9096 -0.1698
vn -0.4048 -0.9074 -0.1133
vn 0.0000 -0.9981 -0.0616
vn 0.0000 -0.9737 0.2280
vn -0.4230 -0.8654 0.2686
vn -0.0000 -0.9754 -0.2202
vn -0.4622 -0.8527 -0.2437
vn -0.4251 -0.8630 -0.2731
vn -0.0000 -0.9738 -0.2274
vn -0.4712 -0.8819 -0.0135
vn 0.0000 -1.0000 -0.0010
vn 0.0000 -0.9754 0.2202
vn -0.4622 -0.8527 0.2437
vn -0.4878 -0.7674 0.4162
vn -0.0000 -0.9134 0.4072
vn 0.0000 -0.8300 -0.5577
vn 0.4575 -0.6843 -0.5678
vn 0.0000 -0.9241 -0.3822
vn 0.4942 -0.7723 -0.3990
vn 0.0000 -1.0000 -0.0000
vn 0.4878 -0.7674 0.4162
vn 0.5549 -0.8319 0.0000
vn -0.9202 -0.2924 0.2602
vn -0.9463 -0.3196 -0.0490
vn 0.8223 -0.3830 -0.4209
vn 0.4048 -0.9074 -0.1133
vn 0.9032 -0.3746 -0.2095
vn 0.3792 -0.9096 -0.1698
vn -0.8143 -0.3260 -0.4803
vn -0.8223 -0.3830 -0.4209
vn -0.4428 -0.8791 -0.1765
vn 0.8848 -0.3584 0.2977
vn 0.4229 -0.8654 0.2687
vn -0.8848 -0.3584 0.2977
vn -0.9032 -0.3745 -0.2095
vn 0.9095 -0.3129 0.2735
vn 0.4622 -0.8527 0.2437
vn -0.9095 -0.3129 -0.2735
vn -0.8818 -0.3557 -0.3097
vn 0.9419 -0.3343 -0.0331
vn 0.4251 -0.8630 -0.2731
vn 0.4712 -0.8819 -0.0135
vn 0.8818 -0.3557 -0.3097
vn -0.9419 -0.3343 -0.0331
vn 0.9202 -0.2924 0.2602
vn 0.4883 -0.8725 -0.0207
vn 0.5066 -0.7939 0.3363
vn 0.9463 -0.3196 -0.0490
vn 0.9095 -0.3129 -0.2735
vn 0.4622 -0.8527 -0.2437
vn -0.9095 -0.3129 0.2735
vn -0.8864 -0.2433 -0.3938
vn -0.4575 -0.6843 -0.5678
vn -0.4942 -0.7723 -0.3990
vn -0.8175 -0.2605 -0.5136
vn 0.8834 -0.2444 0.4000
vn -0.8834 -0.2444 0.4000
vn 0.8864 -0.2433 -0.3938
vn 0.8175 -0.2605 -0.5136
vn -0.9681 -0.2508 0.0000
vn -0.5549 -0.8319 0.0000
vn 0.9681 -0.2508 0.0000
vn -0.0000 1.0000 -0.0079
vn 0.4428 0.8791 -0.1765
vn 0.8143 0.3260 -0.4803
vn 0.0000 -1.0000 -0.0079
vn 0.8143 -0.3260 -0.4803
vn 0.4428 -0.8791 -0.1765
vn -0.0000 0.9953 -0.0966
vn -0.0000 1.0000 -0.0000
vn 0.0370 0.9953 -0.0893
vn -0.0370 0.9953 -0.0893
vn -0.0683 0.9953 -0.0683
vn -0.0893 0.9953 -0.0370
vn -0.0893 0.9953 0.0370
vn -0.0966 0.9953 -0.0000
vn -0.0683 0.9953 0.0683
vn -0.0370 0.9953 0.0893
vn -0.0000 0.9953 0.0966
vn 0.0370 0.9953 0.0893
vn 0.0893 0.9953 0.0370
vn 0.0683 0.9953 0.0683
vn 0.0966 0.9953 -0.0000
vn 0.0893 0.9953 -0.0370
vn 0.0683 0.9953 -0.0683
vn -0.0833 0.9760 -0.2011
vn -0.0000 0.9760 -0.2177
vn -0.1539 0.9760 -0.1539
vn -0.2011 0.9760 -0.0833
vn -0.2177 0.9760 -0.0000
vn -0.2011 0.9760 0.0833
vn -0.1539 0.9760 0.1539
vn -0.0833 0.9760 0.2011
vn -0.0000 0.9760 0.2177
vn 0.0833 0.9760 0.2011
vn 0.1539 0.9760 0.1539
vn 0.2011 0.9760 0.0833
vn 0.2177 0.9760 -0.0000
vn 0.2011 0.9760 -0.0833
vn 0.1539 0.9760 -0.1539
vn 0.0833 0.9760 -0.2011
vn -0.2906 0.6505 -0.7017
vn -0.0000 0.6505 -0.7595
vn -0.5370 0.6505 -0.5370
vn -0.7017 0.6505 -0.2906
vn -0.7595 0.6505 0.0000
vn -0.7017 0.6505 0.2906
vn -0.5370 0.6505 0.5370
vn -0.2906 0.6505 0.7017
vn 0.0000 0.6505 0.7595
vn 0.2906 0.6505 0.7017
vn 0.5370 0.6505 0.5370
vn 0.7017 0.6505 0.2906
vn 0.7595 0.6505 -0.0000
vn 0.7017 0.6505 -0.2906
vn 0.5370 0.6505 -0.5370
vn 0.2906 0.6505 -0.7017
vn -0.0000 -0.0000 -1.0000
vn -0.3827 0.0000 -0.9239
vn -0.7071 0.0000 -0.7071
vn -0.9239 0.0000 -0.3827
vn -1.0000 -0.0000 -0.0000
vn -0.9239 0.0000 0.3827
vn -0.7071 -0.0000 0.7071
vn -0.3827 0.0000 0.9239
vn 0.0000 0.0000 1.0000
vn 0.3827 0.0000 0.9239
vn 0.7071 -0.0000 0.7071
vn 0.9239 0.0000 0.3827
vn 1.0000 -0.0000 -0.0000
vn 0.9239 -0.0000 -0.3827
vn 0.7071 0.0000 -0.7071
vn 0.3827 0.0000 -0.9239
vn -0.2906 -0.6505 -0.7017
vn -0.0000 -0.6505 -0.7595
vn -0.5370 -0.6505 -0.5370
vn -0.7017 -0.6505 -0.2906
vn -0.7595 -0.6505 -0.0000
vn -0.7017 -0.6505 0.2906
vn -0.5370 -0.6505 0.5370
vn -0.2906 -0.6505 0.7017
vn -0.0000 -0.6505 0.7595
vn 0.2906 -0.6505 0.7017
vn 0.5370 -0.6505 0.5370
vn 0.7017 -0.6505 0.2906
vn 0.7595 -0.6505 -0.0000
vn 0.7017 -0.6505 -0.2906
vn 0.5370 -0.6505 -0.5370
vn 0.2906 -0.6505 -0.7017
vn -0.0000 -0.9760 -0.2177
vn -0.0833 -0.9760 -0.2011
vn -0.1539 -0.9760 -0.1539
vn -0.2011 -0.9760 -0.0833
vn -0.2177 -0.9760 -0.0000
vn -0.2011 -0.9760 0.0833
vn -0.1539 -0.9760 0.1539
vn -0.0833 -0.9760 0.2011
vn -0.0000 -0.9760 0.2177
vn 0.0833 -0.9760 0.2011
vn 0.1539 -0.9760 0.1539
vn 0.2011 -0.9760 0.0833
vn 0.2177 -0.9760 -0.0000
vn 0.2011 -0.9760 -0.0833
vn 0.1539 -0.9760 -0.1539
vn 0.0833 -0.9760 -0.2011
vn -0.0000 -0.9953 -0.0966
vn -0.0370 -0.9953 -0.0893
vn -0.0683 -0.9953 -0.0683
vn -0.0893 -0.9953 -0.0370
vn -0.0966 -0.9953 0.0000
vn -0.0893 -0.9953 0.0370
vn -0.0683 -0.9953 0.0683
vn -0.0370 -0.9953 0.0893
vn -0.0000 -0.9953 0.0966
vn 0.0370 -0.9953 0.0893
vn 0.0683 -0.9953 0.0683
vn 0.0893 -0.9953 0.0370
vn 0.0966 -0.9953 0.0000
vn 0.0892 -0.9953 -0.0370
vn 0.0683 -0.9953 -0.0683
vn 0.0370 -0.9953 -0.0893
vn -0.0000 -1.0000 0.0000
vn -0.0969 0.9953 0.0009
vn -0.0000 0.9554 0.2952
vn 0.0000 1.0000 -0.0000
vn -0.1727 0.8108 0.5593
vn 0.0878 0.9948 0.0518
vn 0.0909 0.9955 0.0261
vn 0.0000 0.9999 0.0106
vn 0.0000 0.9997 0.0263
vn -0.0000 1.0000 0.0040
vn -0.0860 0.9962 0.0101
vn -0.0829 0.9965 0.0067
vn 0.0000 1.0000 -0.0015
vn -0.0787 0.9969 0.0043
vn 0.0000 1.0000 0.0027
vn -0.0762 0.9971 -0.0010
vn -0.0809 0.9930 0.0863
vn -0.1010 0.9844 0.1441
vn 0.0000 0.9989 0.0466
vn 0.0000 0.9982 0.0606
vn -0.2972 0.9058 0.3019
vn -0.4988 0.0000 0.8667
vn 0.0000 0.9660 0.2587
vn -0.0878 0.9948 0.0518
vn -0.0909 0.9955 0.0261
vn -0.2041 0.9414 0.2686
vn -0.0000 0.8347 0.5507
vn 0.0969 0.9953 0.0009
vn 0.7749 0.5959 0.2107
vn 0.7737 0.6334 0.0090
vn 0.1727 0.8108 0.5593
vn -0.7749 0.5959 0.2107
vn -0.7737 0.6334 0.0090
vn -0.9941 -0.0000 0.1086
vn -0.9835 -0.0000 0.1810
vn 0.9835 -0.0000 0.1810
vn 0.9941 -0.0000 0.1086
vn 0.0829 0.9965 0.0067
vn 0.9984 0.0000 0.0568
vn 0.9998 0.0000 0.0219
vn 0.0860 0.9962 0.0101
vn -0.9984 0.0000 0.0568
vn -0.9998 -0.0000 0.0219
vn 0.0762 0.9971 -0.0010
vn 0.9999 0.0000 0.0148
vn 1.0000 0.0000 0.0005
vn 0.0787 0.9969 0.0043
vn -0.9999 -0.0000 0.0148
vn -1.0000 0.0000 0.0005
vn 0.0809 0.9930 0.0863
vn 0.9417 0.0000 0.3365
vn 0.9695 0.0000 0.2451
vn 0.1010 0.9844 0.1441
vn -0.9695 0.0000 0.2451
vn -0.9417 0.0000 0.3365
vn 0.8927 0.0000 0.4506
vn 0.2972 0.9058 0.3019
vn 0.7504 -0.0000 0.6610
vn 0.4988 0.0000 0.8667
vn -0.8927 0.0000 0.4506
vn -0.7504 -0.0000 0.6610
vn 0.9417 0.0000 0.3366
vn 0.2041 0.9414 0.2686
vn -0.9417 -0.0000 0.3366
vn -0.9999 0.0000 0.0116
vn 0.9999 0.0000 0.0116
vn -0.1727 -0.8108 0.5593
vn -0.0969 -0.9953 0.0009
vn 0.0000 -0.9554 0.2952
vn 0.0000 -0.9997 0.0263
vn 0.0000 -0.9999 0.0106
vn 0.0878 -0.9948 0.0518
vn 0.0909 -0.9955 0.0261
vn -0.0860 -0.9962 0.0101
vn 0.0000 -1.0000 0.0040
vn -0.0000 -1.0000 -0.0000
vn -0.0829 -0.9965 0.0067
vn -0.0787 -0.9969 0.0043
vn -0.0000 -1.0000 -0.0015
vn 0.0000 -1.0000 0.0027
vn -0.0762 -0.9971 -0.0010
vn 0.0000 -0.9989 0.0466
vn -0.0000 -0.9982 0.0606
vn -0.1010 -0.9844 0.1441
vn -0.0809 -0.9930 0.0863
vn 0.0000 -0.9660 0.2587
vn -0.2972 -0.9058 0.3019
vn -0.0878 -0.9948 0.0518
vn -0.0909 -0.9955 0.0261
vn -0.2041 -0.9414 0.2686
vn 0.0000 -0.8347 0.5507
vn 0.1727 -0.8108 0.5593
vn 0.0969 -0.9953 0.0009
vn 0.7749 -0.5959 0.2107
vn 0.7737 -0.6334 0.0090
vn -0.7749 -0.5959 0.2107
vn -0.7737 -0.6334 0.0090
vn 0.0860 -0.9962 0.0101
vn 0.0829 -0.9965 0.0067
vn 0.0787 -0.9969 0.0043
vn 0.0762 -0.9971 -0.0010
vn 0.1010 -0.9844 0.1441
vn 0.0809 -0.9930 0.0863
vn 0.2972 -0.9058 0.3019
vn 0.2041 -0.9414 0.2686
# 528 vertex normals

vt 0.7075 0.4537 0.0000
vt 0.7365 0.4523 0.0000
vt 0.7365 0.4747 0.0000
vt 0.7079 0.4751 0.0000
vt 0.5960 0.4883 0.0000
vt 0.5640 0.4839 0.0000
vt 0.5956 0.4764 0.0000
vt 0.5653 0.4929 0.0000
vt 0.6262 0.4692 0.0000
vt 0.6633 0.4608 0.0000
vt 0.6636 0.4793 0.0000
vt 0.6279 0.4837 0.0000
vt 0.4891 0.4971 0.0000
vt 0.5329 0.4898 0.0000
vt 0.4929 0.5039 0.0000
vt 0.5335 0.4974 0.0000
vt 0.7654 0.4537 0.0000
vt 0.7650 0.4751 0.0000
vt 0.9076 0.4927 0.0000
vt 0.8770 0.4882 0.0000
vt 0.9089 0.4838 0.0000
vt 0.8773 0.4763 0.0000
vt 0.8467 0.4692 0.0000
vt 0.8094 0.4793 0.0000
vt 0.8097 0.4608 0.0000
vt 0.8450 0.4837 0.0000
vt 0.9400 0.4896 0.0000
vt 0.9801 0.5037 0.0000
vt 0.9394 0.4973 0.0000
vt 0.9838 0.4969 0.0000
vt 0.3081 0.7700 0.0000
vt 0.3529 0.7627 0.0000
vt 0.3531 0.7716 0.0000
vt 0.3080 0.7636 0.0000
vt 0.4955 0.5707 0.0000
vt 0.4917 0.5646 0.0000
vt 0.4958 0.5648 0.0000
vt 0.4912 0.5704 0.0000
vt 0.7098 0.5584 0.0000
vt 0.7382 0.5587 0.0000
vt 0.7380 0.5735 0.0000
vt 0.7096 0.5730 0.0000
vt 0.4499 0.7736 0.0000
vt 0.4884 0.7606 0.0000
vt 0.4885 0.7744 0.0000
vt 0.4497 0.7611 0.0000
vt 0.5692 0.5619 0.0000
vt 0.5990 0.5608 0.0000
vt 0.5989 0.5717 0.0000
vt 0.5691 0.5714 0.0000
vt 0.6306 0.5598 0.0000
vt 0.6657 0.5588 0.0000
vt 0.6656 0.5725 0.0000
vt 0.6305 0.5720 0.0000
vt 0.5338 0.7601 0.0000
vt 0.5339 0.7748 0.0000
vt 0.3850 0.7720 0.0000
vt 0.4179 0.7616 0.0000
vt 0.4181 0.7728 0.0000
vt 0.3848 0.7622 0.0000
vt 0.4996 0.5649 0.0000
vt 0.5382 0.5627 0.0000
vt 0.5382 0.5712 0.0000
vt 0.4995 0.5709 0.0000
vt 0.5630 0.7599 0.0000
vt 0.5631 0.7745 0.0000
vt 0.7667 0.5592 0.0000
vt 0.7665 0.5739 0.0000
vt 0.5924 0.7743 0.0000
vt 0.5923 0.7597 0.0000
vt 0.9097 0.5667 0.0000
vt 0.8787 0.5760 0.0000
vt 0.8789 0.5648 0.0000
vt 0.9095 0.5767 0.0000
vt 0.7412 0.7694 0.0000
vt 0.7082 0.7707 0.0000
vt 0.7082 0.7595 0.0000
vt 0.7412 0.7595 0.0000
vt 0.8467 0.5628 0.0000
vt 0.8108 0.5747 0.0000
vt 0.8111 0.5609 0.0000
vt 0.8465 0.5753 0.0000
vt 0.6763 0.7720 0.0000
vt 0.6377 0.7734 0.0000
vt 0.6377 0.7595 0.0000
vt 0.6763 0.7595 0.0000
vt 0.9829 0.5785 0.0000
vt 0.9418 0.5774 0.0000
vt 0.9830 0.5720 0.0000
vt 0.9420 0.5685 0.0000
vt 0.8206 0.7665 0.0000
vt 0.8260 0.7609 0.0000
vt 0.8250 0.7674 0.0000
vt 0.8213 0.7602 0.0000
vt 0.8179 0.7663 0.0000
vt 0.7731 0.7684 0.0000
vt 0.7731 0.7596 0.0000
vt 0.8182 0.7599 0.0000
vt 0.2500 0.6866 0.0000
vt 0.2211 0.7075 0.0000
vt 0.2214 0.6862 0.0000
vt 0.2500 0.7090 0.0000
vt 0.1091 0.6849 0.0000
vt 0.0775 0.6774 0.0000
vt 0.1095 0.6730 0.0000
vt 0.0789 0.6684 0.0000
vt 0.1768 0.7004 0.0000
vt 0.1397 0.6921 0.0000
vt 0.1771 0.6819 0.0000
vt 0.1415 0.6775 0.0000
vt 0.0064 0.6574 0.0000
vt 0.0470 0.6638 0.0000
vt 0.0464 0.6715 0.0000
vt 0.0026 0.6642 0.0000
vt 0.2786 0.6862 0.0000
vt 0.2789 0.7075 0.0000
vt 0.4225 0.6775 0.0000
vt 0.3908 0.6849 0.0000
vt 0.3905 0.6731 0.0000
vt 0.4211 0.6685 0.0000
vt 0.3229 0.6820 0.0000
vt 0.3585 0.6776 0.0000
vt 0.3602 0.6921 0.0000
vt 0.3232 0.7005 0.0000
vt 0.4535 0.6717 0.0000
vt 0.4936 0.6576 0.0000
vt 0.4974 0.6644 0.0000
vt 0.4530 0.6640 0.0000
vt 0.3529 0.7441 0.0000
vt 0.3080 0.7377 0.0000
vt 0.3529 0.7353 0.0000
vt 0.3080 0.7441 0.0000
vt 0.4912 0.5962 0.0000
vt 0.4957 0.6018 0.0000
vt 0.4916 0.6020 0.0000
vt 0.4955 0.5960 0.0000
vt 0.7386 0.5961 0.0000
vt 0.7102 0.6109 0.0000
vt 0.7102 0.5962 0.0000
vt 0.7387 0.6109 0.0000
vt 0.4884 0.7437 0.0000
vt 0.4497 0.7314 0.0000
vt 0.4883 0.7298 0.0000
vt 0.4497 0.7439 0.0000
vt 0.5994 0.5962 0.0000
vt 0.5695 0.6058 0.0000
vt 0.5695 0.5962 0.0000
vt 0.5994 0.6071 0.0000
vt 0.6662 0.5963 0.0000
vt 0.6310 0.6086 0.0000
vt 0.6310 0.5963 0.0000
vt 0.6662 0.6099 0.0000
vt 0.5338 0.7433 0.0000
vt 0.5337 0.7287 0.0000
vt 0.4179 0.7440 0.0000
vt 0.3848 0.7342 0.0000
vt 0.4179 0.7328 0.0000
vt 0.3848 0.7441 0.0000
vt 0.5384 0.5960 0.0000
vt 0.4995 0.6019 0.0000
vt 0.4995 0.5958 0.0000
vt 0.5384 0.6045 0.0000
vt 0.5631 0.7430 0.0000
vt 0.5629 0.7283 0.0000
vt 0.7672 0.6107 0.0000
vt 0.7671 0.5960 0.0000
vt 0.5921 0.7280 0.0000
vt 0.5923 0.7426 0.0000
vt 0.8792 0.5952 0.0000
vt 0.9100 0.6048 0.0000
vt 0.8793 0.6064 0.0000
vt 0.9099 0.5949 0.0000
vt 0.7082 0.7407 0.0000
vt 0.7410 0.7302 0.0000
vt 0.7412 0.7400 0.0000
vt 0.7080 0.7295 0.0000
vt 0.8114 0.5958 0.0000
vt 0.8471 0.6080 0.0000
vt 0.8115 0.6095 0.0000
vt 0.8470 0.5955 0.0000
vt 0.6377 0.7419 0.0000
vt 0.6761 0.7288 0.0000
vt 0.6764 0.7412 0.0000
vt 0.6375 0.7281 0.0000
vt 0.9421 0.5945 0.0000
vt 0.9830 0.5939 0.0000
vt 0.9831 0.6004 0.0000
vt 0.9422 0.6034 0.0000
vt 0.8213 0.7379 0.0000
vt 0.8249 0.7307 0.0000
vt 0.8260 0.7371 0.0000
vt 0.8204 0.7316 0.0000
vt 0.7731 0.7394 0.0000
vt 0.8178 0.7318 0.0000
vt 0.8181 0.7382 0.0000
vt 0.7730 0.7306 0.0000
vt 0.4884 0.5700 0.0000
vt 0.4891 0.5641 0.0000
vt 0.9873 0.5719 0.0000
vt 0.9873 0.5785 0.0000
vt 0.4884 0.5965 0.0000
vt 0.4890 0.6025 0.0000
vt 0.9874 0.5940 0.0000
vt 0.9873 0.6005 0.0000
vt 0.9826 0.5019 0.0000
vt 0.9845 0.4986 0.0000
vt 0.4962 0.6594 0.0000
vt 0.4980 0.6627 0.0000
vt 0.4903 0.5022 0.0000
vt 0.4885 0.4989 0.0000
vt 0.0038 0.6591 0.0000
vt 0.0020 0.6624 0.0000
vt 0.3085 0.7718 0.0000
vt 0.3530 0.7739 0.0000
vt 0.4919 0.5630 0.0000
vt 0.4957 0.5631 0.0000
vt 0.7382 0.5551 0.0000
vt 0.7099 0.5548 0.0000
vt 0.4498 0.7767 0.0000
vt 0.4884 0.7778 0.0000
vt 0.5991 0.5581 0.0000
vt 0.5692 0.5594 0.0000
vt 0.6659 0.5555 0.0000
vt 0.6306 0.5567 0.0000
vt 0.5338 0.7783 0.0000
vt 0.3850 0.7745 0.0000
vt 0.4179 0.7755 0.0000
vt 0.5383 0.5605 0.0000
vt 0.4990 0.5633 0.0000
vt 0.5632 0.7781 0.0000
vt 0.7667 0.5556 0.0000
vt 0.5925 0.7779 0.0000
vt 0.8789 0.5620 0.0000
vt 0.9098 0.5642 0.0000
vt 0.7413 0.7719 0.0000
vt 0.7084 0.7735 0.0000
vt 0.8111 0.5575 0.0000
vt 0.8467 0.5598 0.0000
vt 0.6765 0.7751 0.0000
vt 0.6379 0.7768 0.0000
vt 0.9420 0.5662 0.0000
vt 0.9836 0.5703 0.0000
vt 0.8203 0.7683 0.0000
vt 0.8242 0.7692 0.0000
vt 0.8180 0.7681 0.0000
vt 0.7733 0.7707 0.0000
vt 0.7387 0.6145 0.0000
vt 0.7103 0.6144 0.0000
vt 0.5335 0.7251 0.0000
vt 0.5628 0.7248 0.0000
vt 0.5995 0.6099 0.0000
vt 0.5694 0.6082 0.0000
vt 0.3848 0.7317 0.0000
vt 0.4176 0.7301 0.0000
vt 0.6663 0.6133 0.0000
vt 0.6310 0.6116 0.0000
vt 0.4496 0.7283 0.0000
vt 0.4881 0.7265 0.0000
vt 0.5384 0.6068 0.0000
vt 0.4989 0.6035 0.0000
vt 0.4919 0.6037 0.0000
vt 0.4958 0.6036 0.0000
vt 0.3083 0.7359 0.0000
vt 0.3528 0.7330 0.0000
vt 0.5922 0.7244 0.0000
vt 0.7671 0.6143 0.0000
vt 0.7411 0.7277 0.0000
vt 0.7081 0.7267 0.0000
vt 0.8792 0.6092 0.0000
vt 0.9100 0.6074 0.0000
vt 0.6762 0.7257 0.0000
vt 0.6376 0.7247 0.0000
vt 0.8114 0.6129 0.0000
vt 0.8471 0.6111 0.0000
vt 0.7730 0.7283 0.0000
vt 0.8178 0.7301 0.0000
vt 0.8201 0.7298 0.0000
vt 0.8241 0.7289 0.0000
vt 0.9422 0.6057 0.0000
vt 0.9837 0.6021 0.0000
vt 0.4901 0.5626 0.0000
vt 0.9869 0.5700 0.0000
vt 0.4900 0.6040 0.0000
vt 0.9869 0.6025 0.0000
vt 0.0784 0.5949 0.0000
vt 0.0336 0.5946 0.0000
vt 0.0335 0.5815 0.0000
vt 0.0786 0.5813 0.0000
vt 0.4439 0.5957 0.0000
vt 0.4439 0.5790 0.0000
vt 0.4660 0.5950 0.0000
vt 0.4656 0.5733 0.0000
vt 0.2033 0.5791 0.0000
vt 0.2037 0.5954 0.0000
vt 0.1823 0.5768 0.0000
vt 0.1819 0.5952 0.0000
vt 0.1721 0.5787 0.0000
vt 0.1718 0.5953 0.0000
vt 0.1094 0.5951 0.0000
vt 0.1095 0.5805 0.0000
vt 0.1935 0.5952 0.0000
vt 0.1931 0.5769 0.0000
vt 0.0266 0.5943 0.0000
vt 0.0265 0.5810 0.0000
vt 0.0037 0.6077 0.0000
vt 0.0029 0.5940 0.0000
vt 0.0097 0.5940 0.0000
vt 0.0102 0.6075 0.0000
vt 0.0182 0.5940 0.0000
vt 0.0262 0.6075 0.0000
vt 0.0182 0.6079 0.0000
vt 0.0343 0.5717 0.0000
vt 0.0787 0.5713 0.0000
vt 0.4668 0.6318 0.0000
vt 0.4442 0.6125 0.0000
vt 0.4665 0.6166 0.0000
vt 0.4441 0.6238 0.0000
vt 0.4641 0.5580 0.0000
vt 0.4714 0.5712 0.0000
vt 0.4699 0.5548 0.0000
vt 0.2035 0.6239 0.0000
vt 0.2035 0.6120 0.0000
vt 0.2039 0.5678 0.0000
vt 0.4432 0.5681 0.0000
vt 0.1931 0.6277 0.0000
vt 0.1931 0.6133 0.0000
vt 0.1815 0.5617 0.0000
vt 0.1714 0.5672 0.0000
vt 0.1719 0.6121 0.0000
vt 0.1091 0.6201 0.0000
vt 0.1093 0.6097 0.0000
vt 0.1716 0.6242 0.0000
vt 0.1093 0.5701 0.0000
vt 0.0783 0.6085 0.0000
vt 0.0334 0.6184 0.0000
vt 0.0332 0.6078 0.0000
vt 0.0784 0.6186 0.0000
vt 0.1821 0.6133 0.0000
vt 0.1820 0.6278 0.0000
vt 0.1940 0.5618 0.0000
vt 0.0040 0.5807 0.0000
vt 0.0094 0.5674 0.0000
vt 0.0106 0.5805 0.0000
vt 0.0029 0.5703 0.0000
vt 0.0267 0.6203 0.0000
vt 0.0283 0.5681 0.0000
vt 0.0099 0.6206 0.0000
vt 0.0034 0.6189 0.0000
vt 0.0190 0.5654 0.0000
vt 0.0185 0.5800 0.0000
vt 0.0183 0.6218 0.0000
vt 0.0784 0.5061 0.0000
vt 0.0333 0.5049 0.0000
vt 0.0785 0.4924 0.0000
vt 0.0337 0.4917 0.0000
vt 0.4660 0.4924 0.0000
vt 0.4666 0.5140 0.0000
vt 0.4443 0.5099 0.0000
vt 0.4440 0.4931 0.0000
vt 0.2038 0.4929 0.0000
vt 0.2036 0.5095 0.0000
vt 0.1820 0.4926 0.0000
vt 0.1822 0.5108 0.0000
vt 0.1720 0.5095 0.0000
vt 0.1719 0.4927 0.0000
vt 0.1094 0.5072 0.0000
vt 0.1095 0.4926 0.0000
vt 0.1936 0.4927 0.0000
vt 0.1932 0.5107 0.0000
vt 0.0263 0.5046 0.0000
vt 0.0267 0.4914 0.0000
vt 0.0030 0.4910 0.0000
vt 0.0041 0.4777 0.0000
vt 0.0098 0.4911 0.0000
vt 0.0108 0.4775 0.0000
vt 0.0183 0.4911 0.0000
vt 0.0266 0.4781 0.0000
vt 0.0187 0.4771 0.0000
vt 0.0334 0.5155 0.0000
vt 0.0784 0.5161 0.0000
vt 0.4642 0.4555 0.0000
vt 0.4439 0.4765 0.0000
vt 0.4432 0.4655 0.0000
vt 0.4656 0.4708 0.0000
vt 0.4731 0.5317 0.0000
vt 0.4669 0.5293 0.0000
vt 0.4726 0.5156 0.0000
vt 0.2040 0.4652 0.0000
vt 0.2034 0.4765 0.0000
vt 0.2035 0.5214 0.0000
vt 0.4441 0.5213 0.0000
vt 0.1941 0.4593 0.0000
vt 0.1932 0.4744 0.0000
vt 0.1821 0.5253 0.0000
vt 0.1717 0.5217 0.0000
vt 0.1095 0.4675 0.0000
vt 0.1722 0.4761 0.0000
vt 0.1096 0.4780 0.0000
vt 0.1715 0.4646 0.0000
vt 0.1092 0.5176 0.0000
vt 0.0345 0.4689 0.0000
vt 0.0787 0.4787 0.0000
vt 0.0337 0.4787 0.0000
vt 0.0789 0.4686 0.0000
vt 0.1816 0.4592 0.0000
vt 0.1824 0.4743 0.0000
vt 0.1931 0.5252 0.0000
vt 0.0099 0.5176 0.0000
vt 0.0037 0.5047 0.0000
vt 0.0103 0.5045 0.0000
vt 0.0034 0.5159 0.0000
vt 0.0286 0.4653 0.0000
vt 0.0267 0.5174 0.0000
vt 0.0096 0.4644 0.0000
vt 0.0031 0.4673 0.0000
vt 0.0183 0.5189 0.0000
vt 0.0182 0.5049 0.0000
vt 0.0192 0.4625 0.0000
vt 0.4713 0.5948 0.0000
vt 0.4725 0.6182 0.0000
vt 0.0339 0.5262 0.0000
vt 0.0782 0.5258 0.0000
vt 0.4643 0.6399 0.0000
vt 0.4428 0.6329 0.0000
vt 0.4644 0.5373 0.0000
vt 0.4705 0.5394 0.0000
vt 0.2043 0.6334 0.0000
vt 0.4428 0.5304 0.0000
vt 0.2044 0.5309 0.0000
vt 0.1938 0.6366 0.0000
vt 0.1813 0.5342 0.0000
vt 0.1704 0.5312 0.0000
vt 0.1704 0.6338 0.0000
vt 0.1086 0.6296 0.0000
vt 0.1087 0.5271 0.0000
vt 0.0782 0.6284 0.0000
vt 0.0340 0.6290 0.0000
vt 0.1812 0.6367 0.0000
vt 0.1939 0.5341 0.0000
vt 0.0089 0.5280 0.0000
vt 0.0020 0.5267 0.0000
vt 0.0276 0.6306 0.0000
vt 0.0276 0.5277 0.0000
vt 0.0020 0.6297 0.0000
vt 0.0089 0.6310 0.0000
vt 0.0183 0.5289 0.0000
vt 0.0183 0.6318 0.0000
vt 0.4730 0.6343 0.0000
vt 0.4713 0.4922 0.0000
vt 0.4699 0.4523 0.0000
vt 0.4714 0.4687 0.0000
vt 0.4704 0.6420 0.0000
vt 0.2237 0.7736 0.0000
vt 0.2238 0.7933 0.0000
vt 0.2162 0.7750 0.0000
vt 0.2313 0.7750 0.0000
vt 0.2376 0.7794 0.0000
vt 0.2420 0.7857 0.0000
vt 0.2420 0.8008 0.0000
vt 0.2433 0.7932 0.0000
vt 0.2377 0.8071 0.0000
vt 0.2314 0.8115 0.0000
vt 0.2238 0.8129 0.0000
vt 0.2163 0.8116 0.0000
vt 0.2056 0.8009 0.0000
vt 0.2100 0.8072 0.0000
vt 0.2042 0.7933 0.0000
vt 0.2056 0.7858 0.0000
vt 0.2099 0.7794 0.0000
vt 0.2378 0.7593 0.0000
vt 0.2237 0.7565 0.0000
vt 0.2497 0.7673 0.0000
vt 0.2577 0.7792 0.0000
vt 0.2604 0.7932 0.0000
vt 0.2577 0.8073 0.0000
vt 0.2498 0.8192 0.0000
vt 0.2379 0.8272 0.0000
vt 0.2238 0.8301 0.0000
vt 0.2098 0.8273 0.0000
vt 0.1979 0.8193 0.0000
vt 0.1899 0.8074 0.0000
vt 0.1871 0.7934 0.0000
vt 0.1898 0.7793 0.0000
vt 0.1978 0.7674 0.0000
vt 0.2097 0.7594 0.0000
vt 0.2422 0.7484 0.0000
vt 0.2236 0.7448 0.0000
vt 0.2579 0.7589 0.0000
vt 0.2685 0.7746 0.0000
vt 0.2722 0.7931 0.0000
vt 0.2686 0.8116 0.0000
vt 0.2582 0.8274 0.0000
vt 0.2425 0.8380 0.0000
vt 0.2240 0.8418 0.0000
vt 0.2054 0.8381 0.0000
vt 0.1896 0.8277 0.0000
vt 0.1791 0.8120 0.0000
vt 0.1754 0.7935 0.0000
vt 0.1790 0.7749 0.0000
vt 0.1894 0.7592 0.0000
vt 0.2050 0.7486 0.0000
vt 0.2235 0.7244 0.0000
vt 0.2499 0.7296 0.0000
vt 0.2723 0.7444 0.0000
vt 0.2873 0.7667 0.0000
vt 0.2926 0.7930 0.0000
vt 0.2875 0.8194 0.0000
vt 0.2727 0.8417 0.0000
vt 0.2504 0.8568 0.0000
vt 0.2240 0.8622 0.0000
vt 0.1977 0.8570 0.0000
vt 0.1753 0.8421 0.0000
vt 0.1603 0.8198 0.0000
vt 0.1550 0.7935 0.0000
vt 0.1601 0.7672 0.0000
vt 0.1749 0.7448 0.0000
vt 0.1972 0.7298 0.0000
vt 0.0974 0.8568 0.0000
vt 0.0711 0.8622 0.0000
vt 0.0895 0.8380 0.0000
vt 0.0710 0.8418 0.0000
vt 0.1197 0.8417 0.0000
vt 0.1052 0.8274 0.0000
vt 0.1345 0.8194 0.0000
vt 0.1156 0.8116 0.0000
vt 0.1396 0.7930 0.0000
vt 0.1192 0.7931 0.0000
vt 0.1343 0.7667 0.0000
vt 0.1155 0.7746 0.0000
vt 0.1193 0.7444 0.0000
vt 0.1049 0.7589 0.0000
vt 0.0969 0.7296 0.0000
vt 0.0892 0.7484 0.0000
vt 0.0705 0.7244 0.0000
vt 0.0706 0.7448 0.0000
vt 0.0442 0.7298 0.0000
vt 0.0521 0.7486 0.0000
vt 0.0219 0.7448 0.0000
vt 0.0364 0.7592 0.0000
vt 0.0071 0.7672 0.0000
vt 0.0260 0.7749 0.0000
vt 0.0020 0.7935 0.0000
vt 0.0224 0.7935 0.0000
vt 0.0073 0.8198 0.0000
vt 0.0261 0.8120 0.0000
vt 0.0223 0.8421 0.0000
vt 0.0366 0.8277 0.0000
vt 0.0447 0.8570 0.0000
vt 0.0524 0.8381 0.0000
vt 0.0709 0.8301 0.0000
vt 0.0849 0.8272 0.0000
vt 0.0968 0.8192 0.0000
vt 0.1047 0.8073 0.0000
vt 0.1075 0.7932 0.0000
vt 0.1047 0.7792 0.0000
vt 0.0967 0.7673 0.0000
vt 0.0848 0.7593 0.0000
vt 0.0707 0.7565 0.0000
vt 0.0567 0.7594 0.0000
vt 0.0448 0.7674 0.0000
vt 0.0369 0.7793 0.0000
vt 0.0341 0.7934 0.0000
vt 0.0369 0.8074 0.0000
vt 0.0449 0.8193 0.0000
vt 0.0568 0.8273 0.0000
vt 0.0708 0.8131 0.0000
vt 0.0783 0.8114 0.0000
vt 0.0848 0.8072 0.0000
vt 0.0889 0.8008 0.0000
vt 0.0905 0.7932 0.0000
vt 0.0888 0.7857 0.0000
vt 0.0847 0.7793 0.0000
vt 0.0782 0.7751 0.0000
vt 0.0708 0.7735 0.0000
vt 0.0633 0.7752 0.0000
vt 0.0568 0.7793 0.0000
vt 0.0527 0.7858 0.0000
vt 0.0511 0.7933 0.0000
vt 0.0527 0.8008 0.0000
vt 0.0569 0.8073 0.0000
vt 0.0633 0.8115 0.0000
vt 0.0708 0.7933 0.0000
vt 0.0021 0.9226 0.0000
vt 0.1141 0.9378 0.0000
vt 0.0020 0.9378 0.0000
vt 0.1233 0.9230 0.0000
vt 0.9478 0.0543 0.0000
vt 0.9321 0.0550 0.0000
vt 0.9321 0.0488 0.0000
vt 0.9479 0.0488 0.0000
vt 0.5986 0.0483 0.0000
vt 0.9121 0.0420 0.0000
vt 0.9121 0.0488 0.0000
vt 0.5986 0.0392 0.0000
vt 0.2527 0.2661 0.0000
vt 0.8411 0.2538 0.0000
vt 0.8411 0.2666 0.0000
vt 0.2527 0.2514 0.0000
vt 0.0103 0.0473 0.0000
vt 0.0103 0.0344 0.0000
vt 0.9585 0.0442 0.0000
vt 0.9707 0.0455 0.0000
vt 0.9586 0.0489 0.0000
vt 0.9708 0.0488 0.0000
vt 0.9804 0.0470 0.0000
vt 0.9883 0.0466 0.0000
vt 0.9805 0.0488 0.0000
vt 0.9887 0.0473 0.0000
vt 0.9478 0.0434 0.0000
vt 0.9321 0.0427 0.0000
vt 0.0513 0.2514 0.0000
vt 0.0420 0.2659 0.0000
vt 0.0021 0.9530 0.0000
vt 0.0820 0.9881 0.0000
vt 0.0027 0.9897 0.0000
vt 0.1233 0.9525 0.0000
vt 0.0820 0.8874 0.0000
vt 0.0027 0.8859 0.0000
vt 0.9323 0.0268 0.0000
vt 0.9482 0.0294 0.0000
vt 0.9482 0.0683 0.0000
vt 0.9323 0.0709 0.0000
vt 0.5986 0.0575 0.0000
vt 0.9121 0.0728 0.0000
vt 0.5986 0.0808 0.0000
vt 0.9121 0.0556 0.0000
vt 0.9122 0.0248 0.0000
vt 0.5987 0.0159 0.0000
vt 0.2527 0.2808 0.0000
vt 0.8411 0.3119 0.0000
vt 0.2526 0.3179 0.0000
vt 0.8411 0.2795 0.0000
vt 0.8412 0.2213 0.0000
vt 0.2527 0.2143 0.0000
vt 0.0102 0.0602 0.0000
vt 0.0103 0.0926 0.0000
vt 0.0104 0.0020 0.0000
vt 0.9585 0.0535 0.0000
vt 0.9716 0.0614 0.0000
vt 0.9591 0.0656 0.0000
vt 0.9708 0.0522 0.0000
vt 0.9591 0.0321 0.0000
vt 0.9715 0.0364 0.0000
vt 0.9810 0.1466 0.0000
vt 0.9864 0.1445 0.0000
vt 0.9856 0.1508 0.0000
vt 0.9872 0.1525 0.0000
vt 0.9813 0.0413 0.0000
vt 0.9865 0.0450 0.0000
vt 0.9814 0.0565 0.0000
vt 0.9807 0.0506 0.0000
vt 0.0102 0.3177 0.0000
vt 0.0512 0.2805 0.0000
vt 0.0865 0.8803 0.0000
vt 0.1263 0.9223 0.0000
vt 0.9885 0.0481 0.0000
vt 0.0033 0.8776 0.0000
vt 0.0033 0.9980 0.0000
vt 0.0865 0.9953 0.0000
vt 0.1176 0.9378 0.0000
vt 0.1263 0.9532 0.0000
vt 0.0103 0.2142 0.0000
vt 0.2763 0.9525 0.0000
vt 0.1551 0.9529 0.0000
vt 0.2670 0.9378 0.0000
vt 0.1550 0.9378 0.0000
vt 0.9481 0.1535 0.0000
vt 0.9325 0.1535 0.0000
vt 0.9480 0.1482 0.0000
vt 0.9325 0.1474 0.0000
vt 0.9125 0.1603 0.0000
vt 0.5991 0.1535 0.0000
vt 0.9125 0.1535 0.0000
vt 0.5991 0.1627 0.0000
vt 0.8410 0.3980 0.0000
vt 0.2527 0.3851 0.0000
vt 0.8411 0.3851 0.0000
vt 0.2526 0.3998 0.0000
vt 0.0102 0.1534 0.0000
vt 0.0102 0.1663 0.0000
vt 0.9587 0.1535 0.0000
vt 0.9706 0.1535 0.0000
vt 0.9705 0.1568 0.0000
vt 0.9586 0.1581 0.0000
vt 0.9797 0.1535 0.0000
vt 0.9875 0.1534 0.0000
vt 0.9872 0.1543 0.0000
vt 0.9797 0.1551 0.0000
vt 0.9480 0.1589 0.0000
vt 0.9325 0.1597 0.0000
vt 0.0512 0.3997 0.0000
vt 0.0419 0.3851 0.0000
vt 0.2763 0.9230 0.0000
vt 0.1551 0.9226 0.0000
vt 0.2350 0.8874 0.0000
vt 0.1557 0.8859 0.0000
vt 0.2350 0.9881 0.0000
vt 0.1557 0.9897 0.0000
vt 0.9485 0.1728 0.0000
vt 0.9327 0.1755 0.0000
vt 0.9485 0.1343 0.0000
vt 0.9327 0.1316 0.0000
vt 0.9125 0.1468 0.0000
vt 0.5991 0.1443 0.0000
vt 0.9126 0.1296 0.0000
vt 0.5992 0.1210 0.0000
vt 0.9126 0.1775 0.0000
vt 0.5992 0.1860 0.0000
vt 0.8410 0.3722 0.0000
vt 0.2526 0.3704 0.0000
vt 0.8411 0.3398 0.0000
vt 0.2526 0.3333 0.0000
vt 0.8411 0.4304 0.0000
vt 0.2526 0.4369 0.0000
vt 0.0102 0.1405 0.0000
vt 0.0103 0.1080 0.0000
vt 0.0103 0.1988 0.0000
vt 0.9705 0.1503 0.0000
vt 0.9586 0.1490 0.0000
vt 0.9715 0.1414 0.0000
vt 0.9593 0.1371 0.0000
vt 0.9715 0.1657 0.0000
vt 0.9593 0.1700 0.0000
vt 0.9797 0.1520 0.0000
vt 0.9858 0.1563 0.0000
vt 0.9810 0.1605 0.0000
vt 0.0512 0.3705 0.0000
vt 0.0102 0.3333 0.0000
vt 0.2793 0.9533 0.0000
vt 0.2395 0.9953 0.0000
vt 0.1562 0.9980 0.0000
vt 0.1563 0.8776 0.0000
vt 0.2395 0.8803 0.0000
vt 0.2706 0.9378 0.0000
vt 0.2793 0.9223 0.0000
vt 0.0102 0.4368 0.0000
# 736 texture coords

o Plane003
g Plane003
usemtl 01___Default
f 1/1/1 2/2/2 3/3/3 
f 1/1/1 3/3/3 4/4/4 
f 5/5/5 6/6/6 7/7/7 
f 6/6/6 5/5/5 8/8/8 
f 9/9/9 10/10/10 11/11/11 
f 9/9/9 11/11/11 12/12/12 
f 13/13/13 14/14/14 15/15/15 
f 15/15/15 14/14/14 16/16/16 
f 10/10/10 1/1/1 4/4/4 
f 10/10/10 4/4/4 11/11/11 
f 12/12/12 7/7/7 9/9/9 
f 7/7/7 12/12/12 5/5/5 
f 14/14/14 8/8/8 16/16/16 
f 8/8/8 14/14/14 6/6/6 
f 2/2/2 17/17/17 3/3/3 
f 17/17/17 18/18/18 3/3/3 
f 19/19/19 20/20/20 21/21/21 
f 21/21/21 20/20/20 22/22/22 
f 23/23/23 24/24/24 25/25/25 
f 24/24/24 23/23/23 26/26/26 
f 27/27/27 28/28/28 29/29/29 
f 28/28/28 27/27/27 30/30/30 
f 25/25/25 18/18/18 17/17/17 
f 18/18/18 25/25/25 24/24/24 
f 26/26/26 22/22/22 20/20/20 
f 22/22/22 26/26/26 23/23/23 
f 29/29/29 19/19/19 27/27/27 
f 27/27/27 19/19/19 21/21/21 
f 31/31/31 32/32/32 33/33/33 
f 32/32/32 31/31/31 34/34/34 
f 35/35/35 36/36/36 37/37/37 
f 36/36/36 35/35/35 38/38/38 
f 39/39/39 40/40/40 41/41/41 
f 39/39/39 41/41/41 42/42/42 
f 43/43/43 44/44/44 45/45/45 
f 44/44/44 43/43/43 46/46/46 
f 47/47/47 48/48/48 49/49/49 
f 47/47/47 49/49/49 50/50/50 
f 51/51/51 52/52/52 53/53/53 
f 51/51/51 53/53/53 54/54/54 
f 45/45/45 55/55/55 56/56/56 
f 55/55/55 45/45/45 44/44/44 
f 57/57/57 58/58/58 59/59/59 
f 58/58/58 57/57/57 60/60/60 
f 61/61/61 62/62/62 63/63/63 
f 61/61/61 63/63/63 64/64/64 
f 52/52/52 39/39/39 42/42/42 
f 52/52/52 42/42/42 53/53/53 
f 56/56/56 65/65/65 66/66/66 
f 65/65/65 56/56/56 55/55/55 
f 59/59/59 46/46/46 43/43/43 
f 46/46/46 59/59/59 58/58/58 
f 48/48/48 51/51/51 54/54/54 
f 48/48/48 54/54/54 49/49/49 
f 33/33/33 60/60/60 57/57/57 
f 60/60/60 33/33/33 32/32/32 
f 62/62/62 47/47/47 50/50/50 
f 62/62/62 50/50/50 63/63/63 
f 67/67/67 41/41/41 40/40/40 
f 41/41/41 67/67/67 68/68/68 
f 69/69/69 66/66/66 65/65/65 
f 69/69/69 65/65/65 70/70/70 
f 71/71/71 72/72/72 73/73/73 
f 72/72/72 71/71/71 74/74/74 
f 75/75/75 76/76/76 77/77/77 
f 75/75/75 77/77/77 78/78/78 
f 79/79/79 80/80/80 81/81/81 
f 80/80/80 79/79/79 82/82/82 
f 83/83/83 84/84/84 85/85/85 
f 83/83/83 85/85/85 86/86/86 
f 87/87/87 88/88/88 89/89/89 
f 90/90/90 89/89/89 88/88/88 
f 91/91/91 92/92/92 93/93/93 
f 92/92/92 91/91/91 94/94/94 
f 95/95/95 96/96/96 97/97/97 
f 95/95/95 97/97/97 98/98/98 
f 81/81/81 68/68/68 67/67/67 
f 68/68/68 81/81/81 80/80/80 
f 84/84/84 69/69/69 70/70/70 
f 84/84/84 70/70/70 85/85/85 
f 73/73/73 82/82/82 79/79/79 
f 82/82/82 73/73/73 72/72/72 
f 76/76/76 83/83/83 86/86/86 
f 76/76/76 86/86/86 77/77/77 
f 90/90/90 74/74/74 71/71/71 
f 74/74/74 90/90/90 88/88/88 
f 96/96/96 75/75/75 78/78/78 
f 96/96/96 78/78/78 97/97/97 
f 99/99/99 100/100/100 101/101/101 
f 100/100/100 99/99/99 102/102/102 
f 103/103/103 104/104/104 105/105/105 
f 105/105/105 104/104/104 106/106/106 
f 107/107/107 108/108/108 109/109/109 
f 109/109/109 108/108/108 110/110/110 
f 111/111/111 112/112/112 113/113/113 
f 113/113/113 114/114/114 111/111/111 
f 100/100/100 107/107/107 101/101/101 
f 109/109/109 101/101/101 107/107/107 
f 108/108/108 103/103/103 110/110/110 
f 110/110/110 103/103/103 105/105/105 
f 104/104/104 113/113/113 106/106/106 
f 106/106/106 113/113/113 112/112/112 
f 115/115/115 116/116/116 99/99/99 
f 99/99/99 116/116/116 102/102/102 
f 117/117/117 118/118/118 119/119/119 
f 119/119/119 120/120/120 117/117/117 
f 121/121/121 122/122/122 123/123/123 
f 121/121/121 123/123/123 124/124/124 
f 125/125/125 126/126/126 127/127/127 
f 128/128/128 126/126/126 125/125/125 
f 115/115/115 121/121/121 124/124/124 
f 115/115/115 124/124/124 116/116/116 
f 122/122/122 119/119/119 118/118/118 
f 122/122/122 118/118/118 123/123/123 
f 125/125/125 117/117/117 120/120/120 
f 120/120/120 128/128/128 125/125/125 
f 32/129/32 129/130/129 130/131/130 
f 129/130/129 32/129/32 34/132/34 
f 38/133/38 131/134/131 132/135/132 
f 131/134/131 38/133/38 35/136/35 
f 41/137/41 133/138/133 42/139/42 
f 133/138/133 41/137/41 134/140/134 
f 44/141/44 135/142/135 136/143/136 
f 135/142/135 44/141/44 46/144/46 
f 49/145/49 137/146/137 50/147/50 
f 137/146/137 49/145/49 138/148/138 
f 53/149/53 139/150/139 54/151/54 
f 139/150/139 53/149/53 140/152/140 
f 55/153/55 136/143/136 141/154/141 
f 136/143/136 55/153/55 44/141/44 
f 58/155/58 142/156/142 143/157/143 
f 142/156/142 58/155/58 60/158/60 
f 63/159/63 144/160/144 64/161/64 
f 144/160/144 63/159/63 145/162/145 
f 42/139/42 140/152/140 53/149/53 
f 140/152/140 42/139/42 133/138/133 
f 65/163/65 141/154/141 146/164/146 
f 141/154/141 65/163/65 55/153/55 
f 46/144/46 143/157/143 135/142/135 
f 143/157/143 46/144/46 58/155/58 
f 54/151/54 138/148/138 49/145/49 
f 138/148/138 54/151/54 139/150/139 
f 60/158/60 130/131/130 142/156/142 
f 130/131/130 60/158/60 32/129/32 
f 50/147/50 145/162/145 63/159/63 
f 145/162/145 50/147/50 137/146/137 
f 41/137/41 147/165/147 134/140/134 
f 147/165/147 41/137/41 68/166/68 
f 65/163/65 148/167/148 70/168/70 
f 148/167/148 65/163/65 146/164/146 
f 72/169/72 149/170/149 150/171/150 
f 149/170/149 72/169/72 74/172/74 
f 77/173/77 151/174/151 78/175/78 
f 151/174/151 77/173/77 152/176/152 
f 80/177/80 153/178/153 154/179/154 
f 153/178/153 80/177/80 82/180/82 
f 85/181/85 155/182/155 86/183/86 
f 155/182/155 85/181/85 156/184/156 
f 88/185/88 87/186/87 157/187/157 
f 88/185/88 157/187/157 158/188/158 
f 94/189/94 159/190/159 92/191/92 
f 159/190/159 94/189/94 160/192/160 
f 97/193/97 161/194/161 98/195/98 
f 161/194/161 97/193/97 162/196/162 
f 68/166/68 154/179/154 147/165/147 
f 154/179/154 68/166/68 80/177/80 
f 70/168/70 156/184/156 85/181/85 
f 156/184/156 70/168/70 148/167/148 
f 82/180/82 150/171/150 153/178/153 
f 150/171/150 82/180/82 72/169/72 
f 86/183/86 152/176/152 77/173/77 
f 152/176/152 86/183/86 155/182/155 
f 74/172/74 158/188/158 149/170/149 
f 158/188/158 74/172/74 88/185/88 
f 78/175/78 162/196/162 97/193/97 
f 162/196/162 78/175/78 151/174/151 
f 64/64/64 37/37/37 61/61/61 
f 37/37/37 64/64/64 35/35/35 
f 36/36/36 34/197/34 31/198/31 
f 34/197/34 36/36/36 38/38/38 
f 93/199/93 92/200/92 89/89/89 
f 89/89/89 92/200/92 87/87/87 
f 95/95/95 98/98/98 91/91/91 
f 91/91/91 98/98/98 94/94/94 
f 132/135/132 34/201/34 38/133/38 
f 34/201/34 132/135/132 129/202/129 
f 64/161/64 131/134/131 35/136/35 
f 131/134/131 64/161/64 144/160/144 
f 92/203/92 159/204/159 87/186/87 
f 87/186/87 159/204/159 157/187/157 
f 98/195/98 160/192/160 94/189/94 
f 160/192/160 98/195/98 161/194/161 
f 28/28/28 30/30/30 163/205/163 
f 163/205/163 30/30/30 164/206/164 
f 127/127/127 126/126/126 165/207/165 
f 127/127/127 165/207/165 166/208/166 
f 13/13/13 15/15/15 167/209/167 
f 13/13/13 167/209/167 168/210/168 
f 169/211/169 114/114/114 170/212/170 
f 111/111/111 114/114/114 169/211/169 
f 31/31/31 33/33/33 13/213/13 
f 14/214/14 13/213/13 33/33/33 
f 37/37/37 168/215/168 167/216/167 
f 168/215/168 37/37/37 36/36/36 
f 40/40/40 39/39/39 3/217/3 
f 4/218/4 3/217/3 39/39/39 
f 43/43/43 45/45/45 9/219/9 
f 10/220/10 9/219/9 45/45/45 
f 48/48/48 47/47/47 5/221/5 
f 8/222/8 5/221/5 47/47/47 
f 52/52/52 51/51/51 11/223/11 
f 12/224/12 11/223/11 51/51/51 
f 45/45/45 56/56/56 10/220/10 
f 1/225/1 10/220/10 56/56/56 
f 57/57/57 59/59/59 6/226/6 
f 7/227/7 6/226/6 59/59/59 
f 62/62/62 61/61/61 16/228/16 
f 15/229/15 16/228/16 61/61/61 
f 39/39/39 11/223/11 4/218/4 
f 11/223/11 39/39/39 52/52/52 
f 56/56/56 66/66/66 1/225/1 
f 2/230/2 1/225/1 66/66/66 
f 59/59/59 43/43/43 7/227/7 
f 9/219/9 7/227/7 43/43/43 
f 51/51/51 48/48/48 12/224/12 
f 5/221/5 12/224/12 48/48/48 
f 33/33/33 57/57/57 14/214/14 
f 6/226/6 14/214/14 57/57/57 
f 47/47/47 62/62/62 8/222/8 
f 16/228/16 8/222/8 62/62/62 
f 67/67/67 3/217/3 18/231/18 
f 3/217/3 67/67/67 40/40/40 
f 66/66/66 17/232/17 2/230/2 
f 17/232/17 66/66/66 69/69/69 
f 71/71/71 20/233/20 19/234/19 
f 20/233/20 71/71/71 73/73/73 
f 76/76/76 21/235/21 22/236/22 
f 21/235/21 76/76/76 75/75/75 
f 79/79/79 24/237/24 26/238/26 
f 24/237/24 79/79/79 81/81/81 
f 84/84/84 23/239/23 25/240/25 
f 23/239/23 84/84/84 83/83/83 
f 89/89/89 29/241/29 28/242/28 
f 29/241/29 89/89/89 90/90/90 
f 91/91/91 93/93/93 164/243/164 
f 163/244/163 164/243/164 93/93/93 
f 96/96/96 30/245/30 27/246/27 
f 30/245/30 96/96/96 95/95/95 
f 81/81/81 67/67/67 24/237/24 
f 18/231/18 24/237/24 67/67/67 
f 69/69/69 25/240/25 17/232/17 
f 25/240/25 69/69/69 84/84/84 
f 73/73/73 26/238/26 20/233/20 
f 26/238/26 73/73/73 79/79/79 
f 83/83/83 22/236/22 23/239/23 
f 22/236/22 83/83/83 76/76/76 
f 90/90/90 19/234/19 29/241/29 
f 19/234/19 90/90/90 71/71/71 
f 75/75/75 27/246/27 21/235/21 
f 27/246/27 75/75/75 96/96/96 
f 133/138/133 99/247/99 101/248/101 
f 99/247/99 133/138/133 134/140/134 
f 146/164/146 100/249/100 102/250/102 
f 100/249/100 146/164/146 141/154/141 
f 137/146/137 105/251/105 106/252/106 
f 105/251/105 137/146/137 138/148/138 
f 143/157/143 104/253/104 103/254/103 
f 104/253/104 143/157/143 142/156/142 
f 139/150/139 109/255/109 110/256/110 
f 109/255/109 139/150/139 140/152/140 
f 136/143/136 108/257/108 107/258/107 
f 108/257/108 136/143/136 135/142/135 
f 112/259/112 144/160/144 145/162/145 
f 144/160/144 112/259/112 111/260/111 
f 132/135/132 131/134/131 170/261/170 
f 170/261/170 131/134/131 169/262/169 
f 130/131/130 114/263/114 113/264/113 
f 114/263/114 130/131/130 129/130/129 
f 133/138/133 109/255/109 140/152/140 
f 109/255/109 133/138/133 101/248/101 
f 141/154/141 107/258/107 100/249/100 
f 107/258/107 141/154/141 136/143/136 
f 138/148/138 110/256/110 105/251/105 
f 110/256/110 138/148/138 139/150/139 
f 135/142/135 103/254/103 108/257/108 
f 103/254/103 135/142/135 143/157/143 
f 145/162/145 106/252/106 112/259/112 
f 106/252/106 145/162/145 137/146/137 
f 142/156/142 113/264/113 104/253/104 
f 113/264/113 142/156/142 130/131/130 
f 146/164/146 116/265/116 148/167/148 
f 116/265/116 146/164/146 102/250/102 
f 147/165/147 99/247/99 134/140/134 
f 99/247/99 147/165/147 115/266/115 
f 152/176/152 117/267/117 151/174/151 
f 117/267/117 152/176/152 118/268/118 
f 149/170/149 119/269/119 150/171/150 
f 119/269/119 149/170/149 120/270/120 
f 156/184/156 123/271/123 155/182/155 
f 123/271/123 156/184/156 124/272/124 
f 153/178/153 121/273/121 154/179/154 
f 121/273/121 153/178/153 122/274/122 
f 125/275/125 127/276/127 162/196/162 
f 161/194/161 162/196/162 127/276/127 
f 166/277/166 159/190/159 160/192/160 
f 159/190/159 166/277/166 165/278/165 
f 157/187/157 128/279/128 158/188/158 
f 128/279/128 157/187/157 126/280/126 
f 148/167/148 124/272/124 156/184/156 
f 124/272/124 148/167/148 116/265/116 
f 147/165/147 121/273/121 115/266/115 
f 121/273/121 147/165/147 154/179/154 
f 155/182/155 118/268/118 152/176/152 
f 118/268/118 155/182/155 123/271/123 
f 150/171/150 122/274/122 153/178/153 
f 122/274/122 150/171/150 119/269/119 
f 151/174/151 125/275/125 162/196/162 
f 125/275/125 151/174/151 117/267/117 
f 158/188/158 120/270/120 149/170/149 
f 120/270/120 158/188/158 128/279/128 
f 37/37/37 15/229/15 61/61/61 
f 15/229/15 37/37/37 167/216/167 
f 36/36/36 13/281/13 168/215/168 
f 13/281/13 36/36/36 31/198/31 
f 93/199/93 28/242/28 163/282/163 
f 28/242/28 93/199/93 89/89/89 
f 91/91/91 30/245/30 95/95/95 
f 30/245/30 91/91/91 164/243/164 
f 111/260/111 131/134/131 144/160/144 
f 131/134/131 111/260/111 169/262/169 
f 129/202/129 132/135/132 114/283/114 
f 132/135/132 170/261/170 114/283/114 
f 160/192/160 127/276/127 166/277/166 
f 127/276/127 160/192/160 161/194/161 
f 165/284/165 126/280/126 159/204/159 
f 157/187/157 159/204/159 126/280/126 
f 171/285/171 172/286/172 173/287/173 
f 173/287/173 174/288/174 171/285/171 
f 175/289/175 176/290/176 177/291/177 
f 176/290/176 178/292/178 177/291/177 
f 179/293/179 176/290/176 180/294/180 
f 180/294/180 176/290/176 175/289/175 
f 181/295/181 182/296/182 183/297/183 
f 184/298/184 183/297/183 182/296/182 
f 184/298/184 185/299/185 186/300/186 
f 186/300/186 183/297/183 184/298/184 
f 185/299/185 171/285/171 174/288/174 
f 174/288/174 186/300/186 185/299/185 
f 187/301/187 188/302/188 179/293/179 
f 187/301/187 179/293/179 180/294/180 
f 182/296/182 181/295/181 188/302/188 
f 182/296/182 188/302/188 187/301/187 
f 189/303/189 190/304/190 173/287/173 
f 189/303/189 173/287/173 172/286/172 
f 191/305/191 192/306/192 193/307/193 
f 191/305/191 193/307/193 194/308/194 
f 195/309/195 196/310/196 197/311/197 
f 196/310/196 195/309/195 189/303/189 
f 193/307/193 195/309/195 194/308/194 
f 194/308/194 195/309/195 197/311/197 
f 198/312/198 174/288/174 173/287/173 
f 174/288/174 198/312/198 199/313/199 
f 200/314/200 201/315/201 202/316/202 
f 201/315/201 200/314/200 203/317/203 
f 204/318/204 205/319/205 178/292/178 
f 205/319/205 204/318/204 206/320/206 
f 201/315/201 207/321/207 208/322/208 
f 207/321/207 201/315/201 203/317/203 
f 176/290/176 179/293/179 209/323/209 
f 176/290/176 209/323/209 210/324/210 
f 208/322/208 211/325/211 212/326/212 
f 211/325/211 208/322/208 207/321/207 
f 183/297/183 213/327/213 181/295/181 
f 213/327/213 183/297/183 214/328/214 
f 215/329/215 216/330/216 217/331/217 
f 216/330/216 215/329/215 218/332/218 
f 219/333/219 183/297/183 186/300/186 
f 183/297/183 219/333/219 214/328/214 
f 220/334/220 221/335/221 222/336/222 
f 221/335/221 220/334/220 223/337/223 
f 199/313/199 186/300/186 174/288/174 
f 186/300/186 199/313/199 219/333/219 
f 217/331/217 223/337/223 220/334/220 
f 223/337/223 217/331/217 216/330/216 
f 224/338/224 225/339/225 215/329/215 
f 215/329/215 225/339/225 218/332/218 
f 188/302/188 226/340/226 179/293/179 
f 179/293/179 226/340/226 209/323/209 
f 212/326/212 225/339/225 224/338/224 
f 225/339/225 212/326/212 211/325/211 
f 181/295/181 213/327/213 188/302/188 
f 188/302/188 213/327/213 226/340/226 
f 227/341/227 228/342/228 229/343/229 
f 228/342/228 227/341/227 230/344/230 
f 222/336/222 231/345/231 196/310/196 
f 231/345/231 222/336/222 221/335/221 
f 190/304/190 232/346/232 173/287/173 
f 173/287/173 232/346/232 198/312/198 
f 194/308/194 233/347/233 191/305/191 
f 191/305/191 233/347/233 234/348/234 
f 229/343/229 235/349/235 236/350/236 
f 235/349/235 229/343/229 228/342/228 
f 196/310/196 237/351/237 197/311/197 
f 237/351/237 196/310/196 231/345/231 
f 236/350/236 235/349/235 190/304/190 
f 190/304/190 235/349/235 232/346/232 
f 197/311/197 237/351/237 194/308/194 
f 194/308/194 237/351/237 233/347/233 
f 238/352/238 239/353/239 240/354/240 
f 240/354/240 239/353/239 241/355/241 
f 242/356/242 243/357/243 244/358/244 
f 242/356/242 244/358/244 245/359/245 
f 244/358/244 246/360/246 245/359/245 
f 246/360/246 244/358/244 247/361/247 
f 248/362/248 249/363/249 250/364/250 
f 248/362/248 250/364/250 251/365/251 
f 250/364/250 252/366/252 251/365/251 
f 251/365/251 252/366/252 253/367/253 
f 252/366/252 238/352/238 253/367/253 
f 253/367/253 238/352/238 240/354/240 
f 247/361/247 254/368/254 246/360/246 
f 254/368/254 247/361/247 255/369/255 
f 254/368/254 249/363/249 248/362/248 
f 249/363/249 254/368/254 255/369/255 
f 256/370/256 257/371/257 239/353/239 
f 241/355/241 239/353/239 257/371/257 
f 258/372/258 259/373/259 260/374/260 
f 261/375/261 260/374/260 259/373/259 
f 257/371/257 262/376/262 263/377/263 
f 263/377/263 262/376/262 264/378/264 
f 264/378/264 262/376/262 261/375/261 
f 262/376/262 260/374/260 261/375/261 
f 265/379/265 238/352/238 266/380/266 
f 238/352/238 265/379/265 239/353/239 
f 267/381/267 268/382/268 269/383/269 
f 268/382/268 267/381/267 270/384/270 
f 271/385/271 272/386/272 273/387/273 
f 273/387/273 272/386/272 243/357/243 
f 274/388/274 268/382/268 275/389/275 
f 268/382/268 274/388/274 269/383/269 
f 276/390/276 244/358/244 277/391/277 
f 244/358/244 276/390/276 247/361/247 
f 278/392/278 275/389/275 279/393/279 
f 275/389/275 278/392/278 274/388/274 
f 280/394/280 250/364/250 249/363/249 
f 250/364/250 280/394/280 281/395/281 
f 282/396/282 283/397/283 284/398/284 
f 283/397/283 282/396/282 285/399/285 
f 286/400/286 250/364/250 281/395/281 
f 250/364/250 286/400/286 252/366/252 
f 287/401/287 288/402/288 289/403/289 
f 288/402/288 287/401/287 290/404/290 
f 266/380/266 252/366/252 286/400/286 
f 252/366/252 266/380/266 238/352/238 
f 290/404/290 284/398/284 288/402/288 
f 284/398/284 290/404/290 282/396/282 
f 291/405/291 283/397/283 285/399/285 
f 291/405/291 292/406/292 283/397/283 
f 293/407/293 247/361/247 276/390/276 
f 293/407/293 255/369/255 247/361/247 
f 291/405/291 279/393/279 292/406/292 
f 279/393/279 291/405/291 278/392/278 
f 280/394/280 255/369/255 293/407/293 
f 255/369/255 280/394/280 249/363/249 
f 294/408/294 295/409/295 296/410/296 
f 295/409/295 294/408/294 297/411/297 
f 298/412/298 289/403/289 263/377/263 
f 289/403/289 298/412/298 287/401/287 
f 299/413/299 239/353/239 265/379/265 
f 299/413/299 256/370/256 239/353/239 
f 300/414/300 259/373/259 301/415/301 
f 300/414/300 261/375/261 259/373/259 
f 302/416/302 296/410/296 303/417/303 
f 296/410/296 302/416/302 294/408/294 
f 304/418/304 263/377/263 264/378/264 
f 263/377/263 304/418/304 298/412/298 
f 302/416/302 256/370/256 299/413/299 
f 256/370/256 302/416/302 303/417/303 
f 304/418/304 261/375/261 300/414/300 
f 261/375/261 304/418/304 264/378/264 
f 172/286/172 171/285/171 222/336/222 
f 222/336/222 171/285/171 220/334/220 
f 202/316/202 177/291/177 305/419/305 
f 305/419/305 306/420/306 202/316/202 
f 180/294/180 201/315/201 208/322/208 
f 201/315/201 180/294/180 175/289/175 
f 215/329/215 184/298/184 182/296/182 
f 182/296/182 224/338/224 215/329/215 
f 185/299/185 184/298/184 217/331/217 
f 217/331/217 184/298/184 215/329/215 
f 171/285/171 185/299/185 220/334/220 
f 220/334/220 185/299/185 217/331/217 
f 187/301/187 208/322/208 212/326/212 
f 208/322/208 187/301/187 180/294/180 
f 182/296/182 212/326/212 224/338/224 
f 212/326/212 182/296/182 187/301/187 
f 189/303/189 222/336/222 196/310/196 
f 222/336/222 189/303/189 172/286/172 
f 229/343/229 193/307/193 227/341/227 
f 192/306/192 227/341/227 193/307/193 
f 236/350/236 190/304/190 195/309/195 
f 195/309/195 190/304/190 189/303/189 
f 193/307/193 229/343/229 195/309/195 
f 229/343/229 236/350/236 195/309/195 
f 240/354/240 289/403/289 288/402/288 
f 289/403/289 240/354/240 241/355/241 
f 242/356/242 268/382/268 270/384/270 
f 268/382/268 242/356/242 245/359/245 
f 245/359/245 275/389/275 268/382/268 
f 275/389/275 245/359/245 246/360/246 
f 248/362/248 283/397/283 292/406/292 
f 283/397/283 248/362/248 251/365/251 
f 251/365/251 284/398/284 283/397/283 
f 284/398/284 251/365/251 253/367/253 
f 253/367/253 288/402/288 284/398/284 
f 288/402/288 253/367/253 240/354/240 
f 275/389/275 246/360/246 254/368/254 
f 254/368/254 279/393/279 275/389/275 
f 254/368/254 292/406/292 279/393/279 
f 292/406/292 254/368/254 248/362/248 
f 289/403/289 241/355/241 257/371/257 
f 257/371/257 263/377/263 289/403/289 
f 295/409/295 260/374/260 296/410/296 
f 260/374/260 295/409/295 258/372/258 
f 257/371/257 256/370/256 262/376/262 
f 256/370/256 303/417/303 262/376/262 
f 303/417/303 296/410/296 262/376/262 
f 262/376/262 296/410/296 260/374/260 
f 198/421/198 266/380/266 199/422/199 
f 266/380/266 198/421/198 265/379/265 
f 267/423/267 203/317/203 200/314/200 
f 203/317/203 267/423/267 269/424/269 
f 204/425/204 272/386/272 206/426/206 
f 206/426/206 272/386/272 271/385/271 
f 203/317/203 274/427/274 207/321/207 
f 274/427/274 203/317/203 269/424/269 
f 210/428/210 276/390/276 277/391/277 
f 276/390/276 210/428/210 209/429/209 
f 207/321/207 278/430/278 211/325/211 
f 278/430/278 207/321/207 274/427/274 
f 213/431/213 281/395/281 280/394/280 
f 281/395/281 213/431/213 214/432/214 
f 216/330/216 285/433/285 282/434/282 
f 285/433/285 216/330/216 218/332/218 
f 214/432/214 286/400/286 281/395/281 
f 286/400/286 214/432/214 219/435/219 
f 221/335/221 290/436/290 287/437/287 
f 290/436/290 221/335/221 223/337/223 
f 219/435/219 266/380/266 286/400/286 
f 266/380/266 219/435/219 199/422/199 
f 216/330/216 290/436/290 223/337/223 
f 290/436/290 216/330/216 282/434/282 
f 225/339/225 285/433/285 218/332/218 
f 285/433/285 225/339/225 291/438/291 
f 226/439/226 276/390/276 209/429/209 
f 276/390/276 226/439/226 293/407/293 
f 225/339/225 278/430/278 291/438/291 
f 278/430/278 225/339/225 211/325/211 
f 213/431/213 293/407/293 226/439/226 
f 293/407/293 213/431/213 280/394/280 
f 228/440/228 297/411/297 294/408/294 
f 297/411/297 228/440/228 230/441/230 
f 231/345/231 287/437/287 298/442/298 
f 287/437/287 231/345/231 221/335/221 
f 232/443/232 265/379/265 198/421/198 
f 265/379/265 232/443/232 299/413/299 
f 233/347/233 301/444/301 234/348/234 
f 301/444/301 233/347/233 300/445/300 
f 228/440/228 302/416/302 235/446/235 
f 302/416/302 228/440/228 294/408/294 
f 237/351/237 298/442/298 304/447/304 
f 298/442/298 237/351/237 231/345/231 
f 235/446/235 299/413/299 232/443/232 
f 299/413/299 235/446/235 302/416/302 
f 237/351/237 300/445/300 233/347/233 
f 300/445/300 237/351/237 304/447/304 
f 205/319/205 305/419/305 178/292/178 
f 177/291/177 178/292/178 305/419/305 
f 200/314/200 202/316/202 306/420/306 
f 306/420/306 307/448/307 200/314/200 
f 176/290/176 204/318/204 178/292/178 
f 204/318/204 176/290/176 210/324/210 
f 308/449/308 273/387/273 243/357/243 
f 308/449/308 243/357/243 242/356/242 
f 309/450/309 310/451/310 267/381/267 
f 267/381/267 310/451/310 270/384/270 
f 244/358/244 272/386/272 277/391/277 
f 272/386/272 244/358/244 243/357/243 
f 175/289/175 177/291/177 201/315/201 
f 201/315/201 177/291/177 202/316/202 
f 308/449/308 270/384/270 310/451/310 
f 270/384/270 308/449/308 242/356/242 
f 200/314/200 307/448/307 267/423/267 
f 307/448/307 309/452/309 267/423/267 
f 277/391/277 272/386/272 210/428/210 
f 204/425/204 210/428/210 272/386/272 
f 311/453/311 312/454/312 313/455/313 
f 314/456/314 312/454/312 311/453/311 
f 312/454/312 315/457/315 316/458/316 
f 315/457/315 312/454/312 314/456/314 
f 317/459/317 312/454/312 318/460/318 
f 312/454/312 316/458/316 318/460/318 
f 319/461/319 312/454/312 317/459/317 
f 320/462/320 312/454/312 319/461/319 
f 312/454/312 320/462/320 321/463/321 
f 312/454/312 321/463/321 322/464/322 
f 323/465/323 312/454/312 324/466/324 
f 312/454/312 322/464/322 324/466/324 
f 312/454/312 325/467/325 326/468/326 
f 325/467/325 312/454/312 323/465/323 
f 312/454/312 326/468/326 327/469/327 
f 312/454/312 327/469/327 313/455/313 
f 328/470/328 311/453/311 329/471/329 
f 311/453/311 328/470/328 314/456/314 
f 315/457/315 328/470/328 330/472/330 
f 328/470/328 315/457/315 314/456/314 
f 330/472/330 316/458/316 315/457/315 
f 316/458/316 330/472/330 331/473/331 
f 316/458/316 331/473/331 332/474/332 
f 316/458/316 332/474/332 318/460/318 
f 332/474/332 317/459/317 318/460/318 
f 317/459/317 332/474/332 333/475/333 
f 333/475/333 319/461/319 317/459/317 
f 319/461/319 333/475/333 334/476/334 
f 335/477/335 320/462/320 319/461/319 
f 335/477/335 319/461/319 334/476/334 
f 321/463/321 335/477/335 336/478/336 
f 335/477/335 321/463/321 320/462/320 
f 321/463/321 336/478/336 337/479/337 
f 321/463/321 337/479/337 322/464/322 
f 337/479/337 324/466/324 322/464/322 
f 324/466/324 337/479/337 338/480/338 
f 338/480/338 323/465/323 324/466/324 
f 323/465/323 338/480/338 339/481/339 
f 323/465/323 340/482/340 325/467/325 
f 340/482/340 323/465/323 339/481/339 
f 326/468/326 340/482/340 341/483/341 
f 340/482/340 326/468/326 325/467/325 
f 341/483/341 327/469/327 326/468/326 
f 327/469/327 341/483/341 342/484/342 
f 342/484/342 313/455/313 327/469/327 
f 313/455/313 342/484/342 343/485/343 
f 343/485/343 311/453/311 313/455/313 
f 311/453/311 343/485/343 329/471/329 
f 344/486/344 329/471/329 345/487/345 
f 329/471/329 344/486/344 328/470/328 
f 330/472/330 344/486/344 346/488/346 
f 344/486/344 330/472/330 328/470/328 
f 331/473/331 346/488/346 347/489/347 
f 346/488/346 331/473/331 330/472/330 
f 347/489/347 332/474/332 331/473/331 
f 332/474/332 347/489/347 348/490/348 
f 348/490/348 349/491/349 332/474/332 
f 332/474/332 349/491/349 333/475/333 
f 350/492/350 333/475/333 349/491/349 
f 333/475/333 350/492/350 334/476/334 
f 351/493/351 335/477/335 334/476/334 
f 351/493/351 334/476/334 350/492/350 
f 336/478/336 351/493/351 352/494/352 
f 351/493/351 336/478/336 335/477/335 
f 352/494/352 353/495/353 336/478/336 
f 336/478/336 353/495/353 337/479/337 
f 353/495/353 338/480/338 337/479/337 
f 338/480/338 353/495/353 354/496/354 
f 354/496/354 339/481/339 338/480/338 
f 339/481/339 354/496/354 355/497/355 
f 356/498/356 339/481/339 355/497/355 
f 339/481/339 356/498/356 340/482/340 
f 341/483/341 340/482/340 357/499/357 
f 340/482/340 356/498/356 357/499/357 
f 357/499/357 358/500/358 341/483/341 
f 341/483/341 358/500/358 342/484/342 
f 358/500/358 359/501/359 342/484/342 
f 342/484/342 359/501/359 343/485/343 
f 345/487/345 343/485/343 359/501/359 
f 343/485/343 345/487/345 329/471/329 
f 344/486/344 360/502/360 361/503/361 
f 360/502/360 344/486/344 345/487/345 
f 361/503/361 346/488/346 344/486/344 
f 346/488/346 361/503/361 362/504/362 
f 347/489/347 346/488/346 363/505/363 
f 346/488/346 362/504/362 363/505/363 
f 348/490/348 347/489/347 364/506/364 
f 347/489/347 363/505/363 364/506/364 
f 349/491/349 364/506/364 365/507/365 
f 364/506/364 349/491/349 348/490/348 
f 365/507/365 350/492/350 349/491/349 
f 350/492/350 365/507/365 366/508/366 
f 351/493/351 350/492/350 367/509/367 
f 350/492/350 366/508/366 367/509/367 
f 352/494/352 351/493/351 368/510/368 
f 351/493/351 367/509/367 368/510/368 
f 353/495/353 368/510/368 369/511/369 
f 368/510/368 353/495/353 352/494/352 
f 369/511/369 354/496/354 353/495/353 
f 354/496/354 369/511/369 370/512/370 
f 355/497/355 354/496/354 371/513/371 
f 354/496/354 370/512/370 371/513/371 
f 356/498/356 355/497/355 372/514/372 
f 355/497/355 371/513/371 372/514/372 
f 357/499/357 372/514/372 373/515/373 
f 372/514/372 357/499/357 356/498/356 
f 373/515/373 358/500/358 357/499/357 
f 358/500/358 373/515/373 374/516/374 
f 359/501/359 358/500/358 375/517/375 
f 358/500/358 374/516/374 375/517/375 
f 345/487/345 359/501/359 360/502/360 
f 359/501/359 375/517/375 360/502/360 
f 361/518/361 360/519/360 376/520/376 
f 360/519/360 377/521/377 376/520/376 
f 362/522/362 361/518/361 378/523/378 
f 361/518/361 376/520/376 378/523/378 
f 363/524/363 378/523/378 379/525/379 
f 378/523/378 363/524/363 362/522/362 
f 364/526/364 379/525/379 380/527/380 
f 379/525/379 364/526/364 363/524/363 
f 365/528/365 364/526/364 381/529/381 
f 364/526/364 380/527/380 381/529/381 
f 366/530/366 365/528/365 382/531/382 
f 365/528/365 381/529/381 382/531/382 
f 367/532/367 382/531/382 383/533/383 
f 382/531/382 367/532/367 366/530/366 
f 368/534/368 383/533/383 384/535/384 
f 383/533/383 368/534/368 367/532/367 
f 369/536/369 368/534/368 385/537/385 
f 368/534/368 384/535/384 385/537/385 
f 370/538/370 369/536/369 386/539/386 
f 369/536/369 385/537/385 386/539/386 
f 371/540/371 386/539/386 387/541/387 
f 386/539/386 371/540/371 370/538/370 
f 372/542/372 387/541/387 388/543/388 
f 387/541/387 372/542/372 371/540/371 
f 373/544/373 372/542/372 389/545/389 
f 372/542/372 388/543/388 389/545/389 
f 374/546/374 373/544/373 390/547/390 
f 373/544/373 389/545/389 390/547/390 
f 375/548/375 390/547/390 391/549/391 
f 390/547/390 375/548/375 374/546/374 
f 360/519/360 391/549/391 377/521/377 
f 391/549/391 360/519/360 375/548/375 
f 392/550/392 376/520/376 377/521/377 
f 376/520/376 392/550/392 393/551/393 
f 394/552/394 376/520/376 393/551/393 
f 376/520/376 394/552/394 378/523/378 
f 379/525/379 378/523/378 395/553/395 
f 378/523/378 394/552/394 395/553/395 
f 380/527/380 379/525/379 396/554/396 
f 379/525/379 395/553/395 396/554/396 
f 381/529/381 396/554/396 397/555/397 
f 396/554/396 381/529/381 380/527/380 
f 397/555/397 382/531/382 381/529/381 
f 382/531/382 397/555/397 398/556/398 
f 398/556/398 383/533/383 382/531/382 
f 383/533/383 398/556/398 399/557/399 
f 399/557/399 400/558/400 383/533/383 
f 384/535/384 383/533/383 400/558/400 
f 385/537/385 400/558/400 401/559/401 
f 400/558/400 385/537/385 384/535/384 
f 402/560/402 386/539/386 385/537/385 
f 402/560/402 385/537/385 401/559/401 
f 387/541/387 402/560/402 403/561/403 
f 402/560/402 387/541/387 386/539/386 
f 403/561/403 388/543/388 387/541/387 
f 388/543/388 403/561/403 404/562/404 
f 404/562/404 389/545/389 388/543/388 
f 389/545/389 404/562/404 405/563/405 
f 390/547/390 405/563/405 406/564/406 
f 405/563/405 390/547/390 389/545/389 
f 391/549/391 406/564/406 407/565/407 
f 406/564/406 391/549/391 390/547/390 
f 377/521/377 407/565/407 392/550/392 
f 407/565/407 377/521/377 391/549/391 
f 408/566/408 393/551/393 392/550/392 
f 393/551/393 408/566/408 409/567/409 
f 410/568/410 393/551/393 409/567/409 
f 393/551/393 410/568/410 394/552/394 
f 395/553/395 394/552/394 411/569/411 
f 394/552/394 410/568/410 411/569/411 
f 412/570/412 396/554/396 395/553/395 
f 395/553/395 411/569/411 412/570/412 
f 397/555/397 412/570/412 413/571/413 
f 412/570/412 397/555/397 396/554/396 
f 397/555/397 414/572/414 398/556/398 
f 414/572/414 397/555/397 413/571/413 
f 414/572/414 399/557/399 398/556/398 
f 399/557/399 414/572/414 415/573/415 
f 400/558/400 399/557/399 416/574/416 
f 399/557/399 415/573/415 416/574/416 
f 401/559/401 416/574/416 417/575/417 
f 416/574/416 401/559/401 400/558/400 
f 418/576/418 402/560/402 401/559/401 
f 418/576/418 401/559/401 417/575/417 
f 402/560/402 419/577/419 403/561/403 
f 419/577/419 402/560/402 418/576/418 
f 420/578/420 403/561/403 419/577/419 
f 403/561/403 420/578/420 404/562/404 
f 421/579/421 404/562/404 420/578/420 
f 404/562/404 421/579/421 405/563/405 
f 406/564/406 421/579/421 422/580/422 
f 421/579/421 406/564/406 405/563/405 
f 407/565/407 422/580/422 423/581/423 
f 422/580/422 407/565/407 406/564/406 
f 407/565/407 408/566/408 392/550/392 
f 408/566/408 407/565/407 423/581/423 
f 424/582/424 409/567/409 408/566/408 
f 409/567/409 424/582/424 410/568/410 
f 411/569/411 424/582/424 412/570/412 
f 410/568/410 424/582/424 411/569/411 
f 424/582/424 414/572/414 413/571/413 
f 424/582/424 413/571/413 412/570/412 
f 415/573/415 424/582/424 416/574/416 
f 414/572/414 424/582/424 415/573/415 
f 416/574/416 424/582/424 417/575/417 
f 424/582/424 418/576/418 417/575/417 
f 424/582/424 420/578/420 419/577/419 
f 424/582/424 419/577/419 418/576/418 
f 421/579/421 424/582/424 422/580/422 
f 420/578/420 424/582/424 421/579/421 
f 424/582/424 408/566/408 423/581/423 
f 424/582/424 423/581/423 422/580/422 
f 425/583/425 426/584/426 427/585/427 
f 425/583/425 428/586/428 426/584/426 
f 429/587/429 430/588/430 431/589/431 
f 431/589/431 432/590/432 429/587/429 
f 433/591/433 434/592/434 435/593/427 
f 434/592/434 433/591/433 436/594/435 
f 437/595/436 438/596/437 439/597/438 
f 438/596/437 437/595/436 440/598/439 
f 439/599/438 436/594/435 433/591/433 
f 436/594/435 439/599/438 438/600/437 
f 441/601/440 442/602/441 443/603/442 
f 443/603/442 442/602/441 444/604/443 
f 445/605/444 446/606/445 447/607/446 
f 447/607/446 446/606/445 448/608/41 
f 449/609/447 441/601/440 432/590/432 
f 432/590/432 441/601/440 443/603/442 
f 442/602/441 445/605/444 444/604/443 
f 444/604/443 445/605/444 447/607/446 
f 434/592/434 450/610/448 435/593/427 
f 435/593/427 450/610/448 431/589/431 
f 451/611/449 437/595/436 452/612/450 
f 437/595/436 451/611/449 440/598/439 
f 453/613/451 454/614/452 455/615/453 
f 453/613/451 456/616/454 454/614/452 
f 425/583/425 457/617/455 428/586/428 
f 457/617/455 425/583/425 458/618/456 
f 459/619/457 460/620/458 450/610/448 
f 450/610/448 460/620/458 449/609/447 
f 430/588/430 461/621/459 462/622/460 
f 461/621/459 430/588/430 429/587/429 
f 463/623/461 464/624/462 465/625/463 
f 464/624/462 463/623/461 466/626/464 
f 436/594/435 467/627/465 434/592/434 
f 467/627/465 436/594/435 468/628/466 
f 469/629/467 470/630/468 471/631/469 
f 470/630/468 469/629/467 472/632/470 
f 440/598/439 473/633/471 438/596/437 
f 473/633/471 440/598/439 474/634/472 
f 472/635/470 465/625/463 470/636/468 
f 465/625/463 472/635/470 463/623/461 
f 438/600/437 468/628/466 436/594/435 
f 468/628/466 438/600/437 473/637/471 
f 475/638/473 476/639/474 477/640/475 
f 476/639/474 475/638/473 478/641/476 
f 479/642/477 480/643/478 441/601/440 
f 441/601/440 480/643/478 442/602/441 
f 481/644/479 482/645/480 483/646/481 
f 482/645/480 484/647/482 483/646/481 
f 485/648/483 486/649/484 445/605/444 
f 446/606/445 445/605/444 486/649/484 
f 429/587/429 477/640/475 461/621/459 
f 477/640/475 429/587/429 475/638/473 
f 460/620/458 479/642/477 449/609/447 
f 449/609/447 479/642/477 441/601/440 
f 478/641/476 481/650/479 476/639/474 
f 481/650/479 478/641/476 482/651/480 
f 480/643/478 485/648/483 442/602/441 
f 442/602/441 485/648/483 445/605/444 
f 466/626/464 462/622/460 464/624/462 
f 462/622/460 466/626/464 430/588/430 
f 467/627/465 459/619/457 434/592/434 
f 434/592/434 459/619/457 450/610/448 
f 471/631/469 487/652/485 488/653/486 
f 471/631/469 488/653/486 469/629/467 
f 489/654/487 428/586/428 457/617/455 
f 428/586/428 489/654/487 451/655/449 
f 453/613/451 426/584/426 456/616/454 
f 426/584/426 453/613/451 427/585/427 
f 450/610/448 449/609/447 431/589/431 
f 431/589/431 449/609/447 432/590/432 
f 433/591/433 466/626/464 463/623/461 
f 466/626/464 433/591/433 435/593/427 
f 437/595/436 472/632/470 469/629/467 
f 472/632/470 437/595/436 439/597/438 
f 439/599/438 463/623/461 472/635/470 
f 463/623/461 439/599/438 433/591/433 
f 443/603/442 478/641/476 475/638/473 
f 478/641/476 443/603/442 444/604/443 
f 447/607/446 484/656/482 482/651/480 
f 447/607/446 448/608/41 484/656/482 
f 432/590/432 475/638/473 429/587/429 
f 475/638/473 432/590/432 443/603/442 
f 444/604/443 482/651/480 478/641/476 
f 482/651/480 444/604/443 447/607/446 
f 435/593/427 430/588/430 466/626/464 
f 430/588/430 435/593/427 431/589/431 
f 452/612/450 437/595/436 488/653/486 
f 488/653/486 437/595/436 469/629/467 
f 457/617/455 458/618/456 490/657/488 
f 457/617/455 490/657/488 489/654/487 
f 454/614/452 491/658/489 455/615/453 
f 491/658/489 454/614/452 487/659/485 
f 426/584/426 451/655/449 452/660/450 
f 451/655/449 426/584/426 428/586/428 
f 456/616/454 487/659/485 454/614/452 
f 487/659/485 456/616/454 488/661/486 
f 489/662/487 474/634/472 451/611/449 
f 451/611/449 474/634/472 440/598/439 
f 426/584/426 488/661/486 456/616/454 
f 488/661/486 426/584/426 452/660/450 
f 492/663/490 493/664/491 494/665/492 
f 494/665/492 493/664/491 495/666/262 
f 496/667/493 497/668/494 498/669/495 
f 498/669/495 497/668/494 499/670/496 
f 500/671/497 501/672/498 502/673/499 
f 501/672/498 500/671/497 503/674/500 
f 504/675/501 505/676/502 506/677/503 
f 505/676/502 504/675/501 507/678/504 
f 503/674/500 506/679/503 501/672/498 
f 506/679/503 503/674/500 504/680/501 
f 508/681/505 509/682/506 510/683/507 
f 510/683/507 511/684/508 508/681/505 
f 512/685/509 448/686/41 446/687/445 
f 446/687/445 513/688/510 512/685/509 
f 496/667/493 508/681/505 511/684/508 
f 511/684/508 514/689/511 496/667/493 
f 509/682/506 512/685/509 513/688/510 
f 513/688/510 510/683/507 509/682/506 
f 502/673/499 497/668/494 515/690/512 
f 515/690/512 500/671/497 502/673/499 
f 507/678/504 516/691/513 505/676/502 
f 505/676/502 516/691/513 517/692/514 
f 518/693/515 519/694/516 520/695/517 
f 520/695/517 519/694/516 521/696/518 
f 493/664/491 522/697/519 523/698/520 
f 522/697/519 493/664/491 492/663/490 
f 460/699/458 515/690/512 514/689/511 
f 515/690/512 460/699/458 459/700/457 
f 461/701/459 498/669/495 499/670/496 
f 499/670/496 462/702/460 461/701/459 
f 524/703/521 525/704/522 464/705/462 
f 525/704/522 465/706/463 464/705/462 
f 467/707/465 503/674/500 500/671/497 
f 503/674/500 467/707/465 468/708/466 
f 526/709/523 527/710/524 470/711/468 
f 470/711/468 527/710/524 471/712/469 
f 473/713/471 507/678/504 504/675/501 
f 507/678/504 473/713/471 474/714/472 
f 525/704/522 526/715/523 465/706/463 
f 526/715/523 470/716/468 465/706/463 
f 468/708/466 504/680/501 503/674/500 
f 504/680/501 468/708/466 473/717/471 
f 528/718/525 529/719/526 476/720/474 
f 529/719/526 477/721/475 476/720/474 
f 480/722/478 511/684/508 510/683/507 
f 511/684/508 480/722/478 479/723/477 
f 484/647/482 530/724/527 483/646/481 
f 530/724/527 481/644/479 483/646/481 
f 513/688/510 446/687/445 486/725/484 
f 513/688/510 486/725/484 485/726/483 
f 477/721/475 529/719/526 498/669/495 
f 498/669/495 461/701/459 477/721/475 
f 479/723/477 514/689/511 511/684/508 
f 514/689/511 479/723/477 460/699/458 
f 530/724/527 528/718/525 481/644/479 
f 528/718/525 476/720/474 481/644/479 
f 485/726/483 510/683/507 513/688/510 
f 510/683/507 485/726/483 480/722/478 
f 462/702/460 499/670/496 524/703/521 
f 462/702/460 524/703/521 464/705/462 
f 459/700/457 500/671/497 515/690/512 
f 500/671/497 459/700/457 467/707/465 
f 527/710/524 531/727/528 471/712/469 
f 487/728/485 471/712/469 531/727/528 
f 516/729/513 489/730/487 492/663/490 
f 492/663/490 489/730/487 522/697/519 
f 494/665/492 519/694/516 518/693/515 
f 519/694/516 494/665/492 495/666/262 
f 514/689/511 497/668/494 496/667/493 
f 497/668/494 514/689/511 515/690/512 
f 502/673/499 501/672/498 524/703/521 
f 501/672/498 525/704/522 524/703/521 
f 506/677/503 505/676/502 526/709/523 
f 526/709/523 505/676/502 527/710/524 
f 501/672/498 506/679/503 525/704/522 
f 506/679/503 526/715/523 525/704/522 
f 509/682/506 508/681/505 528/718/525 
f 508/681/505 529/719/526 528/718/525 
f 448/686/41 512/685/509 484/647/482 
f 512/685/509 530/724/527 484/647/482 
f 508/681/505 496/667/493 529/719/526 
f 529/719/526 496/667/493 498/669/495 
f 512/685/509 509/682/506 530/724/527 
f 509/682/506 528/718/525 530/724/527 
f 497/668/494 502/673/499 499/670/496 
f 499/670/496 502/673/499 524/703/521 
f 531/727/528 527/710/524 505/676/502 
f 505/676/502 517/692/514 531/727/528 
f 490/731/488 522/697/519 489/730/487 
f 522/697/519 490/731/488 523/698/520 
f 491/732/489 520/695/517 521/696/518 
f 520/695/517 491/732/489 487/733/485 
f 516/729/513 494/665/492 517/734/514 
f 494/665/492 516/729/513 492/663/490 
f 518/693/515 487/733/485 531/735/528 
f 487/733/485 518/693/515 520/695/517 
f 474/714/472 516/691/513 507/678/504 
f 474/714/472 489/736/487 516/691/513 
f 494/665/492 531/735/528 517/734/514 
f 531/735/528 494/665/492 518/693/515 
# 0 polygons - 1020 triangles

