# 3ds Max Wavefront OBJ Exporter v0.97b - (c)2007 guruware
# File Created: 21.05.2020 17:02:38

mtllib torch.mtl

#
# object Torch
#

v  -140.1239 1651.9314 19.0477
v  -94.0630 1630.2379 24.2595
v  -65.9723 1668.7656 25.3995
v  -107.6759 1694.4778 21.6282
v  -103.8609 1694.1504 -19.4683
v  -131.9279 1652.9788 -37.4086
v  -70.3847 1739.4596 -26.7338
v  -31.5539 1710.5259 -24.2053
v  -66.1953 1677.7294 -23.7719
v  -173.4318 1602.9388 14.9933
v  -130.0452 1574.4739 17.0086
v  -92.9664 1631.2103 -25.2669
v  -191.4754 1560.7988 3.2886
v  -164.3291 1532.9847 11.0283
v  -72.3735 1751.6042 24.7476
v  -171.0511 1605.3417 -36.8577
v  -129.2836 1576.2325 -34.5719
v  -157.3135 1536.0938 -33.2986
v  -196.3854 1569.1559 -40.7960
v  -47.7209 1783.2861 26.1892
v  -40.7337 1778.9056 -9.5229
v  -37.2399 1716.9519 33.1570
v  -8.5054 1765.6467 25.0779
v  -9.3123 1751.7303 -12.7272
v  -154.2583 1594.0010 -60.6077
v  -145.6299 1638.3514 -61.0515
v  -133.0939 1633.6575 -110.0575
v  -139.9279 1588.7865 -104.7630
v  92.7402 1536.1746 -26.4827
v  103.9135 1579.0188 -26.7733
v  150.9825 1567.6808 -9.0348
v  139.8831 1521.9806 -11.4294
v  137.0674 1576.9991 31.2237
v  123.5070 1527.9822 29.6588
v  -53.8213 1610.8287 -80.3961
v  -65.3527 1561.2554 -73.6970
v  73.8283 1541.1262 19.0169
v  -79.6536 1567.2043 -30.0429
v  88.9061 1586.8027 16.7998
v  -69.6939 1615.8074 -35.7023
v  161.3280 1644.9055 4.1842
v  181.7522 1624.1550 -26.5563
v  96.1531 1623.9882 -92.8161
v  74.6519 1651.4438 -59.2946
v  50.3226 1619.7712 -121.4449
v  26.2615 1649.2930 -84.4003
v  78.5720 1584.0570 -70.2259
v  33.5417 1577.7048 -99.6713
v  31.8394 1651.3081 -50.5193
v  63.9224 1638.7739 -12.9603
v  -26.7070 1613.1561 48.9584
v  -57.1529 1614.5031 21.0640
v  1.9517 1618.9663 -156.6174
v  -21.8091 1648.4161 -123.0230
v  59.4797 1609.6825 -36.2718
v  12.0925 1607.6061 -62.7198
v  -38.3807 1616.5632 -188.8244
v  -63.4053 1652.2189 -153.6742
v  163.2301 1591.0319 -11.0026
v  142.1348 1613.2549 18.6180
v  -12.0872 1576.1647 -135.0341
v  -35.9833 1605.3644 -100.2779
v  -78.5521 1604.3865 -124.5035
v  -50.9462 1570.1493 -160.9211
v  35.7800 1562.8088 63.7316
v  46.3720 1562.9719 113.5800
v  -46.5887 1625.0790 127.8942
v  -64.5756 1622.7749 90.7724
v  57.5644 1686.6958 6.0926
v  23.8239 1698.6318 -31.5347
v  -63.7273 1662.6953 32.5746
v  -30.5236 1650.2747 66.6006
v  -69.3033 1585.5667 74.4679
v  -98.6979 1598.3855 38.0947
v  88.0902 1695.0708 -29.0696
v  68.5198 1712.6729 -58.6942
v  -79.8885 1626.8993 105.7943
v  68.9580 1671.0131 -75.6656
v  98.3551 1651.9529 -37.6068
v  -112.0158 1613.4318 125.7946
v  -111.0696 1582.7561 105.7578
v  -105.2929 1647.6532 67.9820
v  -144.1697 1618.1061 97.6077
v  -132.9035 1590.0055 71.0189
v  70.1322 1608.6515 106.5959
v  57.9228 1608.8087 56.1220
v  -39.7525 1664.1367 77.6864
v  -27.7586 1661.7146 125.2764
v  -99.8911 1641.9600 137.9070
v  -108.4547 1641.4854 90.1805
v  103.2677 1578.8571 90.7002
v  104.2136 1581.1514 51.1491
v  -85.2792 1692.7389 141.0338
v  79.8140 1543.4995 54.4266
v  84.0870 1540.9360 105.9156
v  -120.8140 1710.7130 146.3039
v  -137.2662 1678.1151 143.1315
v  -85.5031 1694.7449 91.0157
v  -137.8723 1711.1714 106.8193
v  -144.0308 1671.5823 102.5405
v  -345.2729 1815.9858 7.6916
v  -345.8239 1824.7135 6.9706
v  -368.6044 1824.7135 -1.1364
v  -368.6044 1819.3997 -0.8842
v  -289.9514 1749.7347 -26.5223
v  -247.9288 1687.3682 -25.9157
v  -258.4461 1680.9685 -26.0221
v  -299.3227 1747.7633 -26.7654
v  -291.3286 1748.7488 19.6102
v  -313.8502 1797.0310 14.9567
v  -321.5254 1791.1885 15.8396
v  -299.8839 1747.7633 19.5002
v  -210.0270 1636.3346 -25.6680
v  -231.3381 1678.3217 -25.9029
v  -231.8182 1678.3217 20.2082
v  -210.5255 1636.3346 20.3842
v  -220.9206 1633.3771 -25.8244
v  -221.4099 1633.3771 20.2576
v  -243.3506 1667.8667 20.0735
v  -242.8162 1667.8667 -26.0708
v  -176.1723 1548.5981 19.7825
v  -169.2515 1551.2330 19.9362
v  -248.3907 1687.3682 20.2543
v  -259.0256 1680.9685 20.1843
v  -321.1083 1791.2075 -23.7757
v  -368.6044 1819.5103 -9.7773
v  -368.6044 1824.7135 -9.2613
v  -345.1936 1824.7135 -15.8197
v  -344.6675 1815.8604 -16.5567
v  -313.2355 1797.0121 -22.5096
v  -218.8976 1686.3601 18.3680
v  -218.1773 1686.3601 -23.4013
v  -217.9816 1713.1855 -21.7390
v  -218.9631 1713.1855 16.1377
v  -225.8586 1716.5199 -21.4783
v  -226.8323 1716.5199 16.4465
v  -230.4110 1692.5507 -23.2811
v  -231.1182 1692.5507 18.5413
v  -168.0872 1551.2329 -20.6249
v  -175.6452 1548.5980 -20.6088
v  7.6918 1815.9858 345.2726
v  6.9708 1824.7135 345.8237
v  -1.1361 1824.7135 368.6043
v  -0.8839 1819.3997 368.6043
v  -26.5221 1749.7347 289.9511
v  -25.9155 1687.3682 247.9286
v  -26.0220 1680.9685 258.4459
v  -26.7653 1747.7633 299.3225
v  19.6104 1748.7488 291.3284
v  14.9569 1797.0310 313.8500
v  15.8397 1791.1885 321.5252
v  19.5003 1747.7633 299.8837
v  -25.6678 1636.3346 210.0269
v  -25.9027 1678.3217 231.3379
v  20.2084 1678.3217 231.8180
v  20.3844 1636.3346 210.5253
v  -25.8241 1633.3771 220.9204
v  20.2577 1633.3771 221.4096
v  20.0737 1667.8667 243.3504
v  -26.0705 1667.8667 242.8160
v  19.7827 1548.5981 176.1721
v  19.9364 1551.2330 169.2513
v  20.2545 1687.3682 248.3904
v  20.1846 1680.9685 259.0254
v  -23.7755 1791.2075 321.1081
v  -9.7771 1819.5103 368.6043
v  -9.2611 1824.7135 368.6043
v  -15.8195 1824.7135 345.1935
v  -16.5565 1815.8604 344.6672
v  -22.5094 1797.0121 313.2353
v  18.3682 1686.3601 218.8974
v  -23.4011 1686.3601 218.1770
v  -21.7387 1713.1855 217.9813
v  16.1380 1713.1855 218.9629
v  -21.4781 1716.5199 225.8583
v  16.4466 1716.5199 226.8320
v  -23.2809 1692.5507 230.4108
v  18.5416 1692.5507 231.1180
v  -20.6247 1551.2329 168.0870
v  -20.6086 1548.5979 175.6450
v  345.2729 1815.9858 -7.6920
v  345.8239 1824.7135 -6.9710
v  368.6044 1824.7135 1.1358
v  368.6044 1819.3997 0.8837
v  289.9514 1749.7347 26.5219
v  247.9288 1687.3682 25.9153
v  258.4461 1680.9685 26.0218
v  299.3226 1747.7633 26.7651
v  291.3286 1748.7488 -19.6106
v  313.8501 1797.0310 -14.9570
v  321.5254 1791.1885 -15.8400
v  299.8839 1747.7633 -19.5005
v  210.0270 1636.3346 25.6676
v  231.3381 1678.3217 25.9026
v  231.8182 1678.3217 -20.2085
v  210.5255 1636.3346 -20.3846
v  220.9206 1633.3771 25.8240
v  221.4099 1633.3771 -20.2579
v  243.3506 1667.8667 -20.0739
v  242.8162 1667.8667 26.0704
v  176.1722 1548.5981 -19.7828
v  169.2514 1551.2330 -19.9366
v  248.3906 1687.3682 -20.2547
v  259.0256 1680.9685 -20.1849
v  321.1083 1791.2075 23.7753
v  368.6044 1819.5103 9.7769
v  368.6044 1824.7135 9.2609
v  345.1936 1824.7135 15.8194
v  344.6674 1815.8604 16.5562
v  313.2355 1797.0121 22.5092
v  218.8976 1686.3601 -18.3683
v  218.1773 1686.3601 23.4009
v  217.9816 1713.1855 21.7384
v  218.9630 1713.1855 -16.1381
v  225.8586 1716.5199 21.4779
v  226.8322 1716.5199 -16.4469
v  230.4110 1692.5507 23.2807
v  231.1181 1692.5507 -18.5417
v  168.0872 1551.2329 20.6245
v  175.6451 1548.5980 20.6084
v  -7.6918 1815.9858 -345.2731
v  -6.9708 1824.7135 -345.8242
v  1.1361 1824.7135 -368.6047
v  0.8839 1819.3997 -368.6047
v  26.5221 1749.7347 -289.9516
v  25.9155 1687.3682 -247.9290
v  26.0220 1680.9685 -258.4463
v  26.7653 1747.7633 -299.3229
v  -19.6104 1748.7488 -291.3288
v  -14.9569 1797.0310 -313.8504
v  -15.8397 1791.1885 -321.5256
v  -19.5003 1747.7633 -299.8841
v  25.6678 1636.3346 -210.0272
v  25.9027 1678.3217 -231.3383
v  -20.2084 1678.3218 -231.8184
v  -20.3844 1636.3346 -210.5257
v  25.8241 1633.3771 -220.9209
v  -20.2577 1633.3771 -221.4101
v  -20.0737 1667.8665 -243.3508
v  26.0705 1667.8667 -242.8163
v  -19.7827 1548.5980 -176.1725
v  -19.9364 1551.2330 -169.2516
v  -20.2545 1687.3682 -248.3909
v  -20.1846 1680.9685 -259.0258
v  23.7755 1791.2075 -321.1085
v  9.7771 1819.5103 -368.6047
v  9.2611 1824.7135 -368.6047
v  15.8195 1824.7135 -345.1938
v  16.5565 1815.8604 -344.6677
v  22.5094 1797.0121 -313.2357
v  -18.3682 1686.3601 -218.8978
v  23.4011 1686.3601 -218.1776
v  21.7387 1713.1855 -217.9819
v  -16.1380 1713.1855 -218.9632
v  21.4781 1716.5199 -225.8588
v  -16.4466 1716.5199 -226.8325
v  23.2809 1692.5507 -230.4112
v  -18.5416 1692.5507 -231.1184
v  20.6247 1551.2328 -168.0874
v  20.6086 1548.5979 -175.6454
v  238.7059 1815.9858 -249.5840
v  239.6053 1824.7135 -249.4637
v  261.4460 1824.7135 -259.8395
v  261.2677 1819.3997 -260.0179
v  223.7805 1749.7347 -186.2728
v  193.6372 1687.3682 -156.9874
v  201.1493 1680.9685 -164.3489
v  230.5789 1747.7633 -192.7274
v  192.1337 1748.7488 -219.8672
v  211.3494 1797.0310 -232.5019
v  216.1524 1791.1885 -238.5534
v  198.2612 1747.7633 -225.8389
v  166.6614 1636.3346 -130.3618
v  181.8967 1678.3217 -145.2650
v  149.6307 1678.3217 -178.2099
v  134.4501 1636.3346 -163.2781
v  174.4749 1633.3771 -137.9542
v  142.2361 1633.3771 -170.8850
v  157.8806 1667.8667 -186.2694
v  190.1316 1667.8665 -153.2625
v  81.4980 1521.1949 -101.6682
v  86.1332 1519.1747 -106.1605
v  21.8910 1484.6655 -49.0968
v  17.0925 1487.1930 -44.5068
v  161.3166 1687.3682 -189.9611
v  168.8861 1680.9685 -197.4317
v  243.8696 1791.2075 -210.2463
v  267.5561 1819.5103 -253.7294
v  267.1912 1824.7135 -254.0943
v  255.2748 1824.7135 -232.9029
v  255.4239 1815.8604 -232.0097
v  237.4075 1797.0121 -205.5746
v  141.7957 1686.3601 -167.7725
v  170.8217 1686.3601 -137.7278
v  169.5079 1713.1855 -138.7650
v  143.4190 1713.1855 -166.2417
v  174.8934 1716.5199 -144.5190
v  148.7651 1716.5199 -172.0244
v  179.3873 1692.5507 -146.4633
v  150.3143 1692.5507 -176.5363
v  103.2048 1521.1951 -79.1200
v  43.8147 1487.1930 -16.2053
v  107.9669 1519.1747 -83.8087
v  48.9302 1484.6655 -21.3426
v  -249.5837 1815.9858 -238.7061
v  -249.4635 1824.7135 -239.6055
v  -259.8393 1824.7135 -261.4463
v  -260.0176 1819.3997 -261.2679
v  -186.2726 1749.7347 -223.7807
v  -156.9872 1687.3682 -193.6374
v  -164.3487 1680.9685 -201.1496
v  -192.7272 1747.7633 -230.5792
v  -219.8670 1748.7488 -192.1340
v  -232.5017 1797.0310 -211.3497
v  -238.5531 1791.1885 -216.1526
v  -225.8387 1747.7633 -198.2614
v  -130.3617 1636.3346 -166.6617
v  -145.2648 1678.3217 -181.8969
v  -178.2097 1678.3217 -149.6309
v  -163.2779 1636.3346 -134.4502
v  -137.9541 1633.3771 -174.4751
v  -170.8848 1633.3771 -142.2362
v  -186.2691 1667.8669 -157.8808
v  -153.2623 1667.8667 -190.1319
v  -101.6680 1521.1951 -81.4982
v  -106.1604 1519.1748 -86.1334
v  -49.0966 1484.6655 -21.8911
v  -44.5066 1487.1930 -17.0927
v  -189.9608 1687.3682 -161.3168
v  -197.4314 1680.9685 -168.8863
v  -210.2460 1791.2075 -243.8699
v  -253.7292 1819.5103 -267.5564
v  -254.0941 1824.7135 -267.1915
v  -232.9026 1824.7135 -255.2751
v  -232.0095 1815.8604 -255.4241
v  -205.5743 1797.0121 -237.4078
v  -167.7722 1686.3601 -141.7959
v  -137.7276 1686.3601 -170.8220
v  -138.7647 1713.1855 -169.5081
v  -166.2415 1713.1855 -143.4192
v  -144.5188 1716.5199 -174.8937
v  -172.0242 1716.5199 -148.7653
v  -146.4631 1692.5507 -179.3875
v  -176.5361 1692.5507 -150.3145
v  -79.1198 1521.1951 -103.2050
v  -16.2051 1487.1930 -43.8148
v  -83.8085 1519.1748 -107.9671
v  -21.3424 1484.6655 -48.9304
v  -238.7059 1815.9858 249.5836
v  -239.6053 1824.7135 249.4633
v  -261.4460 1824.7135 259.8391
v  -261.2677 1819.3997 260.0174
v  -223.7805 1749.7347 186.2724
v  -193.6371 1687.3682 156.9870
v  -201.1493 1680.9685 164.3484
v  -230.5789 1747.7633 192.7269
v  -192.1337 1748.7488 219.8669
v  -211.3494 1797.0310 232.5016
v  -216.1524 1791.1885 238.5530
v  -198.2611 1747.7633 225.8387
v  -166.6614 1636.3346 130.3616
v  -181.8967 1678.3217 145.2646
v  -149.6307 1678.3217 178.2095
v  -134.4500 1636.3346 163.2778
v  -174.4749 1633.3771 137.9539
v  -142.2360 1633.3771 170.8845
v  -157.8806 1667.8667 186.2690
v  -190.1316 1667.8667 153.2621
v  -81.4980 1521.1951 101.6678
v  -86.1332 1519.1748 106.1602
v  -21.8910 1484.6655 49.0965
v  -17.0925 1487.1930 44.5065
v  -161.3166 1687.3682 189.9607
v  -168.8861 1680.9685 197.4312
v  -243.8696 1791.2075 210.2459
v  -267.5561 1819.5103 253.7291
v  -267.1912 1824.7135 254.0939
v  -255.2748 1824.7135 232.9025
v  -255.4239 1815.8604 232.0093
v  -237.4075 1797.0121 205.5742
v  -141.7957 1686.3601 167.7721
v  -170.8217 1686.3601 137.7274
v  -169.5079 1713.1855 138.7646
v  -143.4190 1713.1855 166.2413
v  -174.8934 1716.5199 144.5187
v  -148.7651 1716.5199 172.0240
v  -179.3872 1692.5507 146.4630
v  -150.3143 1692.5507 176.5360
v  -103.2048 1521.1951 79.1197
v  -43.8147 1487.1930 16.2049
v  -107.9669 1519.1748 83.8083
v  -48.9301 1484.6655 21.3423
v  249.5837 1815.9858 238.7056
v  249.4635 1824.7135 239.6051
v  259.8393 1824.7135 261.4458
v  260.0176 1819.3997 261.2675
v  186.2727 1749.7347 223.7802
v  156.9872 1687.3682 193.6369
v  164.3487 1680.9685 201.1492
v  192.7272 1747.7633 230.5788
v  219.8670 1748.7488 192.1335
v  232.5017 1797.0310 211.3491
v  238.5532 1791.1885 216.1522
v  225.8388 1747.7633 198.2609
v  130.3617 1636.3346 166.6613
v  145.2648 1678.3217 181.8964
v  178.2097 1678.3217 149.6306
v  163.2780 1636.3346 134.4498
v  137.9541 1633.3771 174.4747
v  170.8848 1633.3771 142.2359
v  186.2691 1667.8667 157.8804
v  153.2624 1667.8667 190.1314
v  101.6680 1521.1951 81.4978
v  106.1604 1519.1748 86.1330
v  49.0966 1484.6655 21.8908
v  44.5066 1487.1930 17.0923
v  189.9608 1687.3682 161.3163
v  197.4315 1680.9685 168.8858
v  210.2461 1791.2075 243.8694
v  253.7292 1819.5103 267.5560
v  254.0941 1824.7135 267.1909
v  232.9027 1824.7135 255.2746
v  232.0095 1815.8604 255.4237
v  205.5744 1797.0121 237.4073
v  167.7722 1686.3601 141.7955
v  137.7276 1686.3601 170.8216
v  138.7647 1713.1855 169.5076
v  166.2415 1713.1855 143.4189
v  144.5188 1716.5199 174.8932
v  172.0242 1716.5199 148.7648
v  146.4632 1692.5507 179.3871
v  176.5361 1692.5507 150.3141
v  79.1198 1521.1951 103.2045
v  16.2051 1487.1930 43.8145
v  83.8085 1519.1748 107.9668
v  21.3424 1484.6655 48.9300
v  0.6525 632.1876 -0.4519
v  33.4375 598.4375 56.9922
v  66.7969 598.4375 -0.1053
v  34.0234 598.4375 -57.5781
v  -32.1289 598.4375 -57.9297
v  -65.5078 598.4375 -0.7983
v  -32.7148 598.4375 56.6797
v  -32.1289 553.1250 -57.9297
v  0.6519 519.3749 -0.4517
v  -65.5078 553.1250 -0.7983
v  34.0234 553.1250 -57.5781
v  -32.7148 553.1250 56.6797
v  33.4180 553.1250 56.9922
v  66.7969 553.1250 -0.1052
v  -43.7298 1695.3140 -246.8544
v  -121.8156 1695.3138 -215.7926
v  -125.9449 1690.3835 -222.4487
v  -45.3014 1690.3835 -254.4966
v  247.2896 1695.3138 -17.2268
v  275.7628 1753.4922 -18.0819
v  256.7806 1753.4922 -110.0348
v  230.2795 1695.3138 -99.4959
v  196.5911 1558.7042 19.8703
v  196.5911 1558.7042 -19.8707
v  102.8315 1542.0554 -24.7416
v  102.8315 1542.0554 24.7413
v  -264.8600 1753.4922 -1.7921
v  -236.3868 1695.3138 -2.6512
v  -224.3071 1695.3138 -85.8139
v  -251.4246 1753.4922 -94.7502
v  -184.4939 1695.3138 -159.8322
v  -136.7919 1753.4922 -239.9519
v  -206.9274 1753.4919 -177.4584
v  -41.2511 190.9029 -70.2536
v  -28.0273 214.0625 -46.7969
v  27.9492 214.0625 -46.7969
v  41.1730 190.9029 -70.2536
v  -28.0273 214.0625 47.6563
v  -55.3125 214.0625 0.4202
v  -82.0814 190.9029 0.4181
v  -41.2511 190.9029 71.1130
v  -218.1441 1744.6182 -186.3333
v  -144.3108 1744.6182 -252.1545
v  -190.6570 1690.3835 -164.6393
v  -231.7028 1690.3835 -88.2792
v  106.1557 1613.4681 -219.6137
v  99.9926 1622.3430 -206.6714
v  161.4999 1622.3430 -162.4207
v  171.8537 1613.4681 -172.5280
v  207.3530 1753.4922 -189.9077
v  186.0287 1695.3138 -171.0489
v  -294.8758 4.8241 25.0164
v  -129.4624 100.3482 31.1489
v  -147.8273 122.5089 31.1489
v  -317.4589 21.3633 25.0164
v  204.2714 1622.3430 -99.8656
v  217.3371 1613.4681 -105.7821
v  -244.2755 1690.3835 -2.4162
v  409.0663 59.0256 -11.1574
v  409.0663 59.0256 11.1640
v  415.1750 51.1275 11.1640
v  415.1750 51.1275 -11.1574
v  -33.3155 1477.2639 57.6984
v  -37.5331 1501.0775 65.0108
v  -65.0110 1501.0775 37.5524
v  -57.6986 1477.2639 33.3154
v  60.4258 1753.4922 254.9412
v  54.6325 1695.3138 226.9611
v  -29.3699 1695.3138 229.5496
v  -33.4683 1753.4922 257.6530
v  133.5196 1753.4922 -248.0870
v  120.0842 1695.3138 -223.0650
v  235.2099 1695.3138 65.9206
v  262.2041 1753.4922 74.8569
v  -109.1814 1695.3138 203.1715
v  -122.6785 1753.4922 228.3169
v  -245.7546 1753.4922 90.2029
v  -219.3767 1695.3138 79.6640
v  -49.5230 1753.4919 -274.8346
v  136.8476 1690.3835 202.5553
v  155.2135 1744.6182 232.2613
v  63.3224 1744.6182 268.9930
v  56.2041 1690.3835 234.6031
v  -35.5329 1744.6182 271.9513
v  223.1304 1622.3430 -26.4328
v  237.4287 1613.4681 -27.5268
v  229.0469 1744.6182 166.4398
v  217.8301 1753.4922 157.5651
v  147.6946 1753.4922 220.0584
v  46.4357 1744.6182 -291.8445
v  44.3711 1753.4922 -277.5465
v  140.4222 1744.6182 -260.7828
v  -180.9193 1690.3835 156.3324
v  -175.1261 1695.3138 151.1555
v  -112.8792 1690.3835 210.0742
v  -125.6984 1613.4681 -201.9874
v  -117.6248 1622.3430 -190.1544
v  -48.5986 1622.3430 -221.3393
v  -52.1423 1613.4681 -235.2678
v  276.0093 1744.6182 79.3560
v  -16.0885 1622.3430 207.2393
v  -17.5060 1613.4681 221.5376
v  63.0451 1613.4681 215.3744
v  59.5014 1622.3430 201.5694
v  237.5519 1690.3835 -102.3925
v  255.0549 1690.3835 -17.4580
v  -52.4197 1744.6182 -288.8864
v  -218.5139 1613.4681 -72.7482
v  -226.5259 1613.4681 7.6488
v  -212.2277 1622.3430 6.5626
v  -204.7087 1622.3430 -68.8655
v  40.2726 1695.3136 -249.4429
v  41.4128 1690.3835 -257.0850
v  -206.4343 1613.4681 85.8889
v  -160.9511 1613.4681 152.6346
v  -150.5971 1622.3430 142.6504
v  -193.3687 1622.3430 80.0339
v  123.7820 1690.3835 -229.9676
v  191.9453 1690.3835 -176.2259
v  -31.1489 122.5089 147.8273
v  -31.3435 194.4562 54.2834
v  -31.4895 159.8676 54.5429
v  -31.1489 100.3482 129.4624
v  27.9492 214.0625 47.6563
v  55.1953 214.0625 0.4218
v  147.8273 122.5089 -31.1489
v  147.8273 122.5089 31.1489
v  317.4589 21.3633 25.0164
v  317.4589 21.3633 -25.0164
v  -265.1067 1744.6182 -99.2493
v  -129.3962 1744.6182 240.8897
v  -207.0506 1744.6182 179.6288
v  290.0612 1744.6182 -18.5133
v  242.6056 1690.3835 68.3857
v  -279.1583 1744.6182 -1.3607
v  -182.5217 1559.2332 4.3208
v  -166.3744 1559.2332 67.7695
v  24.0638 1559.2332 -197.5500
v  28.4087 1613.4681 -241.4310
v  87.1118 1559.2332 -179.9236
v  201.5598 1690.3835 144.7460
v  19.8705 1608.1895 -325.3498
v  10.9275 1575.3789 -406.3779
v  -10.9210 1575.3789 -406.3779
v  -19.8705 1608.1890 -325.3498
v  -196.4502 1753.4922 170.1378
v  -54.2834 194.4562 31.3436
v  -54.5429 159.8676 31.5058
v  -226.6491 1690.3835 82.4991
v  -259.1901 1744.6182 95.5032
v  136.6011 1613.4681 182.0940
v  52.1365 1559.2332 172.7262
v  111.8257 1559.2332 145.7320
v  -176.1121 1559.2332 -60.8535
v  217.9534 1744.6182 -199.5222
v  -23.2166 21.4132 -379.8961
v  23.2166 21.4132 -379.8961
v  11.1640 59.0256 -409.0664
v  -11.1574 59.0256 -409.0664
v  132.6568 1695.3138 195.8994
v  -54.2834 194.4562 -31.3435
v  -31.3435 194.4562 -54.2834
v  -31.5058 159.8676 -54.5429
v  -54.5429 159.8676 -31.5058
v  195.3967 1695.3138 139.9387
v  128.5891 1622.3430 170.2610
v  -89.0898 1622.3430 186.7781
v  -95.2529 1613.4681 199.7204
v  229.4167 1613.4681 52.8549
v  215.6114 1622.3430 49.0028
v  194.4106 1613.4681 125.6405
v  182.8240 1622.3430 117.3203
v  -30.4946 1690.3835 237.3150
v  -183.5078 1613.4681 -145.5338
v  -171.9212 1622.3430 -137.1521
v  270.0928 1744.6182 -115.3349
v  -124.3425 1565.1495 116.8890
v  -73.1275 1565.1495 153.6207
v  -129.4624 100.3482 -31.1489
v  26.9913 1622.3430 -227.1327
v  -76.2090 1559.2332 160.0303
v  -13.1533 1559.2332 177.6566
v  158.6649 1559.2332 100.0022
v  187.0149 1559.2332 40.9602
v  -129.3962 1559.2332 121.8194
v  -100.9229 1559.2332 -165.6254
v  -41.2338 1559.2332 -192.6196
v  -147.7621 1559.2332 -119.8956
v  193.4244 1559.2332 -24.1987
v  140.2989 1559.2333 -141.7127
v  177.2773 1559.2332 -87.6628
v  23.2166 6.3329 -380.1372
v  -23.2166 6.3331 -380.1372
v  -11.1574 51.1275 -415.1750
v  11.1640 51.1275 -415.1750
v  -96.9170 1565.1495 -159.8322
v  -141.9688 1565.1495 -115.7662
v  23.3705 1565.1495 -190.5241
v  -39.4773 1565.1494 -185.8402
v  -12.4600 1565.1495 170.6308
v  50.4109 1565.1495 165.9468
v  107.8197 1565.1495 139.9387
v  152.8717 1565.1495 95.8729
v  180.2355 1565.1495 39.0804
v  84.0303 1565.1495 -173.5141
v  135.2453 1565.1494 -136.7823
v  -159.9649 1565.1495 64.8727
v  -175.4958 1565.1495 3.7892
v  -169.3327 1565.1495 -58.9430
v  170.8677 1565.1495 -84.7046
v  186.3986 1565.1495 -23.6595
v  -209.1680 1543.6533 19.8703
v  -252.1563 1596.4351 19.8703
v  -252.1563 1596.4351 -19.8707
v  -209.1680 1543.6533 -19.8707
v  11.1574 59.0255 409.0664
v  -11.1640 59.0255 409.0664
v  -11.1640 51.1275 415.1750
v  11.1574 51.1275 415.1750
v  400.3983 1568.6782 -10.9212
v  406.3776 1575.3790 -10.9212
v  406.3776 1575.3790 10.9273
v  400.3983 1568.6782 10.9273
v  23.2166 21.4218 379.8961
v  25.0164 21.3633 317.4589
v  -25.0164 21.3633 317.4589
v  -23.2166 21.4218 379.8961
v  129.4624 100.3482 -31.1489
v  294.8758 4.8223 -25.0164
v  -234.2186 1607.8220 -19.8707
v  -234.2186 1607.8220 19.8702
v  -196.5911 1558.7042 19.8703
v  -196.5911 1558.7042 -19.8707
v  -19.8705 1597.0020 -325.1435
v  -10.9210 1568.6782 -400.3985
v  10.9275 1568.6782 -400.3985
v  19.8705 1597.0020 -325.1435
v  129.4624 100.3482 31.1489
v  294.8758 4.8229 25.0164
v  -147.8273 122.5089 -31.1489
v  -317.4589 21.3633 -25.0164
v  -294.8758 4.8241 -25.0164
v  10.9210 1568.6783 400.3982
v  10.9210 1575.3790 406.3775
v  -10.9275 1575.3790 406.3775
v  -10.9275 1568.6783 400.3982
v  -409.0663 59.0256 11.1574
v  -409.0663 59.0256 -11.1640
v  -415.1750 51.1275 -11.1640
v  -415.1750 51.1275 11.1574
v  -24.7414 1542.0555 102.8313
v  -24.7414 1526.7983 117.4186
v  -19.8705 1543.6534 209.1680
v  -19.8705 1558.7043 196.5909
v  -65.0110 1501.0775 -37.5526
v  -102.8315 1542.0554 -24.7416
v  -102.8315 1542.0554 24.7413
v  19.8705 1543.6534 209.1680
v  19.8705 1596.4351 252.1562
v  -19.8705 1596.4351 252.1562
v  31.1489 122.5089 147.8273
v  31.3435 194.4562 54.2834
v  31.1489 100.3482 129.4624
v  25.0164 4.8241 294.8758
v  -25.0164 4.8241 294.8758
v  31.5058 159.8676 54.5429
v  380.1372 6.3332 23.2166
v  380.1372 6.3330 -23.2166
v  379.8961 21.4132 23.2166
v  379.8961 21.4132 -23.2166
v  25.0164 4.8223 -294.8758
v  25.0164 21.3633 -317.4589
v  31.1489 122.5089 -147.8273
v  31.1489 100.3482 -129.4624
v  -23.2166 6.3348 380.1372
v  31.5058 159.8676 -54.5429
v  -31.1489 100.3482 -129.4624
v  23.2166 6.3347 380.1372
v  -31.1489 122.5089 -147.8273
v  -379.8961 21.4219 -23.2166
v  -380.1372 6.3346 -23.2166
v  -25.0164 21.3633 -317.4589
v  -25.0164 4.8229 -294.8758
v  -380.1372 6.3348 23.2166
v  -379.8961 21.4219 23.2166
v  54.2834 194.4562 -31.3435
v  54.2834 194.4562 31.3436
v  19.8705 1596.9957 325.1432
v  -19.8705 1596.9957 325.1432
v  209.1680 1543.6533 -19.8707
v  252.1563 1596.4351 -19.8707
v  252.1563 1596.4351 19.8703
v  209.1680 1543.6533 19.8703
v  -53.6182 210.3447 -0.8758
v  -26.6675 210.3447 46.3470
v  -21.8898 1496.0076 38.1399
v  -44.0131 1496.0076 -0.6388
v  54.5429 159.8676 31.4896
v  31.3435 194.4562 -54.2834
v  -57.6986 1477.2639 -33.3157
v  -37.5525 1501.0775 -65.0112
v  -33.3155 1477.2639 -57.6987
v  54.5429 159.8676 -31.5058
v  22.7402 1496.0076 38.3733
v  27.7010 210.3447 46.6313
v  55.1188 210.3447 -0.3062
v  45.2469 1496.0076 -0.1713
v  -26.1801 210.3447 -47.8079
v  -21.4897 1496.0076 -39.1830
v  28.1884 210.3447 -47.5235
v  23.1403 1496.0076 -38.9497
v  41.1730 190.9029 71.1130
v  82.0033 190.9029 0.4185
v  -400.3983 1568.6782 10.9208
v  -406.3776 1575.3790 10.9208
v  -406.3776 1575.3790 -10.9277
v  -400.3983 1568.6782 -10.9277
v  33.3155 1477.2639 57.6984
v  24.7414 1526.7983 117.4186
v  234.2186 1607.8232 -19.8707
v  24.7414 1542.0555 102.8313
v  37.5525 1501.0775 65.0108
v  325.3496 1608.1890 19.8702
v  325.3496 1608.1895 -19.8707
v  234.2186 1607.8228 19.8702
v  325.1433 1597.0020 -19.8707
v  325.1433 1597.0020 19.8703
v  -19.8705 1543.6533 -209.1682
v  -19.8705 1596.4349 -252.1565
v  19.8705 1596.4349 -252.1565
v  19.8705 1543.6533 -209.1682
v  -19.8705 1608.1879 325.3494
v  -19.8705 1607.8220 234.2184
v  19.8705 1558.7043 196.5909
v  24.7414 1542.0554 -102.8316
v  19.8705 1558.7042 -196.5913
v  -19.8705 1558.7042 -196.5913
v  -24.7414 1542.0554 -102.8316
v  37.5525 1501.0775 -65.0112
v  19.8705 1608.1882 325.3494
v  19.8705 1607.8220 234.2184
v  -24.7414 1526.7981 -117.4188
v  -325.1433 1596.9956 -19.8707
v  -325.3496 1608.1882 -19.8707
v  -19.8705 1607.8228 -234.2188
v  -117.4186 1526.7982 24.7413
v  -325.1433 1596.9956 19.8703
v  -325.3496 1608.1879 19.8702
v  117.4186 1526.7982 24.7413
v  -117.4186 1526.7982 -24.7416
v  57.6986 1477.2639 -33.3157
v  117.4186 1526.7982 -24.7416
v  57.6986 1477.2639 33.3154
v  65.0110 1501.0775 37.5330
v  33.3155 1477.2639 -57.6987
v  24.7414 1526.7981 -117.4188
v  65.0110 1501.0775 -37.5526
v  19.8705 1607.8232 -234.2188
# 794 vertices

vn -0.0902 0.0217 0.9957
vn -0.7959 0.5982 -0.0936
vn -0.0537 -0.0515 -0.9972
vn -0.1025 -0.0395 0.9940
vn 0.1590 0.1178 -0.9802
vn -0.2000 -0.0814 0.9764
vn -0.8260 0.5495 -0.1258
vn 0.0957 -0.0322 -0.9949
vn -0.7538 0.6270 -0.1964
vn 0.7935 -0.6077 0.0335
vn -0.1601 -0.0046 0.9871
vn 0.8577 -0.4920 0.1491
vn 0.8401 -0.5404 -0.0470
vn -0.8786 0.4714 0.0760
vn 0.1737 0.2290 -0.9578
vn -0.6584 -0.7443 -0.1122
vn -0.0272 0.1002 0.9946
vn 0.5212 0.8374 -0.1646
vn 0.1568 -0.0311 -0.9871
vn 0.7861 -0.6175 0.0256
vn 0.8373 -0.5467 0.0006
vn -0.7978 0.6001 -0.0588
vn -0.9464 0.1455 -0.2884
vn 0.3145 -0.0566 -0.9476
vn 0.8917 -0.2480 0.3787
vn 0.3100 -0.1789 -0.9338
vn -0.2742 -0.9616 0.0099
vn -0.3447 -0.9387 0.0069
vn 0.2506 0.9618 -0.1098
vn -0.1780 -0.9826 0.0538
vn -0.3096 0.1238 0.9428
vn -0.2811 0.1538 0.9473
vn -0.2306 0.0764 0.9700
vn 0.2781 -0.1402 -0.9503
vn 0.3411 0.8452 -0.4115
vn 0.2369 0.8250 -0.5131
vn 0.4901 -0.5647 -0.6640
vn 0.1052 -0.9476 -0.3015
vn 0.3366 0.8224 -0.4587
vn -0.2347 -0.8259 0.5126
vn 0.3809 0.7910 -0.4788
vn -0.2654 -0.8435 0.4671
vn -0.2581 -0.8064 0.5320
vn -0.4438 0.5481 0.7089
vn -0.4659 0.5654 0.6807
vn 0.4982 -0.5819 -0.6428
vn -0.4176 0.5388 0.7317
vn 0.5388 -0.5258 -0.6582
vn -0.8386 -0.0797 -0.5389
vn 0.7610 -0.1510 0.6309
vn -0.3304 -0.8202 0.4671
vn -0.5388 0.5254 0.6585
vn 0.5171 -0.5308 -0.6715
vn -0.4956 -0.8482 0.1869
vn -0.0937 0.9127 0.3978
vn 0.2427 -0.8750 -0.4189
vn -0.6396 0.1434 -0.7552
vn 0.0368 0.9254 0.3773
vn 0.6559 -0.3094 0.6885
vn 0.0958 -0.8884 -0.4490
vn 0.5793 -0.4098 0.7046
vn -0.5930 0.2526 -0.7646
vn -0.0235 0.9002 0.4349
vn -0.7056 0.3042 -0.6400
vn 0.6050 -0.2533 0.7548
vn 0.6907 -0.0913 0.7173
vn -0.0550 -0.9706 -0.2343
vn 0.8437 0.2495 -0.4753
vn -0.1789 0.8556 0.4857
vn -0.6896 -0.5326 0.4907
vn -0.5820 0.2500 -0.7738
vn 0.2102 0.9753 -0.0675
vn 0.4681 0.8788 -0.0924
vn -0.3294 -0.9347 0.1337
vn -0.2795 -0.0765 -0.9571
vn 0.5767 0.8154 -0.0499
vn 0.1930 -0.0795 0.9780
vn -0.4436 -0.8951 0.0439
vn 0.0683 -0.1004 0.9926
vn -0.1724 -0.0322 -0.9845
vn 0.5072 0.8615 -0.0244
vn -0.2403 0.1283 -0.9622
vn 0.1822 0.0204 0.9830
vn 0.3569 0.0642 0.9320
vn -0.6396 -0.7495 0.1705
vn 0.8585 -0.5094 -0.0586
vn 0.3552 0.9338 -0.0429
vn -0.9296 0.2647 0.2565
vn -0.1645 -0.0445 -0.9854
vn -0.4791 -0.4095 0.7764
vn 0.0478 0.7778 0.6267
vn -0.6586 0.6029 0.4502
vn -0.6837 -0.5418 0.4889
vn 0.6736 0.2474 -0.6965
vn 0.1890 0.4890 -0.8516
vn -0.5633 -0.4696 -0.6799
vn -0.5880 -0.3104 -0.7470
vn 0.5434 0.4151 0.7297
vn 0.4416 0.4522 0.7749
vn -0.5891 -0.2846 0.7563
vn -0.6126 -0.3113 0.7265
vn 0.6462 0.2887 -0.7064
vn 0.4495 -0.0285 -0.8928
vn 0.4440 -0.0474 0.8948
vn 0.6205 0.3080 0.7211
vn -0.5814 -0.3614 -0.7290
vn -0.6147 -0.3464 0.7086
vn -0.5153 -0.4529 0.7276
vn -0.4971 -0.4443 -0.7454
vn -0.5931 -0.3828 0.7083
vn 0.6718 0.2916 0.6809
vn 0.1660 0.4683 0.8678
vn -0.5516 -0.4863 0.6776
vn -0.5522 -0.3062 -0.7754
vn -0.6883 -0.5245 -0.5012
vn -0.6487 0.6032 -0.4641
vn 0.1043 0.7786 -0.6188
vn -0.4518 -0.4358 -0.7784
vn 0.6214 0.5696 -0.5379
vn 0.7088 -0.3433 0.6162
vn 0.7243 -0.3597 -0.5882
vn 0.6756 0.4497 -0.5842
vn 0.6817 0.4733 0.5579
vn -0.3639 0.7552 -0.5452
vn -0.3921 0.7499 0.5328
vn -0.3210 0.4801 -0.8164
vn -0.3414 0.4558 0.8220
vn 0.6910 0.2748 -0.6686
vn -0.5694 -0.4114 -0.7117
vn 0.7764 -0.4095 0.4791
vn 0.6267 0.7778 -0.0478
vn 0.4502 0.6029 0.6586
vn 0.4889 -0.5418 0.6837
vn -0.6965 0.2474 -0.6736
vn -0.8516 0.4890 -0.1890
vn -0.6799 -0.4696 0.5633
vn -0.7470 -0.3104 0.5880
vn 0.7297 0.4151 -0.5434
vn 0.7749 0.4522 -0.4416
vn 0.7563 -0.2846 0.5891
vn 0.7265 -0.3113 0.6126
vn -0.7064 0.2887 -0.6462
vn -0.8928 -0.0285 -0.4495
vn 0.8948 -0.0474 -0.4440
vn 0.7211 0.3080 -0.6205
vn -0.7290 -0.3614 0.5814
vn 0.7086 -0.3464 0.6147
vn 0.7276 -0.4529 0.5153
vn -0.7454 -0.4443 0.4971
vn 0.7083 -0.3828 0.5931
vn 0.6809 0.2916 -0.6718
vn 0.8678 0.4683 -0.1660
vn 0.6777 -0.4863 0.5516
vn -0.7754 -0.3062 0.5522
vn -0.5012 -0.5245 0.6883
vn -0.4641 0.6032 0.6487
vn -0.6188 0.7786 -0.1043
vn -0.7784 -0.4358 0.4518
vn -0.5379 0.5696 -0.6214
vn 0.6162 -0.3433 -0.7088
vn -0.5882 -0.3597 -0.7243
vn -0.5842 0.4497 -0.6756
vn 0.5579 0.4733 -0.6817
vn -0.5452 0.7552 0.3639
vn 0.5328 0.7499 0.3921
vn -0.8164 0.4801 0.3210
vn 0.8220 0.4558 0.3414
vn -0.6686 0.2748 -0.6910
vn -0.7117 -0.4114 0.5694
vn 0.4791 -0.4095 -0.7764
vn -0.0478 0.7778 -0.6267
vn 0.6586 0.6029 -0.4502
vn 0.6837 -0.5418 -0.4889
vn -0.6736 0.2474 0.6965
vn -0.1890 0.4890 0.8516
vn 0.5633 -0.4696 0.6799
vn 0.5880 -0.3104 0.7470
vn -0.5434 0.4151 -0.7297
vn -0.4416 0.4522 -0.7749
vn 0.5891 -0.2846 -0.7563
vn 0.6126 -0.3113 -0.7265
vn -0.6462 0.2887 0.7064
vn -0.4495 -0.0285 0.8928
vn -0.4440 -0.0474 -0.8948
vn -0.6205 0.3080 -0.7211
vn 0.5814 -0.3614 0.7290
vn 0.6147 -0.3464 -0.7086
vn 0.5153 -0.4529 -0.7276
vn 0.4971 -0.4443 0.7454
vn 0.5931 -0.3828 -0.7083
vn -0.6718 0.2916 -0.6809
vn -0.1660 0.4683 -0.8678
vn 0.5516 -0.4863 -0.6777
vn 0.5522 -0.3062 0.7754
vn 0.6883 -0.5245 0.5012
vn 0.6487 0.6032 0.4641
vn -0.1043 0.7786 0.6188
vn 0.4518 -0.4358 0.7784
vn -0.6214 0.5696 0.5379
vn -0.7088 -0.3433 -0.6162
vn -0.7243 -0.3597 0.5882
vn -0.6756 0.4497 0.5842
vn -0.6817 0.4733 -0.5579
vn 0.3639 0.7552 0.5452
vn 0.3921 0.7499 -0.5328
vn 0.3210 0.4801 0.8164
vn 0.3414 0.4558 -0.8220
vn -0.6910 0.2748 0.6686
vn 0.5694 -0.4114 0.7117
vn -0.7764 -0.4095 -0.4791
vn -0.6267 0.7778 0.0478
vn -0.4502 0.6029 -0.6586
vn -0.4889 -0.5418 -0.6837
vn 0.6965 0.2474 0.6736
vn 0.8516 0.4890 0.1890
vn 0.6799 -0.4696 -0.5633
vn 0.7470 -0.3104 -0.5880
vn -0.7297 0.4151 0.5434
vn -0.7749 0.4522 0.4416
vn -0.7563 -0.2846 -0.5891
vn -0.7265 -0.3113 -0.6126
vn 0.7064 0.2887 0.6462
vn 0.8928 -0.0285 0.4495
vn -0.8948 -0.0474 0.4440
vn -0.7211 0.3080 0.6205
vn 0.7290 -0.3614 -0.5814
vn -0.7086 -0.3464 -0.6147
vn -0.7276 -0.4529 -0.5153
vn 0.7454 -0.4443 -0.4971
vn -0.7083 -0.3828 -0.5931
vn -0.6809 0.2916 0.6718
vn -0.8678 0.4683 0.1660
vn -0.6777 -0.4863 -0.5516
vn 0.7754 -0.3062 -0.5522
vn 0.5012 -0.5245 -0.6883
vn 0.4641 0.6032 -0.6487
vn 0.6188 0.7786 0.1043
vn 0.7784 -0.4358 -0.4518
vn 0.5379 0.5696 0.6214
vn -0.6162 -0.3434 0.7088
vn 0.5882 -0.3597 0.7243
vn 0.5842 0.4497 0.6756
vn -0.5579 0.4733 0.6817
vn 0.5452 0.7552 -0.3639
vn -0.5328 0.7499 -0.3921
vn 0.8164 0.4801 -0.3210
vn -0.8220 0.4558 -0.3414
vn 0.6686 0.2748 0.6910
vn 0.7117 -0.4114 -0.5694
vn -0.2103 -0.4095 -0.8878
vn -0.4770 0.7778 -0.4094
vn 0.1474 0.6029 -0.7841
vn 0.1377 -0.5418 -0.8292
vn 0.0162 0.2474 0.9688
vn 0.4685 0.4890 0.7358
vn 0.8791 -0.4695 0.0824
vn 0.9439 -0.3104 0.1124
vn -0.9002 0.4151 -0.1317
vn -0.8602 0.4522 -0.2357
vn -0.1182 -0.2846 -0.9513
vn -0.0805 -0.3113 -0.9469
vn 0.0854 0.3229 0.9426
vn 0.3135 -0.0285 0.9492
vn -0.9467 -0.0474 -0.3187
vn -0.9377 0.3280 -0.1146
vn 0.9042 -0.4144 0.1032
vn -0.0726 -0.4076 -0.9103
vn -0.1501 -0.4529 -0.8789
vn 0.8785 -0.4443 0.1756
vn -0.8117 0.5039 -0.2954
vn -0.1357 -0.6349 -0.7606
vn -0.4461 -0.5064 -0.7379
vn -0.5416 0.8384 -0.0614
vn -0.7310 0.4683 -0.4963
vn -0.0891 -0.4863 -0.8692
vn 0.9388 -0.3062 0.1578
vn 0.8411 -0.5245 -0.1323
vn 0.7868 0.6032 -0.1305
vn 0.3638 0.7786 0.5114
vn 0.8699 -0.4358 0.2310
vn -0.0590 0.5696 0.8198
vn -0.9369 -0.3433 0.0655
vn -0.0962 -0.3597 0.9281
vn -0.0647 0.4497 0.8908
vn -0.8765 0.4733 0.0876
vn 0.6428 0.7552 0.1282
vn -0.0995 0.7499 -0.6540
vn 0.8043 0.4801 0.3503
vn -0.3398 0.4558 -0.8226
vn 0.2443 0.5134 0.8226
vn 0.0708 0.8412 0.5361
vn 0.7583 -0.6328 0.1565
vn 0.7223 -0.5133 0.4635
vn -0.8878 -0.4095 0.2103
vn -0.4094 0.7778 0.4770
vn -0.7841 0.6029 -0.1474
vn -0.8292 -0.5418 -0.1377
vn 0.9688 0.2474 -0.0162
vn 0.7358 0.4890 -0.4685
vn 0.0824 -0.4696 -0.8790
vn 0.1124 -0.3104 -0.9439
vn -0.1317 0.4151 0.9002
vn -0.2357 0.4522 0.8602
vn -0.9513 -0.2846 0.1182
vn -0.9469 -0.3113 0.0805
vn 0.9426 0.3229 -0.0854
vn 0.9492 -0.0285 -0.3135
vn -0.3187 -0.0474 0.9467
vn -0.1146 0.3280 0.9377
vn 0.1032 -0.4144 -0.9042
vn -0.9103 -0.4076 0.0726
vn -0.8789 -0.4529 0.1501
vn 0.1756 -0.4443 -0.8785
vn -0.2954 0.5039 0.8117
vn -0.7606 -0.6349 0.1357
vn -0.7379 -0.5064 0.4461
vn -0.0614 0.8384 0.5416
vn -0.4963 0.4683 0.7310
vn -0.8692 -0.4863 0.0891
vn 0.1578 -0.3062 -0.9388
vn -0.1323 -0.5245 -0.8411
vn -0.1305 0.6032 -0.7868
vn 0.5114 0.7786 -0.3638
vn 0.2310 -0.4358 -0.8699
vn 0.8198 0.5696 0.0590
vn 0.0655 -0.3433 0.9369
vn 0.9281 -0.3597 0.0962
vn 0.8908 0.4497 0.0647
vn 0.0876 0.4733 0.8765
vn 0.1282 0.7552 -0.6428
vn -0.6540 0.7499 0.0995
vn 0.3503 0.4801 -0.8043
vn -0.8226 0.4558 0.3398
vn 0.8226 0.5134 -0.2443
vn 0.5361 0.8412 -0.0708
vn 0.1565 -0.6328 -0.7583
vn 0.4635 -0.5133 -0.7223
vn 0.2103 -0.4095 0.8878
vn 0.4770 0.7778 0.4093
vn -0.1474 0.6029 0.7841
vn -0.1377 -0.5418 0.8292
vn -0.0162 0.2474 -0.9688
vn -0.4685 0.4890 -0.7358
vn -0.8791 -0.4695 -0.0824
vn -0.9439 -0.3104 -0.1124
vn 0.9002 0.4151 0.1317
vn 0.8602 0.4522 0.2357
vn 0.1182 -0.2846 0.9513
vn 0.0805 -0.3113 0.9469
vn -0.0854 0.3229 -0.9426
vn -0.3135 -0.0285 -0.9492
vn 0.9467 -0.0474 0.3187
vn 0.9377 0.3280 0.1146
vn -0.9042 -0.4144 -0.1032
vn 0.0726 -0.4076 0.9103
vn 0.1501 -0.4529 0.8789
vn -0.8785 -0.4443 -0.1756
vn 0.8117 0.5039 0.2954
vn 0.1357 -0.6349 0.7606
vn 0.4461 -0.5064 0.7379
vn 0.5416 0.8384 0.0614
vn 0.7310 0.4683 0.4963
vn 0.0891 -0.4863 0.8692
vn -0.9388 -0.3062 -0.1578
vn -0.8411 -0.5245 0.1323
vn -0.7868 0.6032 0.1305
vn -0.3638 0.7786 -0.5114
vn -0.8699 -0.4358 -0.2310
vn 0.0590 0.5696 -0.8198
vn 0.9369 -0.3433 -0.0655
vn 0.0962 -0.3597 -0.9281
vn 0.0647 0.4497 -0.8908
vn 0.8765 0.4734 -0.0876
vn -0.6428 0.7552 -0.1282
vn 0.0995 0.7499 0.6540
vn -0.8043 0.4801 -0.3503
vn 0.3398 0.4558 0.8226
vn -0.2443 0.5134 -0.8226
vn -0.0708 0.8412 -0.5361
vn -0.7583 -0.6328 -0.1565
vn -0.7223 -0.5133 -0.4635
vn 0.8878 -0.4095 -0.2103
vn 0.4094 0.7778 -0.4770
vn 0.7841 0.6029 0.1474
vn 0.8292 -0.5418 0.1377
vn -0.9688 0.2474 0.0162
vn -0.7358 0.4890 0.4685
vn -0.0824 -0.4696 0.8790
vn -0.1124 -0.3104 0.9439
vn 0.1317 0.4151 -0.9002
vn 0.2357 0.4522 -0.8602
vn 0.9513 -0.2846 -0.1182
vn 0.9469 -0.3113 -0.0805
vn -0.9426 0.3229 0.0854
vn -0.9492 -0.0285 0.3135
vn 0.3187 -0.0474 -0.9467
vn 0.1146 0.3280 -0.9377
vn -0.1032 -0.4144 0.9042
vn 0.9103 -0.4076 -0.0726
vn 0.8789 -0.4529 -0.1501
vn -0.1756 -0.4443 0.8785
vn 0.2954 0.5039 -0.8117
vn 0.7606 -0.6349 -0.1357
vn 0.7379 -0.5064 -0.4461
vn 0.0614 0.8384 -0.5416
vn 0.4963 0.4683 -0.7310
vn 0.8692 -0.4863 -0.0891
vn -0.1578 -0.3062 0.9388
vn 0.1323 -0.5245 0.8411
vn 0.1305 0.6032 0.7868
vn -0.5114 0.7786 0.3638
vn -0.2310 -0.4358 0.8699
vn -0.8198 0.5696 -0.0590
vn -0.0655 -0.3433 -0.9369
vn -0.9281 -0.3597 -0.0962
vn -0.8908 0.4497 -0.0647
vn -0.0876 0.4733 -0.8765
vn -0.1282 0.7552 0.6428
vn 0.6540 0.7499 -0.0995
vn -0.3503 0.4801 0.8043
vn 0.8226 0.4558 -0.3398
vn -0.8226 0.5134 0.2443
vn -0.5361 0.8412 0.0708
vn -0.1565 -0.6328 0.7583
vn -0.4635 -0.5133 0.7223
vn 0.2550 0.8575 0.4468
vn 0.8273 0.5022 0.2517
vn 0.4623 0.8867 0.0025
vn 0.2614 0.8555 -0.4469
vn -0.7922 0.5097 -0.3358
vn -0.4622 0.8868 -0.0023
vn -0.2611 0.8555 0.4472
vn -0.2074 -0.9082 -0.3635
vn -0.5143 -0.8576 -0.0026
vn -0.6559 -0.5068 -0.5595
vn 0.2614 -0.8555 -0.4470
vn -0.7868 -0.5107 0.3466
vn -0.1136 -0.5096 0.8529
vn 0.4623 -0.8867 0.0025
vn 0.1319 -0.2898 0.9480
vn 0.4913 -0.3560 0.7949
vn -0.1915 -0.9619 -0.1950
vn -0.1045 -0.9421 -0.3186
vn -0.9722 -0.2324 0.0287
vn -0.2098 0.9763 -0.0533
vn -0.2373 0.9669 0.0944
vn -0.8631 -0.2908 0.4129
vn -0.2972 0.5433 0.7852
vn -0.3010 0.5340 -0.7901
vn -0.3034 0.7077 -0.6380
vn -0.2963 0.7062 0.6431
vn 0.2577 0.9662 -0.0077
vn 0.9519 -0.2915 -0.0947
vn 0.9234 -0.2331 0.3049
vn 0.1784 0.9765 0.1205
vn 0.8058 -0.2884 0.5173
vn 0.0587 0.9764 0.2079
vn 0.2017 0.9665 0.1586
vn -0.3275 0.7602 -0.5610
vn -0.2189 0.8983 -0.3809
vn 0.2386 0.8616 -0.4480
vn 0.1836 0.7636 -0.6191
vn -0.2784 0.9032 0.3268
vn -0.4433 0.8964 -0.0000
vn -0.6521 0.7581 0.0000
vn -0.1836 0.7634 0.6193
vn -0.7486 0.2570 -0.6112
vn -0.5593 0.2184 -0.7997
vn -0.3065 -0.9386 -0.1581
vn -0.1586 -0.9761 -0.1486
vn 0.4235 0.2091 -0.8814
vn -0.0202 0.9868 0.1607
vn -0.0683 0.9954 0.0669
vn 0.6672 0.1563 -0.7283
vn -0.1917 0.9664 0.1714
vn -0.6687 -0.2917 0.6840
vn 0.2562 -0.7094 0.6566
vn 0.3801 -0.5861 0.7155
vn -0.4047 0.5586 0.7240
vn -0.1895 0.5999 0.7773
vn -0.0847 0.9957 0.0385
vn 0.8764 0.1561 -0.4556
vn -0.2631 -0.9624 0.0683
vn 0.0656 0.8586 -0.5085
vn 0.0648 0.8633 0.5006
vn 0.8825 -0.0005 0.4703
vn 0.8701 0.0172 -0.4926
vn -0.4827 -0.5883 0.6488
vn -0.8763 0.4462 -0.1815
vn -0.0433 0.8413 0.5388
vn -0.1400 -0.7766 0.6142
vn -0.0519 0.9665 -0.2512
vn -0.2561 -0.2908 -0.9219
vn 0.1397 -0.2323 -0.9626
vn 0.0866 0.9764 -0.1980
vn -0.1218 0.9664 0.2265
vn -0.3952 -0.2910 0.8713
vn -0.9237 -0.2326 -0.3045
vn -0.1804 0.9763 -0.1193
vn 0.4608 -0.2322 -0.8566
vn 0.1511 0.9765 -0.1536
vn 0.2372 0.9669 -0.0943
vn 0.8630 -0.2909 -0.4131
vn -0.0162 0.9764 0.2154
vn 0.2337 -0.8957 0.3782
vn 0.3775 0.2076 0.9025
vn 0.2080 0.1479 0.9669
vn 0.0167 -0.9448 0.3271
vn -0.1032 0.2502 0.9627
vn -0.0915 0.9958 0.0069
vn 0.9794 0.1554 -0.1288
vn 0.7485 0.2573 0.6112
vn -0.2005 0.9763 -0.0813
vn -0.0212 0.9992 -0.0341
vn 0.1352 0.3466 -0.9282
vn 0.1214 0.9623 0.2435
vn 0.4263 0.2504 -0.8693
vn -0.2350 -0.9405 0.2453
vn 0.7545 -0.2897 -0.5889
vn -0.0738 -0.9646 0.2533
vn -0.5517 0.2074 -0.8079
vn 0.1291 0.9868 0.0976
vn 0.0231 0.9956 0.0908
vn -0.2935 0.1558 -0.9432
vn 0.9063 0.2450 0.3443
vn 0.0095 0.9957 -0.0926
vn -0.0428 0.1553 0.9869
vn 0.2426 0.2040 0.9484
vn -0.0882 0.9870 -0.1347
vn 0.2262 -0.9617 -0.1547
vn 0.3326 -0.9420 -0.0450
vn -0.2337 0.2518 -0.9391
vn -0.9643 0.1553 -0.2144
vn -0.9761 0.2042 0.0742
vn 0.1486 0.9869 -0.0632
vn 0.0893 0.9957 0.0249
vn -0.2560 -0.2853 0.9236
vn 0.0170 -0.9422 -0.3347
vn -0.8747 0.1557 0.4590
vn -0.6937 0.2419 0.6784
vn 0.0181 0.9748 -0.2224
vn 0.0841 0.9957 -0.0383
vn 0.0738 -0.9645 -0.2535
vn 0.2221 -0.9415 -0.2536
vn -0.7289 0.5567 0.3985
vn -0.5935 0.5242 0.6108
vn -0.5078 -0.7923 0.3382
vn -0.7266 -0.5778 -0.3717
vn 0.2232 0.8984 0.3783
vn 0.4415 0.8973 -0.0007
vn 0.4016 0.5667 -0.7194
vn 0.3931 0.5673 0.7236
vn 0.1923 0.6033 0.7740
vn 0.1893 0.6017 -0.7760
vn -0.9109 0.2000 -0.3610
vn -0.4972 0.1556 0.8536
vn -0.7224 0.1524 0.6745
vn 0.9875 0.1576 0.0036
vn 0.2975 -0.9438 0.1441
vn -0.9813 0.1911 -0.0246
vn -0.2086 -0.9774 -0.0327
vn -0.1198 -0.9925 0.0243
vn 0.0701 -0.9804 -0.1841
vn 0.1510 0.1558 -0.9762
vn 0.0680 -0.9752 -0.2108
vn 0.2225 -0.9450 0.2397
vn 0.6799 0.7117 -0.1770
vn 0.5081 0.2012 -0.8375
vn -0.5370 0.2119 -0.8165
vn -0.6702 0.7232 -0.1666
vn 0.1916 0.9666 -0.1705
vn -0.6381 0.4563 0.6202
vn -0.3664 -0.6914 0.6227
vn -0.2280 -0.9718 0.0595
vn -0.9296 0.1981 0.3108
vn 0.4134 0.1559 0.8971
vn 0.0029 -0.9780 0.2086
vn 0.1554 -0.9459 0.2847
vn -0.2241 -0.9745 0.0153
vn 0.7012 0.1723 -0.6919
vn -0.8227 0.5629 0.0792
vn 0.8231 0.5616 0.0841
vn 0.5055 0.8609 -0.0576
vn -0.5002 0.8635 -0.0635
vn -0.6273 -0.2839 -0.7252
vn -0.1505 0.7258 -0.6712
vn -0.6127 0.4765 -0.6305
vn -0.5835 -0.7548 -0.2997
vn -0.0350 -0.4225 -0.9057
vn -0.7891 -0.2909 -0.5410
vn -0.2153 0.9750 -0.0555
vn 0.0197 0.9868 -0.1606
vn -0.4239 0.2040 0.8824
vn 0.9644 0.1551 0.2143
vn -0.0891 0.9957 -0.0249
vn 0.8312 0.1549 0.5340
vn -0.0735 0.9959 -0.0526
vn -0.0088 -0.9416 0.3367
vn -0.7953 0.2041 -0.5708
vn 0.1546 0.9869 0.0468
vn 0.9138 0.1499 -0.3774
vn 0.7144 -0.0458 -0.6982
vn 0.3691 -0.1612 -0.9153
vn 0.4010 -0.5982 -0.6938
vn -0.0093 0.9957 0.0923
vn -0.1349 -0.9760 0.1709
vn -0.0700 -0.9804 0.1844
vn 0.1459 -0.9758 0.1628
vn 0.1681 -0.9805 0.1013
vn -0.1826 -0.9769 0.1111
vn -0.0644 -0.9804 -0.1863
vn -0.0031 -0.9779 -0.2093
vn -0.0789 -0.9922 -0.0969
vn 0.1920 -0.9807 0.0371
vn 0.1721 -0.9803 -0.0968
vn 0.0923 -0.9819 -0.1653
vn 0.6233 -0.6846 -0.3778
vn -0.6345 -0.6703 -0.3849
vn -0.4702 -0.0005 -0.8825
vn 0.4955 -0.0167 -0.8685
vn 0.5041 -0.1604 0.8486
vn 0.7911 -0.2261 0.5684
vn -0.1594 -0.1604 0.9741
vn 0.2409 -0.2223 0.9448
vn 0.0965 -0.2239 -0.9698
vn -0.1846 -0.1591 -0.9698
vn -0.5349 -0.3127 -0.7849
vn -0.7912 -0.2257 -0.5684
vn -0.9653 -0.1603 -0.2061
vn -0.3693 -0.1614 0.9152
vn -0.7115 -0.1015 0.6953
vn 0.9065 -0.1006 -0.4100
vn 0.9921 -0.1005 -0.0753
vn 0.9610 -0.0627 0.2692
vn -0.8717 -0.1607 0.4630
vn -0.9921 -0.1006 0.0752
vn -0.4113 -0.6578 0.6309
vn -0.2506 -0.5221 0.8152
vn -0.2521 -0.5199 -0.8162
vn -0.4071 -0.6648 -0.6263
vn 0.5088 0.8584 0.0650
vn -0.5049 0.8613 0.0574
vn -0.4703 -0.0006 0.8825
vn 0.4926 0.0172 0.8701
vn 0.2258 -0.7944 -0.5639
vn 0.8375 0.2012 -0.5081
vn 0.8245 0.1813 0.5360
vn 0.2326 -0.7896 0.5679
vn 0.8332 0.5442 -0.0979
vn 0.7747 0.6024 0.1920
vn -0.7757 0.6020 0.1895
vn -0.8228 0.5628 -0.0793
vn -0.3928 -0.5983 -0.6984
vn -0.1782 -0.7430 -0.6451
vn 0.3718 0.7495 -0.5477
vn 0.4178 0.6466 0.6382
vn 0.3392 0.5978 0.7264
vn 0.3517 0.4704 -0.8093
vn -0.7529 -0.6564 0.0470
vn -0.5706 -0.7899 -0.2246
vn 0.5635 -0.7943 -0.2270
vn 0.7493 -0.6603 0.0499
vn -0.3905 -0.6053 0.6936
vn -0.1782 -0.7436 0.6444
vn -0.3931 0.5674 -0.7236
vn -0.1880 0.6012 -0.7767
vn 0.1531 -0.6878 -0.7096
vn 0.5643 -0.7942 0.2253
vn 0.5081 0.2012 0.8375
vn -0.5360 0.1813 0.8245
vn -0.5710 -0.7896 0.2247
vn -0.0651 0.8583 0.5090
vn -0.0576 0.8613 -0.5049
vn -0.8825 -0.0006 -0.4703
vn -0.8701 0.0172 0.4926
vn -0.6741 0.6882 -0.2684
vn -0.7355 -0.5686 0.3684
vn -0.6376 -0.6578 0.4009
vn -0.7901 0.5340 -0.3010
vn -0.3917 0.7621 -0.5155
vn 0.3034 0.7077 -0.6380
vn 0.3062 0.7006 0.6446
vn 0.6309 -0.6578 0.4113
vn 0.8152 -0.5221 0.2506
vn -0.8162 -0.5199 0.2521
vn 0.7243 0.5667 0.3927
vn 0.0524 0.8663 0.4967
vn 0.6694 -0.6141 -0.4181
vn 0.5762 -0.7950 -0.1896
vn -0.6528 -0.7190 -0.2383
vn 0.7074 -0.6604 -0.2519
vn 0.3615 -0.6809 0.6369
vn 0.3778 -0.6847 -0.6233
vn -0.0959 0.5520 0.8283
vn -0.0979 0.5442 -0.8332
vn 0.6576 -0.7377 0.1530
vn 0.7773 0.5989 -0.1927
vn 0.7224 0.5602 -0.4053
vn 0.6934 -0.6266 0.3558
vn -0.6345 -0.6703 0.3849
vn 0.3813 -0.9237 -0.0374
vn -0.6756 -0.5855 0.4481
vn 0.6414 -0.6676 0.3781
vn -0.7295 0.5585 -0.3949
vn 0.0775 0.5277 -0.8459
vn -0.3849 -0.6703 -0.6345
vn -0.7759 0.6001 -0.1947
vn -0.6454 -0.7432 0.1763
vn -0.3781 -0.6676 0.6414
vn 0.0637 0.5599 0.8261
vn 0.4972 0.8671 -0.0295
vn 0.7357 0.5285 0.4237
vn 0.7426 -0.6662 -0.0689
vn -0.7555 -0.6492 -0.0886
vn 0.4113 -0.6578 -0.6309
vn 0.2506 -0.5221 -0.8152
vn 0.2481 -0.5220 0.8161
vn 0.4071 -0.6648 0.6263
vn -0.9813 0.0082 0.1922
vn -0.5025 0.0096 0.8645
vn -0.5045 0.0106 0.8634
vn -0.9792 0.0082 -0.2025
vn 0.3501 -0.7928 0.4989
vn 0.1074 0.8625 -0.4945
vn -0.6671 -0.5569 -0.4948
vn -0.5650 0.8132 -0.1395
vn -0.6033 -0.7821 -0.1561
vn 0.2016 -0.8806 -0.4288
vn 0.3952 0.6033 0.6927
vn 0.3997 -0.5912 0.7005
vn 0.9818 -0.1899 0.0050
vn 0.9813 0.0084 -0.1922
vn -0.4979 0.0076 -0.8672
vn -0.4970 0.0057 -0.8677
vn 0.5019 0.0081 -0.8649
vn 0.5070 0.0062 -0.8619
vn 0.3275 0.7604 0.5609
vn 0.6526 0.7577 0.0000
vn -0.2251 -0.7944 0.5642
vn -0.8375 0.2012 0.5081
vn -0.8245 0.1813 -0.5360
vn -0.2249 -0.7897 -0.5708
vn 0.3108 -0.5823 0.7512
vn 0.7280 -0.5721 0.3779
vn -0.3478 0.7027 -0.6207
vn 0.6400 0.6877 -0.3428
vn 0.9267 0.3331 0.1739
vn 0.1666 0.7232 0.6703
vn 0.1521 0.7163 -0.6810
vn -0.3498 0.7025 0.6198
vn -0.0689 -0.6662 -0.7426
vn -0.0783 -0.6634 0.7442
vn -0.6309 -0.6578 -0.4113
vn -0.8152 -0.5221 -0.2506
vn 0.8162 -0.5199 -0.2521
vn 0.6263 -0.6648 -0.4071
vn -0.6884 0.7059 0.1665
vn -0.6675 0.6923 -0.2740
vn 0.7959 0.5332 -0.2867
vn 0.6459 0.7193 0.2558
vn 0.7264 0.5978 0.3391
vn -0.7964 0.5682 0.2071
vn -0.6124 0.7348 0.2916
vn 0.5261 0.7586 -0.3845
vn 0.6799 0.7116 0.1770
vn 0.6685 0.6920 -0.2724
vn -0.7374 -0.5645 -0.3709
vn 0.0471 -0.6564 -0.7529
vn -0.1665 0.7059 -0.6884
vn -0.6203 0.7031 0.3477
vn -0.3709 -0.5645 0.7374
vn 0.0679 -0.6336 0.7707
vn -0.1770 0.7116 0.6799
vn 0.3684 -0.5686 0.7355
vn -0.3780 -0.5721 -0.7279
vn 0.7641 -0.5672 -0.3073
vn 0.3779 -0.5721 -0.7280
vn 0.4786 -0.8779 -0.0177
vn 0.0398 0.2699 0.9621
vn 0.3887 -0.9125 -0.1276
vn 0.7317 -0.5649 -0.3815
vn 0.0883 0.2903 -0.9529
vn 0.6207 0.7027 0.3478
vn 0.2847 0.9585 -0.0126
# 784 vertex normals

vt 0.2822 0.6481 0.0000
vt 0.2822 0.7025 0.0000
vt 0.2086 0.7025 0.0000
vt 0.2086 0.6481 0.0000
vt 0.2822 0.8624 0.0000
vt 0.2086 0.8624 0.0000
vt 0.2086 0.8085 0.0000
vt 0.2822 0.8085 0.0000
vt 0.1289 0.8085 0.0000
vt 0.1289 0.7579 0.0000
vt 0.2086 0.7579 0.0000
vt 0.3584 0.6481 0.0000
vt 0.3584 0.7025 0.0000
vt 0.2822 0.7579 0.0000
vt 0.4216 0.6481 0.0000
vt 0.4216 0.7025 0.0000
vt 0.1289 0.8624 0.0000
vt 0.3584 0.8085 0.0000
vt 0.3584 0.7579 0.0000
vt 0.4216 0.7579 0.0000
vt 0.4216 0.8085 0.0000
vt 0.0685 0.8624 0.0000
vt 0.0685 0.8085 0.0000
vt 0.1289 0.7025 0.0000
vt 0.1289 0.6481 0.0000
vt 0.0685 0.7025 0.0000
vt 0.0685 0.7579 0.0000
vt 0.4216 0.8624 0.0000
vt 0.3584 0.8624 0.0000
vt 0.4712 0.8085 0.0000
vt 0.4712 0.8624 0.0000
vt 0.0685 0.6481 0.0000
vt 0.0126 0.8624 0.0000
vt 0.0126 0.8085 0.0000
vt 0.1313 0.5248 0.0000
vt 0.1405 0.5367 0.0000
vt 0.1189 0.5668 0.0000
vt 0.1123 0.5620 0.0000
vt 0.0622 0.3732 0.0000
vt 0.0624 0.2581 0.0000
vt 0.0807 0.2603 0.0000
vt 0.0765 0.3780 0.0000
vt 0.1598 0.3745 0.0000
vt 0.1595 0.4612 0.0000
vt 0.1437 0.4587 0.0000
vt 0.1470 0.3794 0.0000
vt 0.2963 0.1488 0.0000
vt 0.2969 0.2172 0.0000
vt 0.2299 0.2178 0.0000
vt 0.2294 0.1494 0.0000
vt 0.0788 0.1602 0.0000
vt 0.1540 0.1601 0.0000
vt 0.1543 0.2286 0.0000
vt 0.0768 0.2287 0.0000
vt 0.0514 0.2307 0.0000
vt 0.0618 0.1547 0.0000
vt 0.1712 0.1549 0.0000
vt 0.1495 0.0070 0.0000
vt 0.1611 0.0052 0.0000
vt 0.2967 0.3532 0.0000
vt 0.2964 0.4625 0.0000
vt 0.2293 0.4617 0.0000
vt 0.2296 0.3528 0.0000
vt 0.1805 0.2313 0.0000
vt 0.1687 0.2599 0.0000
vt 0.1498 0.2618 0.0000
vt 0.0751 0.4557 0.0000
vt 0.2703 0.6418 0.0000
vt 0.2573 0.6418 0.0000
vt 0.2578 0.6340 0.0000
vt 0.2697 0.6342 0.0000
vt 0.2798 0.6004 0.0000
vt 0.2466 0.6007 0.0000
vt 0.0988 0.5626 0.0000
vt 0.0834 0.5213 0.0000
vt 0.0917 0.5668 0.0000
vt 0.0728 0.5330 0.0000
vt 0.2902 0.5390 0.0000
vt 0.2357 0.5391 0.0000
vt 0.2330 0.2399 0.0000
vt 0.2937 0.2397 0.0000
vt 0.2914 0.2787 0.0000
vt 0.2363 0.2788 0.0000
vt 0.0592 0.4569 0.0000
vt 0.2908 0.2911 0.0000
vt 0.2356 0.2913 0.0000
vt 0.2933 0.3266 0.0000
vt 0.2325 0.3266 0.0000
vt 0.0272 0.2275 0.0000
vt 0.0358 0.2471 0.0000
vt 0.0063 0.2714 0.0000
vt 0.0002 0.2596 0.0000
vt 0.1962 0.2488 0.0000
vt 0.2054 0.2283 0.0000
vt 0.2331 0.2626 0.0000
vt 0.2265 0.2750 0.0000
vt 0.2295 0.0119 0.0000
vt 0.2884 0.0109 0.0000
vt 0.0740 0.0051 0.0000
vt 0.0864 0.0077 0.0000
vt 0.3879 0.5126 0.0000
vt 0.3945 0.5211 0.0000
vt 0.3790 0.5426 0.0000
vt 0.3743 0.5391 0.0000
vt 0.3385 0.4043 0.0000
vt 0.3387 0.3222 0.0000
vt 0.3518 0.3238 0.0000
vt 0.3487 0.4078 0.0000
vt 0.4082 0.4053 0.0000
vt 0.4081 0.4672 0.0000
vt 0.3967 0.4654 0.0000
vt 0.3991 0.4088 0.0000
vt 0.5122 0.2574 0.0000
vt 0.5127 0.3104 0.0000
vt 0.4608 0.3109 0.0000
vt 0.4604 0.2579 0.0000
vt 0.3519 0.2544 0.0000
vt 0.4026 0.2550 0.0000
vt 0.4042 0.3015 0.0000
vt 0.3491 0.3015 0.0000
vt 0.3313 0.3025 0.0000
vt 0.3406 0.2495 0.0000
vt 0.4008 0.1074 0.0000
vt 0.3949 0.1118 0.0000
vt 0.4073 0.0081 0.0000
vt 0.4138 0.0025 0.0000
vt 0.5126 0.4157 0.0000
vt 0.5124 0.5004 0.0000
vt 0.4604 0.4998 0.0000
vt 0.4606 0.4154 0.0000
vt 0.4225 0.3030 0.0000
vt 0.4145 0.3235 0.0000
vt 0.4011 0.3249 0.0000
vt 0.3478 0.4632 0.0000
vt 0.4921 0.6393 0.0000
vt 0.4821 0.6393 0.0000
vt 0.4825 0.6333 0.0000
vt 0.4916 0.6335 0.0000
vt 0.4995 0.6072 0.0000
vt 0.4738 0.6075 0.0000
vt 0.3647 0.5396 0.0000
vt 0.3537 0.5101 0.0000
vt 0.3596 0.5426 0.0000
vt 0.3461 0.5184 0.0000
vt 0.5075 0.5597 0.0000
vt 0.4653 0.5598 0.0000
vt 0.4632 0.3280 0.0000
vt 0.5102 0.3278 0.0000
vt 0.5084 0.3580 0.0000
vt 0.4658 0.3581 0.0000
vt 0.3364 0.4641 0.0000
vt 0.4140 0.2504 0.0000
vt 0.5080 0.3676 0.0000
vt 0.4652 0.3678 0.0000
vt 0.5099 0.3951 0.0000
vt 0.4628 0.3952 0.0000
vt 0.3141 0.2999 0.0000
vt 0.3199 0.3140 0.0000
vt 0.2986 0.3310 0.0000
vt 0.2944 0.3224 0.0000
vt 0.4339 0.3152 0.0000
vt 0.4402 0.3006 0.0000
vt 0.4603 0.3245 0.0000
vt 0.4557 0.3334 0.0000
vt 0.5021 0.0989 0.0000
vt 0.4668 0.0993 0.0000
vt 0.4615 0.0033 0.0000
vt 0.5053 0.0033 0.0000
vt 0.3628 0.1125 0.0000
vt 0.3570 0.1077 0.0000
vt 0.3476 0.0004 0.0000
vt 0.3543 0.0070 0.0000
vt 0.6366 0.4983 0.0000
vt 0.6542 0.4680 0.0000
vt 0.6717 0.4983 0.0000
vt 0.6542 0.5291 0.0000
vt 0.6188 0.5291 0.0000
vt 0.6012 0.4983 0.0000
vt 0.6188 0.4680 0.0000
vt 0.8635 0.3478 0.0000
vt 0.8635 0.3945 0.0000
vt 0.8588 0.3945 0.0000
vt 0.8588 0.3478 0.0000
vt 0.8635 0.1030 0.0000
vt 0.8963 0.1030 0.0000
vt 0.8963 0.1504 0.0000
vt 0.8635 0.1504 0.0000
vt 0.5649 0.1535 0.0000
vt 0.5319 0.1535 0.0000
vt 0.5277 0.0727 0.0000
vt 0.5691 0.0727 0.0000
vt 0.8963 0.5388 0.0000
vt 0.8635 0.5388 0.0000
vt 0.8635 0.4901 0.0000
vt 0.8963 0.4901 0.0000
vt 0.6537 0.0659 0.0000
vt 0.6845 0.0659 0.0000
vt 0.6845 0.0335 0.0000
vt 0.6537 0.0335 0.0000
vt 0.8635 0.4409 0.0000
vt 0.8963 0.3945 0.0000
vt 0.8963 0.4409 0.0000
vt 0.7010 0.5971 0.0000
vt 0.7111 0.5822 0.0000
vt 0.7506 0.5846 0.0000
vt 0.7592 0.6007 0.0000
vt 0.7147 0.5152 0.0000
vt 0.6957 0.5479 0.0000
vt 0.6783 0.5468 0.0000
vt 0.7067 0.4996 0.0000
vt 0.8262 0.4409 0.0000
vt 0.8176 0.4409 0.0000
vt 0.8176 0.3945 0.0000
vt 0.8262 0.3945 0.0000
vt 0.8588 0.4409 0.0000
vt 0.8588 0.4901 0.0000
vt 0.9079 0.3577 0.0000
vt 0.8991 0.3577 0.0000
vt 0.8991 0.3211 0.0000
vt 0.9079 0.3211 0.0000
vt 0.8963 0.2000 0.0000
vt 0.8635 0.2000 0.0000
vt 0.7684 0.2049 0.0000
vt 0.7776 0.3820 0.0000
vt 0.7514 0.3787 0.0000
vt 0.7469 0.1951 0.0000
vt 0.8991 0.2870 0.0000
vt 0.9079 0.2870 0.0000
vt 0.8588 0.5388 0.0000
vt 0.7358 0.0167 0.0000
vt 0.7129 0.0167 0.0000
vt 0.7129 0.0059 0.0000
vt 0.7358 0.0059 0.0000
vt 0.5596 0.4081 0.0000
vt 0.5322 0.4081 0.0000
vt 0.5322 0.4325 0.0000
vt 0.5596 0.4325 0.0000
vt 0.8963 0.7698 0.0000
vt 0.8635 0.7698 0.0000
vt 0.8635 0.7241 0.0000
vt 0.8963 0.7241 0.0000
vt 0.8963 0.2498 0.0000
vt 0.8635 0.2498 0.0000
vt 0.8635 0.0560 0.0000
vt 0.8963 0.0560 0.0000
vt 0.8635 0.6774 0.0000
vt 0.8963 0.6774 0.0000
vt 0.8963 0.5855 0.0000
vt 0.8635 0.5855 0.0000
vt 0.8963 0.3478 0.0000
vt 0.8588 0.8144 0.0000
vt 0.8262 0.8144 0.0000
vt 0.8262 0.7698 0.0000
vt 0.8588 0.7698 0.0000
vt 0.8262 0.7241 0.0000
vt 0.8176 0.7698 0.0000
vt 0.8176 0.7241 0.0000
vt 0.8991 0.2529 0.0000
vt 0.9079 0.2529 0.0000
vt 0.8262 0.8603 0.0000
vt 0.8176 0.8603 0.0000
vt 0.8176 0.8144 0.0000
vt 0.8262 0.2994 0.0000
vt 0.8176 0.2994 0.0000
vt 0.8176 0.2498 0.0000
vt 0.8262 0.2498 0.0000
vt 0.8588 0.6315 0.0000
vt 0.8635 0.6315 0.0000
vt 0.8588 0.6774 0.0000
vt 0.9079 0.4733 0.0000
vt 0.8991 0.4733 0.0000
vt 0.8991 0.4338 0.0000
vt 0.9079 0.4338 0.0000
vt 0.8262 0.0063 0.0000
vt 0.8262 0.0560 0.0000
vt 0.8176 0.0560 0.0000
vt 0.8176 0.0063 0.0000
vt 0.8991 0.7473 0.0000
vt 0.9079 0.7473 0.0000
vt 0.9079 0.7853 0.0000
vt 0.8991 0.7853 0.0000
vt 0.8588 0.1504 0.0000
vt 0.8588 0.1030 0.0000
vt 0.8176 0.3478 0.0000
vt 0.8262 0.3478 0.0000
vt 0.9079 0.5520 0.0000
vt 0.9079 0.5915 0.0000
vt 0.8991 0.5915 0.0000
vt 0.8991 0.5520 0.0000
vt 0.8635 0.2994 0.0000
vt 0.8588 0.2994 0.0000
vt 0.9079 0.6307 0.0000
vt 0.9079 0.6696 0.0000
vt 0.8991 0.6696 0.0000
vt 0.8991 0.6307 0.0000
vt 0.8588 0.2498 0.0000
vt 0.8588 0.2000 0.0000
vt 0.6972 0.3787 0.0000
vt 0.6985 0.4820 0.0000
vt 0.6750 0.4630 0.0000
vt 0.6717 0.3820 0.0000
vt 0.7541 0.5176 0.0000
vt 0.7694 0.5524 0.0000
vt 0.7018 0.1951 0.0000
vt 0.8262 0.4901 0.0000
vt 0.8262 0.6774 0.0000
vt 0.8262 0.6315 0.0000
vt 0.8262 0.1030 0.0000
vt 0.8588 0.0560 0.0000
vt 0.8262 0.5388 0.0000
vt 0.9443 0.5915 0.0000
vt 0.9443 0.6307 0.0000
vt 0.9443 0.3954 0.0000
vt 0.9079 0.3954 0.0000
vt 0.9443 0.3577 0.0000
vt 0.8588 0.0063 0.0000
vt 0.5649 0.2906 0.0000
vt 0.5574 0.3666 0.0000
vt 0.5394 0.3666 0.0000
vt 0.5319 0.2906 0.0000
vt 0.8963 0.6315 0.0000
vt 0.5568 0.3778 0.0000
vt 0.5568 0.3996 0.0000
vt 0.5324 0.3996 0.0000
vt 0.5324 0.3778 0.0000
vt 0.8588 0.5855 0.0000
vt 0.8262 0.5855 0.0000
vt 0.9079 0.8222 0.0000
vt 0.9443 0.7853 0.0000
vt 0.9443 0.8222 0.0000
vt 0.9443 0.5520 0.0000
vt 0.8262 0.2000 0.0000
vt 0.7456 0.1144 0.0000
vt 0.7031 0.1144 0.0000
vt 0.7129 0.0255 0.0000
vt 0.7358 0.0255 0.0000
vt 0.8963 0.8144 0.0000
vt 0.8635 0.8144 0.0000
vt 0.8963 0.2994 0.0000
vt 0.8963 0.8603 0.0000
vt 0.8635 0.8603 0.0000
vt 0.8635 0.0063 0.0000
vt 0.8963 0.0063 0.0000
vt 0.8176 0.6774 0.0000
vt 0.8176 0.6315 0.0000
vt 0.8176 0.2000 0.0000
vt 0.8176 0.5855 0.0000
vt 0.8176 0.5388 0.0000
vt 0.8991 0.8222 0.0000
vt 0.8991 0.7085 0.0000
vt 0.9079 0.7085 0.0000
vt 0.9079 0.2183 0.0000
vt 0.8991 0.2183 0.0000
vt 0.9079 0.1841 0.0000
vt 0.8991 0.1841 0.0000
vt 0.9079 0.8601 0.0000
vt 0.8991 0.8601 0.0000
vt 0.8588 0.7241 0.0000
vt 0.9079 0.5122 0.0000
vt 0.8991 0.5122 0.0000
vt 0.8262 0.1504 0.0000
vt 0.8588 0.8603 0.0000
vt 0.9493 0.6696 0.0000
vt 0.9858 0.6696 0.0000
vt 0.9858 0.7085 0.0000
vt 0.9493 0.7085 0.0000
vt 0.8121 0.0083 0.0000
vt 0.7701 0.0083 0.0000
vt 0.7701 0.0742 0.0000
vt 0.8115 0.0742 0.0000
vt 0.8991 0.3954 0.0000
vt 0.8176 0.1504 0.0000
vt 0.8176 0.1030 0.0000
vt 0.8176 0.4901 0.0000
vt 0.9443 0.7085 0.0000
vt 0.9443 0.7473 0.0000
vt 0.9443 0.1841 0.0000
vt 0.9443 0.2183 0.0000
vt 0.9443 0.6696 0.0000
vt 0.9443 0.4733 0.0000
vt 0.9443 0.4338 0.0000
vt 0.9443 0.5122 0.0000
vt 0.9443 0.8601 0.0000
vt 0.9443 0.2529 0.0000
vt 0.9443 0.3211 0.0000
vt 0.9443 0.2870 0.0000
vt 0.8073 0.2921 0.0000
vt 0.7743 0.2921 0.0000
vt 0.7818 0.3681 0.0000
vt 0.7998 0.3681 0.0000
vt 0.9493 0.4733 0.0000
vt 0.9493 0.5122 0.0000
vt 0.9493 0.3954 0.0000
vt 0.9493 0.4338 0.0000
vt 0.9493 0.7473 0.0000
vt 0.9493 0.7853 0.0000
vt 0.9493 0.8222 0.0000
vt 0.9493 0.8601 0.0000
vt 0.9493 0.2183 0.0000
vt 0.9493 0.1841 0.0000
vt 0.9858 0.1841 0.0000
vt 0.9858 0.2183 0.0000
vt 0.9493 0.3577 0.0000
vt 0.9493 0.3211 0.0000
vt 0.9858 0.3211 0.0000
vt 0.9858 0.3577 0.0000
vt 0.9493 0.6307 0.0000
vt 0.9858 0.6307 0.0000
vt 0.9493 0.5915 0.0000
vt 0.9858 0.5915 0.0000
vt 0.9858 0.4338 0.0000
vt 0.9858 0.4733 0.0000
vt 0.9493 0.5520 0.0000
vt 0.9858 0.5520 0.0000
vt 0.9858 0.7853 0.0000
vt 0.9858 0.8222 0.0000
vt 0.9493 0.2870 0.0000
vt 0.9493 0.2529 0.0000
vt 0.9858 0.2529 0.0000
vt 0.9858 0.2870 0.0000
vt 0.9858 0.5122 0.0000
vt 0.9858 0.3954 0.0000
vt 0.9858 0.7473 0.0000
vt 0.9858 0.8601 0.0000
vt 0.6336 0.2605 0.0000
vt 0.6366 0.1837 0.0000
vt 0.5955 0.1837 0.0000
vt 0.5985 0.2605 0.0000
vt 0.6265 0.0211 0.0000
vt 0.6265 0.0113 0.0000
vt 0.6056 0.0113 0.0000
vt 0.6056 0.0211 0.0000
vt 0.5649 0.2141 0.0000
vt 0.5319 0.2141 0.0000
vt 0.6354 0.1101 0.0000
vt 0.6265 0.0292 0.0000
vt 0.6056 0.0292 0.0000
vt 0.5967 0.1101 0.0000
vt 0.6802 0.2049 0.0000
vt 0.5681 0.3540 0.0000
vt 0.5913 0.3510 0.0000
vt 0.5794 0.2599 0.0000
vt 0.5696 0.0068 0.0000
vt 0.5277 0.0068 0.0000
vt 0.7501 0.4820 0.0000
vt 0.6537 0.0093 0.0000
vt 0.6845 0.0093 0.0000
vt 0.7743 0.2156 0.0000
vt 0.8073 0.2156 0.0000
vt 0.6845 0.0978 0.0000
vt 0.6537 0.0978 0.0000
vt 0.6887 0.1157 0.0000
vt 0.7031 0.0219 0.0000
vt 0.7743 0.4624 0.0000
vt 0.7599 0.1157 0.0000
vt 0.7462 0.0219 0.0000
vt 0.9976 0.1313 0.0000
vt 0.9773 0.1514 0.0000
vt 0.9213 0.1514 0.0000
vt 0.9012 0.1313 0.0000
vt 0.9978 0.9061 0.0000
vt 0.9978 0.8839 0.0000
vt 0.0052 0.8839 0.0000
vt 0.0052 0.9061 0.0000
vt 0.9012 0.0767 0.0000
vt 0.9976 0.0767 0.0000
vt 0.5711 0.4278 0.0000
vt 0.5925 0.4451 0.0000
vt 0.9213 0.0561 0.0000
vt 0.9773 0.0561 0.0000
vt 0.0052 0.9936 0.0000
vt 0.9978 0.9936 0.0000
vt 0.9978 0.9732 0.0000
vt 0.0052 0.9732 0.0000
vt 0.9978 0.9285 0.0000
vt 0.0052 0.9285 0.0000
vt 0.9978 0.9509 0.0000
vt 0.0052 0.9509 0.0000
vt 0.7640 0.5031 0.0000
vt 0.7871 0.5535 0.0000
vt 0.6396 0.4451 0.0000
vt 0.6408 0.3510 0.0000
vt 0.6562 0.1926 0.0000
vt 0.6527 0.2599 0.0000
vt 0.5836 0.1113 0.0000
vt 0.5967 0.0259 0.0000
vt 0.5759 0.1926 0.0000
vt 0.6646 0.3540 0.0000
vt 0.6616 0.4272 0.0000
vt 0.6485 0.1113 0.0000
vt 0.6360 0.0259 0.0000
vt 0.9978 0.8694 0.0000
vt 0.0052 0.8694 0.0000
# 493 texture coords

o Torch
g Torch
usemtl 02___Default
f 1/1/1 2/2/1 3/3/1 4/4/1 
f 1/5/2 4/6/2 5/7/2 6/8/2 
f 7/9/3 8/10/3 9/11/3 5/7/3 
f 10/12/4 11/13/4 2/2/4 1/1/4 
f 5/7/5 9/11/5 12/14/5 6/8/5 
f 13/15/6 14/16/6 11/13/6 10/12/6 
f 4/6/7 15/17/7 7/9/7 5/7/7 
f 16/18/8 17/19/8 18/20/8 19/21/8 
f 15/17/9 20/22/9 21/23/9 7/9/9 
f 11/13/10 14/16/10 18/20/10 17/19/10 
f 4/4/11 3/3/11 22/24/11 15/25/11 
f 23/26/12 22/24/12 8/10/12 24/27/12 
f 3/3/13 2/2/13 12/14/13 9/11/13 
f 13/28/14 10/29/14 16/18/14 19/21/14 
f 21/23/15 24/27/15 8/10/15 7/9/15 
f 19/21/16 18/30/16 14/31/16 13/28/16 
f 15/25/17 22/24/17 23/26/17 20/32/17 
f 20/22/18 23/33/18 24/34/18 21/23/18 
f 6/8/19 12/14/19 17/19/19 16/18/19 
f 22/24/20 3/3/20 9/11/20 8/10/20 
f 2/2/21 11/13/21 17/19/21 12/14/21 
f 10/29/22 1/5/22 6/8/22 16/18/22 
f 25/21/23 26/30/23 27/31/23 28/28/23 
f 29/25/24 30/24/24 31/26/24 32/32/24 
f 32/22/25 31/33/25 33/34/25 34/23/25 
f 27/16/26 35/2/26 36/1/26 28/15/26 
f 29/17/27 32/22/27 34/23/27 37/9/27 
f 28/28/28 36/5/28 38/8/28 25/21/28 
f 31/26/29 30/24/29 39/10/29 33/27/29 
f 29/17/30 37/9/30 38/8/30 36/5/30 
f 38/8/31 40/14/31 26/20/31 25/21/31 
f 39/10/32 40/14/32 38/8/32 37/9/32 
f 34/23/33 33/27/33 39/10/33 37/9/33 
f 35/2/34 30/24/34 29/25/34 36/1/34 
f 41/26/35 42/32/35 43/4/35 44/3/35 
f 45/1/36 46/2/36 44/3/36 43/4/36 
f 45/5/37 43/6/37 47/7/37 48/8/37 
f 49/19/38 50/18/38 51/7/38 52/11/38 
f 53/12/39 54/13/39 46/2/39 45/1/39 
f 47/7/40 55/11/40 56/14/40 48/8/40 
f 57/15/41 58/16/41 54/13/41 53/12/41 
f 59/23/42 60/27/42 55/11/42 47/7/42 
f 61/18/43 62/19/43 63/20/43 64/21/43 
f 54/13/44 58/16/44 63/20/44 62/19/44 
f 41/26/45 44/3/45 55/11/45 60/27/45 
f 42/22/46 59/23/46 47/7/46 43/6/46 
f 44/3/47 46/2/47 56/14/47 55/11/47 
f 57/28/48 53/29/48 61/18/48 64/21/48 
f 64/21/49 63/30/49 58/31/49 57/28/49 
f 42/22/50 41/33/50 60/34/50 59/23/50 
f 48/8/51 56/14/51 62/19/51 61/18/51 
f 46/2/52 54/13/52 62/19/52 56/14/52 
f 53/29/53 45/5/53 48/8/53 61/18/53 
f 65/19/54 66/18/54 67/7/54 68/11/54 
f 69/12/55 70/13/55 71/3/55 72/4/55 
f 73/9/56 74/10/56 52/11/56 51/7/56 
f 71/3/57 70/13/57 49/19/57 52/11/57 
f 75/15/58 76/16/58 70/13/58 69/12/58 
f 72/6/59 77/17/59 73/9/59 51/7/59 
f 50/18/60 49/19/60 78/20/60 79/21/60 
f 77/17/61 80/22/61 81/23/61 73/9/61 
f 70/13/62 76/16/62 78/20/62 49/19/62 
f 72/4/63 71/3/63 82/24/63 77/25/63 
f 83/26/64 82/24/64 74/10/64 84/27/64 
f 69/29/65 72/6/65 51/7/65 50/18/65 
f 75/28/66 69/29/66 50/18/66 79/21/66 
f 81/23/67 84/27/67 74/10/67 73/9/67 
f 79/21/68 78/30/68 76/31/68 75/28/68 
f 77/25/69 82/24/69 83/26/69 80/32/69 
f 80/22/70 83/33/70 84/34/70 81/23/70 
f 82/24/71 71/3/71 52/11/71 74/10/71 
f 35/2/72 40/14/72 39/10/72 30/24/72 
f 85/12/73 86/13/73 87/3/73 88/4/73 
f 89/9/74 90/10/74 68/11/74 67/7/74 
f 87/3/75 86/13/75 65/19/75 68/11/75 
f 91/15/76 92/16/76 86/13/76 85/12/76 
f 88/6/77 93/17/77 89/9/77 67/7/77 
f 66/18/78 65/19/78 94/20/78 95/21/78 
f 93/17/79 96/22/79 97/23/79 89/9/79 
f 86/13/80 92/16/80 94/20/80 65/19/80 
f 88/4/81 87/3/81 98/24/81 93/25/81 
f 99/26/82 98/24/82 90/10/82 100/27/82 
f 85/29/83 88/6/83 67/7/83 66/18/83 
f 91/28/84 85/29/84 66/18/84 95/21/84 
f 97/23/85 100/27/85 90/10/85 89/9/85 
f 95/21/86 94/30/86 92/31/86 91/28/86 
f 93/25/87 98/24/87 99/26/87 96/32/87 
f 96/22/88 99/33/88 100/34/88 97/23/88 
f 98/24/89 87/3/89 68/11/89 90/10/89 
f 101/35/90 102/36/91 103/37/92 104/38/93 
f 105/39/94 106/40/95 107/41/96 108/42/97 
f 109/43/98 110/44/99 111/45/100 112/46/101 
f 113/47/102 114/48/103 115/49/104 116/50/105 
f 117/51/106 118/52/107 119/53/108 120/54/109 
f 114/55/103 113/56/102 117/51/106 120/54/109 
f 116/57/105 118/52/107 121/58/110 122/59/111 
f 106/60/95 105/61/94 109/62/98 123/63/112 
f 119/53/108 115/64/104 123/65/112 124/66/113 
f 112/46/101 111/45/100 125/67/114 108/42/97 
f 109/43/98 112/46/101 124/66/113 123/65/112 
f 126/68/115 104/69/93 103/70/92 127/71/116 
f 128/72/117 127/71/116 103/70/92 102/73/91 
f 101/35/90 104/38/93 126/74/115 129/75/118 
f 129/75/118 126/74/115 127/76/116 128/77/117 
f 120/54/109 119/53/108 124/66/113 107/41/96 
f 105/61/94 130/78/119 110/79/99 109/62/98 
f 131/80/120 132/81/121 133/82/122 134/83/123 
f 108/42/97 125/67/114 130/84/119 105/39/94 
f 118/52/107 116/57/105 115/64/104 119/53/108 
f 106/40/95 114/55/103 120/54/109 107/41/96 
f 133/82/122 135/85/124 136/86/125 134/83/123 
f 137/87/126 138/88/127 136/86/125 135/85/124 
f 132/89/121 137/90/126 135/91/124 133/92/122 
f 138/93/127 131/94/120 134/95/123 136/96/125 
f 123/65/112 115/64/104 131/94/120 138/93/127 
f 114/55/103 106/40/95 137/90/126 132/89/121 
f 106/60/95 123/63/112 138/88/127 137/87/126 
f 115/49/104 114/48/103 132/81/121 131/80/120 
f 108/42/97 107/41/96 124/66/113 112/46/101 
f 113/47/102 116/50/105 122/97/111 139/98/128 
f 117/51/106 113/56/102 139/99/128 140/100/129 
f 125/67/114 129/75/118 128/77/117 130/84/119 
f 111/45/100 101/35/90 129/75/118 125/67/114 
f 130/78/119 128/72/117 102/73/91 110/79/99 
f 111/45/100 110/44/99 102/36/91 101/35/90 
f 140/100/129 121/58/110 118/52/107 117/51/106 
f 141/35/130 142/36/131 143/37/132 144/38/133 
f 145/39/134 146/40/135 147/41/136 148/42/137 
f 149/43/138 150/44/139 151/45/140 152/46/141 
f 153/47/142 154/48/143 155/49/144 156/50/145 
f 157/51/146 158/52/147 159/53/148 160/54/149 
f 154/55/143 153/56/142 157/51/146 160/54/149 
f 156/57/145 158/52/147 161/58/150 162/59/151 
f 146/60/135 145/61/134 149/62/138 163/63/152 
f 159/53/148 155/64/144 163/65/152 164/66/153 
f 152/46/141 151/45/140 165/67/154 148/42/137 
f 149/43/138 152/46/141 164/66/153 163/65/152 
f 166/68/155 144/69/133 143/70/132 167/71/156 
f 168/72/157 167/71/156 143/70/132 142/73/131 
f 141/35/130 144/38/133 166/74/155 169/75/158 
f 169/75/158 166/74/155 167/76/156 168/77/157 
f 160/54/149 159/53/148 164/66/153 147/41/136 
f 145/61/134 170/78/159 150/79/139 149/62/138 
f 171/80/160 172/81/161 173/82/162 174/83/163 
f 148/42/137 165/67/154 170/84/159 145/39/134 
f 158/52/147 156/57/145 155/64/144 159/53/148 
f 146/40/135 154/55/143 160/54/149 147/41/136 
f 173/82/162 175/85/164 176/86/165 174/83/163 
f 177/87/166 178/88/167 176/86/165 175/85/164 
f 172/89/161 177/90/166 175/91/164 173/92/162 
f 178/93/167 171/94/160 174/95/163 176/96/165 
f 163/65/152 155/64/144 171/94/160 178/93/167 
f 154/55/143 146/40/135 177/90/166 172/89/161 
f 146/60/135 163/63/152 178/88/167 177/87/166 
f 155/49/144 154/48/143 172/81/161 171/80/160 
f 148/42/137 147/41/136 164/66/153 152/46/141 
f 153/47/142 156/50/145 162/97/151 179/98/168 
f 157/51/146 153/56/142 179/99/168 180/100/169 
f 165/67/154 169/75/158 168/77/157 170/84/159 
f 151/45/140 141/35/130 169/75/158 165/67/154 
f 170/78/159 168/72/157 142/73/131 150/79/139 
f 151/45/140 150/44/139 142/36/131 141/35/130 
f 180/100/169 161/58/150 158/52/147 157/51/146 
f 181/35/170 182/36/171 183/37/172 184/38/173 
f 185/39/174 186/40/175 187/41/176 188/42/177 
f 189/43/178 190/44/179 191/45/180 192/46/181 
f 193/47/182 194/48/183 195/49/184 196/50/185 
f 197/51/186 198/52/187 199/53/188 200/54/189 
f 194/55/183 193/56/182 197/51/186 200/54/189 
f 196/57/185 198/52/187 201/58/190 202/59/191 
f 186/60/175 185/61/174 189/62/178 203/63/192 
f 199/53/188 195/64/184 203/65/192 204/66/193 
f 192/46/181 191/45/180 205/67/194 188/42/177 
f 189/43/178 192/46/181 204/66/193 203/65/192 
f 206/68/195 184/69/173 183/70/172 207/71/196 
f 208/72/197 207/71/196 183/70/172 182/73/171 
f 181/35/170 184/38/173 206/74/195 209/75/198 
f 209/75/198 206/74/195 207/76/196 208/77/197 
f 200/54/189 199/53/188 204/66/193 187/41/176 
f 185/61/174 210/78/199 190/79/179 189/62/178 
f 211/80/200 212/81/201 213/82/202 214/83/203 
f 188/42/177 205/67/194 210/84/199 185/39/174 
f 198/52/187 196/57/185 195/64/184 199/53/188 
f 186/40/175 194/55/183 200/54/189 187/41/176 
f 213/82/202 215/85/204 216/86/205 214/83/203 
f 217/87/206 218/88/207 216/86/205 215/85/204 
f 212/89/201 217/90/206 215/91/204 213/92/202 
f 218/93/207 211/94/200 214/95/203 216/96/205 
f 203/65/192 195/64/184 211/94/200 218/93/207 
f 194/55/183 186/40/175 217/90/206 212/89/201 
f 186/60/175 203/63/192 218/88/207 217/87/206 
f 195/49/184 194/48/183 212/81/201 211/80/200 
f 188/42/177 187/41/176 204/66/193 192/46/181 
f 193/47/182 196/50/185 202/97/191 219/98/208 
f 197/51/186 193/56/182 219/99/208 220/100/209 
f 205/67/194 209/75/198 208/77/197 210/84/199 
f 191/45/180 181/35/170 209/75/198 205/67/194 
f 210/78/199 208/72/197 182/73/171 190/79/179 
f 191/45/180 190/44/179 182/36/171 181/35/170 
f 220/100/209 201/58/190 198/52/187 197/51/186 
f 221/35/210 222/36/211 223/37/212 224/38/213 
f 225/39/214 226/40/215 227/41/216 228/42/217 
f 229/43/218 230/44/219 231/45/220 232/46/221 
f 233/47/222 234/48/223 235/49/224 236/50/225 
f 237/51/226 238/52/227 239/53/228 240/54/229 
f 234/55/223 233/56/222 237/51/226 240/54/229 
f 236/57/225 238/52/227 241/58/230 242/59/231 
f 226/60/215 225/61/214 229/62/218 243/63/232 
f 239/53/228 235/64/224 243/65/232 244/66/233 
f 232/46/221 231/45/220 245/67/234 228/42/217 
f 229/43/218 232/46/221 244/66/233 243/65/232 
f 246/68/235 224/69/213 223/70/212 247/71/236 
f 248/72/237 247/71/236 223/70/212 222/73/211 
f 221/35/210 224/38/213 246/74/235 249/75/238 
f 249/75/238 246/74/235 247/76/236 248/77/237 
f 240/54/229 239/53/228 244/66/233 227/41/216 
f 225/61/214 250/78/239 230/79/219 229/62/218 
f 251/80/240 252/81/241 253/82/242 254/83/243 
f 228/42/217 245/67/234 250/84/239 225/39/214 
f 238/52/227 236/57/225 235/64/224 239/53/228 
f 226/40/215 234/55/223 240/54/229 227/41/216 
f 253/82/242 255/85/244 256/86/245 254/83/243 
f 257/87/246 258/88/247 256/86/245 255/85/244 
f 252/89/241 257/90/246 255/91/244 253/92/242 
f 258/93/247 251/94/240 254/95/243 256/96/245 
f 243/65/232 235/64/224 251/94/240 258/93/247 
f 234/55/223 226/40/215 257/90/246 252/89/241 
f 226/60/215 243/63/232 258/88/247 257/87/246 
f 235/49/224 234/48/223 252/81/241 251/80/240 
f 228/42/217 227/41/216 244/66/233 232/46/221 
f 233/47/222 236/50/225 242/97/231 259/98/248 
f 237/51/226 233/56/222 259/99/248 260/100/249 
f 245/67/234 249/75/238 248/77/237 250/84/239 
f 231/45/220 221/35/210 249/75/238 245/67/234 
f 250/78/239 248/72/237 222/73/211 230/79/219 
f 231/45/220 230/44/219 222/36/211 221/35/210 
f 260/100/249 241/58/230 238/52/227 237/51/226 
f 261/101/250 262/102/251 263/103/252 264/104/253 
f 265/105/254 266/106/255 267/107/256 268/108/257 
f 269/109/258 270/110/259 271/111/260 272/112/261 
f 273/113/262 274/114/263 275/115/264 276/116/265 
f 277/117/266 278/118/267 279/119/268 280/120/269 
f 274/121/263 273/122/262 277/117/266 280/120/269 
f 281/123/270 282/124/271 283/125/272 284/126/273 
f 266/127/255 265/128/254 269/129/258 285/130/274 
f 279/119/268 275/131/264 285/132/274 286/133/275 
f 272/112/261 271/111/260 287/134/276 268/108/257 
f 269/109/258 272/112/261 286/133/275 285/132/274 
f 288/135/277 264/136/253 263/137/252 289/138/278 
f 290/139/279 289/138/278 263/137/252 262/140/251 
f 261/101/250 264/104/253 288/141/277 291/142/280 
f 291/142/280 288/141/277 289/143/278 290/144/279 
f 280/120/269 279/119/268 286/133/275 267/107/256 
f 265/128/254 292/145/281 270/146/259 269/129/258 
f 293/147/282 294/148/283 295/149/284 296/150/285 
f 268/108/257 287/134/276 292/151/281 265/105/254 
f 278/118/267 276/152/265 275/131/264 279/119/268 
f 266/106/255 274/121/263 280/120/269 267/107/256 
f 295/149/284 297/153/286 298/154/287 296/150/285 
f 299/155/288 300/156/289 298/154/287 297/153/286 
f 294/157/283 299/158/288 297/159/286 295/160/284 
f 300/161/289 293/162/282 296/163/285 298/164/287 
f 285/132/274 275/131/264 293/162/282 300/161/289 
f 274/121/263 266/106/255 299/158/288 294/157/283 
f 266/127/255 285/130/274 300/156/289 299/155/288 
f 275/115/264 274/114/263 294/148/283 293/147/282 
f 268/108/257 267/107/256 286/133/275 272/112/261 
f 301/165/290 281/166/270 284/167/273 302/168/291 
f 303/169/292 301/170/290 302/171/291 304/172/293 
f 287/134/276 291/142/280 290/144/279 292/151/281 
f 271/111/260 261/101/250 291/142/280 287/134/276 
f 292/145/281 290/139/279 262/140/251 270/146/259 
f 271/111/260 270/110/259 262/102/251 261/101/250 
f 303/169/292 282/124/271 278/118/267 277/117/266 
f 304/172/293 283/125/272 282/124/271 303/169/292 
f 277/117/266 273/122/262 301/170/290 303/169/292 
f 273/113/262 276/116/265 281/166/270 301/165/290 
f 276/152/265 278/118/267 282/124/271 281/123/270 
f 305/101/294 306/102/295 307/103/296 308/104/297 
f 309/105/298 310/106/299 311/107/300 312/108/301 
f 313/109/302 314/110/303 315/111/304 316/112/305 
f 317/113/306 318/114/307 319/115/308 320/116/309 
f 321/117/310 322/118/311 323/119/312 324/120/313 
f 318/121/307 317/122/306 321/117/310 324/120/313 
f 325/123/314 326/124/315 327/125/316 328/126/317 
f 310/127/299 309/128/298 313/129/302 329/130/318 
f 323/119/312 319/131/308 329/132/318 330/133/319 
f 316/112/305 315/111/304 331/134/320 312/108/301 
f 313/109/302 316/112/305 330/133/319 329/132/318 
f 332/135/321 308/136/297 307/137/296 333/138/322 
f 334/139/323 333/138/322 307/137/296 306/140/295 
f 305/101/294 308/104/297 332/141/321 335/142/324 
f 335/142/324 332/141/321 333/143/322 334/144/323 
f 324/120/313 323/119/312 330/133/319 311/107/300 
f 309/128/298 336/145/325 314/146/303 313/129/302 
f 337/147/326 338/148/327 339/149/328 340/150/329 
f 312/108/301 331/134/320 336/151/325 309/105/298 
f 322/118/311 320/152/309 319/131/308 323/119/312 
f 310/106/299 318/121/307 324/120/313 311/107/300 
f 339/149/328 341/153/330 342/154/331 340/150/329 
f 343/155/332 344/156/333 342/154/331 341/153/330 
f 338/157/327 343/158/332 341/159/330 339/160/328 
f 344/161/333 337/162/326 340/163/329 342/164/331 
f 329/132/318 319/131/308 337/162/326 344/161/333 
f 318/121/307 310/106/299 343/158/332 338/157/327 
f 310/127/299 329/130/318 344/156/333 343/155/332 
f 319/115/308 318/114/307 338/148/327 337/147/326 
f 312/108/301 311/107/300 330/133/319 316/112/305 
f 345/165/334 325/166/314 328/167/317 346/168/335 
f 347/169/336 345/170/334 346/171/335 348/172/337 
f 331/134/320 335/142/324 334/144/323 336/151/325 
f 315/111/304 305/101/294 335/142/324 331/134/320 
f 336/145/325 334/139/323 306/140/295 314/146/303 
f 315/111/304 314/110/303 306/102/295 305/101/294 
f 347/169/336 326/124/315 322/118/311 321/117/310 
f 348/172/337 327/125/316 326/124/315 347/169/336 
f 321/117/310 317/122/306 345/170/334 347/169/336 
f 317/113/306 320/116/309 325/166/314 345/165/334 
f 320/152/309 322/118/311 326/124/315 325/123/314 
f 349/101/338 350/102/339 351/103/340 352/104/341 
f 353/105/342 354/106/343 355/107/344 356/108/345 
f 357/109/346 358/110/347 359/111/348 360/112/349 
f 361/113/350 362/114/351 363/115/352 364/116/353 
f 365/117/354 366/118/355 367/119/356 368/120/357 
f 362/121/351 361/122/350 365/117/354 368/120/357 
f 369/123/358 370/124/359 371/125/360 372/126/361 
f 354/127/343 353/128/342 357/129/346 373/130/362 
f 367/119/356 363/131/352 373/132/362 374/133/363 
f 360/112/349 359/111/348 375/134/364 356/108/345 
f 357/109/346 360/112/349 374/133/363 373/132/362 
f 376/135/365 352/136/341 351/137/340 377/138/366 
f 378/139/367 377/138/366 351/137/340 350/140/339 
f 349/101/338 352/104/341 376/141/365 379/142/368 
f 379/142/368 376/141/365 377/143/366 378/144/367 
f 368/120/357 367/119/356 374/133/363 355/107/344 
f 353/128/342 380/145/369 358/146/347 357/129/346 
f 381/147/370 382/148/371 383/149/372 384/150/373 
f 356/108/345 375/134/364 380/151/369 353/105/342 
f 366/118/355 364/152/353 363/131/352 367/119/356 
f 354/106/343 362/121/351 368/120/357 355/107/344 
f 383/149/372 385/153/374 386/154/375 384/150/373 
f 387/155/376 388/156/377 386/154/375 385/153/374 
f 382/157/371 387/158/376 385/159/374 383/160/372 
f 388/161/377 381/162/370 384/163/373 386/164/375 
f 373/132/362 363/131/352 381/162/370 388/161/377 
f 362/121/351 354/106/343 387/158/376 382/157/371 
f 354/127/343 373/130/362 388/156/377 387/155/376 
f 363/115/352 362/114/351 382/148/371 381/147/370 
f 356/108/345 355/107/344 374/133/363 360/112/349 
f 389/165/378 369/166/358 372/167/361 390/168/379 
f 391/169/380 389/170/378 390/171/379 392/172/381 
f 375/134/364 379/142/368 378/144/367 380/151/369 
f 359/111/348 349/101/338 379/142/368 375/134/364 
f 380/145/369 378/139/367 350/140/339 358/146/347 
f 359/111/348 358/110/347 350/102/339 349/101/338 
f 391/169/380 370/124/359 366/118/355 365/117/354 
f 392/172/381 371/125/360 370/124/359 391/169/380 
f 365/117/354 361/122/350 389/170/378 391/169/380 
f 361/113/350 364/116/353 369/166/358 389/165/378 
f 364/152/353 366/118/355 370/124/359 369/123/358 
f 393/101/382 394/102/383 395/103/384 396/104/385 
f 397/105/386 398/106/387 399/107/388 400/108/389 
f 401/109/390 402/110/391 403/111/392 404/112/393 
f 405/113/394 406/114/395 407/115/396 408/116/397 
f 409/117/398 410/118/399 411/119/400 412/120/401 
f 406/121/395 405/122/394 409/117/398 412/120/401 
f 413/123/402 414/124/403 415/125/404 416/126/405 
f 398/127/387 397/128/386 401/129/390 417/130/406 
f 411/119/400 407/131/396 417/132/406 418/133/407 
f 404/112/393 403/111/392 419/134/408 400/108/389 
f 401/109/390 404/112/393 418/133/407 417/132/406 
f 420/135/409 396/136/385 395/137/384 421/138/410 
f 422/139/411 421/138/410 395/137/384 394/140/383 
f 393/101/382 396/104/385 420/141/409 423/142/412 
f 423/142/412 420/141/409 421/143/410 422/144/411 
f 412/120/401 411/119/400 418/133/407 399/107/388 
f 397/128/386 424/145/413 402/146/391 401/129/390 
f 425/147/414 426/148/415 427/149/416 428/150/417 
f 400/108/389 419/134/408 424/151/413 397/105/386 
f 410/118/399 408/152/397 407/131/396 411/119/400 
f 398/106/387 406/121/395 412/120/401 399/107/388 
f 427/149/416 429/153/418 430/154/419 428/150/417 
f 431/155/420 432/156/421 430/154/419 429/153/418 
f 426/157/415 431/158/420 429/159/418 427/160/416 
f 432/161/421 425/162/414 428/163/417 430/164/419 
f 417/132/406 407/131/396 425/162/414 432/161/421 
f 406/121/395 398/106/387 431/158/420 426/157/415 
f 398/127/387 417/130/406 432/156/421 431/155/420 
f 407/115/396 406/114/395 426/148/415 425/147/414 
f 400/108/389 399/107/388 418/133/407 404/112/393 
f 433/165/422 413/166/402 416/167/405 434/168/423 
f 435/169/424 433/170/422 434/171/423 436/172/425 
f 419/134/408 423/142/412 422/144/411 424/151/413 
f 403/111/392 393/101/382 423/142/412 419/134/408 
f 424/145/413 422/139/411 394/140/383 402/146/391 
f 403/111/392 402/110/391 394/102/383 393/101/382 
f 435/169/424 414/124/403 410/118/399 409/117/398 
f 436/172/425 415/125/404 414/124/403 435/169/424 
f 409/117/398 405/122/394 433/170/422 435/169/424 
f 405/113/394 408/116/397 413/166/402 433/165/422 
f 408/152/397 410/118/399 414/124/403 413/123/402 
f 437/173/426 438/174/427 439/175/428 
f 440/176/429 437/173/426 439/175/428 
f 441/177/430 442/178/431 437/173/426 
f 441/177/430 437/173/426 440/176/429 
f 442/178/431 443/179/432 437/173/426 
f 443/179/432 438/174/427 437/173/426 
f 444/174/433 445/173/434 446/179/435 
f 444/174/433 447/175/436 445/173/434 
f 446/179/435 445/173/434 448/178/437 
f 445/173/434 449/177/438 448/178/437 
f 445/173/434 447/175/436 450/176/439 
f 445/173/434 450/176/439 449/177/438 
f 451/180/440 452/181/441 453/182/442 454/183/443 
f 455/184/444 456/185/445 457/186/446 458/187/447 
f 459/188/448 460/189/449 461/190/450 462/191/451 
f 463/192/452 464/193/453 465/194/454 466/195/455 
f 450/196/439 439/197/428 438/198/427 449/199/438 
f 467/200/456 452/181/441 468/201/457 469/202/458 
f 470/203/459 471/204/460 472/205/461 473/206/462 
f 474/207/463 475/208/464 476/209/465 477/210/466 
f 478/211/467 469/212/458 468/213/457 479/214/468 
f 480/215/469 467/200/456 465/194/454 481/216/470 
f 482/217/471 483/218/472 484/219/473 485/220/474 
f 458/187/447 457/186/446 486/221/475 487/222/476 
f 488/223/477 489/224/478 490/225/479 491/226/480 
f 485/220/474 484/219/473 492/227/481 493/228/482 
f 481/216/470 465/194/454 464/193/453 494/229/483 
f 495/230/484 496/231/485 497/232/486 498/233/487 
f 499/234/488 500/235/489 501/236/490 502/237/491 
f 503/238/492 504/239/493 505/240/494 506/241/495 
f 487/222/476 486/221/475 507/242/496 508/243/497 
f 509/244/498 510/245/499 456/185/445 455/184/444 
f 506/241/495 505/240/494 511/246/500 512/247/501 
f 513/248/502 514/249/503 464/193/453 463/192/452 
f 452/181/441 451/180/440 515/250/504 468/201/457 
f 516/251/505 517/252/506 518/253/507 519/254/508 
f 520/255/509 518/253/507 503/256/492 506/257/495 
f 493/228/482 492/227/481 521/258/510 522/259/511 
f 517/252/506 523/260/512 524/261/513 525/262/514 
f 526/263/515 527/264/516 507/265/496 528/266/517 
f 529/267/518 530/268/519 511/246/500 531/269/520 
f 532/270/521 533/271/522 534/272/523 535/273/524 
f 523/274/512 536/275/525 510/276/499 524/277/513 
f 537/278/526 538/279/527 539/280/528 540/281/529 
f 455/184/444 458/187/447 541/282/530 542/283/531 
f 479/214/468 468/213/457 515/284/504 543/285/532 
f 544/286/533 545/287/534 546/288/535 547/289/536 
f 548/290/537 451/180/440 454/183/443 549/291/538 
f 550/292/539 551/293/540 552/294/541 553/295/542 
f 487/222/476 508/243/497 554/296/543 555/297/544 
f 458/187/447 487/222/476 555/297/544 541/282/530 
f 556/298/545 557/299/546 558/300/547 559/301/548 
f 474/207/463 560/302/549 561/303/550 472/205/461 
f 562/225/551 563/298/552 564/304/553 565/226/554 
f 480/215/469 481/216/470 566/305/555 478/211/467 
f 567/306/556 568/307/557 529/267/518 531/269/520 
f 454/183/443 543/285/532 526/263/515 549/291/538 
f 569/308/558 536/275/525 570/309/559 542/283/531 
f 481/216/470 494/229/483 571/310/560 566/305/555 
f 572/311/561 573/312/562 550/292/539 545/287/534 
f 574/313/563 575/314/564 482/217/471 576/315/565 
f 570/309/559 536/275/525 523/274/512 577/316/566 
f 549/291/538 526/263/515 528/266/517 554/296/543 
f 578/317/567 579/318/568 580/319/569 581/320/570 
f 582/321/571 530/268/519 514/249/503 513/248/502 
f 557/322/546 583/323/572 584/324/573 558/325/547 
f 494/229/483 585/326/574 586/327/575 571/310/560 
f 587/328/576 539/280/528 588/329/577 589/330/578 
f 545/287/534 544/286/533 590/331/579 572/311/561 
f 585/326/574 529/267/518 568/307/557 586/327/575 
f 528/266/517 591/332/580 555/297/544 554/296/543 
f 592/333/581 593/334/582 594/335/583 595/336/584 
f 525/337/514 596/338/585 504/239/493 503/238/492 
f 597/323/586 598/322/587 599/325/588 600/324/589 
f 451/180/440 548/290/537 527/339/516 515/250/504 
f 508/243/497 507/242/496 527/339/516 548/290/537 
f 596/338/585 525/337/514 524/340/513 601/341/590 
f 512/247/501 511/246/500 530/268/519 582/321/571 
f 601/342/590 524/343/513 510/245/499 509/244/498 
f 568/307/557 567/306/556 512/344/501 582/345/571 
f 528/266/517 507/265/496 486/346/475 591/332/580 
f 543/285/532 515/284/504 527/264/516 526/263/515 
f 571/310/560 586/327/575 513/347/502 463/348/452 
f 540/281/529 539/280/528 587/328/576 602/349/591 
f 603/350/592 552/294/541 551/293/540 604/351/593 
f 605/352/594 522/259/511 521/258/510 606/353/595 
f 567/306/556 520/255/509 506/257/495 512/344/501 
f 607/354/596 605/352/594 606/353/595 608/355/597 
f 587/328/576 607/356/596 608/357/597 602/349/591 
f 508/243/497 548/290/537 549/291/538 554/296/543 
f 519/254/508 609/358/598 505/240/494 504/239/493 
f 610/359/599 611/360/600 533/271/522 532/270/521 
f 585/326/574 514/249/503 530/268/519 529/267/518 
f 509/244/498 570/309/559 577/316/566 601/342/590 
f 591/332/580 612/361/601 541/282/530 555/297/544 
f 516/251/505 577/362/566 523/260/512 517/252/506 
f 613/363/602 552/364/541 603/365/592 614/366/603 
f 480/215/469 478/211/467 479/214/468 453/182/442 
f 453/182/442 479/214/468 543/285/532 454/183/443 
f 612/361/601 569/308/558 542/283/531 541/282/530 
f 520/255/509 609/358/598 519/254/508 518/253/507 
f 600/367/589 584/368/573 489/369/478 615/370/604 
f 466/195/455 465/194/454 467/200/456 469/202/458 
f 452/181/441 467/200/456 480/215/469 453/182/442 
f 535/273/524 534/272/523 616/371/605 575/314/564 
f 612/361/601 457/372/446 456/373/445 569/308/558 
f 610/359/599 544/286/533 547/289/536 611/360/600 
f 591/332/580 486/346/475 457/372/446 612/361/601 
f 531/269/520 511/246/500 505/240/494 609/358/598 
f 518/253/507 517/252/506 525/262/514 503/256/492 
f 566/305/555 571/310/560 463/348/452 466/374/455 
f 537/278/526 603/350/592 604/351/593 538/279/527 
f 536/275/525 569/308/558 456/373/445 510/276/499 
f 455/184/444 542/283/531 570/309/559 509/244/498 
f 494/229/483 464/193/453 514/249/503 585/326/574 
f 596/338/585 601/341/590 577/362/566 516/251/505 
f 545/287/534 550/292/539 553/295/542 546/288/535 
f 478/211/467 566/305/555 466/374/455 469/212/458 
f 575/314/564 616/371/605 483/218/472 482/217/471 
f 516/251/505 519/254/508 504/239/493 596/338/585 
f 538/279/527 604/351/593 617/375/606 618/376/607 
f 607/354/596 619/377/608 620/378/609 605/352/594 
f 604/351/593 551/293/540 621/379/610 617/375/606 
f 551/293/540 550/292/539 573/312/562 621/379/610 
f 622/380/611 532/270/521 535/273/524 623/381/612 
f 618/376/607 588/329/577 539/280/528 538/279/527 
f 610/359/599 532/270/521 622/380/611 624/382/613 
f 587/328/576 589/330/578 619/383/608 607/356/596 
f 625/384/614 522/259/511 605/352/594 620/378/609 
f 626/385/615 485/220/474 493/228/482 627/386/616 
f 628/387/617 629/388/618 630/389/619 631/390/620 
f 576/315/565 482/217/471 485/220/474 626/385/615 
f 590/331/579 544/286/533 610/359/599 624/382/613 
f 632/391/621 633/392/622 624/382/613 622/380/611 
f 634/393/623 635/394/624 623/381/612 574/313/563 
f 621/379/610 613/363/602 614/366/603 617/375/606 
f 617/375/606 614/366/603 636/395/625 618/376/607 
f 589/330/578 588/329/577 637/396/626 638/397/627 
f 588/329/577 618/376/607 636/395/625 637/396/626 
f 638/397/627 639/398/628 619/383/608 589/330/578 
f 640/399/629 639/400/628 608/401/597 606/402/595 
f 641/403/630 642/404/631 484/405/473 483/406/472 
f 552/364/541 613/363/602 643/407/632 553/408/542 
f 553/408/542 643/407/632 644/409/633 546/410/535 
f 632/391/621 635/394/624 534/411/523 533/412/522 
f 546/410/535 644/409/633 645/413/634 547/414/536 
f 637/396/626 540/415/529 602/416/591 638/397/627 
f 646/417/635 647/418/636 521/419/510 492/420/481 
f 547/414/536 645/413/634 633/392/622 611/421/600 
f 635/394/624 634/393/623 616/422/605 534/411/523 
f 636/395/625 537/423/526 540/415/529 637/396/626 
f 647/418/636 640/399/629 606/402/595 521/419/510 
f 633/392/622 632/391/621 533/412/522 611/421/600 
f 647/418/636 625/384/614 620/378/609 640/399/629 
f 608/424/597 639/398/628 638/397/627 602/416/591 
f 614/366/603 603/365/592 537/423/526 636/395/625 
f 634/393/623 641/403/630 483/406/472 616/422/605 
f 642/404/631 646/417/635 492/420/481 484/405/473 
f 647/418/636 646/417/635 627/386/616 625/384/614 
f 641/403/630 634/393/623 574/313/563 576/315/565 
f 633/392/622 645/413/634 590/331/579 624/382/613 
f 590/331/579 645/413/634 644/409/633 572/311/561 
f 646/417/635 642/404/631 626/385/615 627/386/616 
f 535/273/524 575/314/564 574/313/563 623/381/612 
f 642/404/631 641/403/630 576/315/565 626/385/615 
f 635/394/624 632/391/621 622/380/611 623/381/612 
f 573/312/562 643/407/632 613/363/602 621/379/610 
f 572/311/561 644/409/633 643/407/632 573/312/562 
f 640/399/629 620/378/609 619/377/608 639/400/628 
f 648/425/637 649/426/638 650/427/639 651/428/640 
f 652/230/641 653/231/642 654/232/643 655/233/644 
f 656/429/645 657/430/646 658/431/647 659/432/648 
f 660/333/649 661/226/650 662/304/651 663/334/652 
f 664/224/653 562/225/551 565/226/554 665/223/654 
f 666/433/655 667/434/656 668/189/657 669/188/658 
f 670/435/659 671/436/660 672/437/661 673/438/662 
f 674/301/663 675/439/664 564/304/553 563/298/552 
f 490/225/479 676/298/665 677/304/666 491/226/480 
f 595/230/584 594/231/583 631/232/620 630/233/619 
f 678/439/667 677/304/666 676/298/665 615/301/604 
f 679/429/668 680/430/669 681/431/670 682/432/671 
f 683/230/672 684/231/673 685/232/674 686/233/675 
f 687/440/676 688/441/677 689/428/678 690/442/679 
f 691/443/680 692/191/681 693/190/682 501/444/490 
f 671/429/660 580/430/569 579/431/568 672/432/661 
f 694/425/683 695/426/684 696/427/685 689/428/678 
f 557/299/546 556/298/545 697/225/686 698/445/687 
f 586/327/575 568/307/557 582/345/571 513/347/502 
f 448/446/437 449/199/438 438/198/427 443/447/432 
f 559/370/548 699/369/688 700/448/689 701/449/690 
f 558/367/547 702/368/691 699/369/688 559/370/548 
f 703/387/692 675/449/664 665/448/654 704/388/693 
f 565/226/554 564/304/553 705/334/694 706/333/695 
f 707/439/696 708/304/697 709/298/698 710/301/699 
f 446/199/435 448/446/437 443/447/432 442/198/431 
f 444/196/433 441/197/430 440/450/429 447/451/436 
f 711/452/700 654/453/643 653/335/642 663/334/652 
f 701/439/690 711/452/700 663/334/652 662/304/651 
f 664/369/653 665/448/654 675/449/664 674/370/663 
f 702/454/691 698/445/687 697/225/686 699/224/688 
f 697/225/686 556/298/545 662/304/651 661/226/650 
f 712/367/701 599/368/588 713/369/702 710/370/699 
f 714/455/703 660/333/649 652/336/641 655/456/644 
f 598/457/587 597/458/586 583/459/572 557/460/546 
f 678/449/667 615/370/604 489/369/478 488/448/477 
f 599/454/588 598/445/587 715/225/704 713/224/702 
f 716/334/705 717/452/706 685/453/674 684/335/673 
f 718/226/707 592/333/581 629/455/618 719/223/708 
f 701/439/690 662/304/651 556/298/545 559/301/548 
f 719/223/708 713/224/702 715/225/704 718/226/707 
f 703/452/692 497/453/486 496/335/485 705/334/694 
f 718/226/707 715/225/704 709/298/698 708/304/697 
f 704/388/693 498/389/487 497/390/486 703/387/692 
f 686/456/675 720/455/709 721/333/710 683/336/672 
f 677/304/666 678/439/667 717/452/706 716/334/705 
f 676/298/665 597/299/586 600/300/589 615/301/604 
f 663/334/652 653/335/642 652/336/641 660/333/649 
f 444/196/433 446/199/435 442/198/431 441/197/430 
f 722/445/711 723/299/712 563/298/552 562/225/551 
f 706/333/695 705/334/694 496/335/485 495/336/484 
f 583/445/572 597/299/586 676/298/665 490/225/479 
f 701/449/690 700/448/689 714/388/703 711/387/700 
f 724/435/713 725/438/714 696/427/685 695/426/684 
f 726/425/715 727/426/716 728/427/717 729/428/718 
f 730/461/719 731/462/720 732/463/721 733/464/722 
f 704/455/693 706/333/695 495/336/484 498/456/487 
f 720/455/709 488/223/477 491/226/480 721/333/710 
f 563/298/552 723/299/712 734/300/723 674/301/663 
f 698/465/687 735/466/724 598/457/587 557/460/546 
f 736/237/725 691/236/680 737/235/726 738/234/727 
f 598/445/587 735/299/724 709/298/698 715/225/704 
f 675/439/664 703/452/692 705/334/694 564/304/553 
f 700/223/689 699/224/688 697/225/686 661/226/650 
f 739/454/728 722/445/711 562/225/551 664/224/653 
f 593/334/582 628/452/617 631/453/620 594/335/583 
f 665/223/654 565/226/554 706/333/695 704/455/693 
f 584/454/573 583/445/572 490/225/479 489/224/478 
f 721/333/710 716/334/705 684/335/673 683/336/672 
f 688/441/677 687/440/676 500/467/489 499/468/488 
f 630/456/619 629/455/618 592/333/581 595/336/584 
f 708/304/697 707/439/696 628/452/617 593/334/582 
f 709/298/698 735/299/724 712/300/701 710/301/699 
f 711/387/700 714/388/703 655/389/644 654/390/643 
f 628/387/617 707/449/696 719/448/708 629/388/618 
f 717/387/706 720/388/709 686/389/675 685/390/674 
f 717/387/706 678/449/667 488/448/477 720/388/709 
f 739/368/728 664/369/653 674/370/663 734/367/723 
f 447/451/436 440/450/429 439/197/428 450/196/439 
f 599/460/588 712/465/701 702/466/691 558/457/547 
f 700/223/689 661/226/650 660/333/649 714/455/703 
f 475/208/464 474/207/463 472/205/461 471/204/460 
f 723/469/712 722/470/711 735/466/724 698/465/687 
f 721/333/710 491/226/480 677/304/666 716/334/705 
f 740/471/729 741/472/730 742/473/731 743/474/732 
f 744/475/733 730/461/719 733/464/722 745/476/734 
f 743/474/732 742/473/731 746/477/735 747/478/736 
f 712/324/701 735/323/724 722/322/711 739/325/728 
f 739/469/728 734/470/723 702/466/691 712/465/701 
f 744/475/733 745/476/734 747/478/736 746/477/735 
f 713/369/702 719/448/708 707/449/696 710/370/699 
f 734/325/723 723/322/712 698/323/687 702/324/691 
f 560/302/549 474/207/463 477/210/466 748/479/737 
f 560/302/549 748/479/737 749/480/738 561/303/550 
f 470/203/459 476/209/465 475/208/464 471/204/460 
f 472/205/461 561/303/550 749/480/738 473/206/462 
f 592/333/581 718/226/707 708/304/697 593/334/582 
f 750/429/739 751/430/740 752/431/741 753/432/742 
f 499/468/488 754/481/743 755/482/744 688/441/677 
f 756/483/745 727/426/716 726/425/715 460/484/449 
f 500/443/489 687/191/676 757/190/746 758/444/747 
f 759/317/748 760/320/749 756/434/745 761/433/750 
f 727/426/716 762/435/751 763/438/752 728/427/717 
f 764/425/753 765/426/754 766/427/755 767/428/756 
f 768/485/757 725/438/714 682/437/671 681/486/670 
f 769/487/758 696/427/685 725/438/714 768/485/757 
f 689/428/678 696/427/685 769/487/758 690/442/679 
f 757/488/746 770/484/759 694/425/683 755/482/744 
f 758/489/747 757/488/746 755/482/744 754/481/743 
f 771/191/760 772/188/761 773/189/762 774/190/763 
f 775/443/764 771/191/760 774/190/763 737/444/726 
f 776/490/765 680/491/669 679/436/668 724/435/713 
f 738/457/727 499/460/488 502/459/491 736/458/725 
f 777/483/766 695/426/684 694/425/683 770/484/759 
f 773/484/762 764/425/753 778/482/767 774/488/763 
f 737/489/726 774/488/763 778/482/767 738/481/727 
f 779/438/768 753/437/742 752/486/741 780/485/769 
f 765/426/754 781/483/770 581/490/570 670/435/659 
f 729/428/718 728/427/717 761/487/750 459/442/448 
f 668/484/657 648/425/637 782/482/771 693/488/682 
f 759/485/748 763/438/752 659/437/648 658/486/647 
f 769/433/758 777/434/766 770/189/759 690/188/679 
f 760/320/749 759/317/748 658/318/647 657/319/646 
f 459/188/448 761/433/750 756/434/745 460/189/449 
f 687/191/676 690/188/679 770/189/759 757/190/746 
f 751/491/740 750/436/739 783/435/772 784/490/773 
f 650/427/639 779/438/768 780/485/769 666/487/655 
f 667/483/656 649/426/638 648/425/637 668/484/657 
f 462/440/451 785/441/774 729/428/718 459/442/448 
f 786/441/775 692/440/681 691/467/680 736/468/725 
f 725/438/714 724/435/713 679/436/668 682/437/671 
f 787/481/776 788/482/777 785/441/774 789/468/778 
f 762/435/751 656/436/645 659/437/648 763/438/752 
f 648/425/637 651/428/640 786/441/775 782/482/771 
f 502/481/491 782/482/771 786/441/775 736/468/725 
f 769/433/758 768/317/757 776/320/765 777/434/766 
f 760/490/749 657/491/646 656/436/645 762/435/751 
f 784/490/773 783/435/772 649/426/638 667/483/656 
f 786/441/775 651/428/640 669/442/658 692/440/681 
f 785/441/774 462/440/451 790/467/779 789/468/778 
f 754/465/743 499/460/488 738/457/727 791/466/780 
f 788/482/777 726/425/715 729/428/718 785/441/774 
f 738/481/727 778/482/767 792/441/781 791/468/780 
f 761/487/750 728/427/717 763/438/752 759/485/748 
f 651/428/640 650/427/639 666/487/655 669/442/658 
f 792/441/781 767/428/756 772/442/761 771/440/760 
f 793/489/782 461/488/450 788/482/777 787/481/776 
f 673/438/662 672/437/661 579/486/568 578/485/567 
f 756/483/745 760/490/749 762/435/751 727/426/716 
f 781/483/770 765/426/754 764/425/753 773/484/762 
f 461/488/450 460/484/449 726/425/715 788/482/777 
f 501/489/490 693/488/682 782/482/771 502/481/491 
f 783/435/772 750/436/739 753/437/742 779/438/768 
f 764/425/753 767/428/756 792/441/781 778/482/767 
f 580/491/569 671/436/660 670/435/659 581/490/570 
f 766/427/755 673/438/662 578/485/567 794/487/783 
f 767/428/756 766/427/755 794/487/783 772/442/761 
f 792/441/781 771/440/760 775/467/764 791/468/780 
f 768/317/757 681/318/670 680/319/669 776/320/765 
f 578/317/567 581/320/570 781/434/770 794/433/783 
f 669/188/658 668/189/657 693/190/682 692/191/681 
f 780/317/769 752/318/741 751/319/740 784/320/773 
f 780/317/769 784/320/773 667/434/656 666/433/655 
f 694/425/683 689/428/678 688/441/677 755/482/744 
f 793/444/782 790/443/779 462/191/451 461/190/450 
f 777/483/766 776/490/765 724/435/713 695/426/684 
f 772/188/761 794/433/783 781/434/770 773/189/762 
f 789/469/778 754/465/743 791/466/780 787/470/776 
f 783/435/772 779/438/768 650/427/639 649/426/638 
f 775/236/764 793/235/782 787/234/776 791/237/780 
f 758/466/747 790/470/779 793/469/782 775/465/764 
f 500/457/489 758/466/747 775/465/764 737/460/726 
f 501/458/490 500/457/489 737/460/726 691/459/680 
f 790/235/779 758/236/747 754/237/743 789/234/778 
f 670/435/659 673/438/662 766/427/755 765/426/754 
f 599/460/588 558/457/547 584/458/573 600/459/589 
f 731/462/720 741/492/730 740/493/729 732/463/721 
f 35/2/784 27/16/784 26/20/784 40/14/784 
f 627/386/616 493/228/482 522/259/511 625/384/614 
f 520/255/509 567/306/556 531/269/520 609/358/598 
# 738 polygons - 12 triangles

